<?xml version="1.0" encoding="utf-8" standalone="no"?>
<!DOCTYPE svg PUBLIC "-//W3C//DTD SVG 1.1//EN"
  "http://www.w3.org/Graphics/SVG/1.1/DTD/svg11.dtd">
<!-- Created with matplotlib (https://matplotlib.org/) -->
<svg height="344.16pt" version="1.1" viewBox="0 0 460.8 344.16" width="460.8pt" xmlns="http://www.w3.org/2000/svg" xmlns:xlink="http://www.w3.org/1999/xlink">
 <defs>
  <style type="text/css">
*{stroke-linecap:butt;stroke-linejoin:round;}
  </style>
 </defs>
 <g id="figure_1">
  <g id="patch_1">
   <path d="M 0 344.16 
L 460.8 344.16 
L 460.8 0 
L 0 0 
z
" style="fill:#ffffff;"/>
  </g>
  <g id="axes_1">
   <g id="PathCollection_1">
    <defs>
     <path d="M 0 1.153164 
C 0.305823 1.153164 0.599161 1.031659 0.81541 0.81541 
C 1.031659 0.599161 1.153164 0.305823 1.153164 0 
C 1.153164 -0.305823 1.031659 -0.599161 0.81541 -0.81541 
C 0.599161 -1.031659 0.305823 -1.153164 0 -1.153164 
C -0.305823 -1.153164 -0.599161 -1.031659 -0.81541 -0.81541 
C -1.031659 -0.599161 -1.153164 -0.305823 -1.153164 0 
C -1.153164 0.305823 -1.031659 0.599161 -0.81541 0.81541 
C -0.599161 1.031659 -0.305823 1.153164 0 1.153164 
z
" id="m4b55fd0ca3" style="stroke:#000000;"/>
    </defs>
    <g clip-path="url(#p9d0483bf47)">
     <use style="stroke:#000000;" x="235.716206" xlink:href="#m4b55fd0ca3" y="177.956814"/>
     <use style="stroke:#000000;" x="221.822021" xlink:href="#m4b55fd0ca3" y="191.844635"/>
     <use style="stroke:#000000;" x="215.023078" xlink:href="#m4b55fd0ca3" y="166.025178"/>
     <use style="stroke:#000000;" x="261.426711" xlink:href="#m4b55fd0ca3" y="159.851739"/>
     <use style="stroke:#000000;" x="250.090832" xlink:href="#m4b55fd0ca3" y="192.313443"/>
     <use style="stroke:#000000;" x="232.221236" xlink:href="#m4b55fd0ca3" y="161.725439"/>
     <use style="stroke:#000000;" x="219.646967" xlink:href="#m4b55fd0ca3" y="178.706585"/>
     <use style="stroke:#000000;" x="236.683829" xlink:href="#m4b55fd0ca3" y="188.509164"/>
     <use style="stroke:#000000;" x="261.911633" xlink:href="#m4b55fd0ca3" y="179.774587"/>
     <use style="stroke:#000000;" x="247.600195" xlink:href="#m4b55fd0ca3" y="168.996002"/>
    </g>
   </g>
   <g id="patch_2">
    <path clip-path="url(#p9d0483bf47)" d="M 248.821169 178.807077 
L 248.422048 182.034561 
L 247.306161 182.661518 
L 228.123681 183.648559 
L 227.045159 170.677676 
L 236.381619 169.549584 
z
" style="fill:#718eff;opacity:0.8;stroke:#000000;stroke-linejoin:miter;"/>
   </g>
   <g id="patch_3">
    <path clip-path="url(#p9d0483bf47)" d="M 233.215025 200.08325 
L 221.584239 199.890366 
L 220.548272 199.835574 
L 219.524207 199.706105 
L 218.521616 199.503171 
L 217.549868 199.228667 
L 216.618042 198.885159 
L 215.734849 198.475857 
L 214.90854 198.004585 
L 214.146838 197.475749 
L 213.456862 196.89429 
L 212.845058 196.265641 
L 212.317144 195.595678 
L 211.878054 194.890661 
L 211.531891 194.157178 
L 211.28189 193.402085 
L 209.418789 186.326832 
L 227.057684 184.688189 
z
" style="fill:#7887ff;opacity:0.8;stroke:#000000;stroke-linejoin:miter;"/>
   </g>
   <g id="patch_4">
    <path clip-path="url(#p9d0483bf47)" d="M 206.33515 174.616497 
L 204.482947 167.582628 
L 204.331949 166.816817 
L 204.279873 166.043682 
L 204.327202 165.270376 
L 204.473497 164.504054 
L 204.717405 163.751806 
L 205.056668 163.020593 
L 205.488149 162.317181 
L 206.007854 161.648078 
L 206.610974 161.019476 
L 207.29193 160.43719 
L 208.04442 159.906608 
L 208.861482 159.43264 
L 209.735555 159.019671 
L 210.658553 158.671522 
L 211.621935 158.391415 
L 220.221013 156.241545 
L 226.56376 170.477646 
z
" style="fill:#7689ff;opacity:0.8;stroke:#000000;stroke-linejoin:miter;"/>
   </g>
   <g id="patch_5">
    <path clip-path="url(#p9d0483bf47)" d="M 245.907232 152.77024 
L 260.50997 151.83339 
L 261.543994 151.804516 
L 262.576931 151.850294 
L 263.599197 151.970299 
L 264.601309 152.163418 
L 265.573972 152.42786 
L 266.508162 152.761171 
L 267.395212 153.160259 
L 268.226895 153.621422 
L 268.995494 154.140382 
L 269.693879 154.712325 
L 270.315572 155.331944 
L 270.854806 155.993493 
L 271.306578 156.690833 
L 271.666697 157.417497 
L 271.931823 158.166742 
L 272.099495 158.931618 
L 272.168159 159.70503 
L 272.41062 169.666454 
L 260.877947 169.82397 
L 246.458185 157.589196 
z
" style="fill:#6e91ff;opacity:0.8;stroke:#000000;stroke-linejoin:miter;"/>
   </g>
   <g id="patch_6">
    <path clip-path="url(#p9d0483bf47)" d="M 264.776807 190.686371 
L 258.866407 196.955799 
L 258.219302 197.575537 
L 257.494502 198.144979 
L 256.698936 198.658681 
L 255.840207 199.111733 
L 254.926523 199.499804 
L 253.966618 199.819186 
L 252.969667 200.066825 
L 251.945199 200.240354 
L 250.903006 200.338116 
L 249.85305 200.359174 
L 238.452598 200.17011 
L 247.306161 182.661518 
L 248.422048 182.034561 
z
" style="fill:#7f80ff;opacity:0.8;stroke:#000000;stroke-linejoin:miter;"/>
   </g>
   <g id="patch_7">
    <path clip-path="url(#p9d0483bf47)" d="M 220.221013 156.241545 
L 228.820092 154.091676 
L 230.047086 153.844257 
L 231.304494 153.70709 
L 245.907232 152.77024 
L 246.458185 157.589196 
L 236.381619 169.549584 
L 227.045159 170.677676 
L 226.56376 170.477646 
z
" style="fill:#8f70ff;opacity:0.8;stroke:#000000;stroke-linejoin:miter;"/>
   </g>
   <g id="patch_8">
    <path clip-path="url(#p9d0483bf47)" d="M 209.418789 186.326832 
L 206.33515 174.616497 
L 226.56376 170.477646 
L 227.045159 170.677676 
L 228.123681 183.648559 
L 227.057684 184.688189 
z
" style="fill:#7c83ff;opacity:0.8;stroke:#000000;stroke-linejoin:miter;"/>
   </g>
   <g id="patch_9">
    <path clip-path="url(#p9d0483bf47)" d="M 238.452598 200.17011 
L 233.215025 200.08325 
L 227.057684 184.688189 
L 228.123681 183.648559 
L 247.306161 182.661518 
z
" style="fill:#857aff;opacity:0.8;stroke:#000000;stroke-linejoin:miter;"/>
   </g>
   <g id="patch_10">
    <path clip-path="url(#p9d0483bf47)" d="M 270.687208 184.416943 
L 264.776807 190.686371 
L 248.422048 182.034561 
L 248.821169 178.807077 
L 260.877947 169.82397 
L 272.41062 169.666454 
L 272.653081 179.627878 
L 272.613966 180.476151 
L 272.455803 181.316619 
L 272.180352 182.139934 
L 271.790675 182.936939 
L 271.291108 183.698766 
z
" style="fill:#8976ff;opacity:0.8;stroke:#000000;stroke-linejoin:miter;"/>
   </g>
   <g id="patch_11">
    <path clip-path="url(#p9d0483bf47)" d="M 260.877947 169.82397 
L 248.821169 178.807077 
L 236.381619 169.549584 
L 246.458185 157.589196 
z
" style="fill:#7986ff;opacity:0.8;stroke:#000000;stroke-linejoin:miter;"/>
   </g>
  </g>
 </g>
 <defs>
  <clipPath id="p9d0483bf47">
   <rect height="265.0032" width="357.12" x="57.6" y="41.2992"/>
  </clipPath>
 </defs>
</svg>
