<?xml version="1.0" encoding="utf-8" standalone="no"?>
<!DOCTYPE svg PUBLIC "-//W3C//DTD SVG 1.1//EN"
  "http://www.w3.org/Graphics/SVG/1.1/DTD/svg11.dtd">
<!-- Created with matplotlib (https://matplotlib.org/) -->
<svg height="344.16pt" version="1.1" viewBox="0 0 460.8 344.16" width="460.8pt" xmlns="http://www.w3.org/2000/svg" xmlns:xlink="http://www.w3.org/1999/xlink">
 <defs>
  <style type="text/css">
*{stroke-linecap:butt;stroke-linejoin:round;}
  </style>
 </defs>
 <g id="figure_1">
  <g id="patch_1">
   <path d="M 0 344.16 
L 460.8 344.16 
L 460.8 0 
L 0 0 
z
" style="fill:#ffffff;"/>
  </g>
  <g id="axes_1">
   <g id="PathCollection_1">
    <defs>
     <path d="M 0 1.093697 
C 0.290052 1.093697 0.568263 0.978458 0.77336 0.77336 
C 0.978458 0.568263 1.093697 0.290052 1.093697 0 
C 1.093697 -0.290052 0.978458 -0.568263 0.77336 -0.77336 
C 0.568263 -0.978458 0.290052 -1.093697 0 -1.093697 
C -0.290052 -1.093697 -0.568263 -0.978458 -0.77336 -0.77336 
C -0.978458 -0.568263 -1.093697 -0.290052 -1.093697 0 
C -1.093697 0.290052 -0.978458 0.568263 -0.77336 0.77336 
C -0.568263 0.978458 -0.290052 1.093697 0 1.093697 
z
" id="m0dab1affb9" style="stroke:#000000;"/>
    </defs>
    <g clip-path="url(#p75547b32cf)">
     <use style="stroke:#000000;" x="262.440634" xlink:href="#m0dab1affb9" y="218.103611"/>
     <use style="stroke:#000000;" x="149.48111" xlink:href="#m0dab1affb9" y="241.59145"/>
     <use style="stroke:#000000;" x="359.257084" xlink:href="#m0dab1affb9" y="152.015361"/>
     <use style="stroke:#000000;" x="356.792835" xlink:href="#m0dab1affb9" y="207.380967"/>
     <use style="stroke:#000000;" x="146.177282" xlink:href="#m0dab1affb9" y="134.248995"/>
     <use style="stroke:#000000;" x="215.055026" xlink:href="#m0dab1affb9" y="243.080667"/>
     <use style="stroke:#000000;" x="269.881624" xlink:href="#m0dab1affb9" y="95.59033"/>
     <use style="stroke:#000000;" x="103.180034" xlink:href="#m0dab1affb9" y="156.427023"/>
     <use style="stroke:#000000;" x="194.361671" xlink:href="#m0dab1affb9" y="104.391918"/>
     <use style="stroke:#000000;" x="193.880961" xlink:href="#m0dab1affb9" y="275.313969"/>
     <use style="stroke:#000000;" x="324.811506" xlink:href="#m0dab1affb9" y="159.122329"/>
     <use style="stroke:#000000;" x="228.98057" xlink:href="#m0dab1affb9" y="109.028212"/>
     <use style="stroke:#000000;" x="214.694428" xlink:href="#m0dab1affb9" y="161.463693"/>
     <use style="stroke:#000000;" x="286.85639" xlink:href="#m0dab1affb9" y="266.784288"/>
     <use style="stroke:#000000;" x="234.880426" xlink:href="#m0dab1affb9" y="206.129425"/>
     <use style="stroke:#000000;" x="122.547035" xlink:href="#m0dab1affb9" y="161.70995"/>
     <use style="stroke:#000000;" x="337.279439" xlink:href="#m0dab1affb9" y="238.923046"/>
     <use style="stroke:#000000;" x="229.410698" xlink:href="#m0dab1affb9" y="133.221411"/>
     <use style="stroke:#000000;" x="192.11087" xlink:href="#m0dab1affb9" y="129.94779"/>
     <use style="stroke:#000000;" x="148.642304" xlink:href="#m0dab1affb9" y="121.04346"/>
     <use style="stroke:#000000;" x="114.038407" xlink:href="#m0dab1affb9" y="229.334901"/>
     <use style="stroke:#000000;" x="294.596105" xlink:href="#m0dab1affb9" y="116.317244"/>
     <use style="stroke:#000000;" x="308.924735" xlink:href="#m0dab1affb9" y="90.782075"/>
     <use style="stroke:#000000;" x="326.640352" xlink:href="#m0dab1affb9" y="184.948663"/>
     <use style="stroke:#000000;" x="153.976851" xlink:href="#m0dab1affb9" y="159.958262"/>
     <use style="stroke:#000000;" x="183.172034" xlink:href="#m0dab1affb9" y="200.143945"/>
     <use style="stroke:#000000;" x="231.038092" xlink:href="#m0dab1affb9" y="182.205737"/>
     <use style="stroke:#000000;" x="210.705227" xlink:href="#m0dab1affb9" y="258.750467"/>
     <use style="stroke:#000000;" x="300.510286" xlink:href="#m0dab1affb9" y="184.486635"/>
     <use style="stroke:#000000;" x="237.332131" xlink:href="#m0dab1affb9" y="247.166417"/>
     <use style="stroke:#000000;" x="131.061078" xlink:href="#m0dab1affb9" y="221.350228"/>
     <use style="stroke:#000000;" x="293.310133" xlink:href="#m0dab1affb9" y="223.914657"/>
     <use style="stroke:#000000;" x="228.977894" xlink:href="#m0dab1affb9" y="153.166053"/>
     <use style="stroke:#000000;" x="327.519338" xlink:href="#m0dab1affb9" y="143.532846"/>
     <use style="stroke:#000000;" x="277.848681" xlink:href="#m0dab1affb9" y="161.125551"/>
     <use style="stroke:#000000;" x="114.735657" xlink:href="#m0dab1affb9" y="125.310849"/>
     <use style="stroke:#000000;" x="237.143525" xlink:href="#m0dab1affb9" y="97.483421"/>
     <use style="stroke:#000000;" x="353.678389" xlink:href="#m0dab1affb9" y="121.190828"/>
     <use style="stroke:#000000;" x="175.168175" xlink:href="#m0dab1affb9" y="134.445179"/>
     <use style="stroke:#000000;" x="167.67064" xlink:href="#m0dab1affb9" y="73.143781"/>
     <use style="stroke:#000000;" x="247.836376" xlink:href="#m0dab1affb9" y="110.307249"/>
     <use style="stroke:#000000;" x="167.909543" xlink:href="#m0dab1affb9" y="193.101083"/>
     <use style="stroke:#000000;" x="227.219416" xlink:href="#m0dab1affb9" y="85.648184"/>
     <use style="stroke:#000000;" x="194.400279" xlink:href="#m0dab1affb9" y="235.265284"/>
     <use style="stroke:#000000;" x="163.703908" xlink:href="#m0dab1affb9" y="233.423344"/>
     <use style="stroke:#000000;" x="198.392269" xlink:href="#m0dab1affb9" y="155.774211"/>
     <use style="stroke:#000000;" x="357.701968" xlink:href="#m0dab1affb9" y="170.913488"/>
     <use style="stroke:#000000;" x="130.572793" xlink:href="#m0dab1affb9" y="204.389817"/>
     <use style="stroke:#000000;" x="258.591057" xlink:href="#m0dab1affb9" y="182.622193"/>
     <use style="stroke:#000000;" x="156.781164" xlink:href="#m0dab1affb9" y="89.295157"/>
     <use style="stroke:#000000;" x="184.686587" xlink:href="#m0dab1affb9" y="187.059031"/>
     <use style="stroke:#000000;" x="272.879673" xlink:href="#m0dab1affb9" y="255.226633"/>
     <use style="stroke:#000000;" x="286.309072" xlink:href="#m0dab1affb9" y="187.220021"/>
     <use style="stroke:#000000;" x="228.44528" xlink:href="#m0dab1affb9" y="195.318852"/>
     <use style="stroke:#000000;" x="243.646632" xlink:href="#m0dab1affb9" y="224.199276"/>
     <use style="stroke:#000000;" x="101.979326" xlink:href="#m0dab1affb9" y="184.34699"/>
     <use style="stroke:#000000;" x="231.511913" xlink:href="#m0dab1affb9" y="167.59432"/>
     <use style="stroke:#000000;" x="290.391971" xlink:href="#m0dab1affb9" y="132.349256"/>
     <use style="stroke:#000000;" x="295.153028" xlink:href="#m0dab1affb9" y="144.841709"/>
     <use style="stroke:#000000;" x="150.203776" xlink:href="#m0dab1affb9" y="199.047935"/>
     <use style="stroke:#000000;" x="322.024417" xlink:href="#m0dab1affb9" y="212.200515"/>
     <use style="stroke:#000000;" x="245.510882" xlink:href="#m0dab1affb9" y="275.741719"/>
     <use style="stroke:#000000;" x="278.02287" xlink:href="#m0dab1affb9" y="119.930249"/>
     <use style="stroke:#000000;" x="197.988802" xlink:href="#m0dab1affb9" y="207.337796"/>
     <use style="stroke:#000000;" x="300.664067" xlink:href="#m0dab1affb9" y="210.407113"/>
     <use style="stroke:#000000;" x="273.754199" xlink:href="#m0dab1affb9" y="133.297549"/>
     <use style="stroke:#000000;" x="341.737455" xlink:href="#m0dab1affb9" y="155.455696"/>
     <use style="stroke:#000000;" x="210.890501" xlink:href="#m0dab1affb9" y="133.557214"/>
     <use style="stroke:#000000;" x="297.184376" xlink:href="#m0dab1affb9" y="236.997615"/>
     <use style="stroke:#000000;" x="249.194674" xlink:href="#m0dab1affb9" y="257.854709"/>
     <use style="stroke:#000000;" x="355.319017" xlink:href="#m0dab1affb9" y="192.479945"/>
     <use style="stroke:#000000;" x="152.980222" xlink:href="#m0dab1affb9" y="185.194839"/>
     <use style="stroke:#000000;" x="281.66745" xlink:href="#m0dab1affb9" y="214.297038"/>
     <use style="stroke:#000000;" x="334.290133" xlink:href="#m0dab1affb9" y="94.862582"/>
     <use style="stroke:#000000;" x="287.158432" xlink:href="#m0dab1affb9" y="91.961985"/>
     <use style="stroke:#000000;" x="314.357934" xlink:href="#m0dab1affb9" y="114.211866"/>
     <use style="stroke:#000000;" x="237.162489" xlink:href="#m0dab1affb9" y="120.582248"/>
     <use style="stroke:#000000;" x="267.898924" xlink:href="#m0dab1affb9" y="193.522876"/>
     <use style="stroke:#000000;" x="183.534937" xlink:href="#m0dab1affb9" y="159.601203"/>
     <use style="stroke:#000000;" x="198.927002" xlink:href="#m0dab1affb9" y="247.775207"/>
     <use style="stroke:#000000;" x="166.269784" xlink:href="#m0dab1affb9" y="153.000233"/>
     <use style="stroke:#000000;" x="206.024834" xlink:href="#m0dab1affb9" y="95.244363"/>
     <use style="stroke:#000000;" x="269.074185" xlink:href="#m0dab1affb9" y="172.290539"/>
     <use style="stroke:#000000;" x="337.85341" xlink:href="#m0dab1affb9" y="128.133341"/>
     <use style="stroke:#000000;" x="146.668665" xlink:href="#m0dab1affb9" y="107.126279"/>
     <use style="stroke:#000000;" x="258.351048" xlink:href="#m0dab1affb9" y="246.142142"/>
     <use style="stroke:#000000;" x="215.348135" xlink:href="#m0dab1affb9" y="201.600752"/>
     <use style="stroke:#000000;" x="164.175947" xlink:href="#m0dab1affb9" y="220.356742"/>
     <use style="stroke:#000000;" x="209.039853" xlink:href="#m0dab1affb9" y="81.446579"/>
     <use style="stroke:#000000;" x="184.83691" xlink:href="#m0dab1affb9" y="173.314265"/>
     <use style="stroke:#000000;" x="176.458036" xlink:href="#m0dab1affb9" y="121.466716"/>
     <use style="stroke:#000000;" x="130.306068" xlink:href="#m0dab1affb9" y="148.364496"/>
     <use style="stroke:#000000;" x="244.184497" xlink:href="#m0dab1affb9" y="86.652283"/>
     <use style="stroke:#000000;" x="163.490932" xlink:href="#m0dab1affb9" y="266.46897"/>
     <use style="stroke:#000000;" x="278.284006" xlink:href="#m0dab1affb9" y="227.847245"/>
     <use style="stroke:#000000;" x="293.972771" xlink:href="#m0dab1affb9" y="157.461702"/>
     <use style="stroke:#000000;" x="259.777255" xlink:href="#m0dab1affb9" y="84.425013"/>
     <use style="stroke:#000000;" x="283.987955" xlink:href="#m0dab1affb9" y="175.21075"/>
     <use style="stroke:#000000;" x="114.797529" xlink:href="#m0dab1affb9" y="213.784667"/>
     <use style="stroke:#000000;" x="178.070706" xlink:href="#m0dab1affb9" y="96.167831"/>
     <use style="stroke:#000000;" x="205.469979" xlink:href="#m0dab1affb9" y="120.561436"/>
     <use style="stroke:#000000;" x="166.074526" xlink:href="#m0dab1affb9" y="247.044696"/>
     <use style="stroke:#000000;" x="119.378767" xlink:href="#m0dab1affb9" y="175.391479"/>
     <use style="stroke:#000000;" x="254.015666" xlink:href="#m0dab1affb9" y="202.732322"/>
     <use style="stroke:#000000;" x="215.786748" xlink:href="#m0dab1affb9" y="175.127632"/>
     <use style="stroke:#000000;" x="226.611431" xlink:href="#m0dab1affb9" y="223.290085"/>
     <use style="stroke:#000000;" x="221.277595" xlink:href="#m0dab1affb9" y="143.132957"/>
     <use style="stroke:#000000;" x="111.30162" xlink:href="#m0dab1affb9" y="197.704442"/>
     <use style="stroke:#000000;" x="136.651321" xlink:href="#m0dab1affb9" y="174.518685"/>
     <use style="stroke:#000000;" x="332.788041" xlink:href="#m0dab1affb9" y="197.280823"/>
     <use style="stroke:#000000;" x="244.409443" xlink:href="#m0dab1affb9" y="187.091603"/>
     <use style="stroke:#000000;" x="261.571076" xlink:href="#m0dab1affb9" y="232.833802"/>
     <use style="stroke:#000000;" x="261.967651" xlink:href="#m0dab1affb9" y="151.27147"/>
     <use style="stroke:#000000;" x="247.92067" xlink:href="#m0dab1affb9" y="173.631733"/>
     <use style="stroke:#000000;" x="259.474535" xlink:href="#m0dab1affb9" y="122.391474"/>
     <use style="stroke:#000000;" x="211.155981" xlink:href="#m0dab1affb9" y="229.095378"/>
     <use style="stroke:#000000;" x="112.07181" xlink:href="#m0dab1affb9" y="141.8289"/>
     <use style="stroke:#000000;" x="242.383957" xlink:href="#m0dab1affb9" y="144.260733"/>
     <use style="stroke:#000000;" x="147.818109" xlink:href="#m0dab1affb9" y="213.313487"/>
     <use style="stroke:#000000;" x="214.997718" xlink:href="#m0dab1affb9" y="274.246691"/>
     <use style="stroke:#000000;" x="310.620829" xlink:href="#m0dab1affb9" y="151.892671"/>
     <use style="stroke:#000000;" x="315.887628" xlink:href="#m0dab1affb9" y="197.661661"/>
     <use style="stroke:#000000;" x="282.507319" xlink:href="#m0dab1affb9" y="200.481239"/>
     <use style="stroke:#000000;" x="314.946325" xlink:href="#m0dab1affb9" y="244.828715"/>
     <use style="stroke:#000000;" x="338.615917" xlink:href="#m0dab1affb9" y="170.655021"/>
     <use style="stroke:#000000;" x="321.76436" xlink:href="#m0dab1affb9" y="229.283468"/>
     <use style="stroke:#000000;" x="264.97529" xlink:href="#m0dab1affb9" y="270.041966"/>
     <use style="stroke:#000000;" x="200.549568" xlink:href="#m0dab1affb9" y="181.027929"/>
     <use style="stroke:#000000;" x="340.247459" xlink:href="#m0dab1affb9" y="220.006779"/>
     <use style="stroke:#000000;" x="231.402792" xlink:href="#m0dab1affb9" y="264.597529"/>
     <use style="stroke:#000000;" x="165.685711" xlink:href="#m0dab1affb9" y="206.882223"/>
     <use style="stroke:#000000;" x="282.256154" xlink:href="#m0dab1affb9" y="105.921165"/>
     <use style="stroke:#000000;" x="212.623721" xlink:href="#m0dab1affb9" y="214.788982"/>
     <use style="stroke:#000000;" x="347.948313" xlink:href="#m0dab1affb9" y="140.324523"/>
     <use style="stroke:#000000;" x="258.588719" xlink:href="#m0dab1affb9" y="138.045733"/>
     <use style="stroke:#000000;" x="245.359981" xlink:href="#m0dab1affb9" y="158.317808"/>
     <use style="stroke:#000000;" x="191.383479" xlink:href="#m0dab1affb9" y="87.274456"/>
     <use style="stroke:#000000;" x="197.652387" xlink:href="#m0dab1affb9" y="143.153051"/>
     <use style="stroke:#000000;" x="211.527379" xlink:href="#m0dab1affb9" y="108.620253"/>
     <use style="stroke:#000000;" x="296.040554" xlink:href="#m0dab1affb9" y="78.841147"/>
     <use style="stroke:#000000;" x="169.060844" xlink:href="#m0dab1affb9" y="166.082152"/>
     <use style="stroke:#000000;" x="136.427073" xlink:href="#m0dab1affb9" y="189.790447"/>
     <use style="stroke:#000000;" x="181.095626" xlink:href="#m0dab1affb9" y="146.549751"/>
     <use style="stroke:#000000;" x="298.965064" xlink:href="#m0dab1affb9" y="196.634272"/>
     <use style="stroke:#000000;" x="195.7804" xlink:href="#m0dab1affb9" y="221.109112"/>
     <use style="stroke:#000000;" x="191.467546" xlink:href="#m0dab1affb9" y="260.917838"/>
     <use style="stroke:#000000;" x="169.400984" xlink:href="#m0dab1affb9" y="179.63768"/>
     <use style="stroke:#000000;" x="320.865882" xlink:href="#m0dab1affb9" y="128.952611"/>
     <use style="stroke:#000000;" x="279.000814" xlink:href="#m0dab1affb9" y="146.469159"/>
     <use style="stroke:#000000;" x="181.103544" xlink:href="#m0dab1affb9" y="213.313153"/>
     <use style="stroke:#000000;" x="154.103394" xlink:href="#m0dab1affb9" y="172.078736"/>
     <use style="stroke:#000000;" x="132.401415" xlink:href="#m0dab1affb9" y="119.224144"/>
     <use style="stroke:#000000;" x="278.483876" xlink:href="#m0dab1affb9" y="241.236791"/>
     <use style="stroke:#000000;" x="151.474927" xlink:href="#m0dab1affb9" y="255.761793"/>
     <use style="stroke:#000000;" x="222.542584" xlink:href="#m0dab1affb9" y="71.893103"/>
     <use style="stroke:#000000;" x="215.170968" xlink:href="#m0dab1affb9" y="188.428514"/>
     <use style="stroke:#000000;" x="132.025775" xlink:href="#m0dab1affb9" y="237.099253"/>
     <use style="stroke:#000000;" x="199.872938" xlink:href="#m0dab1affb9" y="194.334725"/>
     <use style="stroke:#000000;" x="129.432116" xlink:href="#m0dab1affb9" y="134.48292"/>
     <use style="stroke:#000000;" x="295.16559" xlink:href="#m0dab1affb9" y="252.465909"/>
     <use style="stroke:#000000;" x="161.014864" xlink:href="#m0dab1affb9" y="141.11033"/>
     <use style="stroke:#000000;" x="148.125329" xlink:href="#m0dab1affb9" y="227.648431"/>
     <use style="stroke:#000000;" x="179.552286" xlink:href="#m0dab1affb9" y="226.194763"/>
     <use style="stroke:#000000;" x="321.434462" xlink:href="#m0dab1affb9" y="171.401053"/>
     <use style="stroke:#000000;" x="300.346682" xlink:href="#m0dab1affb9" y="103.107594"/>
     <use style="stroke:#000000;" x="147.237662" xlink:href="#m0dab1affb9" y="148.459435"/>
     <use style="stroke:#000000;" x="307.207597" xlink:href="#m0dab1affb9" y="165.526881"/>
     <use style="stroke:#000000;" x="253.956918" xlink:href="#m0dab1affb9" y="97.516703"/>
     <use style="stroke:#000000;" x="245.830165" xlink:href="#m0dab1affb9" y="130.446506"/>
     <use style="stroke:#000000;" x="220.927633" xlink:href="#m0dab1affb9" y="121.332391"/>
     <use style="stroke:#000000;" x="199.876319" xlink:href="#m0dab1affb9" y="168.051346"/>
     <use style="stroke:#000000;" x="178.561956" xlink:href="#m0dab1affb9" y="108.594955"/>
     <use style="stroke:#000000;" x="97.660011" xlink:href="#m0dab1affb9" y="208.568088"/>
     <use style="stroke:#000000;" x="304.237849" xlink:href="#m0dab1affb9" y="126.34918"/>
     <use style="stroke:#000000;" x="162.629636" xlink:href="#m0dab1affb9" y="115.121976"/>
     <use style="stroke:#000000;" x="334.298883" xlink:href="#m0dab1affb9" y="112.984495"/>
     <use style="stroke:#000000;" x="265.314789" xlink:href="#m0dab1affb9" y="108.942041"/>
     <use style="stroke:#000000;" x="229.591509" xlink:href="#m0dab1affb9" y="235.422187"/>
     <use style="stroke:#000000;" x="267.336294" xlink:href="#m0dab1affb9" y="205.664193"/>
     <use style="stroke:#000000;" x="309.188473" xlink:href="#m0dab1affb9" y="138.566383"/>
     <use style="stroke:#000000;" x="191.222669" xlink:href="#m0dab1affb9" y="116.176428"/>
     <use style="stroke:#000000;" x="104.715035" xlink:href="#m0dab1affb9" y="171.108058"/>
     <use style="stroke:#000000;" x="372.367703" xlink:href="#m0dab1affb9" y="160.983492"/>
     <use style="stroke:#000000;" x="245.418135" xlink:href="#m0dab1affb9" y="238.101305"/>
     <use style="stroke:#000000;" x="259.635702" xlink:href="#m0dab1affb9" y="164.042645"/>
     <use style="stroke:#000000;" x="163.658263" xlink:href="#m0dab1affb9" y="102.813492"/>
     <use style="stroke:#000000;" x="272.822973" xlink:href="#m0dab1affb9" y="182.77271"/>
     <use style="stroke:#000000;" x="178.157276" xlink:href="#m0dab1affb9" y="238.25236"/>
     <use style="stroke:#000000;" x="183.626007" xlink:href="#m0dab1affb9" y="248.778958"/>
     <use style="stroke:#000000;" x="275.579179" xlink:href="#m0dab1affb9" y="80.423718"/>
     <use style="stroke:#000000;" x="161.360482" xlink:href="#m0dab1affb9" y="127.905997"/>
     <use style="stroke:#000000;" x="121.132041" xlink:href="#m0dab1affb9" y="186.498483"/>
     <use style="stroke:#000000;" x="241.660332" xlink:href="#m0dab1affb9" y="197.831207"/>
     <use style="stroke:#000000;" x="240.251141" xlink:href="#m0dab1affb9" y="75.084224"/>
     <use style="stroke:#000000;" x="307.800127" xlink:href="#m0dab1affb9" y="222.598548"/>
     <use style="stroke:#000000;" x="320.317264" xlink:href="#m0dab1affb9" y="101.168942"/>
     <use style="stroke:#000000;" x="221.571268" xlink:href="#m0dab1affb9" y="96.863041"/>
     <use style="stroke:#000000;" x="246.858783" xlink:href="#m0dab1affb9" y="211.567127"/>
     <use style="stroke:#000000;" x="210.98976" xlink:href="#m0dab1affb9" y="149.102111"/>
     <use style="stroke:#000000;" x="139.928143" xlink:href="#m0dab1affb9" y="160.38074"/>
     <use style="stroke:#000000;" x="175.257447" xlink:href="#m0dab1affb9" y="83.73703"/>
     <use style="stroke:#000000;" x="174.098066" xlink:href="#m0dab1affb9" y="258.082978"/>
     <use style="stroke:#000000;" x="345.073594" xlink:href="#m0dab1affb9" y="183.65425"/>
     <use style="stroke:#000000;" x="309.439801" xlink:href="#m0dab1affb9" y="177.934455"/>
     <use style="stroke:#000000;" x="254.111676" xlink:href="#m0dab1affb9" y="192.779927"/>
     <use style="stroke:#000000;" x="226.03443" xlink:href="#m0dab1affb9" y="252.457293"/>
     <use style="stroke:#000000;" x="339.936602" xlink:href="#m0dab1affb9" y="205.442997"/>
     <use style="stroke:#000000;" x="294.123217" xlink:href="#m0dab1affb9" y="170.034264"/>
     <use style="stroke:#000000;" x="227.248107" xlink:href="#m0dab1affb9" y="212.599989"/>
    </g>
   </g>
   <g id="patch_2">
    <path clip-path="url(#p75547b32cf)" d="M 258.463715 210.339085 
L 271.142599 213.387695 
L 273.302897 220.054176 
L 267.647721 225.672187 
L 255.205352 225.223439 
L 251.852959 218.908591 
L 257.519946 210.655119 
z
" style="fill:#ff00ff;opacity:0.8;stroke:#000000;stroke-linejoin:miter;"/>
   </g>
   <g id="patch_3">
    <path clip-path="url(#p75547b32cf)" d="M 155.673557 248.229994 
L 136.309776 249.894575 
L 142.588413 234.989148 
L 153.609889 234.334388 
L 159.676529 240.788279 
z
" style="fill:#fe01ff;opacity:0.8;stroke:#000000;stroke-linejoin:miter;"/>
   </g>
   <g id="patch_4">
    <path clip-path="url(#p75547b32cf)" d="M 371.085805 135.837615 
L 376.363783 147.07531 
L 360.158969 161.548859 
L 352.891149 161.183468 
L 348.949471 148.91995 
z
" style="fill:#fe01ff;opacity:0.8;stroke:#000000;stroke-linejoin:miter;"/>
   </g>
   <g id="patch_5">
    <path clip-path="url(#p75547b32cf)" d="M 369.790349 199.100514 
L 366.352599 209.341558 
L 366.065063 210.05532 
L 365.690525 210.743988 
L 358.782588 221.9102 
L 347.194175 212.632272 
L 349.509985 200.326013 
z
" style="fill:#00ffff;opacity:0.8;stroke:#000000;stroke-linejoin:miter;"/>
   </g>
   <g id="patch_6">
    <path clip-path="url(#p75547b32cf)" d="M 156.058647 134.426143 
L 150.961617 141.160271 
L 138.833345 141.713192 
L 137.958961 141.112536 
L 137.651232 127.65419 
L 139.313724 126.722915 
L 151.762018 128.142575 
z
" style="fill:#00ffff;opacity:0.8;stroke:#000000;stroke-linejoin:miter;"/>
   </g>
   <g id="patch_7">
    <path clip-path="url(#p75547b32cf)" d="M 218.764205 235.124164 
L 226.187301 243.732349 
L 215.520377 251.363343 
L 209.317652 250.311386 
L 204.322566 239.827051 
L 205.875552 237.319516 
z
" style="fill:#00ffff;opacity:0.8;stroke:#000000;stroke-linejoin:miter;"/>
   </g>
   <g id="patch_8">
    <path clip-path="url(#p75547b32cf)" d="M 262.854071 101.274794 
L 261.038245 92.103829 
L 269.704125 87.31245 
L 276.862957 88.955504 
L 279.944324 97.919635 
L 272.581847 103.307627 
z
" style="fill:#fe01ff;opacity:0.8;stroke:#000000;stroke-linejoin:miter;"/>
   </g>
   <g id="patch_9">
    <path clip-path="url(#p75547b32cf)" d="M 93.688474 154.273475 
L 97.059628 145.195867 
L 115.923185 152.215668 
L 110.965662 163.319226 
L 92.407738 164.504697 
L 93.330343 155.789944 
L 93.460877 155.024707 
z
" style="fill:#00ffff;opacity:0.8;stroke:#000000;stroke-linejoin:miter;"/>
   </g>
   <g id="patch_10">
    <path clip-path="url(#p75547b32cf)" d="M 187.755465 109.464508 
L 184.605232 102.229508 
L 189.603281 96.180705 
L 194.812822 95.626944 
L 204.338948 103.047515 
L 200.889962 111.601994 
z
" style="fill:#00ffff;opacity:0.8;stroke:#000000;stroke-linejoin:miter;"/>
   </g>
   <g id="patch_11">
    <path clip-path="url(#p75547b32cf)" d="M 205.130304 283.132796 
L 193.776209 283.038728 
L 192.923163 283.002801 
L 192.077272 282.909428 
L 191.244858 282.759307 
L 190.432138 282.553559 
L 175.237124 278.13106 
L 179.024266 270.181288 
L 180.138288 269.39987 
L 202.42933 267.116763 
L 203.87983 268.016906 
z
" style="fill:#ff00ff;opacity:0.8;stroke:#000000;stroke-linejoin:miter;"/>
   </g>
   <g id="patch_12">
    <path clip-path="url(#p75547b32cf)" d="M 317.162087 164.260067 
L 314.352269 159.541519 
L 321.605262 150.84366 
L 331.356034 151.878418 
L 335.09289 162.417474 
L 329.693844 166.365809 
z
" style="fill:#00ffff;opacity:0.8;stroke:#000000;stroke-linejoin:miter;"/>
   </g>
   <g id="patch_13">
    <path clip-path="url(#p75547b32cf)" d="M 220.085283 113.233441 
L 220.409604 104.75642 
L 229.073131 101.532655 
L 238.843096 105.753157 
L 238.078587 112.638954 
L 228.722102 116.686986 
z
" style="fill:#fe01ff;opacity:0.8;stroke:#000000;stroke-linejoin:miter;"/>
   </g>
   <g id="patch_14">
    <path clip-path="url(#p75547b32cf)" d="M 210.044599 168.549439 
L 204.905246 161.486584 
L 207.935874 156.181224 
L 218.856894 154.181601 
L 225.25946 160.915132 
L 221.024268 168.013182 
z
" style="fill:#ff00ff;opacity:0.8;stroke:#000000;stroke-linejoin:miter;"/>
   </g>
   <g id="patch_15">
    <path clip-path="url(#p75547b32cf)" d="M 306.802117 265.223812 
L 292.56151 273.092455 
L 291.845161 273.453114 
L 291.09173 273.764203 
L 290.306817 274.023411 
L 289.496258 274.22881 
L 277.94298 276.731807 
L 274.989113 264.610158 
L 284.743811 257.403082 
z
" style="fill:#00ffff;opacity:0.8;stroke:#000000;stroke-linejoin:miter;"/>
   </g>
   <g id="patch_16">
    <path clip-path="url(#p75547b32cf)" d="M 224.753177 204.816622 
L 225.448598 202.984139 
L 234.029547 199.863419 
L 243.888841 204.784884 
L 237.200259 213.786608 
z
" style="fill:#00ffff;opacity:0.8;stroke:#000000;stroke-linejoin:miter;"/>
   </g>
   <g id="patch_17">
    <path clip-path="url(#p75547b32cf)" d="M 130.67441 156.546101 
L 131.926447 166.548644 
L 127.562581 169.484442 
L 114.716168 167.666923 
L 110.965662 163.319226 
L 115.923185 152.215668 
L 117.266134 151.78336 
z
" style="fill:#00ffff;opacity:0.8;stroke:#000000;stroke-linejoin:miter;"/>
   </g>
   <g id="patch_18">
    <path clip-path="url(#p75547b32cf)" d="M 353.249794 230.853586 
L 346.177129 242.286068 
L 345.697927 242.970217 
L 345.132908 243.61311 
L 344.487832 244.208193 
L 343.769274 244.7494 
L 342.984559 245.231214 
L 330.54108 252.106855 
L 324.770833 238.775192 
L 334.640709 229.069703 
z
" style="fill:#fe01ff;opacity:0.8;stroke:#000000;stroke-linejoin:miter;"/>
   </g>
   <g id="patch_19">
    <path clip-path="url(#p75547b32cf)" d="M 238.928954 136.564404 
L 232.020775 141.524385 
L 220.2164 135.606485 
L 220.035612 129.51477 
L 229.384043 125.439511 
L 236.599505 128.143205 
z
" style="fill:#fe01ff;opacity:0.8;stroke:#000000;stroke-linejoin:miter;"/>
   </g>
   <g id="patch_20">
    <path clip-path="url(#p75547b32cf)" d="M 196.069463 122.888624 
L 202.523632 128.500792 
L 200.439601 135.125444 
L 187.244122 138.508557 
L 186.197681 138.084368 
L 181.959245 128.329139 
L 186.447912 123.267755 
z
" style="fill:#00ffff;opacity:0.8;stroke:#000000;stroke-linejoin:miter;"/>
   </g>
   <g id="patch_21">
    <path clip-path="url(#p75547b32cf)" d="M 157.838903 121.2619 
L 151.762018 128.142575 
L 139.313724 126.722915 
L 141.5337 114.61527 
L 152.570674 113.65901 
z
" style="fill:#ff00ff;opacity:0.8;stroke:#000000;stroke-linejoin:miter;"/>
   </g>
   <g id="patch_22">
    <path clip-path="url(#p75547b32cf)" d="M 116.761594 242.092196 
L 107.191343 234.905862 
L 106.615291 234.435228 
L 106.092008 233.928337 
L 105.625213 233.388793 
L 97.436015 223.005386 
L 101.251123 221.167079 
L 119.768021 221.719351 
L 125.698226 229.44349 
z
" style="fill:#fe01ff;opacity:0.8;stroke:#000000;stroke-linejoin:miter;"/>
   </g>
   <g id="patch_23">
    <path clip-path="url(#p75547b32cf)" d="M 293.919048 124.561556 
L 288.284527 123.658831 
L 284.75903 113.77856 
L 292.272666 108.329723 
L 303.802476 111.396287 
L 304.966978 118.074293 
z
" style="fill:#fe01ff;opacity:0.8;stroke:#000000;stroke-linejoin:miter;"/>
   </g>
   <g id="patch_24">
    <path clip-path="url(#p75547b32cf)" d="M 313.647462 77.451572 
L 324.461933 81.981382 
L 322.096123 90.966362 
L 309.85972 99.166085 
L 298.296898 94.249573 
L 297.737068 87.939976 
z
" style="fill:#00ffff;opacity:0.8;stroke:#000000;stroke-linejoin:miter;"/>
   </g>
   <g id="patch_25">
    <path clip-path="url(#p75547b32cf)" d="M 313.971689 187.536868 
L 319.511222 179.237469 
L 330.426513 176.67489 
L 335.265064 179.151617 
L 336.405827 189.076695 
L 324.165713 192.804627 
z
" style="fill:#00ffff;opacity:0.8;stroke:#000000;stroke-linejoin:miter;"/>
   </g>
   <g id="patch_26">
    <path clip-path="url(#p75547b32cf)" d="M 163.467039 160.088433 
L 159.549807 165.983354 
L 147.242529 166.061858 
L 146.727483 155.598066 
L 156.173441 152.215784 
z
" style="fill:#fd02ff;opacity:0.8;stroke:#000000;stroke-linejoin:miter;"/>
   </g>
   <g id="patch_27">
    <path clip-path="url(#p75547b32cf)" d="M 187.77615 207.269623 
L 176.090957 206.148277 
L 172.566539 200.560402 
L 178.132176 193.191532 
L 189.682984 194.00837 
L 193.285823 200.336521 
z
" style="fill:#00ffff;opacity:0.8;stroke:#000000;stroke-linejoin:miter;"/>
   </g>
   <g id="patch_28">
    <path clip-path="url(#p75547b32cf)" d="M 240.799195 179.506469 
L 234.891443 189.384397 
L 224.943994 188.182723 
L 220.931771 181.932308 
L 226.347819 174.80241 
L 237.065424 175.01475 
z
" style="fill:#fe01ff;opacity:0.8;stroke:#000000;stroke-linejoin:miter;"/>
   </g>
   <g id="patch_29">
    <path clip-path="url(#p75547b32cf)" d="M 202.42933 267.116763 
L 200.40762 256.153285 
L 209.317652 250.311386 
L 215.520377 251.363343 
L 221.622514 260.444508 
L 219.330147 265.402153 
L 203.87983 268.016906 
z
" style="fill:#00ffff;opacity:0.8;stroke:#000000;stroke-linejoin:miter;"/>
   </g>
   <g id="patch_30">
    <path clip-path="url(#p75547b32cf)" d="M 293.740076 178.226171 
L 299.517321 176.666284 
L 312.843599 187.762137 
L 308.017014 191.203888 
L 294.77101 190.174466 
L 291.704646 180.441213 
z
" style="fill:#fe01ff;opacity:0.8;stroke:#000000;stroke-linejoin:miter;"/>
   </g>
   <g id="patch_31">
    <path clip-path="url(#p75547b32cf)" d="M 236.598995 240.031021 
L 247.800196 246.13531 
L 248.049826 249.264998 
L 237.370881 256.506149 
L 236.709241 256.368646 
L 227.113769 243.850541 
z
" style="fill:#fe01ff;opacity:0.8;stroke:#000000;stroke-linejoin:miter;"/>
   </g>
   <g id="patch_32">
    <path clip-path="url(#p75547b32cf)" d="M 136.85868 229.025824 
L 125.698226 229.44349 
L 119.768021 221.719351 
L 126.447431 212.946879 
L 135.867291 212.781191 
L 141.973314 220.5595 
z
" style="fill:#00ffff;opacity:0.8;stroke:#000000;stroke-linejoin:miter;"/>
   </g>
   <g id="patch_33">
    <path clip-path="url(#p75547b32cf)" d="M 299.787373 218.092322 
L 301.4584 229.332405 
L 288.295711 231.713821 
L 284.0001 221.686075 
L 292.249307 215.584983 
z
" style="fill:#00ffff;opacity:0.8;stroke:#000000;stroke-linejoin:miter;"/>
   </g>
   <g id="patch_34">
    <path clip-path="url(#p75547b32cf)" d="M 218.856894 154.181601 
L 220.239975 150.441391 
L 231.711344 145.06244 
L 239.146208 151.900526 
L 235.046714 159.864945 
L 225.25946 160.915132 
z
" style="fill:#00ffff;opacity:0.8;stroke:#000000;stroke-linejoin:miter;"/>
   </g>
   <g id="patch_35">
    <path clip-path="url(#p75547b32cf)" d="M 329.843095 134.667374 
L 336.576965 137.428201 
L 338.881965 146.395245 
L 331.356034 151.878418 
L 321.605262 150.84366 
L 316.698113 144.783416 
L 319.962581 137.42206 
z
" style="fill:#fe01ff;opacity:0.8;stroke:#000000;stroke-linejoin:miter;"/>
   </g>
   <g id="patch_36">
    <path clip-path="url(#p75547b32cf)" d="M 284.528256 167.20684 
L 278.077787 168.924571 
L 269.299423 164.709671 
L 267.650846 158.421132 
L 272.629482 153.519026 
L 283.965509 154.063461 
L 287.584976 163.795233 
z
" style="fill:#ff00ff;opacity:0.8;stroke:#000000;stroke-linejoin:miter;"/>
   </g>
   <g id="patch_37">
    <path clip-path="url(#p75547b32cf)" d="M 101.801699 132.426748 
L 105.244097 123.1573 
L 105.555578 122.448854 
L 105.953382 121.76732 
L 106.433768 121.119107 
L 106.992218 120.510309 
L 117.010003 110.63785 
L 125.812606 126.2467 
L 117.88122 134.011033 
z
" style="fill:#ff00ff;opacity:0.8;stroke:#000000;stroke-linejoin:miter;"/>
   </g>
   <g id="patch_38">
    <path clip-path="url(#p75547b32cf)" d="M 229.073131 101.532655 
L 229.638078 92.868783 
L 235.33377 89.950879 
L 245.56152 94.012959 
L 245.534526 102.344333 
L 238.843096 105.753157 
z
" style="fill:#00ffff;opacity:0.8;stroke:#000000;stroke-linejoin:miter;"/>
   </g>
   <g id="patch_39">
    <path clip-path="url(#p75547b32cf)" d="M 352.750833 104.445644 
L 362.244107 117.337017 
L 362.632708 117.920923 
L 362.95631 118.528566 
L 370.381478 134.337985 
L 350.041527 130.616458 
L 342.190191 119.682441 
z
" style="fill:#00ffff;opacity:0.8;stroke:#000000;stroke-linejoin:miter;"/>
   </g>
   <g id="patch_40">
    <path clip-path="url(#p75547b32cf)" d="M 170.987215 127.662921 
L 181.959245 128.329139 
L 186.197681 138.084368 
L 171.676523 142.428766 
L 165.626024 134.57914 
z
" style="fill:#fe01ff;opacity:0.8;stroke:#000000;stroke-linejoin:miter;"/>
   </g>
   <g id="patch_41">
    <path clip-path="url(#p75547b32cf)" d="M 151.390425 76.756177 
L 159.927201 68.343242 
L 160.556958 67.780805 
L 161.253305 67.26857 
L 162.009723 66.811331 
L 162.819131 66.413369 
L 163.673953 66.078408 
L 164.566187 65.809584 
L 165.487482 65.609415 
L 166.429212 65.479772 
L 167.382562 65.42187 
L 192.443288 64.85067 
L 191.395146 68.041345 
L 188.539954 70.968635 
L 163.712931 81.831998 
z
" style="fill:#00ffff;opacity:0.8;stroke:#000000;stroke-linejoin:miter;"/>
   </g>
   <g id="patch_42">
    <path clip-path="url(#p75547b32cf)" d="M 257.170864 114.280883 
L 248.606042 119.320454 
L 238.078587 112.638954 
L 238.843096 105.753157 
L 245.534526 102.344333 
L 256.037383 105.414896 
z
" style="fill:#00ffff;opacity:0.8;stroke:#000000;stroke-linejoin:miter;"/>
   </g>
   <g id="patch_43">
    <path clip-path="url(#p75547b32cf)" d="M 172.566539 200.560402 
L 160.889906 199.409219 
L 157.265348 192.816078 
L 163.174872 185.998468 
L 174.337437 186.753952 
L 178.132176 193.191532 
z
" style="fill:#00ffff;opacity:0.8;stroke:#000000;stroke-linejoin:miter;"/>
   </g>
   <g id="patch_44">
    <path clip-path="url(#p75547b32cf)" d="M 229.638078 92.868783 
L 216.171001 88.725015 
L 219.514942 79.885333 
L 230.162536 77.673513 
L 236.090335 82.141155 
L 235.33377 89.950879 
z
" style="fill:#fe01ff;opacity:0.8;stroke:#000000;stroke-linejoin:miter;"/>
   </g>
   <g id="patch_45">
    <path clip-path="url(#p75547b32cf)" d="M 185.045365 232.661142 
L 189.832015 227.873993 
L 200.568089 228.513473 
L 205.875552 237.319516 
L 204.322566 239.827051 
L 190.692735 242.840262 
L 187.665444 241.365648 
z
" style="fill:#fd02ff;opacity:0.8;stroke:#000000;stroke-linejoin:miter;"/>
   </g>
   <g id="patch_46">
    <path clip-path="url(#p75547b32cf)" d="M 169.541206 227.01367 
L 173.128471 231.818798 
L 168.751039 239.823397 
L 159.676529 240.788279 
L 153.609889 234.334388 
L 158.203544 226.763435 
z
" style="fill:#00ffff;opacity:0.8;stroke:#000000;stroke-linejoin:miter;"/>
   </g>
   <g id="patch_47">
    <path clip-path="url(#p75547b32cf)" d="M 188.711148 152.34515 
L 191.007132 149.714885 
L 201.98923 149.321554 
L 207.935874 156.181224 
L 204.905246 161.486584 
L 192.937854 162.370397 
z
" style="fill:#00ffff;opacity:0.8;stroke:#000000;stroke-linejoin:miter;"/>
   </g>
   <g id="patch_48">
    <path clip-path="url(#p75547b32cf)" d="M 377.22621 176.949111 
L 375.208798 182.958975 
L 358.946477 181.861161 
L 348.059548 175.268403 
L 348.307645 164.075583 
L 352.891149 161.183468 
L 360.158969 161.548859 
z
" style="fill:#00ffff;opacity:0.8;stroke:#000000;stroke-linejoin:miter;"/>
   </g>
   <g id="patch_49">
    <path clip-path="url(#p75547b32cf)" d="M 142.059201 205.470439 
L 135.867291 212.781191 
L 126.447431 212.946879 
L 118.695767 204.994603 
L 123.730184 196.128324 
L 126.253539 195.314835 
L 138.917867 198.417474 
z
" style="fill:#ff00ff;opacity:0.8;stroke:#000000;stroke-linejoin:miter;"/>
   </g>
   <g id="patch_50">
    <path clip-path="url(#p75547b32cf)" d="M 258.629177 174.230683 
L 265.776878 178.661636 
L 265.635557 186.825418 
L 261.36684 189.052332 
L 252.421172 186.642184 
L 249.451633 180.885475 
z
" style="fill:#00ffff;opacity:0.8;stroke:#000000;stroke-linejoin:miter;"/>
   </g>
   <g id="patch_51">
    <path clip-path="url(#p75547b32cf)" d="M 135.37021 92.543991 
L 151.390425 76.756177 
L 163.712931 81.831998 
L 168.281964 91.111404 
L 166.741201 94.027396 
L 152.461044 98.465779 
z
" style="fill:#fe01ff;opacity:0.8;stroke:#000000;stroke-linejoin:miter;"/>
   </g>
   <g id="patch_52">
    <path clip-path="url(#p75547b32cf)" d="M 178.132176 193.191532 
L 174.337437 186.753952 
L 179.583816 180.15205 
L 190.24074 180.223258 
L 194.776861 187.512502 
L 189.682984 194.00837 
z
" style="fill:#fe01ff;opacity:0.8;stroke:#000000;stroke-linejoin:miter;"/>
   </g>
   <g id="patch_53">
    <path clip-path="url(#p75547b32cf)" d="M 269.639126 246.752814 
L 283.260301 250.086506 
L 284.743811 257.403082 
L 274.989113 264.610158 
L 261.717017 260.283966 
L 260.823854 255.366111 
z
" style="fill:#00ffff;opacity:0.8;stroke:#000000;stroke-linejoin:miter;"/>
   </g>
   <g id="patch_54">
    <path clip-path="url(#p75547b32cf)" d="M 291.704646 180.441213 
L 294.77101 190.174466 
L 289.260427 194.700499 
L 278.470871 192.810707 
L 276.880268 189.97219 
L 281.365745 181.662069 
z
" style="fill:#fe01ff;opacity:0.8;stroke:#000000;stroke-linejoin:miter;"/>
   </g>
   <g id="patch_55">
    <path clip-path="url(#p75547b32cf)" d="M 224.943994 188.182723 
L 234.891443 189.384397 
L 236.643874 191.461903 
L 234.029547 199.863419 
L 225.448598 202.984139 
L 219.166826 194.982526 
z
" style="fill:#00ffff;opacity:0.8;stroke:#000000;stroke-linejoin:miter;"/>
   </g>
   <g id="patch_56">
    <path clip-path="url(#p75547b32cf)" d="M 235.608086 218.260815 
L 237.448898 216.670831 
L 251.852959 218.908591 
L 255.205352 225.223439 
L 250.924612 230.652638 
L 238.938948 231.585754 
L 234.725674 228.362025 
z
" style="fill:#00ffff;opacity:0.8;stroke:#000000;stroke-linejoin:miter;"/>
   </g>
   <g id="patch_57">
    <path clip-path="url(#p75547b32cf)" d="M 89.148072 195.294859 
L 91.170622 176.19025 
L 109.532633 178.508429 
L 112.2368 181.718305 
L 110.85598 189.228258 
L 95.105891 195.943968 
z
" style="fill:#00ffff;opacity:0.8;stroke:#000000;stroke-linejoin:miter;"/>
   </g>
   <g id="patch_58">
    <path clip-path="url(#p75547b32cf)" d="M 237.065424 175.01475 
L 226.347819 174.80241 
L 221.024268 168.013182 
L 225.25946 160.915132 
L 235.046714 159.864945 
L 242.238809 166.424429 
z
" style="fill:#fe01ff;opacity:0.8;stroke:#000000;stroke-linejoin:miter;"/>
   </g>
   <g id="patch_59">
    <path clip-path="url(#p75547b32cf)" d="M 281.59771 127.727763 
L 288.284527 123.658831 
L 293.919048 124.561556 
L 300.594272 133.972635 
L 298.85877 137.17833 
L 286.166293 140.1337 
L 282.590653 138.371319 
z
" style="fill:#00ffff;opacity:0.8;stroke:#000000;stroke-linejoin:miter;"/>
   </g>
   <g id="patch_60">
    <path clip-path="url(#p75547b32cf)" d="M 298.85877 137.17833 
L 304.987066 145.552453 
L 300.553929 151.494023 
L 287.920761 150.772185 
L 286.166293 140.1337 
z
" style="fill:#ff00ff;opacity:0.8;stroke:#000000;stroke-linejoin:miter;"/>
   </g>
   <g id="patch_61">
    <path clip-path="url(#p75547b32cf)" d="M 160.889906 199.409219 
L 154.792146 206.771387 
L 142.059201 205.470439 
L 138.917867 198.417474 
L 146.525083 191.500953 
L 157.265348 192.816078 
z
" style="fill:#00ffff;opacity:0.8;stroke:#000000;stroke-linejoin:miter;"/>
   </g>
   <g id="patch_62">
    <path clip-path="url(#p75547b32cf)" d="M 318.87794 220.713936 
L 310.960436 214.096688 
L 311.972513 206.732008 
L 324.559681 203.486006 
L 328.854718 205.379114 
L 333.44418 212.81158 
L 327.844946 220.797336 
z
" style="fill:#00ffff;opacity:0.8;stroke:#000000;stroke-linejoin:miter;"/>
   </g>
   <g id="patch_63">
    <path clip-path="url(#p75547b32cf)" d="M 259.045831 280.825841 
L 248.15075 283.186241 
L 247.248427 283.346592 
L 246.330872 283.440278 
L 245.406129 283.466478 
L 229.58537 283.335404 
L 230.124373 276.614327 
L 243.4506 266.307222 
L 252.641368 267.463651 
z
" style="fill:#00ffff;opacity:0.8;stroke:#000000;stroke-linejoin:miter;"/>
   </g>
   <g id="patch_64">
    <path clip-path="url(#p75547b32cf)" d="M 269.669517 125.400564 
L 267.870994 117.119629 
L 275.11843 111.998718 
L 284.75903 113.77856 
L 288.284527 123.658831 
L 281.59771 127.727763 
z
" style="fill:#00ffff;opacity:0.8;stroke:#000000;stroke-linejoin:miter;"/>
   </g>
   <g id="patch_65">
    <path clip-path="url(#p75547b32cf)" d="M 187.77615 207.269623 
L 193.285823 200.336521 
L 204.99357 201.372974 
L 208.295261 207.476644 
L 202.235918 214.747746 
L 191.498308 213.695736 
z
" style="fill:#fc03ff;opacity:0.8;stroke:#000000;stroke-linejoin:miter;"/>
   </g>
   <g id="patch_66">
    <path clip-path="url(#p75547b32cf)" d="M 310.960436 214.096688 
L 299.787373 218.092322 
L 292.249307 215.584983 
L 289.595834 207.668005 
L 292.836202 204.04663 
L 306.845741 202.990775 
L 311.972513 206.732008 
z
" style="fill:#ff00ff;opacity:0.8;stroke:#000000;stroke-linejoin:miter;"/>
   </g>
   <g id="patch_67">
    <path clip-path="url(#p75547b32cf)" d="M 263.455359 130.37154 
L 269.669517 125.400564 
L 281.59771 127.727763 
L 282.590653 138.371319 
L 269.222166 141.624681 
z
" style="fill:#ff00ff;opacity:0.8;stroke:#000000;stroke-linejoin:miter;"/>
   </g>
   <g id="patch_68">
    <path clip-path="url(#p75547b32cf)" d="M 335.09289 162.417474 
L 331.356034 151.878418 
L 338.881965 146.395245 
L 348.949471 148.91995 
L 352.891149 161.183468 
L 348.307645 164.075583 
z
" style="fill:#00ffff;opacity:0.8;stroke:#000000;stroke-linejoin:miter;"/>
   </g>
   <g id="patch_69">
    <path clip-path="url(#p75547b32cf)" d="M 202.523632 128.500792 
L 212.795838 125.883138 
L 220.035612 129.51477 
L 220.2164 135.606485 
L 211.584327 141.327149 
L 207.81502 141.341854 
L 200.439601 135.125444 
z
" style="fill:#ff00ff;opacity:0.8;stroke:#000000;stroke-linejoin:miter;"/>
   </g>
   <g id="patch_70">
    <path clip-path="url(#p75547b32cf)" d="M 309.342366 232.883571 
L 310.389208 234.921479 
L 302.921484 245.269705 
L 289.726562 244.217587 
L 286.110413 234.471553 
L 288.295711 231.713821 
L 301.4584 229.332405 
z
" style="fill:#ff00ff;opacity:0.8;stroke:#000000;stroke-linejoin:miter;"/>
   </g>
   <g id="patch_71">
    <path clip-path="url(#p75547b32cf)" d="M 248.049826 249.264998 
L 260.823854 255.366111 
L 261.717017 260.283966 
L 252.641368 267.463651 
L 243.4506 266.307222 
L 237.370881 256.506149 
z
" style="fill:#00ffff;opacity:0.8;stroke:#000000;stroke-linejoin:miter;"/>
   </g>
   <g id="patch_72">
    <path clip-path="url(#p75547b32cf)" d="M 375.208798 182.958975 
L 369.790349 199.100514 
L 349.509985 200.326013 
L 344.748952 196.874352 
L 343.366656 192.910931 
L 358.946477 181.861161 
z
" style="fill:#00ffff;opacity:0.8;stroke:#000000;stroke-linejoin:miter;"/>
   </g>
   <g id="patch_73">
    <path clip-path="url(#p75547b32cf)" d="M 159.262862 178.936101 
L 163.174872 185.998468 
L 157.265348 192.816078 
L 146.525083 191.500953 
L 142.301436 182.20626 
L 146.514771 178.269147 
z
" style="fill:#00ffff;opacity:0.8;stroke:#000000;stroke-linejoin:miter;"/>
   </g>
   <g id="patch_74">
    <path clip-path="url(#p75547b32cf)" d="M 271.142599 213.387695 
L 277.234687 207.208908 
L 289.595834 207.668005 
L 292.249307 215.584983 
L 284.0001 221.686075 
L 273.302897 220.054176 
z
" style="fill:#00ffff;opacity:0.8;stroke:#000000;stroke-linejoin:miter;"/>
   </g>
   <g id="patch_75">
    <path clip-path="url(#p75547b32cf)" d="M 324.461933 81.981382 
L 338.958407 88.053457 
L 339.74526 88.420723 
L 340.485206 88.843381 
L 341.171884 89.317795 
L 341.799389 89.839886 
L 342.362325 90.405165 
L 342.855851 91.008772 
L 352.362427 103.918209 
L 331.6685 103.924313 
L 322.096123 90.966362 
z
" style="fill:#ff00ff;opacity:0.8;stroke:#000000;stroke-linejoin:miter;"/>
   </g>
   <g id="patch_76">
    <path clip-path="url(#p75547b32cf)" d="M 276.862957 88.955504 
L 286.260683 83.193514 
L 297.737068 87.939976 
L 298.296898 94.249573 
L 290.181795 100.116182 
L 279.944324 97.919635 
z
" style="fill:#00ffff;opacity:0.8;stroke:#000000;stroke-linejoin:miter;"/>
   </g>
   <g id="patch_77">
    <path clip-path="url(#p75547b32cf)" d="M 313.846813 122.59781 
L 304.966978 118.074293 
L 303.802476 111.396287 
L 310.929954 105.901732 
L 323.918299 109.527384 
L 324.933791 119.607284 
z
" style="fill:#fe01ff;opacity:0.8;stroke:#000000;stroke-linejoin:miter;"/>
   </g>
   <g id="patch_78">
    <path clip-path="url(#p75547b32cf)" d="M 236.599505 128.143205 
L 229.384043 125.439511 
L 228.722102 116.686986 
L 238.078587 112.638954 
L 248.606042 119.320454 
L 248.266342 121.879935 
z
" style="fill:#00ffff;opacity:0.8;stroke:#000000;stroke-linejoin:miter;"/>
   </g>
   <g id="patch_79">
    <path clip-path="url(#p75547b32cf)" d="M 260.595765 197.794624 
L 261.36684 189.052332 
L 265.635557 186.825418 
L 276.880268 189.97219 
L 278.470871 192.810707 
L 273.062513 199.747689 
L 262.388193 199.44548 
z
" style="fill:#fe01ff;opacity:0.8;stroke:#000000;stroke-linejoin:miter;"/>
   </g>
   <g id="patch_80">
    <path clip-path="url(#p75547b32cf)" d="M 179.161647 166.749175 
L 173.337167 158.801873 
L 176.505531 153.738877 
L 188.711148 152.34515 
L 192.937854 162.370397 
L 189.751666 166.134884 
z
" style="fill:#fe01ff;opacity:0.8;stroke:#000000;stroke-linejoin:miter;"/>
   </g>
   <g id="patch_81">
    <path clip-path="url(#p75547b32cf)" d="M 200.40762 256.153285 
L 191.801776 253.169084 
L 190.692735 242.840262 
L 204.322566 239.827051 
L 209.317652 250.311386 
z
" style="fill:#fd02ff;opacity:0.8;stroke:#000000;stroke-linejoin:miter;"/>
   </g>
   <g id="patch_82">
    <path clip-path="url(#p75547b32cf)" d="M 173.337167 158.801873 
L 163.467039 160.088433 
L 156.173441 152.215784 
L 157.545827 148.701464 
L 170.438963 145.220046 
L 176.505531 153.738877 
z
" style="fill:#00ffff;opacity:0.8;stroke:#000000;stroke-linejoin:miter;"/>
   </g>
   <g id="patch_83">
    <path clip-path="url(#p75547b32cf)" d="M 194.812822 95.626944 
L 201.962856 87.601929 
L 214.94308 89.334826 
L 212.976116 100.876704 
L 204.338948 103.047515 
z
" style="fill:#00ffff;opacity:0.8;stroke:#000000;stroke-linejoin:miter;"/>
   </g>
   <g id="patch_84">
    <path clip-path="url(#p75547b32cf)" d="M 258.429768 172.309164 
L 269.299423 164.709671 
L 278.077787 168.924571 
L 275.648413 176.504716 
L 265.776878 178.661636 
L 258.629177 174.230683 
z
" style="fill:#00ffff;opacity:0.8;stroke:#000000;stroke-linejoin:miter;"/>
   </g>
   <g id="patch_85">
    <path clip-path="url(#p75547b32cf)" d="M 329.843095 134.667374 
L 328.811606 121.600324 
L 342.190191 119.682441 
L 350.041527 130.616458 
L 336.576965 137.428201 
z
" style="fill:#fe01ff;opacity:0.8;stroke:#000000;stroke-linejoin:miter;"/>
   </g>
   <g id="patch_86">
    <path clip-path="url(#p75547b32cf)" d="M 125.035887 102.728396 
L 135.37021 92.543991 
L 152.461044 98.465779 
L 156.68758 108.638085 
L 152.570674 113.65901 
L 141.5337 114.61527 
z
" style="fill:#00ffff;opacity:0.8;stroke:#000000;stroke-linejoin:miter;"/>
   </g>
   <g id="patch_87">
    <path clip-path="url(#p75547b32cf)" d="M 267.166693 240.553139 
L 269.639126 246.752814 
L 260.823854 255.366111 
L 248.049826 249.264998 
L 247.800196 246.13531 
L 255.27043 238.794583 
z
" style="fill:#fe01ff;opacity:0.8;stroke:#000000;stroke-linejoin:miter;"/>
   </g>
   <g id="patch_88">
    <path clip-path="url(#p75547b32cf)" d="M 208.295261 207.476644 
L 204.99357 201.372974 
L 209.845847 195.05912 
L 219.166826 194.982526 
L 225.448598 202.984139 
L 224.753177 204.816622 
L 218.735394 208.794301 
z
" style="fill:#fe01ff;opacity:0.8;stroke:#000000;stroke-linejoin:miter;"/>
   </g>
   <g id="patch_89">
    <path clip-path="url(#p75547b32cf)" d="M 170.719693 214.01576 
L 174.327089 219.312454 
L 169.541206 227.01367 
L 158.203544 226.763435 
L 153.478418 220.408856 
L 158.570124 213.18406 
z
" style="fill:#ff00ff;opacity:0.8;stroke:#000000;stroke-linejoin:miter;"/>
   </g>
   <g id="patch_90">
    <path clip-path="url(#p75547b32cf)" d="M 192.443288 64.85067 
L 201.855504 64.63614 
L 219.514942 79.885333 
L 216.171001 88.725015 
L 214.94308 89.334826 
L 201.962856 87.601929 
L 191.395146 68.041345 
z
" style="fill:#00ffff;opacity:0.8;stroke:#000000;stroke-linejoin:miter;"/>
   </g>
   <g id="patch_91">
    <path clip-path="url(#p75547b32cf)" d="M 179.161647 166.749175 
L 189.751666 166.134884 
L 194.666422 174.715449 
L 190.24074 180.223258 
L 179.583816 180.15205 
L 174.638734 172.777013 
z
" style="fill:#00ffff;opacity:0.8;stroke:#000000;stroke-linejoin:miter;"/>
   </g>
   <g id="patch_92">
    <path clip-path="url(#p75547b32cf)" d="M 186.447912 123.267755 
L 181.959245 128.329139 
L 170.987215 127.662921 
L 166.9024 121.811634 
L 172.379454 114.518488 
L 181.872702 115.466505 
z
" style="fill:#00ffff;opacity:0.8;stroke:#000000;stroke-linejoin:miter;"/>
   </g>
   <g id="patch_93">
    <path clip-path="url(#p75547b32cf)" d="M 138.833345 141.713192 
L 138.733397 152.603433 
L 130.67441 156.546101 
L 117.266134 151.78336 
L 123.193092 141.680496 
L 137.958961 141.112536 
z
" style="fill:#fe01ff;opacity:0.8;stroke:#000000;stroke-linejoin:miter;"/>
   </g>
   <g id="patch_94">
    <path clip-path="url(#p75547b32cf)" d="M 250.487314 79.150379 
L 253.005699 89.922027 
L 245.56152 94.012959 
L 235.33377 89.950879 
L 236.090335 82.141155 
z
" style="fill:#fd02ff;opacity:0.8;stroke:#000000;stroke-linejoin:miter;"/>
   </g>
   <g id="patch_95">
    <path clip-path="url(#p75547b32cf)" d="M 175.237124 278.13106 
L 160.04211 273.708561 
L 159.114958 273.395681 
L 158.233494 273.010483 
L 157.406921 272.556988 
L 156.643868 272.039931 
L 149.439581 266.630207 
L 162.680846 257.551493 
L 179.024266 270.181288 
z
" style="fill:#00ffff;opacity:0.8;stroke:#000000;stroke-linejoin:miter;"/>
   </g>
   <g id="patch_96">
    <path clip-path="url(#p75547b32cf)" d="M 273.302897 220.054176 
L 284.0001 221.686075 
L 288.295711 231.713821 
L 286.110413 234.471553 
L 272.007773 234.600168 
L 267.647721 225.672187 
z
" style="fill:#00ffff;opacity:0.8;stroke:#000000;stroke-linejoin:miter;"/>
   </g>
   <g id="patch_97">
    <path clip-path="url(#p75547b32cf)" d="M 298.37381 163.716358 
L 287.584976 163.795233 
L 283.965509 154.063461 
L 287.920761 150.772185 
L 300.553929 151.494023 
L 304.101742 157.973715 
z
" style="fill:#00ffff;opacity:0.8;stroke:#000000;stroke-linejoin:miter;"/>
   </g>
   <g id="patch_98">
    <path clip-path="url(#p75547b32cf)" d="M 259.525139 67.607718 
L 261.619386 67.805695 
L 269.704125 87.31245 
L 261.038245 92.103829 
L 253.005699 89.922027 
L 250.487314 79.150379 
z
" style="fill:#fb04ff;opacity:0.8;stroke:#000000;stroke-linejoin:miter;"/>
   </g>
   <g id="patch_99">
    <path clip-path="url(#p75547b32cf)" d="M 293.740076 178.226171 
L 291.704646 180.441213 
L 281.365745 181.662069 
L 275.648413 176.504716 
L 278.077787 168.924571 
L 284.528256 167.20684 
z
" style="fill:#00ffff;opacity:0.8;stroke:#000000;stroke-linejoin:miter;"/>
   </g>
   <g id="patch_100">
    <path clip-path="url(#p75547b32cf)" d="M 126.447431 212.946879 
L 119.768021 221.719351 
L 101.251123 221.167079 
L 108.643474 206.329792 
L 118.695767 204.994603 
z
" style="fill:#00ffff;opacity:0.8;stroke:#000000;stroke-linejoin:miter;"/>
   </g>
   <g id="patch_101">
    <path clip-path="url(#p75547b32cf)" d="M 189.603281 96.180705 
L 184.605232 102.229508 
L 173.140545 102.506395 
L 166.741201 94.027396 
L 168.281964 91.111404 
L 181.988211 89.216275 
z
" style="fill:#fe01ff;opacity:0.8;stroke:#000000;stroke-linejoin:miter;"/>
   </g>
   <g id="patch_102">
    <path clip-path="url(#p75547b32cf)" d="M 196.069463 122.888624 
L 201.363571 112.379537 
L 213.5889 116.168402 
L 212.795838 125.883138 
L 202.523632 128.500792 
z
" style="fill:#00ffff;opacity:0.8;stroke:#000000;stroke-linejoin:miter;"/>
   </g>
   <g id="patch_103">
    <path clip-path="url(#p75547b32cf)" d="M 175.272827 245.299077 
L 174.408318 250.644456 
L 162.989156 255.71563 
L 155.673557 248.229994 
L 159.676529 240.788279 
L 168.751039 239.823397 
z
" style="fill:#00ffff;opacity:0.8;stroke:#000000;stroke-linejoin:miter;"/>
   </g>
   <g id="patch_104">
    <path clip-path="url(#p75547b32cf)" d="M 112.2368 181.718305 
L 109.532633 178.508429 
L 114.716168 167.666923 
L 127.562581 169.484442 
L 128.445129 180.155154 
z
" style="fill:#00ffff;opacity:0.8;stroke:#000000;stroke-linejoin:miter;"/>
   </g>
   <g id="patch_105">
    <path clip-path="url(#p75547b32cf)" d="M 249.495323 197.7292 
L 260.595765 197.794624 
L 262.388193 199.44548 
L 258.463715 210.339085 
L 257.519946 210.655119 
L 245.095352 204.505914 
z
" style="fill:#00ffff;opacity:0.8;stroke:#000000;stroke-linejoin:miter;"/>
   </g>
   <g id="patch_106">
    <path clip-path="url(#p75547b32cf)" d="M 226.347819 174.80241 
L 220.931771 181.932308 
L 210.422802 181.635063 
L 205.813136 174.362126 
L 210.044599 168.549439 
L 221.024268 168.013182 
z
" style="fill:#00ffff;opacity:0.8;stroke:#000000;stroke-linejoin:miter;"/>
   </g>
   <g id="patch_107">
    <path clip-path="url(#p75547b32cf)" d="M 220.923736 217.726495 
L 235.608086 218.260815 
L 234.725674 228.362025 
L 221.44291 230.355403 
L 216.44605 222.227762 
z
" style="fill:#ff00ff;opacity:0.8;stroke:#000000;stroke-linejoin:miter;"/>
   </g>
   <g id="patch_108">
    <path clip-path="url(#p75547b32cf)" d="M 211.584327 141.327149 
L 220.2164 135.606485 
L 232.020775 141.524385 
L 231.711344 145.06244 
L 220.239975 150.441391 
z
" style="fill:#00ffff;opacity:0.8;stroke:#000000;stroke-linejoin:miter;"/>
   </g>
   <g id="patch_109">
    <path clip-path="url(#p75547b32cf)" d="M 123.730184 196.128324 
L 118.695767 204.994603 
L 108.643474 206.329792 
L 95.105891 195.943968 
L 110.85598 189.228258 
z
" style="fill:#ff00ff;opacity:0.8;stroke:#000000;stroke-linejoin:miter;"/>
   </g>
   <g id="patch_110">
    <path clip-path="url(#p75547b32cf)" d="M 146.514771 178.269147 
L 142.301436 182.20626 
L 130.907511 182.104043 
L 128.445129 180.155154 
L 127.562581 169.484442 
L 131.926447 166.548644 
L 144.231433 168.291083 
z
" style="fill:#00ffff;opacity:0.8;stroke:#000000;stroke-linejoin:miter;"/>
   </g>
   <g id="patch_111">
    <path clip-path="url(#p75547b32cf)" d="M 344.748952 196.874352 
L 328.854718 205.379114 
L 324.559681 203.486006 
L 324.165713 192.804627 
L 336.405827 189.076695 
L 343.366656 192.910931 
z
" style="fill:#fe01ff;opacity:0.8;stroke:#000000;stroke-linejoin:miter;"/>
   </g>
   <g id="patch_112">
    <path clip-path="url(#p75547b32cf)" d="M 240.799195 179.506469 
L 249.451633 180.885475 
L 252.421172 186.642184 
L 246.340749 192.978414 
L 236.643874 191.461903 
L 234.891443 189.384397 
z
" style="fill:#fe01ff;opacity:0.8;stroke:#000000;stroke-linejoin:miter;"/>
   </g>
   <g id="patch_113">
    <path clip-path="url(#p75547b32cf)" d="M 267.647721 225.672187 
L 272.007773 234.600168 
L 267.166693 240.553139 
L 255.27043 238.794583 
L 250.924612 230.652638 
L 255.205352 225.223439 
z
" style="fill:#fe01ff;opacity:0.8;stroke:#000000;stroke-linejoin:miter;"/>
   </g>
   <g id="patch_114">
    <path clip-path="url(#p75547b32cf)" d="M 255.219153 157.034286 
L 250.623074 150.416046 
L 253.364298 145.737776 
L 267.985487 143.455584 
L 272.629482 153.519026 
L 267.650846 158.421132 
z
" style="fill:#fe01ff;opacity:0.8;stroke:#000000;stroke-linejoin:miter;"/>
   </g>
   <g id="patch_115">
    <path clip-path="url(#p75547b32cf)" d="M 240.799195 179.506469 
L 237.065424 175.01475 
L 242.238809 166.424429 
L 249.545615 165.677967 
L 258.429768 172.309164 
L 258.629177 174.230683 
L 249.451633 180.885475 
z
" style="fill:#fe01ff;opacity:0.8;stroke:#000000;stroke-linejoin:miter;"/>
   </g>
   <g id="patch_116">
    <path clip-path="url(#p75547b32cf)" d="M 256.230267 130.121756 
L 248.266342 121.879935 
L 248.606042 119.320454 
L 257.170864 114.280883 
L 267.870994 117.119629 
L 269.669517 125.400564 
L 263.455359 130.37154 
z
" style="fill:#00ffff;opacity:0.8;stroke:#000000;stroke-linejoin:miter;"/>
   </g>
   <g id="patch_117">
    <path clip-path="url(#p75547b32cf)" d="M 206.444914 221.600891 
L 216.44605 222.227762 
L 221.44291 230.355403 
L 218.764205 235.124164 
L 205.875552 237.319516 
L 200.568089 228.513473 
z
" style="fill:#00ffff;opacity:0.8;stroke:#000000;stroke-linejoin:miter;"/>
   </g>
   <g id="patch_118">
    <path clip-path="url(#p75547b32cf)" d="M 97.059628 145.195867 
L 101.801699 132.426748 
L 117.88122 134.011033 
L 123.193092 141.680496 
L 117.266134 151.78336 
L 115.923185 152.215668 
z
" style="fill:#00ffff;opacity:0.8;stroke:#000000;stroke-linejoin:miter;"/>
   </g>
   <g id="patch_119">
    <path clip-path="url(#p75547b32cf)" d="M 238.928954 136.564404 
L 248.523695 138.026776 
L 253.364298 145.737776 
L 250.623074 150.416046 
L 239.146208 151.900526 
L 231.711344 145.06244 
L 232.020775 141.524385 
z
" style="fill:#fe01ff;opacity:0.8;stroke:#000000;stroke-linejoin:miter;"/>
   </g>
   <g id="patch_120">
    <path clip-path="url(#p75547b32cf)" d="M 153.478418 220.408856 
L 141.973314 220.5595 
L 135.867291 212.781191 
L 142.059201 205.470439 
L 154.792146 206.771387 
L 158.570124 213.18406 
z
" style="fill:#00ffff;opacity:0.8;stroke:#000000;stroke-linejoin:miter;"/>
   </g>
   <g id="patch_121">
    <path clip-path="url(#p75547b32cf)" d="M 229.58537 283.335404 
L 205.130304 283.132796 
L 203.87983 268.016906 
L 219.330147 265.402153 
L 230.124373 276.614327 
z
" style="fill:#00ffff;opacity:0.8;stroke:#000000;stroke-linejoin:miter;"/>
   </g>
   <g id="patch_122">
    <path clip-path="url(#p75547b32cf)" d="M 314.352269 159.541519 
L 304.101742 157.973715 
L 300.553929 151.494023 
L 304.987066 145.552453 
L 316.698113 144.783416 
L 321.605262 150.84366 
z
" style="fill:#00ffff;opacity:0.8;stroke:#000000;stroke-linejoin:miter;"/>
   </g>
   <g id="patch_123">
    <path clip-path="url(#p75547b32cf)" d="M 313.971689 187.536868 
L 324.165713 192.804627 
L 324.559681 203.486006 
L 311.972513 206.732008 
L 306.845741 202.990775 
L 308.017014 191.203888 
L 312.843599 187.762137 
z
" style="fill:#fd02ff;opacity:0.8;stroke:#000000;stroke-linejoin:miter;"/>
   </g>
   <g id="patch_124">
    <path clip-path="url(#p75547b32cf)" d="M 278.470871 192.810707 
L 289.260427 194.700499 
L 292.836202 204.04663 
L 289.595834 207.668005 
L 277.234687 207.208908 
L 273.062513 199.747689 
z
" style="fill:#00ffff;opacity:0.8;stroke:#000000;stroke-linejoin:miter;"/>
   </g>
   <g id="patch_125">
    <path clip-path="url(#p75547b32cf)" d="M 330.54108 252.106855 
L 313.272206 261.648766 
L 302.921484 245.269705 
L 310.389208 234.921479 
L 324.770833 238.775192 
z
" style="fill:#fd02ff;opacity:0.8;stroke:#000000;stroke-linejoin:miter;"/>
   </g>
   <g id="patch_126">
    <path clip-path="url(#p75547b32cf)" d="M 330.426513 176.67489 
L 329.693844 166.365809 
L 335.09289 162.417474 
L 348.307645 164.075583 
L 348.059548 175.268403 
L 335.265064 179.151617 
z
" style="fill:#00ffff;opacity:0.8;stroke:#000000;stroke-linejoin:miter;"/>
   </g>
   <g id="patch_127">
    <path clip-path="url(#p75547b32cf)" d="M 318.87794 220.713936 
L 327.844946 220.797336 
L 334.640709 229.069703 
L 324.770833 238.775192 
L 310.389208 234.921479 
L 309.342366 232.883571 
z
" style="fill:#fe01ff;opacity:0.8;stroke:#000000;stroke-linejoin:miter;"/>
   </g>
   <g id="patch_128">
    <path clip-path="url(#p75547b32cf)" d="M 277.94298 276.731807 
L 259.045831 280.825841 
L 252.641368 267.463651 
L 261.717017 260.283966 
L 274.989113 264.610158 
z
" style="fill:#ff00ff;opacity:0.8;stroke:#000000;stroke-linejoin:miter;"/>
   </g>
   <g id="patch_129">
    <path clip-path="url(#p75547b32cf)" d="M 205.283225 187.838894 
L 194.776861 187.512502 
L 190.24074 180.223258 
L 194.666422 174.715449 
L 205.813136 174.362126 
L 210.422802 181.635063 
z
" style="fill:#00ffff;opacity:0.8;stroke:#000000;stroke-linejoin:miter;"/>
   </g>
   <g id="patch_130">
    <path clip-path="url(#p75547b32cf)" d="M 358.782588 221.9102 
L 353.249794 230.853586 
L 334.640709 229.069703 
L 327.844946 220.797336 
L 333.44418 212.81158 
L 347.194175 212.632272 
z
" style="fill:#00ffff;opacity:0.8;stroke:#000000;stroke-linejoin:miter;"/>
   </g>
   <g id="patch_131">
    <path clip-path="url(#p75547b32cf)" d="M 219.330147 265.402153 
L 221.622514 260.444508 
L 236.709241 256.368646 
L 237.370881 256.506149 
L 243.4506 266.307222 
L 230.124373 276.614327 
z
" style="fill:#00ffff;opacity:0.8;stroke:#000000;stroke-linejoin:miter;"/>
   </g>
   <g id="patch_132">
    <path clip-path="url(#p75547b32cf)" d="M 170.719693 214.01576 
L 158.570124 213.18406 
L 154.792146 206.771387 
L 160.889906 199.409219 
L 172.566539 200.560402 
L 176.090957 206.148277 
z
" style="fill:#00ffff;opacity:0.8;stroke:#000000;stroke-linejoin:miter;"/>
   </g>
   <g id="patch_133">
    <path clip-path="url(#p75547b32cf)" d="M 272.581847 103.307627 
L 279.944324 97.919635 
L 290.181795 100.116182 
L 292.272666 108.329723 
L 284.75903 113.77856 
L 275.11843 111.998718 
z
" style="fill:#00ffff;opacity:0.8;stroke:#000000;stroke-linejoin:miter;"/>
   </g>
   <g id="patch_134">
    <path clip-path="url(#p75547b32cf)" d="M 208.295261 207.476644 
L 218.735394 208.794301 
L 220.923736 217.726495 
L 216.44605 222.227762 
L 206.444914 221.600891 
L 202.235918 214.747746 
z
" style="fill:#fc03ff;opacity:0.8;stroke:#000000;stroke-linejoin:miter;"/>
   </g>
   <g id="patch_135">
    <path clip-path="url(#p75547b32cf)" d="M 370.381478 134.337985 
L 371.085805 135.837615 
L 348.949471 148.91995 
L 338.881965 146.395245 
L 336.576965 137.428201 
L 350.041527 130.616458 
z
" style="fill:#fd02ff;opacity:0.8;stroke:#000000;stroke-linejoin:miter;"/>
   </g>
   <g id="patch_136">
    <path clip-path="url(#p75547b32cf)" d="M 248.523695 138.026776 
L 256.230267 130.121756 
L 263.455359 130.37154 
L 269.222166 141.624681 
L 267.985487 143.455584 
L 253.364298 145.737776 
z
" style="fill:#fe01ff;opacity:0.8;stroke:#000000;stroke-linejoin:miter;"/>
   </g>
   <g id="patch_137">
    <path clip-path="url(#p75547b32cf)" d="M 255.219153 157.034286 
L 249.545615 165.677967 
L 242.238809 166.424429 
L 235.046714 159.864945 
L 239.146208 151.900526 
L 250.623074 150.416046 
z
" style="fill:#00ffff;opacity:0.8;stroke:#000000;stroke-linejoin:miter;"/>
   </g>
   <g id="patch_138">
    <path clip-path="url(#p75547b32cf)" d="M 189.603281 96.180705 
L 181.988211 89.216275 
L 188.539954 70.968635 
L 191.395146 68.041345 
L 201.962856 87.601929 
L 194.812822 95.626944 
z
" style="fill:#ff00ff;opacity:0.8;stroke:#000000;stroke-linejoin:miter;"/>
   </g>
   <g id="patch_139">
    <path clip-path="url(#p75547b32cf)" d="M 191.007132 149.714885 
L 187.244122 138.508557 
L 200.439601 135.125444 
L 207.81502 141.341854 
L 201.98923 149.321554 
z
" style="fill:#fe01ff;opacity:0.8;stroke:#000000;stroke-linejoin:miter;"/>
   </g>
   <g id="patch_140">
    <path clip-path="url(#p75547b32cf)" d="M 200.889962 111.601994 
L 204.338948 103.047515 
L 212.976116 100.876704 
L 220.409604 104.75642 
L 220.085283 113.233441 
L 213.5889 116.168402 
L 201.363571 112.379537 
z
" style="fill:#ff00ff;opacity:0.8;stroke:#000000;stroke-linejoin:miter;"/>
   </g>
   <g id="patch_141">
    <path clip-path="url(#p75547b32cf)" d="M 284.587527 69.976962 
L 297.227233 71.171841 
L 298.132282 71.29095 
L 299.019293 71.475167 
L 299.880617 71.722903 
L 300.708827 72.032022 
L 313.647462 77.451572 
L 297.737068 87.939976 
L 286.260683 83.193514 
z
" style="fill:#00ffff;opacity:0.8;stroke:#000000;stroke-linejoin:miter;"/>
   </g>
   <g id="patch_142">
    <path clip-path="url(#p75547b32cf)" d="M 179.161647 166.749175 
L 174.638734 172.777013 
L 164.113689 172.938365 
L 159.549807 165.983354 
L 163.467039 160.088433 
L 173.337167 158.801873 
z
" style="fill:#fe01ff;opacity:0.8;stroke:#000000;stroke-linejoin:miter;"/>
   </g>
   <g id="patch_143">
    <path clip-path="url(#p75547b32cf)" d="M 138.917867 198.417474 
L 126.253539 195.314835 
L 130.907511 182.104043 
L 142.301436 182.20626 
L 146.525083 191.500953 
z
" style="fill:#00ffff;opacity:0.8;stroke:#000000;stroke-linejoin:miter;"/>
   </g>
   <g id="patch_144">
    <path clip-path="url(#p75547b32cf)" d="M 188.711148 152.34515 
L 176.505531 153.738877 
L 170.438963 145.220046 
L 171.676523 142.428766 
L 186.197681 138.084368 
L 187.244122 138.508557 
L 191.007132 149.714885 
z
" style="fill:#fe01ff;opacity:0.8;stroke:#000000;stroke-linejoin:miter;"/>
   </g>
   <g id="patch_145">
    <path clip-path="url(#p75547b32cf)" d="M 294.77101 190.174466 
L 308.017014 191.203888 
L 306.845741 202.990775 
L 292.836202 204.04663 
L 289.260427 194.700499 
z
" style="fill:#00ffff;opacity:0.8;stroke:#000000;stroke-linejoin:miter;"/>
   </g>
   <g id="patch_146">
    <path clip-path="url(#p75547b32cf)" d="M 191.498308 213.695736 
L 202.235918 214.747746 
L 206.444914 221.600891 
L 200.568089 228.513473 
L 189.832015 227.873993 
L 185.876295 220.162174 
z
" style="fill:#fc03ff;opacity:0.8;stroke:#000000;stroke-linejoin:miter;"/>
   </g>
   <g id="patch_147">
    <path clip-path="url(#p75547b32cf)" d="M 202.42933 267.116763 
L 180.138288 269.39987 
L 183.610531 256.40191 
L 191.801776 253.169084 
L 200.40762 256.153285 
z
" style="fill:#fd02ff;opacity:0.8;stroke:#000000;stroke-linejoin:miter;"/>
   </g>
   <g id="patch_148">
    <path clip-path="url(#p75547b32cf)" d="M 174.638734 172.777013 
L 179.583816 180.15205 
L 174.337437 186.753952 
L 163.174872 185.998468 
L 159.262862 178.936101 
L 164.113689 172.938365 
z
" style="fill:#fe01ff;opacity:0.8;stroke:#000000;stroke-linejoin:miter;"/>
   </g>
   <g id="patch_149">
    <path clip-path="url(#p75547b32cf)" d="M 329.843095 134.667374 
L 319.962581 137.42206 
L 311.63209 131.240002 
L 313.846813 122.59781 
L 324.933791 119.607284 
L 328.811606 121.600324 
z
" style="fill:#00ffff;opacity:0.8;stroke:#000000;stroke-linejoin:miter;"/>
   </g>
   <g id="patch_150">
    <path clip-path="url(#p75547b32cf)" d="M 269.222166 141.624681 
L 282.590653 138.371319 
L 286.166293 140.1337 
L 287.920761 150.772185 
L 283.965509 154.063461 
L 272.629482 153.519026 
L 267.985487 143.455584 
z
" style="fill:#00ffff;opacity:0.8;stroke:#000000;stroke-linejoin:miter;"/>
   </g>
   <g id="patch_151">
    <path clip-path="url(#p75547b32cf)" d="M 170.719693 214.01576 
L 176.090957 206.148277 
L 187.77615 207.269623 
L 191.498308 213.695736 
L 185.876295 220.162174 
L 174.327089 219.312454 
z
" style="fill:#00ffff;opacity:0.8;stroke:#000000;stroke-linejoin:miter;"/>
   </g>
   <g id="patch_152">
    <path clip-path="url(#p75547b32cf)" d="M 164.113689 172.938365 
L 159.262862 178.936101 
L 146.514771 178.269147 
L 144.231433 168.291083 
L 147.242529 166.061858 
L 159.549807 165.983354 
z
" style="fill:#00ffff;opacity:0.8;stroke:#000000;stroke-linejoin:miter;"/>
   </g>
   <g id="patch_153">
    <path clip-path="url(#p75547b32cf)" d="M 117.010003 110.63785 
L 125.035887 102.728396 
L 141.5337 114.61527 
L 139.313724 126.722915 
L 137.651232 127.65419 
L 125.812606 126.2467 
z
" style="fill:#00ffff;opacity:0.8;stroke:#000000;stroke-linejoin:miter;"/>
   </g>
   <g id="patch_154">
    <path clip-path="url(#p75547b32cf)" d="M 267.166693 240.553139 
L 272.007773 234.600168 
L 286.110413 234.471553 
L 289.726562 244.217587 
L 283.260301 250.086506 
L 269.639126 246.752814 
z
" style="fill:#00ffff;opacity:0.8;stroke:#000000;stroke-linejoin:miter;"/>
   </g>
   <g id="patch_155">
    <path clip-path="url(#p75547b32cf)" d="M 149.439581 266.630207 
L 131.354194 253.049829 
L 136.309776 249.894575 
L 155.673557 248.229994 
L 162.989156 255.71563 
L 162.680846 257.551493 
z
" style="fill:#fe01ff;opacity:0.8;stroke:#000000;stroke-linejoin:miter;"/>
   </g>
   <g id="patch_156">
    <path clip-path="url(#p75547b32cf)" d="M 201.855504 64.63614 
L 222.254506 64.171193 
L 222.993143 64.175942 
L 223.729264 64.223797 
L 233.847424 65.180306 
L 230.162536 77.673513 
L 219.514942 79.885333 
z
" style="fill:#00ffff;opacity:0.8;stroke:#000000;stroke-linejoin:miter;"/>
   </g>
   <g id="patch_157">
    <path clip-path="url(#p75547b32cf)" d="M 224.943994 188.182723 
L 219.166826 194.982526 
L 209.845847 195.05912 
L 205.283225 187.838894 
L 210.422802 181.635063 
L 220.931771 181.932308 
z
" style="fill:#00ffff;opacity:0.8;stroke:#000000;stroke-linejoin:miter;"/>
   </g>
   <g id="patch_158">
    <path clip-path="url(#p75547b32cf)" d="M 131.354194 253.049829 
L 116.761594 242.092196 
L 125.698226 229.44349 
L 136.85868 229.025824 
L 142.588413 234.989148 
L 136.309776 249.894575 
z
" style="fill:#fd02ff;opacity:0.8;stroke:#000000;stroke-linejoin:miter;"/>
   </g>
   <g id="patch_159">
    <path clip-path="url(#p75547b32cf)" d="M 204.99357 201.372974 
L 193.285823 200.336521 
L 189.682984 194.00837 
L 194.776861 187.512502 
L 205.283225 187.838894 
L 209.845847 195.05912 
z
" style="fill:#fe01ff;opacity:0.8;stroke:#000000;stroke-linejoin:miter;"/>
   </g>
   <g id="patch_160">
    <path clip-path="url(#p75547b32cf)" d="M 137.651232 127.65419 
L 137.958961 141.112536 
L 123.193092 141.680496 
L 117.88122 134.011033 
L 125.812606 126.2467 
z
" style="fill:#fe01ff;opacity:0.8;stroke:#000000;stroke-linejoin:miter;"/>
   </g>
   <g id="patch_161">
    <path clip-path="url(#p75547b32cf)" d="M 313.272206 261.648766 
L 306.802117 265.223812 
L 284.743811 257.403082 
L 283.260301 250.086506 
L 289.726562 244.217587 
L 302.921484 245.269705 
z
" style="fill:#00ffff;opacity:0.8;stroke:#000000;stroke-linejoin:miter;"/>
   </g>
   <g id="patch_162">
    <path clip-path="url(#p75547b32cf)" d="M 165.626024 134.57914 
L 171.676523 142.428766 
L 170.438963 145.220046 
L 157.545827 148.701464 
L 150.961617 141.160271 
L 156.058647 134.426143 
z
" style="fill:#00ffff;opacity:0.8;stroke:#000000;stroke-linejoin:miter;"/>
   </g>
   <g id="patch_163">
    <path clip-path="url(#p75547b32cf)" d="M 158.203544 226.763435 
L 153.609889 234.334388 
L 142.588413 234.989148 
L 136.85868 229.025824 
L 141.973314 220.5595 
L 153.478418 220.408856 
z
" style="fill:#00ffff;opacity:0.8;stroke:#000000;stroke-linejoin:miter;"/>
   </g>
   <g id="patch_164">
    <path clip-path="url(#p75547b32cf)" d="M 174.327089 219.312454 
L 185.876295 220.162174 
L 189.832015 227.873993 
L 185.045365 232.661142 
L 173.128471 231.818798 
L 169.541206 227.01367 
z
" style="fill:#fe01ff;opacity:0.8;stroke:#000000;stroke-linejoin:miter;"/>
   </g>
   <g id="patch_165">
    <path clip-path="url(#p75547b32cf)" d="M 319.511222 179.237469 
L 312.417436 171.280705 
L 317.162087 164.260067 
L 329.693844 166.365809 
L 330.426513 176.67489 
z
" style="fill:#00ffff;opacity:0.8;stroke:#000000;stroke-linejoin:miter;"/>
   </g>
   <g id="patch_166">
    <path clip-path="url(#p75547b32cf)" d="M 303.802476 111.396287 
L 292.272666 108.329723 
L 290.181795 100.116182 
L 298.296898 94.249573 
L 309.85972 99.166085 
L 310.929954 105.901732 
z
" style="fill:#00ffff;opacity:0.8;stroke:#000000;stroke-linejoin:miter;"/>
   </g>
   <g id="patch_167">
    <path clip-path="url(#p75547b32cf)" d="M 157.545827 148.701464 
L 156.173441 152.215784 
L 146.727483 155.598066 
L 138.733397 152.603433 
L 138.833345 141.713192 
L 150.961617 141.160271 
z
" style="fill:#fe01ff;opacity:0.8;stroke:#000000;stroke-linejoin:miter;"/>
   </g>
   <g id="patch_168">
    <path clip-path="url(#p75547b32cf)" d="M 303.209605 172.292783 
L 298.37381 163.716358 
L 304.101742 157.973715 
L 314.352269 159.541519 
L 317.162087 164.260067 
L 312.417436 171.280705 
z
" style="fill:#00ffff;opacity:0.8;stroke:#000000;stroke-linejoin:miter;"/>
   </g>
   <g id="patch_169">
    <path clip-path="url(#p75547b32cf)" d="M 262.854071 101.274794 
L 256.037383 105.414896 
L 245.534526 102.344333 
L 245.56152 94.012959 
L 253.005699 89.922027 
L 261.038245 92.103829 
z
" style="fill:#00ffff;opacity:0.8;stroke:#000000;stroke-linejoin:miter;"/>
   </g>
   <g id="patch_170">
    <path clip-path="url(#p75547b32cf)" d="M 238.928954 136.564404 
L 236.599505 128.143205 
L 248.266342 121.879935 
L 256.230267 130.121756 
L 248.523695 138.026776 
z
" style="fill:#00ffff;opacity:0.8;stroke:#000000;stroke-linejoin:miter;"/>
   </g>
   <g id="patch_171">
    <path clip-path="url(#p75547b32cf)" d="M 220.035612 129.51477 
L 212.795838 125.883138 
L 213.5889 116.168402 
L 220.085283 113.233441 
L 228.722102 116.686986 
L 229.384043 125.439511 
z
" style="fill:#00ffff;opacity:0.8;stroke:#000000;stroke-linejoin:miter;"/>
   </g>
   <g id="patch_172">
    <path clip-path="url(#p75547b32cf)" d="M 210.044599 168.549439 
L 205.813136 174.362126 
L 194.666422 174.715449 
L 189.751666 166.134884 
L 192.937854 162.370397 
L 204.905246 161.486584 
z
" style="fill:#00ffff;opacity:0.8;stroke:#000000;stroke-linejoin:miter;"/>
   </g>
   <g id="patch_173">
    <path clip-path="url(#p75547b32cf)" d="M 181.872702 115.466505 
L 172.379454 114.518488 
L 168.852893 109.259221 
L 173.140545 102.506395 
L 184.605232 102.229508 
L 187.755465 109.464508 
z
" style="fill:#00ffff;opacity:0.8;stroke:#000000;stroke-linejoin:miter;"/>
   </g>
   <g id="patch_174">
    <path clip-path="url(#p75547b32cf)" d="M 97.436015 223.005386 
L 89.246817 212.62198 
L 88.74602 211.904632 
L 88.344972 211.149949 
L 88.048161 210.366374 
L 87.858908 209.562675 
L 87.77933 208.747848 
L 87.81032 207.931008 
L 89.148072 195.294859 
L 95.105891 195.943968 
L 108.643474 206.329792 
L 101.251123 221.167079 
z
" style="fill:#00ffff;opacity:0.8;stroke:#000000;stroke-linejoin:miter;"/>
   </g>
   <g id="patch_175">
    <path clip-path="url(#p75547b32cf)" d="M 311.63209 131.240002 
L 300.594272 133.972635 
L 293.919048 124.561556 
L 304.966978 118.074293 
L 313.846813 122.59781 
z
" style="fill:#fd02ff;opacity:0.8;stroke:#000000;stroke-linejoin:miter;"/>
   </g>
   <g id="patch_176">
    <path clip-path="url(#p75547b32cf)" d="M 166.9024 121.811634 
L 157.838903 121.2619 
L 152.570674 113.65901 
L 156.68758 108.638085 
L 168.852893 109.259221 
L 172.379454 114.518488 
z
" style="fill:#00ffff;opacity:0.8;stroke:#000000;stroke-linejoin:miter;"/>
   </g>
   <g id="patch_177">
    <path clip-path="url(#p75547b32cf)" d="M 352.362427 103.918209 
L 352.750833 104.445644 
L 342.190191 119.682441 
L 328.811606 121.600324 
L 324.933791 119.607284 
L 323.918299 109.527384 
L 331.6685 103.924313 
z
" style="fill:#00ffff;opacity:0.8;stroke:#000000;stroke-linejoin:miter;"/>
   </g>
   <g id="patch_178">
    <path clip-path="url(#p75547b32cf)" d="M 267.870994 117.119629 
L 257.170864 114.280883 
L 256.037383 105.414896 
L 262.854071 101.274794 
L 272.581847 103.307627 
L 275.11843 111.998718 
z
" style="fill:#ff00ff;opacity:0.8;stroke:#000000;stroke-linejoin:miter;"/>
   </g>
   <g id="patch_179">
    <path clip-path="url(#p75547b32cf)" d="M 234.725674 228.362025 
L 238.938948 231.585754 
L 236.598995 240.031021 
L 227.113769 243.850541 
L 226.187301 243.732349 
L 218.764205 235.124164 
L 221.44291 230.355403 
z
" style="fill:#00ffff;opacity:0.8;stroke:#000000;stroke-linejoin:miter;"/>
   </g>
   <g id="patch_180">
    <path clip-path="url(#p75547b32cf)" d="M 258.463715 210.339085 
L 262.388193 199.44548 
L 273.062513 199.747689 
L 277.234687 207.208908 
L 271.142599 213.387695 
z
" style="fill:#fe01ff;opacity:0.8;stroke:#000000;stroke-linejoin:miter;"/>
   </g>
   <g id="patch_181">
    <path clip-path="url(#p75547b32cf)" d="M 319.962581 137.42206 
L 316.698113 144.783416 
L 304.987066 145.552453 
L 298.85877 137.17833 
L 300.594272 133.972635 
L 311.63209 131.240002 
z
" style="fill:#fe01ff;opacity:0.8;stroke:#000000;stroke-linejoin:miter;"/>
   </g>
   <g id="patch_182">
    <path clip-path="url(#p75547b32cf)" d="M 196.069463 122.888624 
L 186.447912 123.267755 
L 181.872702 115.466505 
L 187.755465 109.464508 
L 200.889962 111.601994 
L 201.363571 112.379537 
z
" style="fill:#00ffff;opacity:0.8;stroke:#000000;stroke-linejoin:miter;"/>
   </g>
   <g id="patch_183">
    <path clip-path="url(#p75547b32cf)" d="M 91.170622 176.19025 
L 92.407738 164.504697 
L 110.965662 163.319226 
L 114.716168 167.666923 
L 109.532633 178.508429 
z
" style="fill:#ff00ff;opacity:0.8;stroke:#000000;stroke-linejoin:miter;"/>
   </g>
   <g id="patch_184">
    <path clip-path="url(#p75547b32cf)" d="M 376.363783 147.07531 
L 381.645625 158.32123 
L 381.942759 159.069036 
L 382.141517 159.836512 
L 382.239856 160.615772 
L 382.236766 161.39881 
L 382.132279 162.177581 
L 381.927467 162.944083 
L 377.22621 176.949111 
L 360.158969 161.548859 
z
" style="fill:#ff00ff;opacity:0.8;stroke:#000000;stroke-linejoin:miter;"/>
   </g>
   <g id="patch_185">
    <path clip-path="url(#p75547b32cf)" d="M 238.938948 231.585754 
L 250.924612 230.652638 
L 255.27043 238.794583 
L 247.800196 246.13531 
L 236.598995 240.031021 
z
" style="fill:#fd02ff;opacity:0.8;stroke:#000000;stroke-linejoin:miter;"/>
   </g>
   <g id="patch_186">
    <path clip-path="url(#p75547b32cf)" d="M 258.429768 172.309164 
L 249.545615 165.677967 
L 255.219153 157.034286 
L 267.650846 158.421132 
L 269.299423 164.709671 
z
" style="fill:#00ffff;opacity:0.8;stroke:#000000;stroke-linejoin:miter;"/>
   </g>
   <g id="patch_187">
    <path clip-path="url(#p75547b32cf)" d="M 166.741201 94.027396 
L 173.140545 102.506395 
L 168.852893 109.259221 
L 156.68758 108.638085 
L 152.461044 98.465779 
z
" style="fill:#fe01ff;opacity:0.8;stroke:#000000;stroke-linejoin:miter;"/>
   </g>
   <g id="patch_188">
    <path clip-path="url(#p75547b32cf)" d="M 265.776878 178.661636 
L 275.648413 176.504716 
L 281.365745 181.662069 
L 276.880268 189.97219 
L 265.635557 186.825418 
z
" style="fill:#00ffff;opacity:0.8;stroke:#000000;stroke-linejoin:miter;"/>
   </g>
   <g id="patch_189">
    <path clip-path="url(#p75547b32cf)" d="M 175.272827 245.299077 
L 168.751039 239.823397 
L 173.128471 231.818798 
L 185.045365 232.661142 
L 187.665444 241.365648 
z
" style="fill:#00ffff;opacity:0.8;stroke:#000000;stroke-linejoin:miter;"/>
   </g>
   <g id="patch_190">
    <path clip-path="url(#p75547b32cf)" d="M 175.272827 245.299077 
L 187.665444 241.365648 
L 190.692735 242.840262 
L 191.801776 253.169084 
L 183.610531 256.40191 
L 174.408318 250.644456 
z
" style="fill:#fe01ff;opacity:0.8;stroke:#000000;stroke-linejoin:miter;"/>
   </g>
   <g id="patch_191">
    <path clip-path="url(#p75547b32cf)" d="M 261.619386 67.805695 
L 284.587527 69.976962 
L 286.260683 83.193514 
L 276.862957 88.955504 
L 269.704125 87.31245 
z
" style="fill:#fd02ff;opacity:0.8;stroke:#000000;stroke-linejoin:miter;"/>
   </g>
   <g id="patch_192">
    <path clip-path="url(#p75547b32cf)" d="M 166.9024 121.811634 
L 170.987215 127.662921 
L 165.626024 134.57914 
L 156.058647 134.426143 
L 151.762018 128.142575 
L 157.838903 121.2619 
z
" style="fill:#fe01ff;opacity:0.8;stroke:#000000;stroke-linejoin:miter;"/>
   </g>
   <g id="patch_193">
    <path clip-path="url(#p75547b32cf)" d="M 123.730184 196.128324 
L 110.85598 189.228258 
L 112.2368 181.718305 
L 128.445129 180.155154 
L 130.907511 182.104043 
L 126.253539 195.314835 
z
" style="fill:#00ffff;opacity:0.8;stroke:#000000;stroke-linejoin:miter;"/>
   </g>
   <g id="patch_194">
    <path clip-path="url(#p75547b32cf)" d="M 234.029547 199.863419 
L 236.643874 191.461903 
L 246.340749 192.978414 
L 249.495323 197.7292 
L 245.095352 204.505914 
L 243.888841 204.784884 
z
" style="fill:#00ffff;opacity:0.8;stroke:#000000;stroke-linejoin:miter;"/>
   </g>
   <g id="patch_195">
    <path clip-path="url(#p75547b32cf)" d="M 233.847424 65.180306 
L 259.525139 67.607718 
L 250.487314 79.150379 
L 236.090335 82.141155 
L 230.162536 77.673513 
z
" style="fill:#fc03ff;opacity:0.8;stroke:#000000;stroke-linejoin:miter;"/>
   </g>
   <g id="patch_196">
    <path clip-path="url(#p75547b32cf)" d="M 318.87794 220.713936 
L 309.342366 232.883571 
L 301.4584 229.332405 
L 299.787373 218.092322 
L 310.960436 214.096688 
z
" style="fill:#00ffff;opacity:0.8;stroke:#000000;stroke-linejoin:miter;"/>
   </g>
   <g id="patch_197">
    <path clip-path="url(#p75547b32cf)" d="M 310.929954 105.901732 
L 309.85972 99.166085 
L 322.096123 90.966362 
L 331.6685 103.924313 
L 323.918299 109.527384 
z
" style="fill:#fe01ff;opacity:0.8;stroke:#000000;stroke-linejoin:miter;"/>
   </g>
   <g id="patch_198">
    <path clip-path="url(#p75547b32cf)" d="M 220.409604 104.75642 
L 212.976116 100.876704 
L 214.94308 89.334826 
L 216.171001 88.725015 
L 229.638078 92.868783 
L 229.073131 101.532655 
z
" style="fill:#fe01ff;opacity:0.8;stroke:#000000;stroke-linejoin:miter;"/>
   </g>
   <g id="patch_199">
    <path clip-path="url(#p75547b32cf)" d="M 237.200259 213.786608 
L 243.888841 204.784884 
L 245.095352 204.505914 
L 257.519946 210.655119 
L 251.852959 218.908591 
L 237.448898 216.670831 
z
" style="fill:#00ffff;opacity:0.8;stroke:#000000;stroke-linejoin:miter;"/>
   </g>
   <g id="patch_200">
    <path clip-path="url(#p75547b32cf)" d="M 207.81502 141.341854 
L 211.584327 141.327149 
L 220.239975 150.441391 
L 218.856894 154.181601 
L 207.935874 156.181224 
L 201.98923 149.321554 
z
" style="fill:#00ffff;opacity:0.8;stroke:#000000;stroke-linejoin:miter;"/>
   </g>
   <g id="patch_201">
    <path clip-path="url(#p75547b32cf)" d="M 147.242529 166.061858 
L 144.231433 168.291083 
L 131.926447 166.548644 
L 130.67441 156.546101 
L 138.733397 152.603433 
L 146.727483 155.598066 
z
" style="fill:#fe01ff;opacity:0.8;stroke:#000000;stroke-linejoin:miter;"/>
   </g>
   <g id="patch_202">
    <path clip-path="url(#p75547b32cf)" d="M 168.281964 91.111404 
L 163.712931 81.831998 
L 188.539954 70.968635 
L 181.988211 89.216275 
z
" style="fill:#00ffff;opacity:0.8;stroke:#000000;stroke-linejoin:miter;"/>
   </g>
   <g id="patch_203">
    <path clip-path="url(#p75547b32cf)" d="M 174.408318 250.644456 
L 183.610531 256.40191 
L 180.138288 269.39987 
L 179.024266 270.181288 
L 162.680846 257.551493 
L 162.989156 255.71563 
z
" style="fill:#00ffff;opacity:0.8;stroke:#000000;stroke-linejoin:miter;"/>
   </g>
   <g id="patch_204">
    <path clip-path="url(#p75547b32cf)" d="M 358.946477 181.861161 
L 343.366656 192.910931 
L 336.405827 189.076695 
L 335.265064 179.151617 
L 348.059548 175.268403 
z
" style="fill:#00ffff;opacity:0.8;stroke:#000000;stroke-linejoin:miter;"/>
   </g>
   <g id="patch_205">
    <path clip-path="url(#p75547b32cf)" d="M 299.517321 176.666284 
L 303.209605 172.292783 
L 312.417436 171.280705 
L 319.511222 179.237469 
L 313.971689 187.536868 
L 312.843599 187.762137 
z
" style="fill:#fe01ff;opacity:0.8;stroke:#000000;stroke-linejoin:miter;"/>
   </g>
   <g id="patch_206">
    <path clip-path="url(#p75547b32cf)" d="M 249.495323 197.7292 
L 246.340749 192.978414 
L 252.421172 186.642184 
L 261.36684 189.052332 
L 260.595765 197.794624 
z
" style="fill:#fe01ff;opacity:0.8;stroke:#000000;stroke-linejoin:miter;"/>
   </g>
   <g id="patch_207">
    <path clip-path="url(#p75547b32cf)" d="M 227.113769 243.850541 
L 236.709241 256.368646 
L 221.622514 260.444508 
L 215.520377 251.363343 
L 226.187301 243.732349 
z
" style="fill:#ff00ff;opacity:0.8;stroke:#000000;stroke-linejoin:miter;"/>
   </g>
   <g id="patch_208">
    <path clip-path="url(#p75547b32cf)" d="M 349.509985 200.326013 
L 347.194175 212.632272 
L 333.44418 212.81158 
L 328.854718 205.379114 
L 344.748952 196.874352 
z
" style="fill:#ff00ff;opacity:0.8;stroke:#000000;stroke-linejoin:miter;"/>
   </g>
   <g id="patch_209">
    <path clip-path="url(#p75547b32cf)" d="M 293.740076 178.226171 
L 284.528256 167.20684 
L 287.584976 163.795233 
L 298.37381 163.716358 
L 303.209605 172.292783 
L 299.517321 176.666284 
z
" style="fill:#00ffff;opacity:0.8;stroke:#000000;stroke-linejoin:miter;"/>
   </g>
   <g id="patch_210">
    <path clip-path="url(#p75547b32cf)" d="M 224.753177 204.816622 
L 237.200259 213.786608 
L 237.448898 216.670831 
L 235.608086 218.260815 
L 220.923736 217.726495 
L 218.735394 208.794301 
z
" style="fill:#00ffff;opacity:0.8;stroke:#000000;stroke-linejoin:miter;"/>
   </g>
  </g>
 </g>
 <defs>
  <clipPath id="p75547b32cf">
   <rect height="265.0032" width="357.12" x="57.6" y="41.2992"/>
  </clipPath>
 </defs>
</svg>
