<?xml version="1.0" encoding="utf-8" standalone="no"?>
<!DOCTYPE svg PUBLIC "-//W3C//DTD SVG 1.1//EN"
  "http://www.w3.org/Graphics/SVG/1.1/DTD/svg11.dtd">
<!-- Created with matplotlib (https://matplotlib.org/) -->
<svg height="344.16pt" version="1.1" viewBox="0 0 460.8 344.16" width="460.8pt" xmlns="http://www.w3.org/2000/svg" xmlns:xlink="http://www.w3.org/1999/xlink">
 <defs>
  <style type="text/css">
*{stroke-linecap:butt;stroke-linejoin:round;}
  </style>
 </defs>
 <g id="figure_1">
  <g id="patch_1">
   <path d="M 0 344.16 
L 460.8 344.16 
L 460.8 0 
L 0 0 
z
" style="fill:#ffffff;"/>
  </g>
  <g id="axes_1">
   <g id="PathCollection_1">
    <defs>
     <path d="M 0 1.093697 
C 0.290052 1.093697 0.568263 0.978458 0.77336 0.77336 
C 0.978458 0.568263 1.093697 0.290052 1.093697 0 
C 1.093697 -0.290052 0.978458 -0.568263 0.77336 -0.77336 
C 0.568263 -0.978458 0.290052 -1.093697 0 -1.093697 
C -0.290052 -1.093697 -0.568263 -0.978458 -0.77336 -0.77336 
C -0.978458 -0.568263 -1.093697 -0.290052 -1.093697 0 
C -1.093697 0.290052 -0.978458 0.568263 -0.77336 0.77336 
C -0.568263 0.978458 -0.290052 1.093697 0 1.093697 
z
" id="mda3ff30f15" style="stroke:#000000;"/>
    </defs>
    <g clip-path="url(#pbbef763365)">
     <use style="stroke:#000000;" x="239.508887" xlink:href="#mda3ff30f15" y="178.46231"/>
     <use style="stroke:#000000;" x="193.836859" xlink:href="#mda3ff30f15" y="196.628774"/>
     <use style="stroke:#000000;" x="264.259091" xlink:href="#mda3ff30f15" y="154.327147"/>
     <use style="stroke:#000000;" x="259.752357" xlink:href="#mda3ff30f15" y="185.800613"/>
     <use style="stroke:#000000;" x="203.00257" xlink:href="#mda3ff30f15" y="157.740489"/>
     <use style="stroke:#000000;" x="231.797027" xlink:href="#mda3ff30f15" y="193.23499"/>
     <use style="stroke:#000000;" x="245.103819" xlink:href="#mda3ff30f15" y="144.103044"/>
     <use style="stroke:#000000;" x="196.003846" xlink:href="#mda3ff30f15" y="181.376388"/>
     <use style="stroke:#000000;" x="243.2226" xlink:href="#mda3ff30f15" y="161.515792"/>
     <use style="stroke:#000000;" x="213.63752" xlink:href="#mda3ff30f15" y="194.660583"/>
     <use style="stroke:#000000;" x="261.122271" xlink:href="#mda3ff30f15" y="171.819962"/>
     <use style="stroke:#000000;" x="224.057041" xlink:href="#mda3ff30f15" y="150.333687"/>
     <use style="stroke:#000000;" x="223.730965" xlink:href="#mda3ff30f15" y="166.880181"/>
     <use style="stroke:#000000;" x="245.537265" xlink:href="#mda3ff30f15" y="205.382827"/>
     <use style="stroke:#000000;" x="219.572715" xlink:href="#mda3ff30f15" y="181.728856"/>
     <use style="stroke:#000000;" x="207.18781" xlink:href="#mda3ff30f15" y="172.487956"/>
     <use style="stroke:#000000;" x="248.277161" xlink:href="#mda3ff30f15" y="192.046726"/>
    </g>
   </g>
   <g id="patch_2">
    <path clip-path="url(#pbbef763365)" d="M 228.292417 175.440676 
L 235.74656 169.236716 
L 248.183091 170.901803 
L 251.90429 178.299455 
L 248.964156 183.254712 
L 239.375624 187.035959 
L 230.656306 184.255016 
z
" style="fill:#fe01ff;opacity:0.8;stroke:#000000;stroke-linejoin:miter;"/>
   </g>
   <g id="patch_3">
    <path clip-path="url(#pbbef763365)" d="M 182.485091 195.643421 
L 183.568584 188.017228 
L 202.767363 189.683715 
L 205.710558 207.773831 
L 191.418742 205.353902 
L 190.339559 205.127458 
L 189.293848 204.819672 
L 188.29162 204.43349 
L 187.342465 203.972609 
L 186.455469 203.441439 
L 185.63912 202.845065 
L 184.901233 202.189194 
L 184.248869 201.480104 
L 183.688273 200.724582 
L 183.22481 199.929858 
L 182.862916 199.103539 
L 182.606054 198.253534 
L 182.456683 197.387978 
L 182.416233 196.515156 
z
" style="fill:#ff00ff;opacity:0.8;stroke:#000000;stroke-linejoin:miter;"/>
   </g>
   <g id="patch_4">
    <path clip-path="url(#pbbef763365)" d="M 261.122345 141.842528 
L 270.699981 146.954579 
L 271.596035 147.485211 
L 272.421011 148.082126 
L 273.166916 148.73954 
L 273.826525 149.451086 
L 274.393447 150.20987 
L 274.862191 151.008541 
L 275.228214 151.839361 
L 275.487972 152.694283 
L 275.638947 153.565023 
L 275.679678 154.443147 
L 275.609768 155.320146 
L 274.317154 164.347315 
L 256.226417 162.36535 
L 251.139089 153.269866 
z
" style="fill:#ff00ff;opacity:0.8;stroke:#000000;stroke-linejoin:miter;"/>
   </g>
   <g id="patch_5">
    <path clip-path="url(#pbbef763365)" d="M 272.145811 179.511221 
L 271.103034 186.793612 
L 270.916706 187.684524 
L 270.616222 188.556173 
L 270.204656 189.399646 
L 269.686214 190.206319 
L 263.16321 199.192183 
L 248.964156 183.254712 
L 251.90429 178.299455 
z
" style="fill:#fb04ff;opacity:0.8;stroke:#000000;stroke-linejoin:miter;"/>
   </g>
   <g id="patch_6">
    <path clip-path="url(#pbbef763365)" d="M 188.375804 167.545408 
L 191.875166 155.727459 
L 192.196239 154.850014 
L 192.630241 154.002776 
L 193.172637 153.194599 
L 193.817759 152.433927 
L 194.558864 151.72871 
L 195.388209 151.086318 
L 196.297125 150.513464 
L 197.276116 150.016134 
L 198.314949 149.599526 
L 208.842185 145.896125 
L 216.10717 158.513181 
L 212.236857 163.875961 
L 189.695935 167.78423 
z
" style="fill:#ff00ff;opacity:0.8;stroke:#000000;stroke-linejoin:miter;"/>
   </g>
   <g id="patch_7">
    <path clip-path="url(#pbbef763365)" d="M 239.375624 187.035959 
L 240.661394 197.930798 
L 224.650726 208.994858 
L 222.178865 189.757635 
L 230.656306 184.255016 
z
" style="fill:#00ffff;opacity:0.8;stroke:#000000;stroke-linejoin:miter;"/>
   </g>
   <g id="patch_8">
    <path clip-path="url(#pbbef763365)" d="M 230.535045 138.869598 
L 241.058434 135.754276 
L 242.102172 135.489354 
L 243.17362 135.303949 
L 244.262886 135.199772 
L 245.359916 135.177786 
L 246.454582 135.238194 
L 247.536777 135.380437 
L 248.596513 135.603203 
L 249.624007 135.904435 
L 250.609772 136.281353 
L 251.544709 136.730476 
L 261.122345 141.842528 
L 251.139089 153.269866 
L 237.062464 152.340728 
z
" style="fill:#00ffff;opacity:0.8;stroke:#000000;stroke-linejoin:miter;"/>
   </g>
   <g id="patch_9">
    <path clip-path="url(#pbbef763365)" d="M 183.568584 188.017228 
L 184.652077 180.391036 
L 184.876442 179.363358 
L 188.375804 167.545408 
L 189.695935 167.78423 
L 207.784918 181.689983 
L 207.686909 185.693995 
L 202.767363 189.683715 
z
" style="fill:#00ffff;opacity:0.8;stroke:#000000;stroke-linejoin:miter;"/>
   </g>
   <g id="patch_10">
    <path clip-path="url(#pbbef763365)" d="M 235.74656 169.236716 
L 230.996724 158.69245 
L 237.062464 152.340728 
L 251.139089 153.269866 
L 256.226417 162.36535 
L 248.183091 170.901803 
z
" style="fill:#00ffff;opacity:0.8;stroke:#000000;stroke-linejoin:miter;"/>
   </g>
   <g id="patch_11">
    <path clip-path="url(#pbbef763365)" d="M 223.651231 210.811595 
L 205.710558 207.773831 
L 202.767363 189.683715 
L 207.686909 185.693995 
L 222.178865 189.757635 
L 224.650726 208.994858 
z
" style="fill:#00ffff;opacity:0.8;stroke:#000000;stroke-linejoin:miter;"/>
   </g>
   <g id="patch_12">
    <path clip-path="url(#pbbef763365)" d="M 274.317154 164.347315 
L 272.145811 179.511221 
L 251.90429 178.299455 
L 248.183091 170.901803 
L 256.226417 162.36535 
z
" style="fill:#00ffff;opacity:0.8;stroke:#000000;stroke-linejoin:miter;"/>
   </g>
   <g id="patch_13">
    <path clip-path="url(#pbbef763365)" d="M 208.842185 145.896125 
L 219.36942 142.192723 
L 220.011656 141.984919 
L 230.535045 138.869598 
L 237.062464 152.340728 
L 230.996724 158.69245 
L 216.10717 158.513181 
z
" style="fill:#00ffff;opacity:0.8;stroke:#000000;stroke-linejoin:miter;"/>
   </g>
   <g id="patch_14">
    <path clip-path="url(#pbbef763365)" d="M 228.292417 175.440676 
L 217.642354 173.618523 
L 212.236857 163.875961 
L 216.10717 158.513181 
L 230.996724 158.69245 
L 235.74656 169.236716 
z
" style="fill:#fe01ff;opacity:0.8;stroke:#000000;stroke-linejoin:miter;"/>
   </g>
   <g id="patch_15">
    <path clip-path="url(#pbbef763365)" d="M 262.123312 200.62471 
L 255.471123 209.788534 
L 254.874991 210.523757 
L 254.19009 211.210108 
L 253.422932 211.841062 
L 252.580808 212.41062 
L 251.671724 212.913369 
L 250.704324 213.344529 
L 249.687803 213.700002 
L 248.631825 213.976407 
L 247.546428 214.171117 
L 246.441932 214.282281 
L 245.328835 214.308843 
L 244.21772 214.25055 
L 243.119149 214.107956 
L 223.651231 210.811595 
L 224.650726 208.994858 
L 240.661394 197.930798 
z
" style="fill:#c738ff;opacity:0.8;stroke:#000000;stroke-linejoin:miter;"/>
   </g>
   <g id="patch_16">
    <path clip-path="url(#pbbef763365)" d="M 228.292417 175.440676 
L 230.656306 184.255016 
L 222.178865 189.757635 
L 207.686909 185.693995 
L 207.784918 181.689983 
L 217.642354 173.618523 
z
" style="fill:#00ffff;opacity:0.8;stroke:#000000;stroke-linejoin:miter;"/>
   </g>
   <g id="patch_17">
    <path clip-path="url(#pbbef763365)" d="M 212.236857 163.875961 
L 217.642354 173.618523 
L 207.784918 181.689983 
L 189.695935 167.78423 
z
" style="fill:#00ffff;opacity:0.8;stroke:#000000;stroke-linejoin:miter;"/>
   </g>
   <g id="patch_18">
    <path clip-path="url(#pbbef763365)" d="M 263.16321 199.192183 
L 262.123312 200.62471 
L 240.661394 197.930798 
L 239.375624 187.035959 
L 248.964156 183.254712 
z
" style="fill:#fc03ff;opacity:0.8;stroke:#000000;stroke-linejoin:miter;"/>
   </g>
  </g>
 </g>
 <defs>
  <clipPath id="pbbef763365">
   <rect height="265.0032" width="357.12" x="57.6" y="41.2992"/>
  </clipPath>
 </defs>
</svg>
