<?xml version="1.0" encoding="utf-8" standalone="no"?>
<!DOCTYPE svg PUBLIC "-//W3C//DTD SVG 1.1//EN"
  "http://www.w3.org/Graphics/SVG/1.1/DTD/svg11.dtd">
<!-- Created with matplotlib (https://matplotlib.org/) -->
<svg height="344.16pt" version="1.1" viewBox="0 0 460.8 344.16" width="460.8pt" xmlns="http://www.w3.org/2000/svg" xmlns:xlink="http://www.w3.org/1999/xlink">
 <defs>
  <style type="text/css">
*{stroke-linecap:butt;stroke-linejoin:round;}
  </style>
 </defs>
 <g id="figure_1">
  <g id="patch_1">
   <path d="M 0 344.16 
L 460.8 344.16 
L 460.8 0 
L 0 0 
z
" style="fill:#ffffff;"/>
  </g>
  <g id="axes_1">
   <g id="PathCollection_1">
    <defs>
     <path d="M 0 1.093697 
C 0.290052 1.093697 0.568263 0.978458 0.77336 0.77336 
C 0.978458 0.568263 1.093697 0.290052 1.093697 0 
C 1.093697 -0.290052 0.978458 -0.568263 0.77336 -0.77336 
C 0.568263 -0.978458 0.290052 -1.093697 0 -1.093697 
C -0.290052 -1.093697 -0.568263 -0.978458 -0.77336 -0.77336 
C -0.978458 -0.568263 -1.093697 -0.290052 -1.093697 0 
C -1.093697 0.290052 -0.978458 0.568263 -0.77336 0.77336 
C -0.568263 0.978458 -0.290052 1.093697 0 1.093697 
z
" id="mc832fddfe3" style="stroke:#000000;"/>
    </defs>
    <g clip-path="url(#p80eb6a9e79)">
     <use style="stroke:#000000;" x="242.398907" xlink:href="#mc832fddfe3" y="191.291256"/>
     <use style="stroke:#000000;" x="190.912136" xlink:href="#mc832fddfe3" y="208.727775"/>
     <use style="stroke:#000000;" x="274.476705" xlink:href="#mc832fddfe3" y="157.407867"/>
     <use style="stroke:#000000;" x="273.930165" xlink:href="#mc832fddfe3" y="188.937885"/>
     <use style="stroke:#000000;" x="204.604986" xlink:href="#mc832fddfe3" y="145.975628"/>
     <use style="stroke:#000000;" x="227.885368" xlink:href="#mc832fddfe3" y="201.457343"/>
     <use style="stroke:#000000;" x="239.091268" xlink:href="#mc832fddfe3" y="135.802011"/>
     <use style="stroke:#000000;" x="184.040264" xlink:href="#mc832fddfe3" y="183.702126"/>
     <use style="stroke:#000000;" x="238.239133" xlink:href="#mc832fddfe3" y="162.095433"/>
     <use style="stroke:#000000;" x="209.707594" xlink:href="#mc832fddfe3" y="199.916661"/>
     <use style="stroke:#000000;" x="257.995463" xlink:href="#mc832fddfe3" y="167.798517"/>
     <use style="stroke:#000000;" x="217.494717" xlink:href="#mc832fddfe3" y="132.053662"/>
     <use style="stroke:#000000;" x="223.355285" xlink:href="#mc832fddfe3" y="173.305999"/>
     <use style="stroke:#000000;" x="254.90435" xlink:href="#mc832fddfe3" y="214.931133"/>
     <use style="stroke:#000000;" x="225.079648" xlink:href="#mc832fddfe3" y="187.77466"/>
     <use style="stroke:#000000;" x="194.532304" xlink:href="#mc832fddfe3" y="171.083148"/>
     <use style="stroke:#000000;" x="259.651162" xlink:href="#mc832fddfe3" y="198.842413"/>
     <use style="stroke:#000000;" x="253.698906" xlink:href="#mc832fddfe3" y="149.68737"/>
     <use style="stroke:#000000;" x="226.380563" xlink:href="#mc832fddfe3" y="148.911185"/>
     <use style="stroke:#000000;" x="186.45467" xlink:href="#mc832fddfe3" y="155.216764"/>
     <use style="stroke:#000000;" x="173.735114" xlink:href="#mc832fddfe3" y="197.54681"/>
     <use style="stroke:#000000;" x="278.006695" xlink:href="#mc832fddfe3" y="140.979181"/>
     <use style="stroke:#000000;" x="259.680237" xlink:href="#mc832fddfe3" y="132.224941"/>
     <use style="stroke:#000000;" x="278.022582" xlink:href="#mc832fddfe3" y="174.352685"/>
     <use style="stroke:#000000;" x="211.889193" xlink:href="#mc832fddfe3" y="161.279901"/>
     <use style="stroke:#000000;" x="207.275379" xlink:href="#mc832fddfe3" y="183.049311"/>
     <use style="stroke:#000000;" x="241.831292" xlink:href="#mc832fddfe3" y="177.505261"/>
     <use style="stroke:#000000;" x="234.412494" xlink:href="#mc832fddfe3" y="218.021141"/>
     <use style="stroke:#000000;" x="258.189497" xlink:href="#mc832fddfe3" y="182.818245"/>
     <use style="stroke:#000000;" x="242.507135" xlink:href="#mc832fddfe3" y="205.480577"/>
     <use style="stroke:#000000;" x="193.816851" xlink:href="#mc832fddfe3" y="192.814729"/>
    </g>
   </g>
   <g id="patch_2">
    <path clip-path="url(#p80eb6a9e79)" d="M 237.475035 198.409114 
L 232.291852 193.888205 
L 235.389521 184.567441 
L 247.834713 184.254382 
L 253.85797 191.11245 
L 248.66798 198.356955 
z
" style="fill:#fe01ff;opacity:0.8;stroke:#000000;stroke-linejoin:miter;"/>
   </g>
   <g id="patch_3">
    <path clip-path="url(#p80eb6a9e79)" d="M 209.61633 222.085244 
L 187.86615 217.438561 
L 186.694477 217.134807 
L 185.570956 216.735071 
L 184.508414 216.243918 
L 183.518982 215.666954 
L 174.930471 210.076471 
L 185.64308 200.021668 
L 198.073738 201.407958 
L 210.969736 218.214827 
z
" style="fill:#fe01ff;opacity:0.8;stroke:#000000;stroke-linejoin:miter;"/>
   </g>
   <g id="patch_4">
    <path clip-path="url(#p80eb6a9e79)" d="M 289.564502 150.942468 
L 289.570802 164.177182 
L 270.390711 166.629333 
L 261.419261 157.935334 
L 267.438725 148.037918 
z
" style="fill:#fe01ff;opacity:0.8;stroke:#000000;stroke-linejoin:miter;"/>
   </g>
   <g id="patch_5">
    <path clip-path="url(#p80eb6a9e79)" d="M 287.261224 183.579804 
L 285.215015 190.872404 
L 284.907037 191.754117 
L 284.48661 192.60698 
L 283.958042 193.422256 
L 277.020443 202.900469 
L 263.055112 190.599901 
L 269.463777 180.528855 
z
" style="fill:#fe01ff;opacity:0.8;stroke:#000000;stroke-linejoin:miter;"/>
   </g>
   <g id="patch_6">
    <path clip-path="url(#p80eb6a9e79)" d="M 188.009262 141.57178 
L 199.893038 132.703716 
L 216.65323 142.184235 
L 214.531399 151.80035 
L 200.044064 156.013121 
z
" style="fill:#fe01ff;opacity:0.8;stroke:#000000;stroke-linejoin:miter;"/>
   </g>
   <g id="patch_7">
    <path clip-path="url(#p80eb6a9e79)" d="M 232.521111 209.408885 
L 217.070479 213.128673 
L 219.517648 195.488562 
L 232.291852 193.888205 
L 237.475035 198.409114 
z
" style="fill:#00ffff;opacity:0.8;stroke:#000000;stroke-linejoin:miter;"/>
   </g>
   <g id="patch_8">
    <path clip-path="url(#p80eb6a9e79)" d="M 231.374797 123.079598 
L 246.293716 123.140171 
L 251.022814 139.770284 
L 240.158131 146.753407 
L 226.883419 138.889667 
z
" style="fill:#ff00ff;opacity:0.8;stroke:#000000;stroke-linejoin:miter;"/>
   </g>
   <g id="patch_9">
    <path clip-path="url(#p80eb6a9e79)" d="M 165.743821 184.647179 
L 170.536421 168.697644 
L 172.354807 168.791807 
L 195.528498 180.563549 
L 195.678886 183.833772 
L 182.684622 192.351156 
z
" style="fill:#00ffff;opacity:0.8;stroke:#000000;stroke-linejoin:miter;"/>
   </g>
   <g id="patch_10">
    <path clip-path="url(#p80eb6a9e79)" d="M 225.178942 159.421914 
L 239.946372 151.306856 
L 250.695875 159.489567 
L 246.241772 168.916416 
L 234.37883 170.605923 
L 224.997854 162.996609 
z
" style="fill:#00ffff;opacity:0.8;stroke:#000000;stroke-linejoin:miter;"/>
   </g>
   <g id="patch_11">
    <path clip-path="url(#p80eb6a9e79)" d="M 219.517648 195.488562 
L 217.070479 213.128673 
L 210.969736 218.214827 
L 198.073738 201.407958 
L 205.116491 191.780316 
L 213.741115 191.020505 
z
" style="fill:#fe01ff;opacity:0.8;stroke:#000000;stroke-linejoin:miter;"/>
   </g>
   <g id="patch_12">
    <path clip-path="url(#p80eb6a9e79)" d="M 246.241772 168.916416 
L 250.695875 159.489567 
L 261.419261 157.935334 
L 270.390711 166.629333 
L 265.774167 175.247752 
L 252.567313 175.35199 
z
" style="fill:#00ffff;opacity:0.8;stroke:#000000;stroke-linejoin:miter;"/>
   </g>
   <g id="patch_13">
    <path clip-path="url(#p80eb6a9e79)" d="M 199.893038 132.703716 
L 209.516907 125.522069 
L 210.353961 124.954832 
L 211.256675 124.45287 
L 212.216749 124.020798 
L 213.225355 123.66259 
L 214.273218 123.381539 
L 215.350703 123.180229 
L 216.447902 123.060511 
L 217.554728 123.023487 
L 231.374797 123.079598 
L 226.883419 138.889667 
L 216.65323 142.184235 
z
" style="fill:#00ffff;opacity:0.8;stroke:#000000;stroke-linejoin:miter;"/>
   </g>
   <g id="patch_14">
    <path clip-path="url(#p80eb6a9e79)" d="M 224.997854 162.996609 
L 234.37883 170.605923 
L 230.86314 180.056437 
L 218.10032 180.985738 
L 209.317768 172.130355 
z
" style="fill:#fd02ff;opacity:0.8;stroke:#000000;stroke-linejoin:miter;"/>
   </g>
   <g id="patch_15">
    <path clip-path="url(#p80eb6a9e79)" d="M 272.141547 209.566064 
L 264.932227 219.415504 
L 264.338689 220.143338 
L 263.658961 220.823556 
L 262.899256 221.449943 
L 262.066511 222.016776 
L 261.168336 222.518878 
L 260.212936 222.951661 
L 259.209038 223.311172 
L 258.165814 223.594126 
L 257.092795 223.797937 
L 246.846867 225.342941 
L 244.034788 213.949393 
L 253.660626 206.234763 
z
" style="fill:#00ffff;opacity:0.8;stroke:#000000;stroke-linejoin:miter;"/>
   </g>
   <g id="patch_16">
    <path clip-path="url(#p80eb6a9e79)" d="M 235.389521 184.567441 
L 232.291852 193.888205 
L 219.517648 195.488562 
L 213.741115 191.020505 
L 218.10032 180.985738 
L 230.86314 180.056437 
z
" style="fill:#00ffff;opacity:0.8;stroke:#000000;stroke-linejoin:miter;"/>
   </g>
   <g id="patch_17">
    <path clip-path="url(#p80eb6a9e79)" d="M 195.528498 180.563549 
L 172.354807 168.791807 
L 198.193959 160.754803 
L 208.627588 172.040986 
z
" style="fill:#00ffff;opacity:0.8;stroke:#000000;stroke-linejoin:miter;"/>
   </g>
   <g id="patch_18">
    <path clip-path="url(#p80eb6a9e79)" d="M 277.020443 202.900469 
L 272.141547 209.566064 
L 253.660626 206.234763 
L 248.66798 198.356955 
L 253.85797 191.11245 
L 263.055112 190.599901 
z
" style="fill:#fd02ff;opacity:0.8;stroke:#000000;stroke-linejoin:miter;"/>
   </g>
   <g id="patch_19">
    <path clip-path="url(#p80eb6a9e79)" d="M 250.695875 159.489567 
L 239.946372 151.306856 
L 240.158131 146.753407 
L 251.022814 139.770284 
L 264.208867 142.529704 
L 267.438725 148.037918 
L 261.419261 157.935334 
z
" style="fill:#fe01ff;opacity:0.8;stroke:#000000;stroke-linejoin:miter;"/>
   </g>
   <g id="patch_20">
    <path clip-path="url(#p80eb6a9e79)" d="M 225.178942 159.421914 
L 214.531399 151.80035 
L 216.65323 142.184235 
L 226.883419 138.889667 
L 240.158131 146.753407 
L 239.946372 151.306856 
z
" style="fill:#00ffff;opacity:0.8;stroke:#000000;stroke-linejoin:miter;"/>
   </g>
   <g id="patch_21">
    <path clip-path="url(#p80eb6a9e79)" d="M 178.47686 148.685171 
L 188.009262 141.57178 
L 200.044064 156.013121 
L 198.193959 160.754803 
L 172.354807 168.791807 
L 170.536421 168.697644 
L 175.207658 153.152001 
L 175.513808 152.316185 
L 175.921369 151.507255 
L 176.426562 150.732708 
L 177.024707 149.999724 
L 177.710257 149.315096 
z
" style="fill:#fe01ff;opacity:0.8;stroke:#000000;stroke-linejoin:miter;"/>
   </g>
   <g id="patch_22">
    <path clip-path="url(#p80eb6a9e79)" d="M 174.930471 210.076471 
L 166.341961 204.485989 
L 165.487392 203.870262 
L 164.716294 203.190538 
L 164.036472 202.453696 
L 163.454806 201.667194 
L 162.977182 200.838991 
L 162.608435 199.97747 
L 162.352295 199.091349 
L 162.211356 198.189596 
L 162.187044 197.281339 
L 162.279605 196.375767 
L 162.488102 195.482048 
L 165.743821 184.647179 
L 182.684622 192.351156 
L 185.64308 200.021668 
z
" style="fill:#fe01ff;opacity:0.8;stroke:#000000;stroke-linejoin:miter;"/>
   </g>
   <g id="patch_23">
    <path clip-path="url(#p80eb6a9e79)" d="M 274.867961 128.896745 
L 284.03119 133.273865 
L 285.005353 133.794412 
L 285.9065 134.389918 
L 286.725229 135.054168 
L 287.452999 135.780234 
L 288.082216 136.560539 
L 288.606317 137.386944 
L 289.019833 138.250826 
L 289.31845 139.143173 
L 289.499053 140.054675 
L 289.559757 140.975821 
L 289.564502 150.942468 
L 267.438725 148.037918 
L 264.208867 142.529704 
z
" style="fill:#fe01ff;opacity:0.8;stroke:#000000;stroke-linejoin:miter;"/>
   </g>
   <g id="patch_24">
    <path clip-path="url(#p80eb6a9e79)" d="M 246.293716 123.140171 
L 259.740248 123.194766 
L 260.784824 123.236013 
L 261.820346 123.350931 
L 262.838329 123.53858 
L 263.830428 123.79742 
L 264.788514 124.125331 
L 265.704733 124.519624 
L 274.867961 128.896745 
L 264.208867 142.529704 
L 251.022814 139.770284 
z
" style="fill:#00ffff;opacity:0.8;stroke:#000000;stroke-linejoin:miter;"/>
   </g>
   <g id="patch_25">
    <path clip-path="url(#p80eb6a9e79)" d="M 289.570802 164.177182 
L 289.575644 174.349325 
L 289.508627 175.323937 
L 289.307432 176.287204 
L 287.261224 183.579804 
L 269.463777 180.528855 
L 265.774167 175.247752 
L 270.390711 166.629333 
z
" style="fill:#00ffff;opacity:0.8;stroke:#000000;stroke-linejoin:miter;"/>
   </g>
   <g id="patch_26">
    <path clip-path="url(#p80eb6a9e79)" d="M 225.178942 159.421914 
L 224.997854 162.996609 
L 209.317768 172.130355 
L 208.627588 172.040986 
L 198.193959 160.754803 
L 200.044064 156.013121 
L 214.531399 151.80035 
z
" style="fill:#fd02ff;opacity:0.8;stroke:#000000;stroke-linejoin:miter;"/>
   </g>
   <g id="patch_27">
    <path clip-path="url(#p80eb6a9e79)" d="M 218.10032 180.985738 
L 213.741115 191.020505 
L 205.116491 191.780316 
L 195.678886 183.833772 
L 195.528498 180.563549 
L 208.627588 172.040986 
L 209.317768 172.130355 
z
" style="fill:#fe01ff;opacity:0.8;stroke:#000000;stroke-linejoin:miter;"/>
   </g>
   <g id="patch_28">
    <path clip-path="url(#p80eb6a9e79)" d="M 234.37883 170.605923 
L 246.241772 168.916416 
L 252.567313 175.35199 
L 247.834713 184.254382 
L 235.389521 184.567441 
L 230.86314 180.056437 
z
" style="fill:#fe01ff;opacity:0.8;stroke:#000000;stroke-linejoin:miter;"/>
   </g>
   <g id="patch_29">
    <path clip-path="url(#p80eb6a9e79)" d="M 246.846867 225.342941 
L 236.600939 226.887945 
L 235.555535 227.007131 
L 234.500572 227.051175 
L 233.444873 227.019709 
L 232.397265 226.912995 
L 231.366509 226.731927 
L 209.61633 222.085244 
L 210.969736 218.214827 
L 217.070479 213.128673 
L 232.521111 209.408885 
L 244.034788 213.949393 
z
" style="fill:#00ffff;opacity:0.8;stroke:#000000;stroke-linejoin:miter;"/>
   </g>
   <g id="patch_30">
    <path clip-path="url(#p80eb6a9e79)" d="M 247.834713 184.254382 
L 252.567313 175.35199 
L 265.774167 175.247752 
L 269.463777 180.528855 
L 263.055112 190.599901 
L 253.85797 191.11245 
z
" style="fill:#fc03ff;opacity:0.8;stroke:#000000;stroke-linejoin:miter;"/>
   </g>
   <g id="patch_31">
    <path clip-path="url(#p80eb6a9e79)" d="M 232.521111 209.408885 
L 237.475035 198.409114 
L 248.66798 198.356955 
L 253.660626 206.234763 
L 244.034788 213.949393 
z
" style="fill:#00ffff;opacity:0.8;stroke:#000000;stroke-linejoin:miter;"/>
   </g>
   <g id="patch_32">
    <path clip-path="url(#p80eb6a9e79)" d="M 195.678886 183.833772 
L 205.116491 191.780316 
L 198.073738 201.407958 
L 185.64308 200.021668 
L 182.684622 192.351156 
z
" style="fill:#00ffff;opacity:0.8;stroke:#000000;stroke-linejoin:miter;"/>
   </g>
  </g>
 </g>
 <defs>
  <clipPath id="p80eb6a9e79">
   <rect height="265.0032" width="357.12" x="57.6" y="41.2992"/>
  </clipPath>
 </defs>
</svg>
