<?xml version="1.0" encoding="utf-8" standalone="no"?>
<!DOCTYPE svg PUBLIC "-//W3C//DTD SVG 1.1//EN"
  "http://www.w3.org/Graphics/SVG/1.1/DTD/svg11.dtd">
<!-- Created with matplotlib (https://matplotlib.org/) -->
<svg height="344.16pt" version="1.1" viewBox="0 0 460.8 344.16" width="460.8pt" xmlns="http://www.w3.org/2000/svg" xmlns:xlink="http://www.w3.org/1999/xlink">
 <defs>
  <style type="text/css">
*{stroke-linecap:butt;stroke-linejoin:round;}
  </style>
 </defs>
 <g id="figure_1">
  <g id="patch_1">
   <path d="M 0 344.16 
L 460.8 344.16 
L 460.8 0 
L 0 0 
z
" style="fill:#ffffff;"/>
  </g>
  <g id="axes_1">
   <g id="PathCollection_1">
    <defs>
     <path d="M 0 1.085931 
C 0.287992 1.085931 0.564228 0.97151 0.767869 0.767869 
C 0.97151 0.564228 1.085931 0.287992 1.085931 0 
C 1.085931 -0.287992 0.97151 -0.564228 0.767869 -0.767869 
C 0.564228 -0.97151 0.287992 -1.085931 0 -1.085931 
C -0.287992 -1.085931 -0.564228 -0.97151 -0.767869 -0.767869 
C -0.97151 -0.564228 -1.085931 -0.287992 -1.085931 0 
C -1.085931 0.287992 -0.97151 0.564228 -0.767869 0.767869 
C -0.564228 0.97151 -0.287992 1.085931 0 1.085931 
z
" id="mbd61c33b20" style="stroke:#000000;"/>
    </defs>
    <g clip-path="url(#p1603d048de)">
     <use style="stroke:#000000;" x="225.727789" xlink:href="#mbd61c33b20" y="184.993917"/>
     <use style="stroke:#000000;" x="207.483379" xlink:href="#mbd61c33b20" y="188.102547"/>
     <use style="stroke:#000000;" x="258.306167" xlink:href="#mbd61c33b20" y="187.548209"/>
     <use style="stroke:#000000;" x="272.74235" xlink:href="#mbd61c33b20" y="146.948938"/>
     <use style="stroke:#000000;" x="225.104534" xlink:href="#mbd61c33b20" y="162.197964"/>
     <use style="stroke:#000000;" x="236.489907" xlink:href="#mbd61c33b20" y="148.976836"/>
     <use style="stroke:#000000;" x="270.918929" xlink:href="#mbd61c33b20" y="163.220747"/>
     <use style="stroke:#000000;" x="242.977883" xlink:href="#mbd61c33b20" y="192.568826"/>
     <use style="stroke:#000000;" x="213.792873" xlink:href="#mbd61c33b20" y="173.804491"/>
     <use style="stroke:#000000;" x="252.637531" xlink:href="#mbd61c33b20" y="163.023209"/>
     <use style="stroke:#000000;" x="259.104389" xlink:href="#mbd61c33b20" y="174.216766"/>
     <use style="stroke:#000000;" x="211.211622" xlink:href="#mbd61c33b20" y="205.46622"/>
     <use style="stroke:#000000;" x="213.753918" xlink:href="#mbd61c33b20" y="148.037895"/>
     <use style="stroke:#000000;" x="274.967741" xlink:href="#mbd61c33b20" y="181.920543"/>
     <use style="stroke:#000000;" x="255.568582" xlink:href="#mbd61c33b20" y="151.235893"/>
     <use style="stroke:#000000;" x="226.975314" xlink:href="#mbd61c33b20" y="196.831254"/>
     <use style="stroke:#000000;" x="203.651807" xlink:href="#mbd61c33b20" y="161.941206"/>
     <use style="stroke:#000000;" x="245.117757" xlink:href="#mbd61c33b20" y="180.061178"/>
     <use style="stroke:#000000;" x="266.057301" xlink:href="#mbd61c33b20" y="198.437227"/>
     <use style="stroke:#000000;" x="240.967451" xlink:href="#mbd61c33b20" y="168.23922"/>
     <use style="stroke:#000000;" x="230.740737" xlink:href="#mbd61c33b20" y="175.502377"/>
    </g>
   </g>
   <g id="patch_2">
    <path clip-path="url(#p1603d048de)" d="M 236.759818 185.588763 
L 233.056355 190.501019 
L 218.031717 191.423289 
L 215.32103 182.157146 
L 221.652739 178.223535 
L 235.388429 182.448917 
z
" style="fill:#ff00ff;opacity:0.8;stroke:#000000;stroke-linejoin:miter;"/>
   </g>
   <g id="patch_3">
    <path clip-path="url(#p1603d048de)" d="M 198.288154 198.167476 
L 196.424033 189.485639 
L 196.345889 189.052634 
L 194.55424 176.819548 
L 215.32103 182.157146 
L 218.031717 191.423289 
L 214.395242 196.153109 
z
" style="fill:#00ffff;opacity:0.8;stroke:#000000;stroke-linejoin:miter;"/>
   </g>
   <g id="patch_4">
    <path clip-path="url(#p1603d048de)" d="M 248.803356 186.788885 
L 254.696417 180.742681 
L 264.520855 181.085302 
L 269.634178 189.902891 
L 254.161908 196.317786 
z
" style="fill:#00ffff;opacity:0.8;stroke:#000000;stroke-linejoin:miter;"/>
   </g>
   <g id="patch_5">
    <path clip-path="url(#p1603d048de)" d="M 259.673619 138.634801 
L 272.471349 138.398548 
L 273.553792 138.418496 
L 274.62866 138.518073 
L 275.68592 138.696348 
L 276.715703 138.951658 
L 277.708396 139.281619 
L 278.654733 139.683152 
L 279.545881 140.152508 
L 280.37352 140.685306 
L 281.129925 141.276572 
L 281.808036 141.920788 
L 282.401522 142.61194 
L 282.904843 143.343575 
L 283.313302 144.108866 
L 283.623085 144.900667 
L 283.831301 145.711588 
L 283.936005 146.534059 
L 284.532885 155.913912 
L 266.576688 154.74192 
z
" style="fill:#00ffff;opacity:0.8;stroke:#000000;stroke-linejoin:miter;"/>
   </g>
   <g id="patch_6">
    <path clip-path="url(#p1603d048de)" d="M 231.188323 168.044376 
L 223.058544 170.050365 
L 214.316152 165.087718 
L 214.473472 157.431713 
L 224.832057 152.59541 
L 237.22529 158.811573 
z
" style="fill:#ff00ff;opacity:0.8;stroke:#000000;stroke-linejoin:miter;"/>
   </g>
   <g id="patch_7">
    <path clip-path="url(#p1603d048de)" d="M 225.777542 139.26054 
L 248.318707 138.844418 
L 244.873244 155.79277 
L 241.16045 158.278789 
L 237.22529 158.811573 
L 224.832057 152.59541 
z
" style="fill:#ff00ff;opacity:0.8;stroke:#000000;stroke-linejoin:miter;"/>
   </g>
   <g id="patch_8">
    <path clip-path="url(#p1603d048de)" d="M 284.532885 155.913912 
L 285.49212 170.988117 
L 271.464703 172.757115 
L 261.712701 166.654246 
L 261.868534 158.254248 
L 266.576688 154.74192 
z
" style="fill:#ff00ff;opacity:0.8;stroke:#000000;stroke-linejoin:miter;"/>
   </g>
   <g id="patch_9">
    <path clip-path="url(#p1603d048de)" d="M 248.466421 209.364312 
L 242.058252 210.18558 
L 233.056355 190.501019 
L 236.759818 185.588763 
L 248.803356 186.788885 
L 254.161908 196.317786 
z
" style="fill:#ff00ff;opacity:0.8;stroke:#000000;stroke-linejoin:miter;"/>
   </g>
   <g id="patch_10">
    <path clip-path="url(#p1603d048de)" d="M 194.55424 176.819548 
L 194.295908 175.055695 
L 214.316152 165.087718 
L 223.058544 170.050365 
L 221.652739 178.223535 
L 215.32103 182.157146 
z
" style="fill:#ff00ff;opacity:0.8;stroke:#000000;stroke-linejoin:miter;"/>
   </g>
   <g id="patch_11">
    <path clip-path="url(#p1603d048de)" d="M 261.712701 166.654246 
L 250.486393 170.431891 
L 241.16045 158.278789 
L 244.873244 155.79277 
L 261.868534 158.254248 
z
" style="fill:#ff00ff;opacity:0.8;stroke:#000000;stroke-linejoin:miter;"/>
   </g>
   <g id="patch_12">
    <path clip-path="url(#p1603d048de)" d="M 254.696417 180.742681 
L 249.081072 172.915456 
L 250.486393 170.431891 
L 261.712701 166.654246 
L 271.464703 172.757115 
L 264.520855 181.085302 
z
" style="fill:#ff00ff;opacity:0.8;stroke:#000000;stroke-linejoin:miter;"/>
   </g>
   <g id="patch_13">
    <path clip-path="url(#p1603d048de)" d="M 229.148351 211.840106 
L 213.06757 213.90101 
L 211.972577 213.999372 
L 210.870219 214.015142 
L 209.771165 213.948167 
L 208.686053 213.799095 
L 207.625386 213.569368 
L 206.59943 213.261212 
L 205.618116 212.877607 
L 204.690942 212.422267 
L 203.826881 211.8996 
L 203.034297 211.314664 
L 202.320862 210.67312 
L 201.693481 209.981179 
L 201.158226 209.245538 
L 200.720278 208.473316 
L 200.383876 207.671989 
L 200.152276 206.849312 
L 198.288154 198.167476 
L 214.395242 196.153109 
z
" style="fill:#ff00ff;opacity:0.8;stroke:#000000;stroke-linejoin:miter;"/>
   </g>
   <g id="patch_14">
    <path clip-path="url(#p1603d048de)" d="M 198.902042 150.841775 
L 203.953097 143.890119 
L 204.510114 143.20232 
L 205.149746 142.557739 
L 205.866276 141.962135 
L 206.653301 141.420832 
L 207.503786 140.938668 
L 208.41013 140.519953 
L 209.364234 140.168427 
L 210.35757 139.887234 
L 211.38126 139.678886 
L 212.426155 139.545244 
L 213.482917 139.487505 
L 225.777542 139.26054 
L 224.832057 152.59541 
L 214.473472 157.431713 
z
" style="fill:#00ffff;opacity:0.8;stroke:#000000;stroke-linejoin:miter;"/>
   </g>
   <g id="patch_15">
    <path clip-path="url(#p1603d048de)" d="M 285.330618 185.176776 
L 280.875398 193.435119 
L 269.634178 189.902891 
L 264.520855 181.085302 
L 271.464703 172.757115 
L 285.49212 170.988117 
L 286.161396 181.505663 
L 286.153575 182.444063 
L 286.011095 183.376161 
L 285.73567 184.290735 
z
" style="fill:#ff00ff;opacity:0.8;stroke:#000000;stroke-linejoin:miter;"/>
   </g>
   <g id="patch_16">
    <path clip-path="url(#p1603d048de)" d="M 248.318707 138.844418 
L 259.673619 138.634801 
L 266.576688 154.74192 
L 261.868534 158.254248 
L 244.873244 155.79277 
z
" style="fill:#00ffff;opacity:0.8;stroke:#000000;stroke-linejoin:miter;"/>
   </g>
   <g id="patch_17">
    <path clip-path="url(#p1603d048de)" d="M 242.058252 210.18558 
L 229.148351 211.840106 
L 214.395242 196.153109 
L 218.031717 191.423289 
L 233.056355 190.501019 
z
" style="fill:#ff00ff;opacity:0.8;stroke:#000000;stroke-linejoin:miter;"/>
   </g>
   <g id="patch_18">
    <path clip-path="url(#p1603d048de)" d="M 194.295908 175.055695 
L 192.514318 162.891293 
L 192.445352 162.012842 
L 192.495028 161.133632 
L 192.662818 160.262972 
L 192.946946 159.41008 
L 193.344405 158.583984 
L 193.850987 157.79343 
L 198.902042 150.841775 
L 214.473472 157.431713 
L 214.316152 165.087718 
z
" style="fill:#ff00ff;opacity:0.8;stroke:#000000;stroke-linejoin:miter;"/>
   </g>
   <g id="patch_19">
    <path clip-path="url(#p1603d048de)" d="M 236.759818 185.588763 
L 235.388429 182.448917 
L 239.513433 174.871842 
L 249.081072 172.915456 
L 254.696417 180.742681 
L 248.803356 186.788885 
z
" style="fill:#ff00ff;opacity:0.8;stroke:#000000;stroke-linejoin:miter;"/>
   </g>
   <g id="patch_20">
    <path clip-path="url(#p1603d048de)" d="M 280.875398 193.435119 
L 276.420178 201.693461 
L 275.935132 202.477199 
L 275.348639 203.219446 
L 274.666723 203.912579 
L 273.896388 204.54948 
L 273.045544 205.123607 
L 272.12293 205.629064 
L 271.138022 206.060661 
L 270.100934 206.413964 
L 269.022318 206.685345 
L 267.91325 206.872017 
L 248.466421 209.364312 
L 254.161908 196.317786 
L 269.634178 189.902891 
z
" style="fill:#00ffff;opacity:0.8;stroke:#000000;stroke-linejoin:miter;"/>
   </g>
   <g id="patch_21">
    <path clip-path="url(#p1603d048de)" d="M 249.081072 172.915456 
L 239.513433 174.871842 
L 231.188323 168.044376 
L 237.22529 158.811573 
L 241.16045 158.278789 
L 250.486393 170.431891 
z
" style="fill:#ff00ff;opacity:0.8;stroke:#000000;stroke-linejoin:miter;"/>
   </g>
   <g id="patch_22">
    <path clip-path="url(#p1603d048de)" d="M 235.388429 182.448917 
L 221.652739 178.223535 
L 223.058544 170.050365 
L 231.188323 168.044376 
L 239.513433 174.871842 
z
" style="fill:#ff00ff;opacity:0.8;stroke:#000000;stroke-linejoin:miter;"/>
   </g>
  </g>
 </g>
 <defs>
  <clipPath id="p1603d048de">
   <rect height="265.0032" width="357.12" x="57.6" y="41.2992"/>
  </clipPath>
 </defs>
</svg>
