<?xml version="1.0" encoding="utf-8" standalone="no"?>
<!DOCTYPE svg PUBLIC "-//W3C//DTD SVG 1.1//EN"
  "http://www.w3.org/Graphics/SVG/1.1/DTD/svg11.dtd">
<!-- Created with matplotlib (https://matplotlib.org/) -->
<svg height="344.16pt" version="1.1" viewBox="0 0 460.8 344.16" width="460.8pt" xmlns="http://www.w3.org/2000/svg" xmlns:xlink="http://www.w3.org/1999/xlink">
 <defs>
  <style type="text/css">
*{stroke-linecap:butt;stroke-linejoin:round;}
  </style>
 </defs>
 <g id="figure_1">
  <g id="patch_1">
   <path d="M 0 344.16 
L 460.8 344.16 
L 460.8 0 
L 0 0 
z
" style="fill:#ffffff;"/>
  </g>
  <g id="axes_1">
   <g id="PathCollection_1">
    <defs>
     <path d="M 0 1.085931 
C 0.287992 1.085931 0.564228 0.97151 0.767869 0.767869 
C 0.97151 0.564228 1.085931 0.287992 1.085931 0 
C 1.085931 -0.287992 0.97151 -0.564228 0.767869 -0.767869 
C 0.564228 -0.97151 0.287992 -1.085931 0 -1.085931 
C -0.287992 -1.085931 -0.564228 -0.97151 -0.767869 -0.767869 
C -0.97151 -0.564228 -1.085931 -0.287992 -1.085931 0 
C -1.085931 0.287992 -0.97151 0.564228 -0.767869 0.767869 
C -0.564228 0.97151 -0.287992 1.085931 0 1.085931 
z
" id="m5dfc201158" style="stroke:#000000;"/>
    </defs>
    <g clip-path="url(#pd5b2b6d7dc)">
     <use style="stroke:#000000;" x="232.019631" xlink:href="#m5dfc201158" y="173.411698"/>
     <use style="stroke:#000000;" x="218.672759" xlink:href="#m5dfc201158" y="182.54162"/>
     <use style="stroke:#000000;" x="256.401617" xlink:href="#m5dfc201158" y="189.731431"/>
     <use style="stroke:#000000;" x="258.441978" xlink:href="#m5dfc201158" y="159.717731"/>
     <use style="stroke:#000000;" x="228.090629" xlink:href="#m5dfc201158" y="165.491476"/>
     <use style="stroke:#000000;" x="225.635303" xlink:href="#m5dfc201158" y="155.052897"/>
     <use style="stroke:#000000;" x="259.41809" xlink:href="#m5dfc201158" y="173.970129"/>
     <use style="stroke:#000000;" x="234.391439" xlink:href="#m5dfc201158" y="183.601149"/>
     <use style="stroke:#000000;" x="217.112085" xlink:href="#m5dfc201158" y="171.336831"/>
     <use style="stroke:#000000;" x="243.704344" xlink:href="#m5dfc201158" y="169.166628"/>
     <use style="stroke:#000000;" x="247.443957" xlink:href="#m5dfc201158" y="181.414452"/>
     <use style="stroke:#000000;" x="226.023579" xlink:href="#m5dfc201158" y="191.521056"/>
    </g>
   </g>
   <g id="patch_2">
    <path clip-path="url(#pd5b2b6d7dc)" d="M 240.878682 176.125577 
L 239.520518 177.650254 
L 226.962438 179.352847 
L 223.58538 176.477371 
L 224.908945 170.938513 
L 235.698702 167.820947 
z
" style="fill:#ff00ff;opacity:0.8;stroke:#000000;stroke-linejoin:miter;"/>
   </g>
   <g id="patch_3">
    <path clip-path="url(#pd5b2b6d7dc)" d="M 214.665333 190.694594 
L 210.989923 186.204876 
L 210.587538 185.659936 
L 210.251336 185.089472 
L 209.984068 184.498151 
L 209.787923 183.890816 
L 209.664506 183.272436 
L 208.884168 177.670042 
L 223.58538 176.477371 
L 226.962438 179.352847 
L 226.291411 185.151159 
z
" style="fill:#a659ff;opacity:0.8;stroke:#000000;stroke-linejoin:miter;"/>
   </g>
   <g id="patch_4">
    <path clip-path="url(#pd5b2b6d7dc)" d="M 266.873747 182.850005 
L 265.365511 190.730655 
L 265.198009 191.384056 
L 264.948932 192.02213 
L 264.62059 192.638962 
L 264.216029 193.22883 
L 263.738998 193.786264 
L 263.193924 194.306095 
L 262.585859 194.783502 
L 261.920444 195.214058 
L 261.203849 195.593769 
L 260.44272 195.919115 
L 259.644115 196.187079 
L 258.815439 196.395175 
L 257.964379 196.541473 
L 257.098827 196.624617 
L 241.909808 197.51943 
L 241.612464 194.579644 
L 243.346752 190.952845 
L 257.864326 181.845705 
z
" style="fill:#34cbff;opacity:0.8;stroke:#000000;stroke-linejoin:miter;"/>
   </g>
   <g id="patch_5">
    <path clip-path="url(#pd5b2b6d7dc)" d="M 243.697904 150.588581 
L 260.101241 152.920998 
L 260.941254 153.072361 
L 261.75858 153.284047 
L 262.545799 153.554136 
L 263.295766 153.880175 
L 264.001671 154.259205 
L 264.657109 154.687786 
L 265.256127 155.162026 
L 265.79329 155.677621 
L 266.263721 156.22989 
L 266.663149 156.81382 
L 266.987949 157.424111 
L 267.235172 158.055223 
L 267.402574 158.701426 
L 267.488636 159.356854 
L 267.976692 166.483054 
L 253.936203 167.043137 
L 242.268551 156.443547 
z
" style="fill:#14ebff;opacity:0.8;stroke:#000000;stroke-linejoin:miter;"/>
   </g>
   <g id="patch_6">
    <path clip-path="url(#pd5b2b6d7dc)" d="M 235.698702 167.820947 
L 224.908945 170.938513 
L 216.461239 161.697243 
L 239.445965 158.548291 
z
" style="fill:#ff00ff;opacity:0.8;stroke:#000000;stroke-linejoin:miter;"/>
   </g>
   <g id="patch_7">
    <path clip-path="url(#pd5b2b6d7dc)" d="M 227.294566 148.256164 
L 243.697904 150.588581 
L 242.268551 156.443547 
L 239.445965 158.548291 
L 216.461239 161.697243 
L 212.961053 160.63017 
L 217.222662 152.488203 
L 217.592711 151.87102 
L 218.040272 151.284503 
L 218.561032 150.734305 
L 219.149972 150.225728 
L 219.801415 149.763673 
L 220.509083 149.352595 
L 221.266156 148.996454 
L 222.065338 148.698684 
L 222.898926 148.462153 
L 223.758886 148.289142 
L 224.636931 148.181318 
L 225.524597 148.13972 
L 226.413331 148.164749 
z
" style="fill:#15eaff;opacity:0.8;stroke:#000000;stroke-linejoin:miter;"/>
   </g>
   <g id="patch_8">
    <path clip-path="url(#pd5b2b6d7dc)" d="M 267.976692 166.483054 
L 268.464748 173.609253 
L 268.467344 174.290862 
L 268.381984 174.969354 
L 266.873747 182.850005 
L 257.864326 181.845705 
L 250.022942 174.499372 
L 253.936203 167.043137 
z
" style="fill:#f609ff;opacity:0.8;stroke:#000000;stroke-linejoin:miter;"/>
   </g>
   <g id="patch_9">
    <path clip-path="url(#pd5b2b6d7dc)" d="M 243.346752 190.952845 
L 241.612464 194.579644 
L 226.291411 185.151159 
L 226.962438 179.352847 
L 239.520518 177.650254 
z
" style="fill:#ff00ff;opacity:0.8;stroke:#000000;stroke-linejoin:miter;"/>
   </g>
   <g id="patch_10">
    <path clip-path="url(#pd5b2b6d7dc)" d="M 208.884168 177.670042 
L 208.103831 172.067647 
L 208.053422 171.39708 
L 208.08851 170.725944 
L 208.208766 170.060574 
L 208.413053 169.40725 
L 208.699444 168.772137 
L 212.961053 160.63017 
L 216.461239 161.697243 
L 224.908945 170.938513 
L 223.58538 176.477371 
z
" style="fill:#fb04ff;opacity:0.8;stroke:#000000;stroke-linejoin:miter;"/>
   </g>
   <g id="patch_11">
    <path clip-path="url(#pd5b2b6d7dc)" d="M 250.022942 174.499372 
L 240.878682 176.125577 
L 235.698702 167.820947 
L 239.445965 158.548291 
L 242.268551 156.443547 
L 253.936203 167.043137 
z
" style="fill:#ff00ff;opacity:0.8;stroke:#000000;stroke-linejoin:miter;"/>
   </g>
   <g id="patch_12">
    <path clip-path="url(#pd5b2b6d7dc)" d="M 250.022942 174.499372 
L 257.864326 181.845705 
L 243.346752 190.952845 
L 239.520518 177.650254 
L 240.878682 176.125577 
z
" style="fill:#ff00ff;opacity:0.8;stroke:#000000;stroke-linejoin:miter;"/>
   </g>
   <g id="patch_13">
    <path clip-path="url(#pd5b2b6d7dc)" d="M 241.909808 197.51943 
L 226.720789 198.414243 
L 225.824319 198.433076 
L 224.929802 198.38417 
L 224.046004 198.268004 
L 223.181588 198.085715 
L 222.345023 197.839091 
L 221.54451 197.530548 
L 220.787892 197.16311 
L 220.082586 196.740379 
L 219.435503 196.266497 
L 218.852986 195.746108 
L 218.340742 195.184312 
L 214.665333 190.694594 
L 226.291411 185.151159 
L 241.612464 194.579644 
z
" style="fill:#d728ff;opacity:0.8;stroke:#000000;stroke-linejoin:miter;"/>
   </g>
  </g>
 </g>
 <defs>
  <clipPath id="pd5b2b6d7dc">
   <rect height="265.0032" width="357.12" x="57.6" y="41.2992"/>
  </clipPath>
 </defs>
</svg>
