<?xml version="1.0" encoding="utf-8" standalone="no"?>
<!DOCTYPE svg PUBLIC "-//W3C//DTD SVG 1.1//EN"
  "http://www.w3.org/Graphics/SVG/1.1/DTD/svg11.dtd">
<!-- Created with matplotlib (https://matplotlib.org/) -->
<svg height="344.16pt" version="1.1" viewBox="0 0 460.8 344.16" width="460.8pt" xmlns="http://www.w3.org/2000/svg" xmlns:xlink="http://www.w3.org/1999/xlink">
 <defs>
  <style type="text/css">
*{stroke-linecap:butt;stroke-linejoin:round;}
  </style>
 </defs>
 <g id="figure_1">
  <g id="patch_1">
   <path d="M 0 344.16 
L 460.8 344.16 
L 460.8 0 
L 0 0 
z
" style="fill:#ffffff;"/>
  </g>
  <g id="axes_1">
   <g id="PathCollection_1">
    <defs>
     <path d="M 0 1.085931 
C 0.287992 1.085931 0.564228 0.97151 0.767869 0.767869 
C 0.97151 0.564228 1.085931 0.287992 1.085931 0 
C 1.085931 -0.287992 0.97151 -0.564228 0.767869 -0.767869 
C 0.564228 -0.97151 0.287992 -1.085931 0 -1.085931 
C -0.287992 -1.085931 -0.564228 -0.97151 -0.767869 -0.767869 
C -0.97151 -0.564228 -1.085931 -0.287992 -1.085931 0 
C -1.085931 0.287992 -0.97151 0.564228 -0.767869 0.767869 
C -0.564228 0.97151 -0.287992 1.085931 0 1.085931 
z
" id="me96f1942cb" style="stroke:#000000;"/>
    </defs>
    <g clip-path="url(#p25ee8be179)">
     <use style="stroke:#000000;" x="233.842703" xlink:href="#me96f1942cb" y="195.589936"/>
     <use style="stroke:#000000;" x="187.999732" xlink:href="#me96f1942cb" y="192.645189"/>
     <use style="stroke:#000000;" x="255.489262" xlink:href="#me96f1942cb" y="194.490428"/>
     <use style="stroke:#000000;" x="264.255282" xlink:href="#me96f1942cb" y="145.896906"/>
     <use style="stroke:#000000;" x="225.821496" xlink:href="#me96f1942cb" y="156.062792"/>
     <use style="stroke:#000000;" x="243.427338" xlink:href="#me96f1942cb" y="151.393315"/>
     <use style="stroke:#000000;" x="296.047645" xlink:href="#me96f1942cb" y="165.196486"/>
     <use style="stroke:#000000;" x="241.080735" xlink:href="#me96f1942cb" y="212.89846"/>
     <use style="stroke:#000000;" x="205.437316" xlink:href="#me96f1942cb" y="173.503279"/>
     <use style="stroke:#000000;" x="262.818203" xlink:href="#me96f1942cb" y="157.611068"/>
     <use style="stroke:#000000;" x="261.354937" xlink:href="#me96f1942cb" y="173.080614"/>
     <use style="stroke:#000000;" x="209.691597" xlink:href="#me96f1942cb" y="218.061127"/>
     <use style="stroke:#000000;" x="203.214849" xlink:href="#me96f1942cb" y="137.653435"/>
     <use style="stroke:#000000;" x="278.831236" xlink:href="#me96f1942cb" y="186.815249"/>
     <use style="stroke:#000000;" x="249.953736" xlink:href="#me96f1942cb" y="138.104265"/>
     <use style="stroke:#000000;" x="226.283595" xlink:href="#me96f1942cb" y="211.285638"/>
     <use style="stroke:#000000;" x="192.834996" xlink:href="#me96f1942cb" y="163.701587"/>
     <use style="stroke:#000000;" x="245.556323" xlink:href="#me96f1942cb" y="181.784144"/>
     <use style="stroke:#000000;" x="275.14942" xlink:href="#me96f1942cb" y="199.833237"/>
     <use style="stroke:#000000;" x="236.902299" xlink:href="#me96f1942cb" y="167.542083"/>
     <use style="stroke:#000000;" x="227.356284" xlink:href="#me96f1942cb" y="181.766688"/>
     <use style="stroke:#000000;" x="210.694922" xlink:href="#me96f1942cb" y="187.29489"/>
     <use style="stroke:#000000;" x="195.067186" xlink:href="#me96f1942cb" y="208.168602"/>
     <use style="stroke:#000000;" x="230.570607" xlink:href="#me96f1942cb" y="136.380548"/>
     <use style="stroke:#000000;" x="279.577798" xlink:href="#me96f1942cb" y="155.913414"/>
     <use style="stroke:#000000;" x="294.625284" xlink:href="#me96f1942cb" y="180.442015"/>
     <use style="stroke:#000000;" x="210.492671" xlink:href="#me96f1942cb" y="161.335854"/>
     <use style="stroke:#000000;" x="277.695702" xlink:href="#me96f1942cb" y="171.419769"/>
     <use style="stroke:#000000;" x="265.631473" xlink:href="#me96f1942cb" y="131.394181"/>
     <use style="stroke:#000000;" x="281.097549" xlink:href="#me96f1942cb" y="140.220545"/>
     <use style="stroke:#000000;" x="263.323025" xlink:href="#me96f1942cb" y="208.961093"/>
     <use style="stroke:#000000;" x="191.12276" xlink:href="#me96f1942cb" y="178.089085"/>
     <use style="stroke:#000000;" x="216.496382" xlink:href="#me96f1942cb" y="145.837393"/>
     <use style="stroke:#000000;" x="263.347468" xlink:href="#me96f1942cb" y="185.205161"/>
     <use style="stroke:#000000;" x="200.468404" xlink:href="#me96f1942cb" y="151.238955"/>
     <use style="stroke:#000000;" x="220.319581" xlink:href="#me96f1942cb" y="171.607217"/>
     <use style="stroke:#000000;" x="217.828333" xlink:href="#me96f1942cb" y="201.791655"/>
     <use style="stroke:#000000;" x="248.848327" xlink:href="#me96f1942cb" y="203.866873"/>
     <use style="stroke:#000000;" x="204.073344" xlink:href="#me96f1942cb" y="199.90209"/>
     <use style="stroke:#000000;" x="252.622045" xlink:href="#me96f1942cb" y="163.804944"/>
    </g>
   </g>
   <g id="patch_2">
    <path clip-path="url(#p25ee8be179)" d="M 236.447568 187.079981 
L 244.310668 190.9658 
L 244.760367 196.122491 
L 236.951246 204.368533 
L 235.040392 204.833955 
L 228.746052 203.068328 
L 221.666795 192.420908 
L 222.629192 190.856666 
z
" style="fill:#ff00ff;opacity:0.8;stroke:#000000;stroke-linejoin:miter;"/>
   </g>
   <g id="patch_3">
    <path clip-path="url(#p25ee8be179)" d="M 181.912294 202.9582 
L 178.378567 195.196494 
L 178.111538 194.509281 
L 177.928588 193.806218 
L 177.831273 193.093283 
L 177.820421 192.376537 
L 177.896124 191.662076 
L 179.164786 184.06794 
L 197.906404 186.409993 
L 199.887742 191.305226 
L 193.168847 199.973229 
z
" style="fill:#00ffff;opacity:0.8;stroke:#000000;stroke-linejoin:miter;"/>
   </g>
   <g id="patch_4">
    <path clip-path="url(#p25ee8be179)" d="M 266.990402 193.580302 
L 263.842596 200.326892 
L 258.803707 201.915716 
L 244.760367 196.122491 
L 244.310668 190.9658 
L 253.343146 186.853118 
z
" style="fill:#00ffff;opacity:0.8;stroke:#000000;stroke-linejoin:miter;"/>
   </g>
   <g id="patch_5">
    <path clip-path="url(#p25ee8be179)" d="M 260.474221 138.398534 
L 270.293876 138.941265 
L 275.413691 147.789235 
L 270.412453 152.245286 
L 254.972617 151.142043 
L 252.877861 146.51866 
z
" style="fill:#00ffff;opacity:0.8;stroke:#000000;stroke-linejoin:miter;"/>
   </g>
   <g id="patch_6">
    <path clip-path="url(#p25ee8be179)" d="M 231.412144 146.673656 
L 236.886707 158.696216 
L 226.49211 164.540386 
L 220.929547 163.393624 
L 215.390108 154.014317 
L 229.670689 146.428914 
z
" style="fill:#ff00ff;opacity:0.8;stroke:#000000;stroke-linejoin:miter;"/>
   </g>
   <g id="patch_7">
    <path clip-path="url(#p25ee8be179)" d="M 252.474967 155.678891 
L 242.448554 160.005162 
L 236.886707 158.696216 
L 231.412144 146.673656 
L 239.433057 142.672803 
L 252.877861 146.51866 
L 254.972617 151.142043 
z
" style="fill:#ff00ff;opacity:0.8;stroke:#000000;stroke-linejoin:miter;"/>
   </g>
   <g id="patch_8">
    <path clip-path="url(#p25ee8be179)" d="M 298.102429 149.921852 
L 305.31211 161.966494 
L 305.688083 162.687913 
L 305.967887 163.434356 
L 306.14873 164.198378 
L 306.228807 164.972357 
L 306.20732 165.748571 
L 305.49614 173.371336 
L 289.30734 172.491623 
L 284.406825 164.074509 
z
" style="fill:#ff00ff;opacity:0.8;stroke:#000000;stroke-linejoin:miter;"/>
   </g>
   <g id="patch_9">
    <path clip-path="url(#p25ee8be179)" d="M 254.503298 218.50208 
L 243.382153 220.470764 
L 243.226515 220.497337 
L 231.756224 222.383891 
L 235.040392 204.833955 
L 236.951246 204.368533 
L 252.58847 212.201763 
z
" style="fill:#ff00ff;opacity:0.8;stroke:#000000;stroke-linejoin:miter;"/>
   </g>
   <g id="patch_10">
    <path clip-path="url(#p25ee8be179)" d="M 202.486165 166.093701 
L 211.966918 168.388025 
L 214.291821 179.016728 
L 201.60126 181.834545 
L 195.727386 171.15517 
z
" style="fill:#ff00ff;opacity:0.8;stroke:#000000;stroke-linejoin:miter;"/>
   </g>
   <g id="patch_11">
    <path clip-path="url(#p25ee8be179)" d="M 252.474967 155.678891 
L 254.972617 151.142043 
L 270.412453 152.245286 
L 272.321093 163.220104 
L 268.381019 165.692627 
L 262.585884 165.37335 
z
" style="fill:#ff00ff;opacity:0.8;stroke:#000000;stroke-linejoin:miter;"/>
   </g>
   <g id="patch_12">
    <path clip-path="url(#p25ee8be179)" d="M 255.677683 179.781671 
L 249.063399 172.788642 
L 262.585884 165.37335 
L 268.381019 165.692627 
L 270.59048 178.354231 
z
" style="fill:#ff00ff;opacity:0.8;stroke:#000000;stroke-linejoin:miter;"/>
   </g>
   <g id="patch_13">
    <path clip-path="url(#p25ee8be179)" d="M 224.258101 223.61713 
L 211.837376 225.660004 
L 210.895892 225.779936 
L 209.943832 225.832079 
L 208.989556 225.815976 
L 208.041446 225.731769 
L 207.107828 225.580196 
L 206.196901 225.362589 
L 205.316665 225.080859 
L 204.474851 224.73748 
L 203.678851 224.335468 
L 202.935657 223.878354 
L 195.623451 218.932091 
L 207.258271 208.913888 
L 209.127657 208.577014 
L 214.890306 210.255656 
z
" style="fill:#00ffff;opacity:0.8;stroke:#000000;stroke-linejoin:miter;"/>
   </g>
   <g id="patch_14">
    <path clip-path="url(#p25ee8be179)" d="M 190.398928 143.09884 
L 193.470126 135.391695 
L 193.796768 134.693495 
L 194.209077 134.022219 
L 194.703304 133.383972 
L 195.274952 132.784561 
L 195.918822 132.229438 
L 196.629058 131.723651 
L 197.399198 131.271803 
L 198.222238 130.878002 
L 199.090691 130.545831 
L 199.996657 130.278311 
L 200.931896 130.077876 
L 201.887902 129.946349 
L 216.213104 128.509791 
L 216.749862 135.22867 
L 206.427167 144.986133 
z
" style="fill:#00ffff;opacity:0.8;stroke:#000000;stroke-linejoin:miter;"/>
   </g>
   <g id="patch_15">
    <path clip-path="url(#p25ee8be179)" d="M 293.88413 193.957556 
L 292.031616 195.80202 
L 269.989462 192.170978 
L 272.273975 179.374818 
L 283.448633 178.894753 
z
" style="fill:#ff00ff;opacity:0.8;stroke:#000000;stroke-linejoin:miter;"/>
   </g>
   <g id="patch_16">
    <path clip-path="url(#p25ee8be179)" d="M 241.990144 125.924822 
L 250.66867 125.054524 
L 260.474221 138.398534 
L 252.877861 146.51866 
L 239.433057 142.672803 
z
" style="fill:#00ffff;opacity:0.8;stroke:#000000;stroke-linejoin:miter;"/>
   </g>
   <g id="patch_17">
    <path clip-path="url(#p25ee8be179)" d="M 231.756224 222.383891 
L 224.258101 223.61713 
L 214.890306 210.255656 
L 228.746052 203.068328 
L 235.040392 204.833955 
z
" style="fill:#ff00ff;opacity:0.8;stroke:#000000;stroke-linejoin:miter;"/>
   </g>
   <g id="patch_18">
    <path clip-path="url(#p25ee8be179)" d="M 181.486873 170.168066 
L 182.731387 162.718475 
L 182.875539 162.073391 
L 183.090273 161.439847 
L 186.163164 153.728454 
L 200.846828 158.966896 
L 202.486165 166.093701 
L 195.727386 171.15517 
z
" style="fill:#ff00ff;opacity:0.8;stroke:#000000;stroke-linejoin:miter;"/>
   </g>
   <g id="patch_19">
    <path clip-path="url(#p25ee8be179)" d="M 255.677683 179.781671 
L 253.343146 186.853118 
L 244.310668 190.9658 
L 236.447568 187.079981 
L 236.465239 176.349211 
L 247.522333 172.435892 
L 249.063399 172.788642 
z
" style="fill:#ff00ff;opacity:0.8;stroke:#000000;stroke-linejoin:miter;"/>
   </g>
   <g id="patch_20">
    <path clip-path="url(#p25ee8be179)" d="M 292.031616 195.80202 
L 283.233204 204.562193 
L 282.391989 205.298804 
L 276.478791 209.862732 
L 263.842596 200.326892 
L 266.990402 193.580302 
L 269.989462 192.170978 
z
" style="fill:#00ffff;opacity:0.8;stroke:#000000;stroke-linejoin:miter;"/>
   </g>
   <g id="patch_21">
    <path clip-path="url(#p25ee8be179)" d="M 247.522333 172.435892 
L 236.465239 176.349211 
L 230.477101 174.008581 
L 226.49211 164.540386 
L 236.886707 158.696216 
L 242.448554 160.005162 
z
" style="fill:#ff00ff;opacity:0.8;stroke:#000000;stroke-linejoin:miter;"/>
   </g>
   <g id="patch_22">
    <path clip-path="url(#p25ee8be179)" d="M 236.447568 187.079981 
L 222.629192 190.856666 
L 216.291543 179.731315 
L 230.477101 174.008581 
L 236.465239 176.349211 
z
" style="fill:#ff00ff;opacity:0.8;stroke:#000000;stroke-linejoin:miter;"/>
   </g>
   <g id="patch_23">
    <path clip-path="url(#p25ee8be179)" d="M 199.887742 191.305226 
L 197.906404 186.409993 
L 201.60126 181.834545 
L 214.291821 179.016728 
L 216.291543 179.731315 
L 222.629192 190.856666 
L 221.666795 192.420908 
L 212.305326 195.103961 
z
" style="fill:#00ffff;opacity:0.8;stroke:#000000;stroke-linejoin:miter;"/>
   </g>
   <g id="patch_24">
    <path clip-path="url(#p25ee8be179)" d="M 195.623451 218.932091 
L 188.311246 213.985828 
L 187.568618 213.429251 
L 186.904296 212.817738 
L 186.325216 212.157675 
L 185.837426 211.455955 
L 185.44602 210.719907 
L 181.912294 202.9582 
L 193.168847 199.973229 
L 207.258271 208.913888 
z
" style="fill:#ff00ff;opacity:0.8;stroke:#000000;stroke-linejoin:miter;"/>
   </g>
   <g id="patch_25">
    <path clip-path="url(#p25ee8be179)" d="M 216.213104 128.509791 
L 241.990144 125.924822 
L 239.433057 142.672803 
L 231.412144 146.673656 
L 229.670689 146.428914 
L 216.749862 135.22867 
z
" style="fill:#ff00ff;opacity:0.8;stroke:#000000;stroke-linejoin:miter;"/>
   </g>
   <g id="patch_26">
    <path clip-path="url(#p25ee8be179)" d="M 297.574107 149.039226 
L 298.102429 149.921852 
L 284.406825 164.074509 
L 272.321093 163.220104 
L 270.412453 152.245286 
L 275.413691 147.789235 
z
" style="fill:#ff00ff;opacity:0.8;stroke:#000000;stroke-linejoin:miter;"/>
   </g>
   <g id="patch_27">
    <path clip-path="url(#p25ee8be179)" d="M 305.49614 173.371336 
L 304.784959 180.994101 
L 304.666883 181.743592 
L 304.454107 182.480808 
L 304.148637 183.198796 
L 303.753353 183.890786 
L 303.271984 184.550251 
L 302.709068 185.170971 
L 293.88413 193.957556 
L 283.448633 178.894753 
L 289.30734 172.491623 
z
" style="fill:#ff00ff;opacity:0.8;stroke:#000000;stroke-linejoin:miter;"/>
   </g>
   <g id="patch_28">
    <path clip-path="url(#p25ee8be179)" d="M 202.486165 166.093701 
L 200.846828 158.966896 
L 211.089471 153.043979 
L 215.390108 154.014317 
L 220.929547 163.393624 
L 211.966918 168.388025 
z
" style="fill:#ff00ff;opacity:0.8;stroke:#000000;stroke-linejoin:miter;"/>
   </g>
   <g id="patch_29">
    <path clip-path="url(#p25ee8be179)" d="M 272.273975 179.374818 
L 270.59048 178.354231 
L 268.381019 165.692627 
L 272.321093 163.220104 
L 284.406825 164.074509 
L 289.30734 172.491623 
L 283.448633 178.894753 
z
" style="fill:#ff00ff;opacity:0.8;stroke:#000000;stroke-linejoin:miter;"/>
   </g>
   <g id="patch_30">
    <path clip-path="url(#p25ee8be179)" d="M 271.731101 125.168877 
L 279.464139 129.582059 
L 270.293876 138.941265 
L 260.474221 138.398534 
L 250.66867 125.054524 
L 264.304526 123.687095 
L 265.284628 123.625353 
L 266.267963 123.636038 
L 267.245365 123.719048 
L 268.207721 123.873609 
L 269.14606 124.098282 
L 270.051633 124.390972 
L 270.916 124.748949 
z
" style="fill:#00ffff;opacity:0.8;stroke:#000000;stroke-linejoin:miter;"/>
   </g>
   <g id="patch_31">
    <path clip-path="url(#p25ee8be179)" d="M 279.464139 129.582059 
L 287.197176 133.995241 
L 287.98135 134.491293 
L 288.696688 135.044637 
L 289.336036 135.649738 
L 289.893001 136.300546 
L 290.362013 136.990553 
L 297.574107 149.039226 
L 275.413691 147.789235 
L 270.293876 138.941265 
z
" style="fill:#00ffff;opacity:0.8;stroke:#000000;stroke-linejoin:miter;"/>
   </g>
   <g id="patch_32">
    <path clip-path="url(#p25ee8be179)" d="M 276.478791 209.862732 
L 270.565594 214.42666 
L 269.862594 214.920597 
L 269.102036 215.362082 
L 268.290615 215.747229 
L 267.435472 216.072648 
L 266.544132 216.335475 
L 265.624443 216.533396 
L 254.503298 218.50208 
L 252.58847 212.201763 
L 258.803707 201.915716 
L 263.842596 200.326892 
z
" style="fill:#00ffff;opacity:0.8;stroke:#000000;stroke-linejoin:miter;"/>
   </g>
   <g id="patch_33">
    <path clip-path="url(#p25ee8be179)" d="M 179.164786 184.06794 
L 181.486873 170.168066 
L 195.727386 171.15517 
L 201.60126 181.834545 
L 197.906404 186.409993 
z
" style="fill:#ff00ff;opacity:0.8;stroke:#000000;stroke-linejoin:miter;"/>
   </g>
   <g id="patch_34">
    <path clip-path="url(#p25ee8be179)" d="M 211.089471 153.043979 
L 206.427167 144.986133 
L 216.749862 135.22867 
L 229.670689 146.428914 
L 215.390108 154.014317 
z
" style="fill:#00ffff;opacity:0.8;stroke:#000000;stroke-linejoin:miter;"/>
   </g>
   <g id="patch_35">
    <path clip-path="url(#p25ee8be179)" d="M 269.989462 192.170978 
L 266.990402 193.580302 
L 253.343146 186.853118 
L 255.677683 179.781671 
L 270.59048 178.354231 
L 272.273975 179.374818 
z
" style="fill:#00ffff;opacity:0.8;stroke:#000000;stroke-linejoin:miter;"/>
   </g>
   <g id="patch_36">
    <path clip-path="url(#p25ee8be179)" d="M 186.163164 153.728454 
L 190.398928 143.09884 
L 206.427167 144.986133 
L 211.089471 153.043979 
L 200.846828 158.966896 
z
" style="fill:#ff00ff;opacity:0.8;stroke:#000000;stroke-linejoin:miter;"/>
   </g>
   <g id="patch_37">
    <path clip-path="url(#p25ee8be179)" d="M 230.477101 174.008581 
L 216.291543 179.731315 
L 214.291821 179.016728 
L 211.966918 168.388025 
L 220.929547 163.393624 
L 226.49211 164.540386 
z
" style="fill:#ff00ff;opacity:0.8;stroke:#000000;stroke-linejoin:miter;"/>
   </g>
   <g id="patch_38">
    <path clip-path="url(#p25ee8be179)" d="M 214.890306 210.255656 
L 209.127657 208.577014 
L 212.305326 195.103961 
L 221.666795 192.420908 
L 228.746052 203.068328 
z
" style="fill:#ff00ff;opacity:0.8;stroke:#000000;stroke-linejoin:miter;"/>
   </g>
   <g id="patch_39">
    <path clip-path="url(#p25ee8be179)" d="M 244.760367 196.122491 
L 258.803707 201.915716 
L 252.58847 212.201763 
L 236.951246 204.368533 
z
" style="fill:#ff00ff;opacity:0.8;stroke:#000000;stroke-linejoin:miter;"/>
   </g>
   <g id="patch_40">
    <path clip-path="url(#p25ee8be179)" d="M 209.127657 208.577014 
L 207.258271 208.913888 
L 193.168847 199.973229 
L 199.887742 191.305226 
L 212.305326 195.103961 
z
" style="fill:#ff00ff;opacity:0.8;stroke:#000000;stroke-linejoin:miter;"/>
   </g>
   <g id="patch_41">
    <path clip-path="url(#p25ee8be179)" d="M 249.063399 172.788642 
L 247.522333 172.435892 
L 242.448554 160.005162 
L 252.474967 155.678891 
L 262.585884 165.37335 
z
" style="fill:#ff00ff;opacity:0.8;stroke:#000000;stroke-linejoin:miter;"/>
   </g>
  </g>
 </g>
 <defs>
  <clipPath id="p25ee8be179">
   <rect height="265.0032" width="357.12" x="57.6" y="41.2992"/>
  </clipPath>
 </defs>
</svg>
