<?xml version="1.0" encoding="utf-8" standalone="no"?>
<!DOCTYPE svg PUBLIC "-//W3C//DTD SVG 1.1//EN"
  "http://www.w3.org/Graphics/SVG/1.1/DTD/svg11.dtd">
<!-- Created with matplotlib (https://matplotlib.org/) -->
<svg height="344.16pt" version="1.1" viewBox="0 0 460.8 344.16" width="460.8pt" xmlns="http://www.w3.org/2000/svg" xmlns:xlink="http://www.w3.org/1999/xlink">
 <defs>
  <style type="text/css">
*{stroke-linecap:butt;stroke-linejoin:round;}
  </style>
 </defs>
 <g id="figure_1">
  <g id="patch_1">
   <path d="M 0 344.16 
L 460.8 344.16 
L 460.8 0 
L 0 0 
z
" style="fill:#ffffff;"/>
  </g>
  <g id="axes_1">
   <g id="PathCollection_1">
    <defs>
     <path d="M 0 1.153164 
C 0.305823 1.153164 0.599161 1.031659 0.81541 0.81541 
C 1.031659 0.599161 1.153164 0.305823 1.153164 0 
C 1.153164 -0.305823 1.031659 -0.599161 0.81541 -0.81541 
C 0.599161 -1.031659 0.305823 -1.153164 0 -1.153164 
C -0.305823 -1.153164 -0.599161 -1.031659 -0.81541 -0.81541 
C -1.031659 -0.599161 -1.153164 -0.305823 -1.153164 0 
C -1.153164 0.305823 -1.031659 0.599161 -0.81541 0.81541 
C -0.599161 1.031659 -0.305823 1.153164 0 1.153164 
z
" id="m400a5bbd05" style="stroke:#000000;"/>
    </defs>
    <g clip-path="url(#p4d11804ff6)">
     <use style="stroke:#000000;" x="226.370307" xlink:href="#m400a5bbd05" y="169.649011"/>
     <use style="stroke:#000000;" x="195.756631" xlink:href="#m400a5bbd05" y="204.917495"/>
     <use style="stroke:#000000;" x="194.071857" xlink:href="#m400a5bbd05" y="165.618314"/>
     <use style="stroke:#000000;" x="292.629938" xlink:href="#m400a5bbd05" y="160.960249"/>
     <use style="stroke:#000000;" x="266.003748" xlink:href="#m400a5bbd05" y="186.060564"/>
     <use style="stroke:#000000;" x="218.781805" xlink:href="#m400a5bbd05" y="144.048807"/>
     <use style="stroke:#000000;" x="219.911904" xlink:href="#m400a5bbd05" y="184.76108"/>
     <use style="stroke:#000000;" x="233.494025" xlink:href="#m400a5bbd05" y="194.019995"/>
     <use style="stroke:#000000;" x="294.618514" xlink:href="#m400a5bbd05" y="173.661267"/>
     <use style="stroke:#000000;" x="262.277502" xlink:href="#m400a5bbd05" y="152.679934"/>
     <use style="stroke:#000000;" x="266.314059" xlink:href="#m400a5bbd05" y="167.99305"/>
     <use style="stroke:#000000;" x="195.41867" xlink:href="#m400a5bbd05" y="148.244955"/>
     <use style="stroke:#000000;" x="240.956552" xlink:href="#m400a5bbd05" y="158.80405"/>
     <use style="stroke:#000000;" x="189.46272" xlink:href="#m400a5bbd05" y="184.396805"/>
     <use style="stroke:#000000;" x="283.383649" xlink:href="#m400a5bbd05" y="196.408256"/>
     <use style="stroke:#000000;" x="275.787234" xlink:href="#m400a5bbd05" y="215.401072"/>
     <use style="stroke:#000000;" x="214.572243" xlink:href="#m400a5bbd05" y="158.239804"/>
     <use style="stroke:#000000;" x="243.57511" xlink:href="#m400a5bbd05" y="210.029854"/>
     <use style="stroke:#000000;" x="249.527637" xlink:href="#m400a5bbd05" y="139.656655"/>
     <use style="stroke:#000000;" x="219.785809" xlink:href="#m400a5bbd05" y="206.566655"/>
     <use style="stroke:#000000;" x="174.586835" xlink:href="#m400a5bbd05" y="160.274787"/>
     <use style="stroke:#000000;" x="208.760821" xlink:href="#m400a5bbd05" y="175.132214"/>
     <use style="stroke:#000000;" x="250.822632" xlink:href="#m400a5bbd05" y="177.197618"/>
     <use style="stroke:#000000;" x="252.26959" xlink:href="#m400a5bbd05" y="194.204536"/>
     <use style="stroke:#000000;" x="263.854919" xlink:href="#m400a5bbd05" y="204.681334"/>
     <use style="stroke:#000000;" x="279.446612" xlink:href="#m400a5bbd05" y="178.44811"/>
     <use style="stroke:#000000;" x="208.312116" xlink:href="#m400a5bbd05" y="193.129941"/>
     <use style="stroke:#000000;" x="234.518567" xlink:href="#m400a5bbd05" y="179.528335"/>
     <use style="stroke:#000000;" x="230.835387" xlink:href="#m400a5bbd05" y="135.391522"/>
     <use style="stroke:#000000;" x="280.900827" xlink:href="#m400a5bbd05" y="152.171787"/>
    </g>
   </g>
   <g id="patch_2">
    <path clip-path="url(#p4d11804ff6)" d="M 240.724284 169.555541 
L 240.521008 169.925041 
L 224.228088 177.465719 
L 219.791323 176.40172 
L 214.72804 167.277026 
L 227.718 159.73936 
z
" style="fill:#00ffff;opacity:0.8;stroke:#000000;stroke-linejoin:miter;"/>
   </g>
   <g id="patch_3">
    <path clip-path="url(#p4d11804ff6)" d="M 206.535554 215.845092 
L 193.601196 214.150761 
L 192.429262 213.9534 
L 191.287991 213.672773 
L 190.187898 213.311465 
L 189.139123 212.872805 
L 188.151328 212.360836 
L 187.233616 211.780276 
L 186.394446 211.136475 
L 185.641548 210.435366 
L 184.981863 209.683408 
L 184.421468 208.887532 
L 183.965528 208.055072 
L 178.743824 197.043582 
L 194.254991 194.373977 
L 208.146133 202.67672 
z
" style="fill:#00ffff;opacity:0.8;stroke:#000000;stroke-linejoin:miter;"/>
   </g>
   <g id="patch_4">
    <path clip-path="url(#p4d11804ff6)" d="M 206.766447 165.740059 
L 195.479452 175.518841 
L 179.275796 173.28709 
L 187.424543 156.613177 
L 201.299549 157.216751 
z
" style="fill:#00ffff;opacity:0.8;stroke:#000000;stroke-linejoin:miter;"/>
   </g>
   <g id="patch_5">
    <path clip-path="url(#p4d11804ff6)" d="M 295.614494 149.938885 
L 301.479049 154.333116 
L 302.282339 154.995424 
L 302.997659 155.712096 
L 303.618489 156.476597 
L 304.139171 157.281963 
L 304.55496 158.120851 
L 304.862065 158.985618 
L 305.057689 159.868381 
L 306.051978 166.21889 
L 282.657939 168.274226 
L 280.933109 167.544586 
L 278.612432 162.671793 
z
" style="fill:#00ffff;opacity:0.8;stroke:#000000;stroke-linejoin:miter;"/>
   </g>
   <g id="patch_6">
    <path clip-path="url(#p4d11804ff6)" d="M 254.314187 185.568923 
L 263.23077 176.998586 
L 267.462456 177.03937 
L 278.329446 187.807747 
L 269.959175 195.69666 
L 264.653309 195.353075 
z
" style="fill:#00ffff;opacity:0.8;stroke:#000000;stroke-linejoin:miter;"/>
   </g>
   <g id="patch_7">
    <path clip-path="url(#p4d11804ff6)" d="M 203.499414 134.896791 
L 213.834228 131.146081 
L 234.641161 147.402178 
L 227.973901 153.024731 
L 208.25084 149.741722 
z
" style="fill:#fe01ff;opacity:0.8;stroke:#000000;stroke-linejoin:miter;"/>
   </g>
   <g id="patch_8">
    <path clip-path="url(#p4d11804ff6)" d="M 219.791323 176.40172 
L 224.228088 177.465719 
L 230.071094 186.618047 
L 220.863891 194.196997 
L 207.910799 184.122325 
z
" style="fill:#fe01ff;opacity:0.8;stroke:#000000;stroke-linejoin:miter;"/>
   </g>
   <g id="patch_9">
    <path clip-path="url(#p4d11804ff6)" d="M 220.863891 194.196997 
L 230.071094 186.618047 
L 243.004087 187.131126 
L 242.769421 200.528578 
L 232.780494 204.058072 
L 220.708936 196.65708 
z
" style="fill:#fe01ff;opacity:0.8;stroke:#000000;stroke-linejoin:miter;"/>
   </g>
   <g id="patch_10">
    <path clip-path="url(#p4d11804ff6)" d="M 306.051978 166.21889 
L 307.046266 172.569399 
L 307.126468 173.396795 
L 307.108698 174.226262 
L 306.993094 175.051304 
L 306.780562 175.865458 
L 306.472768 176.662347 
L 301.173452 188.408357 
L 292.650344 186.046161 
L 282.657939 168.274226 
z
" style="fill:#fe01ff;opacity:0.8;stroke:#000000;stroke-linejoin:miter;"/>
   </g>
   <g id="patch_11">
    <path clip-path="url(#p4d11804ff6)" d="M 248.7327 150.107152 
L 270.884679 137.937684 
L 271.918988 159.208881 
L 254.695706 161.756517 
z
" style="fill:#fe01ff;opacity:0.8;stroke:#000000;stroke-linejoin:miter;"/>
   </g>
   <g id="patch_12">
    <path clip-path="url(#p4d11804ff6)" d="M 254.695706 161.756517 
L 271.918988 159.208881 
L 278.612432 162.671793 
L 280.933109 167.544586 
L 267.462456 177.03937 
L 263.23077 176.998586 
L 251.814964 166.217354 
z
" style="fill:#fe01ff;opacity:0.8;stroke:#000000;stroke-linejoin:miter;"/>
   </g>
   <g id="patch_13">
    <path clip-path="url(#p4d11804ff6)" d="M 177.363124 146.836281 
L 187.779042 140.821365 
L 188.836268 140.273318 
L 189.962987 139.80943 
L 203.499414 134.896791 
L 208.25084 149.741722 
L 201.299549 157.216751 
L 187.424543 156.613177 
z
" style="fill:#00ffff;opacity:0.8;stroke:#000000;stroke-linejoin:miter;"/>
   </g>
   <g id="patch_14">
    <path clip-path="url(#p4d11804ff6)" d="M 248.7327 150.107152 
L 254.695706 161.756517 
L 251.814964 166.217354 
L 240.724284 169.555541 
L 227.718 159.73936 
L 227.973901 153.024731 
L 234.641161 147.402178 
L 236.331545 146.992123 
z
" style="fill:#00ffff;opacity:0.8;stroke:#000000;stroke-linejoin:miter;"/>
   </g>
   <g id="patch_15">
    <path clip-path="url(#p4d11804ff6)" d="M 178.743824 197.043582 
L 169.141428 176.794122 
L 179.275796 173.28709 
L 195.479452 175.518841 
L 202.778608 184.050525 
L 194.254991 194.373977 
z
" style="fill:#ff00ff;opacity:0.8;stroke:#000000;stroke-linejoin:miter;"/>
   </g>
   <g id="patch_16">
    <path clip-path="url(#p4d11804ff6)" d="M 301.173452 188.408357 
L 292.02069 208.695586 
L 277.274097 205.385914 
L 269.959175 195.69666 
L 278.329446 187.807747 
L 292.650344 186.046161 
z
" style="fill:#fe01ff;opacity:0.8;stroke:#000000;stroke-linejoin:miter;"/>
   </g>
   <g id="patch_17">
    <path clip-path="url(#p4d11804ff6)" d="M 273.631799 224.634338 
L 256.794832 222.428786 
L 258.345979 217.208753 
L 277.274097 205.385914 
L 292.02069 208.695586 
L 287.641488 218.402152 
L 287.175647 219.284652 
L 286.593074 220.127344 
L 285.89974 220.921592 
L 285.102751 221.659254 
L 284.210276 222.332769 
L 283.231465 222.935233 
L 282.176349 223.46047 
L 281.055744 223.903098 
L 279.881136 224.258579 
L 278.664565 224.52327 
L 277.418501 224.694457 
L 276.155717 224.770385 
L 274.889155 224.750277 
z
" style="fill:#00ffff;opacity:0.8;stroke:#000000;stroke-linejoin:miter;"/>
   </g>
   <g id="patch_18">
    <path clip-path="url(#p4d11804ff6)" d="M 214.72804 167.277026 
L 206.766447 165.740059 
L 201.299549 157.216751 
L 208.25084 149.741722 
L 227.973901 153.024731 
L 227.718 159.73936 
z
" style="fill:#ff00ff;opacity:0.8;stroke:#000000;stroke-linejoin:miter;"/>
   </g>
   <g id="patch_19">
    <path clip-path="url(#p4d11804ff6)" d="M 256.794832 222.428786 
L 228.960485 218.782637 
L 232.780494 204.058072 
L 242.769421 200.528578 
L 251.817355 203.318002 
L 258.345979 217.208753 
z
" style="fill:#ff00ff;opacity:0.8;stroke:#000000;stroke-linejoin:miter;"/>
   </g>
   <g id="patch_20">
    <path clip-path="url(#p4d11804ff6)" d="M 243.827593 128.55746 
L 253.173718 130.690026 
L 254.31384 130.996072 
L 255.409124 131.383251 
L 271.095719 137.640817 
L 270.884679 137.937684 
L 248.7327 150.107152 
L 236.331545 146.992123 
z
" style="fill:#fe01ff;opacity:0.8;stroke:#000000;stroke-linejoin:miter;"/>
   </g>
   <g id="patch_21">
    <path clip-path="url(#p4d11804ff6)" d="M 228.960485 218.782637 
L 206.535554 215.845092 
L 208.146133 202.67672 
L 220.708936 196.65708 
L 232.780494 204.058072 
z
" style="fill:#00ffff;opacity:0.8;stroke:#000000;stroke-linejoin:miter;"/>
   </g>
   <g id="patch_22">
    <path clip-path="url(#p4d11804ff6)" d="M 169.141428 176.794122 
L 162.795732 163.412364 
L 162.446823 162.546123 
L 162.211035 161.658718 
L 162.090566 160.758418 
L 162.086537 159.85361 
L 162.198987 158.952728 
L 162.426867 158.064164 
L 162.768054 157.196199 
L 163.219369 156.356921 
L 163.776607 155.554149 
L 164.434574 154.795364 
L 165.187141 154.087637 
L 166.027295 153.437562 
L 166.947207 152.851197 
L 177.363124 146.836281 
L 187.424543 156.613177 
L 179.275796 173.28709 
z
" style="fill:#00ffff;opacity:0.8;stroke:#000000;stroke-linejoin:miter;"/>
   </g>
   <g id="patch_23">
    <path clip-path="url(#p4d11804ff6)" d="M 219.791323 176.40172 
L 207.910799 184.122325 
L 202.778608 184.050525 
L 195.479452 175.518841 
L 206.766447 165.740059 
L 214.72804 167.277026 
z
" style="fill:#00ffff;opacity:0.8;stroke:#000000;stroke-linejoin:miter;"/>
   </g>
   <g id="patch_24">
    <path clip-path="url(#p4d11804ff6)" d="M 254.314187 185.568923 
L 244.624193 186.031546 
L 240.521008 169.925041 
L 240.724284 169.555541 
L 251.814964 166.217354 
L 263.23077 176.998586 
z
" style="fill:#ff00ff;opacity:0.8;stroke:#000000;stroke-linejoin:miter;"/>
   </g>
   <g id="patch_25">
    <path clip-path="url(#p4d11804ff6)" d="M 254.314187 185.568923 
L 264.653309 195.353075 
L 251.817355 203.318002 
L 242.769421 200.528578 
L 243.004087 187.131126 
L 244.624193 186.031546 
z
" style="fill:#00ffff;opacity:0.8;stroke:#000000;stroke-linejoin:miter;"/>
   </g>
   <g id="patch_26">
    <path clip-path="url(#p4d11804ff6)" d="M 269.959175 195.69666 
L 277.274097 205.385914 
L 258.345979 217.208753 
L 251.817355 203.318002 
L 264.653309 195.353075 
z
" style="fill:#00ffff;opacity:0.8;stroke:#000000;stroke-linejoin:miter;"/>
   </g>
   <g id="patch_27">
    <path clip-path="url(#p4d11804ff6)" d="M 267.462456 177.03937 
L 280.933109 167.544586 
L 282.657939 168.274226 
L 292.650344 186.046161 
L 278.329446 187.807747 
z
" style="fill:#fd02ff;opacity:0.8;stroke:#000000;stroke-linejoin:miter;"/>
   </g>
   <g id="patch_28">
    <path clip-path="url(#p4d11804ff6)" d="M 207.910799 184.122325 
L 220.863891 194.196997 
L 220.708936 196.65708 
L 208.146133 202.67672 
L 194.254991 194.373977 
L 202.778608 184.050525 
z
" style="fill:#fe01ff;opacity:0.8;stroke:#000000;stroke-linejoin:miter;"/>
   </g>
   <g id="patch_29">
    <path clip-path="url(#p4d11804ff6)" d="M 244.624193 186.031546 
L 243.004087 187.131126 
L 230.071094 186.618047 
L 224.228088 177.465719 
L 240.521008 169.925041 
z
" style="fill:#00ffff;opacity:0.8;stroke:#000000;stroke-linejoin:miter;"/>
   </g>
   <g id="patch_30">
    <path clip-path="url(#p4d11804ff6)" d="M 213.834228 131.146081 
L 225.379704 126.955997 
L 226.453181 126.611763 
L 227.564822 126.343987 
L 228.704944 126.155002 
L 229.863619 126.046453 
L 231.030756 126.019287 
L 232.196193 126.073738 
L 233.349778 126.209334 
L 234.481467 126.424894 
L 243.827593 128.55746 
L 236.331545 146.992123 
L 234.641161 147.402178 
z
" style="fill:#fe01ff;opacity:0.8;stroke:#000000;stroke-linejoin:miter;"/>
   </g>
   <g id="patch_31">
    <path clip-path="url(#p4d11804ff6)" d="M 271.095719 137.640817 
L 286.782314 143.898383 
L 287.842357 144.372965 
L 288.834787 144.92351 
L 289.749939 145.544654 
L 295.614494 149.938885 
L 278.612432 162.671793 
L 271.918988 159.208881 
L 270.884679 137.937684 
z
" style="fill:#00ffff;opacity:0.8;stroke:#000000;stroke-linejoin:miter;"/>
   </g>
  </g>
 </g>
 <defs>
  <clipPath id="p4d11804ff6">
   <rect height="265.0032" width="357.12" x="57.6" y="41.2992"/>
  </clipPath>
 </defs>
</svg>
