<?xml version="1.0" encoding="utf-8" standalone="no"?>
<!DOCTYPE svg PUBLIC "-//W3C//DTD SVG 1.1//EN"
  "http://www.w3.org/Graphics/SVG/1.1/DTD/svg11.dtd">
<!-- Created with matplotlib (https://matplotlib.org/) -->
<svg height="344.16pt" version="1.1" viewBox="0 0 460.8 344.16" width="460.8pt" xmlns="http://www.w3.org/2000/svg" xmlns:xlink="http://www.w3.org/1999/xlink">
 <defs>
  <style type="text/css">
*{stroke-linecap:butt;stroke-linejoin:round;}
  </style>
 </defs>
 <g id="figure_1">
  <g id="patch_1">
   <path d="M 0 344.16 
L 460.8 344.16 
L 460.8 0 
L 0 0 
z
" style="fill:#ffffff;"/>
  </g>
  <g id="axes_1">
   <g id="PathCollection_1">
    <defs>
     <path d="M 0 1.153164 
C 0.305823 1.153164 0.599161 1.031659 0.81541 0.81541 
C 1.031659 0.599161 1.153164 0.305823 1.153164 0 
C 1.153164 -0.305823 1.031659 -0.599161 0.81541 -0.81541 
C 0.599161 -1.031659 0.305823 -1.153164 0 -1.153164 
C -0.305823 -1.153164 -0.599161 -1.031659 -0.81541 -0.81541 
C -1.031659 -0.599161 -1.153164 -0.305823 -1.153164 0 
C -1.153164 0.305823 -1.031659 0.599161 -0.81541 0.81541 
C -0.599161 1.031659 -0.305823 1.153164 0 1.153164 
z
" id="m8b3868d5f1" style="stroke:#000000;"/>
    </defs>
    <g clip-path="url(#p4e801966aa)">
     <use style="stroke:#000000;" x="229.789305" xlink:href="#m8b3868d5f1" y="175.926412"/>
     <use style="stroke:#000000;" x="217.504588" xlink:href="#m8b3868d5f1" y="202.067852"/>
     <use style="stroke:#000000;" x="210.157304" xlink:href="#m8b3868d5f1" y="169.553109"/>
     <use style="stroke:#000000;" x="272.25325" xlink:href="#m8b3868d5f1" y="162.95082"/>
     <use style="stroke:#000000;" x="258.005416" xlink:href="#m8b3868d5f1" y="189.406288"/>
     <use style="stroke:#000000;" x="232.621172" xlink:href="#m8b3868d5f1" y="146.948232"/>
     <use style="stroke:#000000;" x="215.905897" xlink:href="#m8b3868d5f1" y="184.812045"/>
     <use style="stroke:#000000;" x="237.622559" xlink:href="#m8b3868d5f1" y="191.062398"/>
     <use style="stroke:#000000;" x="269.828355" xlink:href="#m8b3868d5f1" y="178.902624"/>
     <use style="stroke:#000000;" x="251.732438" xlink:href="#m8b3868d5f1" y="154.090793"/>
     <use style="stroke:#000000;" x="250.45331" xlink:href="#m8b3868d5f1" y="173.785225"/>
     <use style="stroke:#000000;" x="199.990096" xlink:href="#m8b3868d5f1" y="153.256186"/>
     <use style="stroke:#000000;" x="234.902745" xlink:href="#m8b3868d5f1" y="162.70443"/>
     <use style="stroke:#000000;" x="198.722626" xlink:href="#m8b3868d5f1" y="190.282892"/>
     <use style="stroke:#000000;" x="279.340145" xlink:href="#m8b3868d5f1" y="191.15771"/>
     <use style="stroke:#000000;" x="264.896431" xlink:href="#m8b3868d5f1" y="202.593858"/>
     <use style="stroke:#000000;" x="219.450259" xlink:href="#m8b3868d5f1" y="156.053427"/>
    </g>
   </g>
   <g id="patch_2">
    <path clip-path="url(#p4e801966aa)" d="M 239.380113 170.841926 
L 241.308778 181.286494 
L 228.226862 185.085559 
L 218.012135 176.129677 
L 223.113528 167.311828 
z
" style="fill:#00ffff;opacity:0.8;stroke:#000000;stroke-linejoin:miter;"/>
   </g>
   <g id="patch_3">
    <path clip-path="url(#p4e801966aa)" d="M 241.020222 211.445781 
L 217.3243 211.182779 
L 216.140748 211.126349 
L 214.970148 210.983887 
L 213.82362 210.756747 
L 212.71205 210.447085 
L 211.645997 210.057843 
L 210.635586 209.592717 
L 209.690411 209.056125 
L 200.299431 203.163644 
L 210.830822 193.745348 
L 224.140096 193.053425 
L 241.041105 210.389974 
z
" style="fill:#00ffff;opacity:0.8;stroke:#000000;stroke-linejoin:miter;"/>
   </g>
   <g id="patch_4">
    <path clip-path="url(#p4e801966aa)" d="M 187.08803 174.547053 
L 187.325217 167.618073 
L 208.278545 160.282689 
L 222.322255 165.707517 
L 223.113528 167.311828 
L 218.012135 176.129677 
L 202.675581 179.37187 
z
" style="fill:#00ffff;opacity:0.8;stroke:#000000;stroke-linejoin:miter;"/>
   </g>
   <g id="patch_5">
    <path clip-path="url(#p4e801966aa)" d="M 268.069741 150.622841 
L 278.330147 155.052855 
L 279.310459 155.524324 
L 280.226097 156.063852 
L 281.06867 156.666493 
L 281.830457 157.326725 
L 282.504476 158.038498 
L 283.08455 158.795288 
L 283.565364 159.590161 
L 283.942511 160.415832 
L 284.212534 161.264733 
L 286.981722 172.286507 
L 263.012964 170.241935 
L 257.641083 164.176662 
z
" style="fill:#00ffff;opacity:0.8;stroke:#000000;stroke-linejoin:miter;"/>
   </g>
   <g id="patch_6">
    <path clip-path="url(#p4e801966aa)" d="M 269.091096 187.42261 
L 268.122439 194.043857 
L 249.170224 199.601008 
L 246.852926 183.596899 
L 258.172349 180.52607 
z
" style="fill:#00ffff;opacity:0.8;stroke:#000000;stroke-linejoin:miter;"/>
   </g>
   <g id="patch_7">
    <path clip-path="url(#p4e801966aa)" d="M 213.404999 141.248362 
L 229.580396 138.121476 
L 230.798293 137.935158 
L 232.035208 137.842879 
L 233.278238 137.845603 
L 234.514412 137.943301 
L 235.730832 138.134954 
L 236.914807 138.418562 
L 238.053984 138.791166 
L 247.609617 142.362446 
L 239.625693 154.349866 
L 230.462883 155.094402 
z
" style="fill:#fe01ff;opacity:0.8;stroke:#000000;stroke-linejoin:miter;"/>
   </g>
   <g id="patch_8">
    <path clip-path="url(#p4e801966aa)" d="M 202.675581 179.37187 
L 218.012135 176.129677 
L 228.226862 185.085559 
L 224.140096 193.053425 
L 210.830822 193.745348 
z
" style="fill:#fe01ff;opacity:0.8;stroke:#000000;stroke-linejoin:miter;"/>
   </g>
   <g id="patch_9">
    <path clip-path="url(#p4e801966aa)" d="M 246.852926 183.596899 
L 249.170224 199.601008 
L 241.041105 210.389974 
L 224.140096 193.053425 
L 228.226862 185.085559 
L 241.308778 181.286494 
z
" style="fill:#fe01ff;opacity:0.8;stroke:#000000;stroke-linejoin:miter;"/>
   </g>
   <g id="patch_10">
    <path clip-path="url(#p4e801966aa)" d="M 286.981722 172.286507 
L 288.644924 178.906299 
L 269.091096 187.42261 
L 258.172349 180.52607 
L 263.012964 170.241935 
z
" style="fill:#fe01ff;opacity:0.8;stroke:#000000;stroke-linejoin:miter;"/>
   </g>
   <g id="patch_11">
    <path clip-path="url(#p4e801966aa)" d="M 247.609617 142.362446 
L 257.16525 145.933726 
L 257.809335 146.192828 
L 268.069741 150.622841 
L 257.641083 164.176662 
L 248.277326 163.835395 
L 239.625693 154.349866 
z
" style="fill:#fe01ff;opacity:0.8;stroke:#000000;stroke-linejoin:miter;"/>
   </g>
   <g id="patch_12">
    <path clip-path="url(#p4e801966aa)" d="M 258.172349 180.52607 
L 246.852926 183.596899 
L 241.308778 181.286494 
L 239.380113 170.841926 
L 248.277326 163.835395 
L 257.641083 164.176662 
L 263.012964 170.241935 
z
" style="fill:#fd02ff;opacity:0.8;stroke:#000000;stroke-linejoin:miter;"/>
   </g>
   <g id="patch_13">
    <path clip-path="url(#p4e801966aa)" d="M 196.94932 144.42943 
L 213.141302 141.299338 
L 208.278545 160.282689 
L 187.325217 167.618073 
L 187.824841 153.022508 
L 187.915895 152.119042 
L 188.126223 151.226809 
L 188.453748 150.354623 
L 188.895235 149.511101 
L 189.446322 148.704574 
L 190.101566 147.94301 
L 190.854494 147.233932 
L 191.697667 146.584345 
L 192.622757 146.000666 
L 193.620625 145.48866 
L 194.681414 145.053386 
L 195.794645 144.699142 
z
" style="fill:#00ffff;opacity:0.8;stroke:#000000;stroke-linejoin:miter;"/>
   </g>
   <g id="patch_14">
    <path clip-path="url(#p4e801966aa)" d="M 230.462883 155.094402 
L 239.625693 154.349866 
L 248.277326 163.835395 
L 239.380113 170.841926 
L 223.113528 167.311828 
L 222.322255 165.707517 
z
" style="fill:#00ffff;opacity:0.8;stroke:#000000;stroke-linejoin:miter;"/>
   </g>
   <g id="patch_15">
    <path clip-path="url(#p4e801966aa)" d="M 200.299431 203.163644 
L 190.90845 197.271164 
L 190.016934 196.652475 
L 189.212242 195.97026 
L 188.502399 195.231325 
L 187.894484 194.443037 
L 187.39456 193.61326 
L 187.007613 192.750268 
L 186.737502 191.862669 
L 186.586921 190.959315 
L 186.557372 190.049214 
L 187.08803 174.547053 
L 202.675581 179.37187 
L 210.830822 193.745348 
z
" style="fill:#ff00ff;opacity:0.8;stroke:#000000;stroke-linejoin:miter;"/>
   </g>
   <g id="patch_16">
    <path clip-path="url(#p4e801966aa)" d="M 288.644924 178.906299 
L 291.29943 189.471624 
L 291.458316 190.323334 
L 291.509354 191.182471 
L 291.452087 192.041387 
L 291.287026 192.892438 
L 291.01564 193.728051 
L 290.640343 194.540788 
L 290.164477 195.323417 
L 289.592277 196.068971 
L 288.928834 196.770816 
L 288.180053 197.422705 
L 280.958196 203.140778 
L 268.122439 194.043857 
L 269.091096 187.42261 
z
" style="fill:#ff00ff;opacity:0.8;stroke:#000000;stroke-linejoin:miter;"/>
   </g>
   <g id="patch_17">
    <path clip-path="url(#p4e801966aa)" d="M 280.958196 203.140778 
L 273.736339 208.858852 
L 272.825075 209.509402 
L 271.828973 210.085954 
L 270.758691 210.582338 
L 269.625682 210.993245 
L 268.442068 211.314276 
L 267.220516 211.541996 
L 265.974095 211.67397 
L 264.716143 211.708784 
L 241.020222 211.445781 
L 241.041105 210.389974 
L 249.170224 199.601008 
L 268.122439 194.043857 
z
" style="fill:#00ffff;opacity:0.8;stroke:#000000;stroke-linejoin:miter;"/>
   </g>
   <g id="patch_18">
    <path clip-path="url(#p4e801966aa)" d="M 213.141302 141.299338 
L 213.404999 141.248362 
L 230.462883 155.094402 
L 222.322255 165.707517 
L 208.278545 160.282689 
z
" style="fill:#ff00ff;opacity:0.8;stroke:#000000;stroke-linejoin:miter;"/>
   </g>
  </g>
 </g>
 <defs>
  <clipPath id="p4e801966aa">
   <rect height="265.0032" width="357.12" x="57.6" y="41.2992"/>
  </clipPath>
 </defs>
</svg>
