<?xml version="1.0" encoding="utf-8" standalone="no"?>
<!DOCTYPE svg PUBLIC "-//W3C//DTD SVG 1.1//EN"
  "http://www.w3.org/Graphics/SVG/1.1/DTD/svg11.dtd">
<!-- Created with matplotlib (https://matplotlib.org/) -->
<svg height="344.16pt" version="1.1" viewBox="0 0 460.8 344.16" width="460.8pt" xmlns="http://www.w3.org/2000/svg" xmlns:xlink="http://www.w3.org/1999/xlink">
 <defs>
  <style type="text/css">
*{stroke-linecap:butt;stroke-linejoin:round;}
  </style>
 </defs>
 <g id="figure_1">
  <g id="patch_1">
   <path d="M 0 344.16 
L 460.8 344.16 
L 460.8 0 
L 0 0 
z
" style="fill:#ffffff;"/>
  </g>
  <g id="axes_1">
   <g id="PathCollection_1">
    <defs>
     <path d="M 0 1.093697 
C 0.290052 1.093697 0.568263 0.978458 0.77336 0.77336 
C 0.978458 0.568263 1.093697 0.290052 1.093697 0 
C 1.093697 -0.290052 0.978458 -0.568263 0.77336 -0.77336 
C 0.568263 -0.978458 0.290052 -1.093697 0 -1.093697 
C -0.290052 -1.093697 -0.568263 -0.978458 -0.77336 -0.77336 
C -0.978458 -0.568263 -1.093697 -0.290052 -1.093697 0 
C -1.093697 0.290052 -0.978458 0.568263 -0.77336 0.77336 
C -0.568263 0.978458 -0.290052 1.093697 0 1.093697 
z
" id="ma58b4c2744" style="stroke:#000000;"/>
    </defs>
    <g clip-path="url(#p60049248d0)">
     <use style="stroke:#000000;" x="231.19338" xlink:href="#ma58b4c2744" y="173.872782"/>
     <use style="stroke:#000000;" x="221.510972" xlink:href="#ma58b4c2744" y="180.586679"/>
     <use style="stroke:#000000;" x="241.235707" xlink:href="#ma58b4c2744" y="166.273915"/>
     <use style="stroke:#000000;" x="241.404746" xlink:href="#ma58b4c2744" y="179.142444"/>
     <use style="stroke:#000000;" x="222.817506" xlink:href="#ma58b4c2744" y="167.162263"/>
     <use style="stroke:#000000;" x="232.716482" xlink:href="#ma58b4c2744" y="181.603274"/>
     <use style="stroke:#000000;" x="231.864915" xlink:href="#ma58b4c2744" y="166.043792"/>
     <use style="stroke:#000000;" x="221.124265" xlink:href="#ma58b4c2744" y="174.504457"/>
     <use style="stroke:#000000;" x="238.653737" xlink:href="#ma58b4c2744" y="172.362086"/>
     <use style="stroke:#000000;" x="226.787067" xlink:href="#ma58b4c2744" y="177.626185"/>
    </g>
   </g>
   <g id="patch_2">
    <path clip-path="url(#p60049248d0)" d="M 233.917977 170.083473 
L 236.118182 176.721756 
L 235.63382 177.295186 
L 231.790367 177.757837 
L 226.106736 173.681353 
L 225.87072 171.382836 
L 227.982521 169.772426 
z
" style="fill:#807fff;opacity:0.8;stroke:#000000;stroke-linejoin:miter;"/>
   </g>
   <g id="patch_3">
    <path clip-path="url(#p60049248d0)" d="M 226.563459 184.800651 
L 220.960704 184.292354 
L 220.48829 184.230583 
L 220.026175 184.132112 
L 219.579015 183.997933 
L 219.151312 183.829397 
L 218.747375 183.628203 
L 218.371272 183.396375 
L 218.02679 183.136249 
L 217.717399 182.850445 
L 217.446216 182.541842 
L 217.215971 182.213547 
L 217.028983 181.868867 
L 216.887136 181.511273 
L 216.791858 181.144367 
L 216.744109 180.771845 
L 216.550756 177.730734 
L 222.667338 177.493139 
L 226.955286 182.161967 
z
" style="fill:#7e81ff;opacity:0.8;stroke:#000000;stroke-linejoin:miter;"/>
   </g>
   <g id="patch_4">
    <path clip-path="url(#p60049248d0)" d="M 236.700187 162.43014 
L 241.385583 162.545202 
L 241.840112 162.573396 
L 242.289125 162.635364 
L 242.728524 162.73054 
L 243.154298 162.858055 
L 243.562562 163.016745 
L 243.949589 163.205163 
L 244.311848 163.421588 
L 244.646031 163.664046 
L 244.94909 163.930323 
L 245.218258 164.217989 
L 245.451078 164.524419 
L 245.645425 164.846816 
L 245.799527 165.182238 
L 245.911976 165.527624 
L 245.981746 165.87982 
L 246.008201 166.235613 
L 246.069537 170.904964 
L 236.459625 168.414998 
z
" style="fill:#827dff;opacity:0.8;stroke:#000000;stroke-linejoin:miter;"/>
   </g>
   <g id="patch_5">
    <path clip-path="url(#p60049248d0)" d="M 243.030751 182.649825 
L 238.686619 183.88024 
L 235.63382 177.295186 
L 236.118182 176.721756 
L 246.113399 174.244098 
L 246.17724 179.104143 
L 246.160418 179.457714 
L 246.100817 179.808449 
L 245.998975 180.153194 
L 245.855807 180.488847 
L 245.672602 180.812388 
L 245.451006 181.120909 
L 245.193014 181.411632 
L 244.900945 181.681944 
L 244.577428 181.929413 
L 244.225372 182.151813 
L 243.847944 182.347143 
L 243.44854 182.513646 
z
" style="fill:#807fff;opacity:0.8;stroke:#000000;stroke-linejoin:miter;"/>
   </g>
   <g id="patch_6">
    <path clip-path="url(#p60049248d0)" d="M 217.273842 170.171559 
L 218.120462 166.500462 
L 218.222015 166.155026 
L 218.36505 165.818682 
L 218.548277 165.494466 
L 218.770041 165.185306 
L 219.028342 164.893991 
L 219.320847 164.623151 
L 219.644915 164.375231 
L 219.997622 164.15247 
L 220.375784 163.956877 
L 220.775987 163.79022 
L 221.194618 163.654001 
L 221.627899 163.54945 
L 222.071918 163.477512 
L 226.595623 162.918276 
L 227.982521 169.772426 
L 225.87072 171.382836 
z
" style="fill:#807fff;opacity:0.8;stroke:#000000;stroke-linejoin:miter;"/>
   </g>
   <g id="patch_7">
    <path clip-path="url(#p60049248d0)" d="M 238.686619 183.88024 
L 234.342486 185.110655 
L 233.920415 185.213186 
L 233.488019 185.28476 
L 233.049006 185.324761 
L 232.607141 185.332847 
L 232.166214 185.308949 
L 226.563459 184.800651 
L 226.955286 182.161967 
L 231.790367 177.757837 
L 235.63382 177.295186 
z
" style="fill:#7e81ff;opacity:0.8;stroke:#000000;stroke-linejoin:miter;"/>
   </g>
   <g id="patch_8">
    <path clip-path="url(#p60049248d0)" d="M 226.595623 162.918276 
L 231.119327 162.359041 
L 231.565735 162.320576 
L 232.014792 162.315079 
L 236.700187 162.43014 
L 236.459625 168.414998 
L 233.917977 170.083473 
L 227.982521 169.772426 
z
" style="fill:#7f80ff;opacity:0.8;stroke:#000000;stroke-linejoin:miter;"/>
   </g>
   <g id="patch_9">
    <path clip-path="url(#p60049248d0)" d="M 216.550756 177.730734 
L 216.357402 174.689623 
L 216.361396 174.264583 
L 216.427221 173.842656 
L 217.273842 170.171559 
L 225.87072 171.382836 
L 226.106736 173.681353 
L 222.667338 177.493139 
z
" style="fill:#7d82ff;opacity:0.8;stroke:#000000;stroke-linejoin:miter;"/>
   </g>
   <g id="patch_10">
    <path clip-path="url(#p60049248d0)" d="M 246.069537 170.904964 
L 246.113399 174.244098 
L 236.118182 176.721756 
L 233.917977 170.083473 
L 236.459625 168.414998 
z
" style="fill:#7d82ff;opacity:0.8;stroke:#000000;stroke-linejoin:miter;"/>
   </g>
   <g id="patch_11">
    <path clip-path="url(#p60049248d0)" d="M 222.667338 177.493139 
L 226.106736 173.681353 
L 231.790367 177.757837 
L 226.955286 182.161967 
z
" style="fill:#7f80ff;opacity:0.8;stroke:#000000;stroke-linejoin:miter;"/>
   </g>
  </g>
 </g>
 <defs>
  <clipPath id="p60049248d0">
   <rect height="265.0032" width="357.12" x="57.6" y="41.2992"/>
  </clipPath>
 </defs>
</svg>
