<?xml version="1.0" encoding="utf-8" standalone="no"?>
<!DOCTYPE svg PUBLIC "-//W3C//DTD SVG 1.1//EN"
  "http://www.w3.org/Graphics/SVG/1.1/DTD/svg11.dtd">
<!-- Created with matplotlib (https://matplotlib.org/) -->
<svg height="344.16pt" version="1.1" viewBox="0 0 460.8 344.16" width="460.8pt" xmlns="http://www.w3.org/2000/svg" xmlns:xlink="http://www.w3.org/1999/xlink">
 <defs>
  <style type="text/css">
*{stroke-linecap:butt;stroke-linejoin:round;}
  </style>
 </defs>
 <g id="figure_1">
  <g id="patch_1">
   <path d="M 0 344.16 
L 460.8 344.16 
L 460.8 0 
L 0 0 
z
" style="fill:#ffffff;"/>
  </g>
  <g id="axes_1">
   <g id="PathCollection_1">
    <defs>
     <path d="M 0 1.093697 
C 0.290052 1.093697 0.568263 0.978458 0.77336 0.77336 
C 0.978458 0.568263 1.093697 0.290052 1.093697 0 
C 1.093697 -0.290052 0.978458 -0.568263 0.77336 -0.77336 
C 0.568263 -0.978458 0.290052 -1.093697 0 -1.093697 
C -0.290052 -1.093697 -0.568263 -0.978458 -0.77336 -0.77336 
C -0.978458 -0.568263 -1.093697 -0.290052 -1.093697 0 
C -1.093697 0.290052 -0.978458 0.568263 -0.77336 0.77336 
C -0.568263 0.978458 -0.290052 1.093697 0 1.093697 
z
" id="m0a184e76d4" style="stroke:#000000;"/>
    </defs>
    <g clip-path="url(#pfdfa2d94a2)">
     <use style="stroke:#000000;" x="258.227822" xlink:href="#m0a184e76d4" y="210.899589"/>
     <use style="stroke:#000000;" x="166.35176" xlink:href="#m0a184e76d4" y="232.031795"/>
     <use style="stroke:#000000;" x="331.296586" xlink:href="#m0a184e76d4" y="158.361361"/>
     <use style="stroke:#000000;" x="325.895868" xlink:href="#m0a184e76d4" y="207.654734"/>
     <use style="stroke:#000000;" x="160.640246" xlink:href="#m0a184e76d4" y="136.340405"/>
     <use style="stroke:#000000;" x="215.553028" xlink:href="#m0a184e76d4" y="224.572706"/>
     <use style="stroke:#000000;" x="258.211916" xlink:href="#m0a184e76d4" y="114.494261"/>
     <use style="stroke:#000000;" x="135.206305" xlink:href="#m0a184e76d4" y="157.918657"/>
     <use style="stroke:#000000;" x="206.393905" xlink:href="#m0a184e76d4" y="127.951047"/>
     <use style="stroke:#000000;" x="197.998362" xlink:href="#m0a184e76d4" y="248.819704"/>
     <use style="stroke:#000000;" x="296.655021" xlink:href="#m0a184e76d4" y="165.35322"/>
     <use style="stroke:#000000;" x="222.540825" xlink:href="#m0a184e76d4" y="122.52214"/>
     <use style="stroke:#000000;" x="217.240776" xlink:href="#m0a184e76d4" y="168.40046"/>
     <use style="stroke:#000000;" x="272.595176" xlink:href="#m0a184e76d4" y="241.816188"/>
     <use style="stroke:#000000;" x="230.214139" xlink:href="#m0a184e76d4" y="202.62598"/>
     <use style="stroke:#000000;" x="154.994871" xlink:href="#m0a184e76d4" y="169.609089"/>
     <use style="stroke:#000000;" x="307.250542" xlink:href="#m0a184e76d4" y="220.88941"/>
     <use style="stroke:#000000;" x="230.49766" xlink:href="#m0a184e76d4" y="146.801652"/>
     <use style="stroke:#000000;" x="198.198639" xlink:href="#m0a184e76d4" y="140.039956"/>
     <use style="stroke:#000000;" x="180.075899" xlink:href="#m0a184e76d4" y="137.400168"/>
     <use style="stroke:#000000;" x="153.325662" xlink:href="#m0a184e76d4" y="220.745874"/>
     <use style="stroke:#000000;" x="286.652942" xlink:href="#m0a184e76d4" y="134.761913"/>
     <use style="stroke:#000000;" x="290.804374" xlink:href="#m0a184e76d4" y="114.724615"/>
     <use style="stroke:#000000;" x="304.013895" xlink:href="#m0a184e76d4" y="179.574944"/>
     <use style="stroke:#000000;" x="173.265876" xlink:href="#m0a184e76d4" y="163.02368"/>
     <use style="stroke:#000000;" x="196.810662" xlink:href="#m0a184e76d4" y="199.954694"/>
     <use style="stroke:#000000;" x="238.67895" xlink:href="#m0a184e76d4" y="186.394715"/>
     <use style="stroke:#000000;" x="216.280557" xlink:href="#m0a184e76d4" y="241.514928"/>
     <use style="stroke:#000000;" x="285.342942" xlink:href="#m0a184e76d4" y="176.683321"/>
     <use style="stroke:#000000;" x="232.592334" xlink:href="#m0a184e76d4" y="232.678403"/>
     <use style="stroke:#000000;" x="163.058619" xlink:href="#m0a184e76d4" y="204.696863"/>
     <use style="stroke:#000000;" x="290.106469" xlink:href="#m0a184e76d4" y="212.001255"/>
     <use style="stroke:#000000;" x="241.77021" xlink:href="#m0a184e76d4" y="157.987667"/>
     <use style="stroke:#000000;" x="306.646126" xlink:href="#m0a184e76d4" y="141.73186"/>
     <use style="stroke:#000000;" x="262.102148" xlink:href="#m0a184e76d4" y="157.00098"/>
     <use style="stroke:#000000;" x="142.510852" xlink:href="#m0a184e76d4" y="141.519547"/>
     <use style="stroke:#000000;" x="241.367342" xlink:href="#m0a184e76d4" y="118.860537"/>
     <use style="stroke:#000000;" x="321.795904" xlink:href="#m0a184e76d4" y="127.55685"/>
     <use style="stroke:#000000;" x="189.47009" xlink:href="#m0a184e76d4" y="153.132531"/>
     <use style="stroke:#000000;" x="193.88347" xlink:href="#m0a184e76d4" y="100.138903"/>
     <use style="stroke:#000000;" x="256.085592" xlink:href="#m0a184e76d4" y="130.030494"/>
     <use style="stroke:#000000;" x="179.012185" xlink:href="#m0a184e76d4" y="194.367913"/>
     <use style="stroke:#000000;" x="227.942009" xlink:href="#m0a184e76d4" y="109.169809"/>
     <use style="stroke:#000000;" x="199.183244" xlink:href="#m0a184e76d4" y="215.647745"/>
     <use style="stroke:#000000;" x="170.663203" xlink:href="#m0a184e76d4" y="218.081339"/>
     <use style="stroke:#000000;" x="203.946988" xlink:href="#m0a184e76d4" y="161.981813"/>
     <use style="stroke:#000000;" x="321.595313" xlink:href="#m0a184e76d4" y="172.62013"/>
     <use style="stroke:#000000;" x="144.402067" xlink:href="#m0a184e76d4" y="194.359259"/>
     <use style="stroke:#000000;" x="255.729857" xlink:href="#m0a184e76d4" y="182.226131"/>
     <use style="stroke:#000000;" x="171.253038" xlink:href="#m0a184e76d4" y="106.170345"/>
     <use style="stroke:#000000;" x="191.476667" xlink:href="#m0a184e76d4" y="184.418033"/>
     <use style="stroke:#000000;" x="262.644959" xlink:href="#m0a184e76d4" y="228.173534"/>
     <use style="stroke:#000000;" x="272.884816" xlink:href="#m0a184e76d4" y="186.957835"/>
     <use style="stroke:#000000;" x="223.104879" xlink:href="#m0a184e76d4" y="192.576835"/>
     <use style="stroke:#000000;" x="241.075622" xlink:href="#m0a184e76d4" y="210.980487"/>
     <use style="stroke:#000000;" x="132.529486" xlink:href="#m0a184e76d4" y="173.229882"/>
     <use style="stroke:#000000;" x="233.61703" xlink:href="#m0a184e76d4" y="171.565049"/>
     <use style="stroke:#000000;" x="270.070688" xlink:href="#m0a184e76d4" y="142.408503"/>
     <use style="stroke:#000000;" x="289.234008" xlink:href="#m0a184e76d4" y="150.40108"/>
     <use style="stroke:#000000;" x="160.561473" xlink:href="#m0a184e76d4" y="188.874878"/>
     <use style="stroke:#000000;" x="305.868349" xlink:href="#m0a184e76d4" y="203.203834"/>
     <use style="stroke:#000000;" x="234.121887" xlink:href="#m0a184e76d4" y="250.4032"/>
     <use style="stroke:#000000;" x="273.984414" xlink:href="#m0a184e76d4" y="123.188109"/>
     <use style="stroke:#000000;" x="214.159505" xlink:href="#m0a184e76d4" y="206.215381"/>
     <use style="stroke:#000000;" x="291.471836" xlink:href="#m0a184e76d4" y="192.415424"/>
     <use style="stroke:#000000;" x="249.867745" xlink:href="#m0a184e76d4" y="144.566944"/>
     <use style="stroke:#000000;" x="311.276817" xlink:href="#m0a184e76d4" y="157.222623"/>
     <use style="stroke:#000000;" x="211.381265" xlink:href="#m0a184e76d4" y="149.713415"/>
     <use style="stroke:#000000;" x="287.105568" xlink:href="#m0a184e76d4" y="229.180797"/>
     <use style="stroke:#000000;" x="250.62203" xlink:href="#m0a184e76d4" y="239.99721"/>
     <use style="stroke:#000000;" x="318.27952" xlink:href="#m0a184e76d4" y="190.3398"/>
     <use style="stroke:#000000;" x="173.998161" xlink:href="#m0a184e76d4" y="178.277004"/>
     <use style="stroke:#000000;" x="275.615686" xlink:href="#m0a184e76d4" y="202.175681"/>
     <use style="stroke:#000000;" x="311.351194" xlink:href="#m0a184e76d4" y="112.025255"/>
     <use style="stroke:#000000;" x="275.665346" xlink:href="#m0a184e76d4" y="105.457794"/>
     <use style="stroke:#000000;" x="302.027065" xlink:href="#m0a184e76d4" y="126.645787"/>
     <use style="stroke:#000000;" x="236.558173" xlink:href="#m0a184e76d4" y="132.934809"/>
     <use style="stroke:#000000;" x="259.165118" xlink:href="#m0a184e76d4" y="195.342288"/>
     <use style="stroke:#000000;" x="189.249785" xlink:href="#m0a184e76d4" y="169.55918"/>
     <use style="stroke:#000000;" x="199.353049" xlink:href="#m0a184e76d4" y="232.670108"/>
     <use style="stroke:#000000;" x="171.130424" xlink:href="#m0a184e76d4" y="149.134034"/>
     <use style="stroke:#000000;" x="205.770238" xlink:href="#m0a184e76d4" y="113.945753"/>
     <use style="stroke:#000000;" x="251.507152" xlink:href="#m0a184e76d4" y="169.448029"/>
     <use style="stroke:#000000;" x="327.05565" xlink:href="#m0a184e76d4" y="143.126445"/>
     <use style="stroke:#000000;" x="170.619542" xlink:href="#m0a184e76d4" y="122.88002"/>
     <use style="stroke:#000000;" x="245.656325" xlink:href="#m0a184e76d4" y="223.460148"/>
     <use style="stroke:#000000;" x="207.823194" xlink:href="#m0a184e76d4" y="189.948174"/>
     <use style="stroke:#000000;" x="182.845081" xlink:href="#m0a184e76d4" y="208.642226"/>
     <use style="stroke:#000000;" x="213.920127" xlink:href="#m0a184e76d4" y="100.055451"/>
     <use style="stroke:#000000;" x="205.13442" xlink:href="#m0a184e76d4" y="176.148474"/>
     <use style="stroke:#000000;" x="189.894298" xlink:href="#m0a184e76d4" y="126.187282"/>
     <use style="stroke:#000000;" x="154.572229" xlink:href="#m0a184e76d4" y="153.635292"/>
     <use style="stroke:#000000;" x="239.606852" xlink:href="#m0a184e76d4" y="98.282449"/>
     <use style="stroke:#000000;" x="182.336559" xlink:href="#m0a184e76d4" y="239.394596"/>
     <use style="stroke:#000000;" x="274.071925" xlink:href="#m0a184e76d4" y="218.209667"/>
     <use style="stroke:#000000;" x="279.071473" xlink:href="#m0a184e76d4" y="162.247286"/>
     <use style="stroke:#000000;" x="257.790277" xlink:href="#m0a184e76d4" y="100.346978"/>
     <use style="stroke:#000000;" x="268.02714" xlink:href="#m0a184e76d4" y="172.543892"/>
     <use style="stroke:#000000;" x="144.231505" xlink:href="#m0a184e76d4" y="208.10373"/>
     <use style="stroke:#000000;" x="186.711821" xlink:href="#m0a184e76d4" y="113.303042"/>
     <use style="stroke:#000000;" x="218.473267" xlink:href="#m0a184e76d4" y="136.592882"/>
     <use style="stroke:#000000;" x="184.863748" xlink:href="#m0a184e76d4" y="224.615826"/>
     <use style="stroke:#000000;" x="144.592407" xlink:href="#m0a184e76d4" y="181.911286"/>
     <use style="stroke:#000000;" x="244.508336" xlink:href="#m0a184e76d4" y="199.257088"/>
     <use style="stroke:#000000;" x="220.693236" xlink:href="#m0a184e76d4" y="180.657641"/>
     <use style="stroke:#000000;" x="228.690765" xlink:href="#m0a184e76d4" y="216.430938"/>
     <use style="stroke:#000000;" x="224.324247" xlink:href="#m0a184e76d4" y="159.00203"/>
     <use style="stroke:#000000;" x="130.088673" xlink:href="#m0a184e76d4" y="199.211385"/>
    </g>
   </g>
   <g id="patch_2">
    <path clip-path="url(#pfdfa2d94a2)" d="M 269.673559 209.888544 
L 262.64867 219.190941 
L 256.740391 220.113981 
L 249.689258 215.802299 
L 249.616207 206.339595 
L 254.311097 202.959518 
L 264.284848 203.32664 
z
" style="fill:#ff00ff;opacity:0.8;stroke:#000000;stroke-linejoin:miter;"/>
   </g>
   <g id="patch_3">
    <path clip-path="url(#pfdfa2d94a2)" d="M 168.747649 243.136396 
L 160.506005 238.764364 
L 159.51488 238.167569 
L 158.622512 237.482144 
L 152.109463 231.839183 
L 163.159924 224.046851 
L 174.165993 226.124998 
L 177.611395 231.37954 
z
" style="fill:#fe01ff;opacity:0.8;stroke:#000000;stroke-linejoin:miter;"/>
   </g>
   <g id="patch_4">
    <path clip-path="url(#pfdfa2d94a2)" d="M 339.347923 149.01397 
L 341.468391 156.631428 
L 341.638399 157.432934 
L 341.705299 158.243696 
L 341.668423 159.055631 
L 340.33101 171.262453 
L 320.788868 163.139225 
L 321.826514 151.993861 
z
" style="fill:#fe01ff;opacity:0.8;stroke:#000000;stroke-linejoin:miter;"/>
   </g>
   <g id="patch_5">
    <path clip-path="url(#pfdfa2d94a2)" d="M 337.753576 194.787186 
L 336.267705 208.349004 
L 336.139453 209.102962 
L 335.921693 209.844265 
L 335.616327 210.566436 
L 335.226025 211.263164 
L 334.754196 211.928363 
L 334.204963 212.556218 
L 333.583126 213.141245 
L 332.894118 213.678331 
L 323.571455 220.295669 
L 313.597247 211.710578 
L 317.802933 200.148763 
z
" style="fill:#fd02ff;opacity:0.8;stroke:#000000;stroke-linejoin:miter;"/>
   </g>
   <g id="patch_6">
    <path clip-path="url(#pfdfa2d94a2)" d="M 144.531347 123.865048 
L 146.796269 121.079485 
L 170.797135 131.950724 
L 170.019285 140.666296 
L 160.257984 145.55627 
L 154.051889 144.225947 
z
" style="fill:#fe01ff;opacity:0.8;stroke:#000000;stroke-linejoin:miter;"/>
   </g>
   <g id="patch_7">
    <path clip-path="url(#pfdfa2d94a2)" d="M 211.435211 215.552706 
L 216.847156 215.301709 
L 226.804 225.117682 
L 220.730849 232.917518 
L 211.17296 233.168274 
L 203.779661 224.131431 
z
" style="fill:#00ffff;opacity:0.8;stroke:#000000;stroke-linejoin:miter;"/>
   </g>
   <g id="patch_8">
    <path clip-path="url(#pfdfa2d94a2)" d="M 251.975641 121.829819 
L 246.223338 108.271669 
L 247.155475 107.618104 
L 264.670172 107.299185 
L 270.405452 114.066969 
L 262.600313 122.71822 
z
" style="fill:#fe01ff;opacity:0.8;stroke:#000000;stroke-linejoin:miter;"/>
   </g>
   <g id="patch_9">
    <path clip-path="url(#pfdfa2d94a2)" d="M 123.553949 164.472619 
L 124.892358 156.817007 
L 125.083649 156.020749 
L 125.375298 155.243307 
L 129.027571 147.043752 
L 143.115567 150.877574 
L 147.050628 161.747193 
L 142.46236 166.492259 
z
" style="fill:#00ffff;opacity:0.8;stroke:#000000;stroke-linejoin:miter;"/>
   </g>
   <g id="patch_10">
    <path clip-path="url(#pfdfa2d94a2)" d="M 212.018616 120.786889 
L 216.451017 128.841157 
L 207.763678 136.259974 
L 197.294671 131.923955 
L 199.182191 121.136121 
z
" style="fill:#00ffff;opacity:0.8;stroke:#000000;stroke-linejoin:miter;"/>
   </g>
   <g id="patch_11">
    <path clip-path="url(#pfdfa2d94a2)" d="M 192.152608 255.552273 
L 183.444321 250.932695 
L 193.728973 240.49139 
L 204.440477 241.040346 
L 215.355301 257.730022 
L 197.415478 256.94362 
L 196.483258 256.869742 
L 195.563314 256.730642 
L 194.663098 256.527448 
L 193.789905 256.261805 
L 192.950809 255.935867 
z
" style="fill:#fe01ff;opacity:0.8;stroke:#000000;stroke-linejoin:miter;"/>
   </g>
   <g id="patch_12">
    <path clip-path="url(#pfdfa2d94a2)" d="M 286.559348 168.310165 
L 289.252008 158.996822 
L 299.149222 155.995708 
L 309.76048 167.654537 
L 308.732971 169.809041 
L 295.746827 173.91438 
z
" style="fill:#00ffff;opacity:0.8;stroke:#000000;stroke-linejoin:miter;"/>
   </g>
   <g id="patch_13">
    <path clip-path="url(#pfdfa2d94a2)" d="M 212.018616 120.786889 
L 217.711948 113.985147 
L 230.853105 117.232842 
L 233.230517 124.700993 
L 226.120252 130.548885 
L 216.451017 128.841157 
z
" style="fill:#fe01ff;opacity:0.8;stroke:#000000;stroke-linejoin:miter;"/>
   </g>
   <g id="patch_14">
    <path clip-path="url(#pfdfa2d94a2)" d="M 207.658481 168.905484 
L 214.175599 160.658965 
L 226.572445 166.367331 
L 224.280125 173.614732 
L 214.376805 175.318964 
z
" style="fill:#fe01ff;opacity:0.8;stroke:#000000;stroke-linejoin:miter;"/>
   </g>
   <g id="patch_15">
    <path clip-path="url(#pfdfa2d94a2)" d="M 289.209912 242.065307 
L 278.959311 248.255172 
L 278.150006 248.6976 
L 277.290703 249.078091 
L 276.389137 249.393219 
L 275.453421 249.640147 
L 259.956606 253.098945 
L 262.074828 237.46581 
L 274.660908 231.857475 
z
" style="fill:#00ffff;opacity:0.8;stroke:#000000;stroke-linejoin:miter;"/>
   </g>
   <g id="patch_16">
    <path clip-path="url(#pfdfa2d94a2)" d="M 220.642984 200.201871 
L 234.080749 194.393797 
L 234.941131 194.667933 
L 238.689547 204.38489 
L 231.997803 209.700063 
L 223.919465 209.155432 
z
" style="fill:#00ffff;opacity:0.8;stroke:#000000;stroke-linejoin:miter;"/>
   </g>
   <g id="patch_17">
    <path clip-path="url(#pfdfa2d94a2)" d="M 166.805291 170.850576 
L 160.959744 178.680348 
L 156.850366 179.405767 
L 144.136262 172.837527 
L 142.46236 166.492259 
L 147.050628 161.747193 
L 161.29893 161.51687 
z
" style="fill:#00ffff;opacity:0.8;stroke:#000000;stroke-linejoin:miter;"/>
   </g>
   <g id="patch_18">
    <path clip-path="url(#pfdfa2d94a2)" d="M 323.571455 220.295669 
L 314.248792 226.913007 
L 313.614678 227.328394 
L 303.029183 233.720486 
L 294.6163 221.232449 
L 302.235942 212.253063 
L 313.597247 211.710578 
z
" style="fill:#fd02ff;opacity:0.8;stroke:#000000;stroke-linejoin:miter;"/>
   </g>
   <g id="patch_19">
    <path clip-path="url(#pfdfa2d94a2)" d="M 220.092118 144.858779 
L 228.786498 138.602184 
L 239.379481 141.430707 
L 240.896179 149.462631 
L 232.66967 154.527545 
L 221.6536 151.121986 
z
" style="fill:#fe01ff;opacity:0.8;stroke:#000000;stroke-linejoin:miter;"/>
   </g>
   <g id="patch_20">
    <path clip-path="url(#pfdfa2d94a2)" d="M 207.763678 136.259974 
L 209.151109 141.245641 
L 199.812212 149.02109 
L 187.843606 144.146138 
L 190.132133 134.547257 
L 197.294671 131.923955 
z
" style="fill:#00ffff;opacity:0.8;stroke:#000000;stroke-linejoin:miter;"/>
   </g>
   <g id="patch_21">
    <path clip-path="url(#pfdfa2d94a2)" d="M 190.132133 134.547257 
L 187.843606 144.146138 
L 182.037835 146.264182 
L 170.019285 140.666296 
L 170.797135 131.950724 
L 179.101879 128.646353 
z
" style="fill:#00ffff;opacity:0.8;stroke:#000000;stroke-linejoin:miter;"/>
   </g>
   <g id="patch_22">
    <path clip-path="url(#pfdfa2d94a2)" d="M 152.109463 231.839183 
L 145.596414 226.196223 
L 145.368294 225.991828 
L 137.998919 219.162384 
L 155.187535 211.608115 
L 160.528783 213.58713 
L 163.159924 224.046851 
z
" style="fill:#fe01ff;opacity:0.8;stroke:#000000;stroke-linejoin:miter;"/>
   </g>
   <g id="patch_23">
    <path clip-path="url(#pfdfa2d94a2)" d="M 281.84241 143.196675 
L 274.197819 133.068298 
L 286.977958 124.521659 
L 289.246255 124.808782 
L 298.323234 135.313699 
L 294.556662 141.914681 
z
" style="fill:#fe01ff;opacity:0.8;stroke:#000000;stroke-linejoin:miter;"/>
   </g>
   <g id="patch_24">
    <path clip-path="url(#pfdfa2d94a2)" d="M 293.631392 99.714357 
L 298.362101 100.745828 
L 301.963585 117.494297 
L 289.246255 124.808782 
L 286.977958 124.521659 
L 278.766355 114.551249 
z
" style="fill:#00ffff;opacity:0.8;stroke:#000000;stroke-linejoin:miter;"/>
   </g>
   <g id="patch_25">
    <path clip-path="url(#pfdfa2d94a2)" d="M 293.349093 183.373171 
L 295.746827 173.91438 
L 308.732971 169.809041 
L 315.997975 181.029589 
L 304.721323 190.159625 
z
" style="fill:#00ffff;opacity:0.8;stroke:#000000;stroke-linejoin:miter;"/>
   </g>
   <g id="patch_26">
    <path clip-path="url(#pfdfa2d94a2)" d="M 166.805291 170.850576 
L 161.29893 161.51687 
L 165.231189 156.733269 
L 178.75518 155.46295 
L 184.593774 161.306803 
L 178.434923 170.509469 
z
" style="fill:#fe01ff;opacity:0.8;stroke:#000000;stroke-linejoin:miter;"/>
   </g>
   <g id="patch_27">
    <path clip-path="url(#pfdfa2d94a2)" d="M 197.238964 191.53712 
L 208.023109 198.788148 
L 202.970763 207.341797 
L 193.789994 208.18981 
L 186.11703 200.653902 
L 190.023383 193.050598 
z
" style="fill:#00ffff;opacity:0.8;stroke:#000000;stroke-linejoin:miter;"/>
   </g>
   <g id="patch_28">
    <path clip-path="url(#pfdfa2d94a2)" d="M 228.498159 185.801481 
L 231.560193 179.936631 
L 243.890535 177.365235 
L 244.546657 177.668677 
L 249.503303 190.055405 
L 248.986011 190.779009 
L 234.941131 194.667933 
L 234.080749 194.393797 
z
" style="fill:#ff00ff;opacity:0.8;stroke:#000000;stroke-linejoin:miter;"/>
   </g>
   <g id="patch_29">
    <path clip-path="url(#pfdfa2d94a2)" d="M 215.594422 257.740504 
L 215.355301 257.730022 
L 204.440477 241.040346 
L 211.17296 233.168274 
L 220.730849 232.917518 
L 228.599417 241.791637 
z
" style="fill:#00ffff;opacity:0.8;stroke:#000000;stroke-linejoin:miter;"/>
   </g>
   <g id="patch_30">
    <path clip-path="url(#pfdfa2d94a2)" d="M 275.044614 178.806065 
L 278.292965 170.504215 
L 286.559348 168.310165 
L 295.746827 173.91438 
L 293.349093 183.373171 
L 284.161604 185.559935 
z
" style="fill:#fe01ff;opacity:0.8;stroke:#000000;stroke-linejoin:miter;"/>
   </g>
   <g id="patch_31">
    <path clip-path="url(#pfdfa2d94a2)" d="M 234.424192 223.999714 
L 244.187953 232.453555 
L 238.324208 241.278925 
L 228.599417 241.791637 
L 220.730849 232.917518 
L 226.804 225.117682 
z
" style="fill:#ff00ff;opacity:0.8;stroke:#000000;stroke-linejoin:miter;"/>
   </g>
   <g id="patch_32">
    <path clip-path="url(#pfdfa2d94a2)" d="M 174.281477 202.595549 
L 171.992942 209.607653 
L 160.528783 213.58713 
L 155.187535 211.608115 
L 152.131695 201.290744 
L 155.68138 197.376831 
L 167.53943 196.23341 
z
" style="fill:#00ffff;opacity:0.8;stroke:#000000;stroke-linejoin:miter;"/>
   </g>
   <g id="patch_33">
    <path clip-path="url(#pfdfa2d94a2)" d="M 279.135745 210.445139 
L 288.390566 202.106181 
L 293.151387 202.308949 
L 302.235942 212.253063 
L 294.6163 221.232449 
L 285.345095 220.243016 
z
" style="fill:#00ffff;opacity:0.8;stroke:#000000;stroke-linejoin:miter;"/>
   </g>
   <g id="patch_34">
    <path clip-path="url(#pfdfa2d94a2)" d="M 232.66967 154.527545 
L 240.896179 149.462631 
L 251.611976 153.412759 
L 252.201173 160.830472 
L 241.739742 166.260788 
L 233.498554 163.237284 
z
" style="fill:#00ffff;opacity:0.8;stroke:#000000;stroke-linejoin:miter;"/>
   </g>
   <g id="patch_35">
    <path clip-path="url(#pfdfa2d94a2)" d="M 298.323234 135.313699 
L 311.477622 132.853004 
L 317.483308 136.774532 
L 316.210694 148.153284 
L 301.787348 150.787484 
L 294.556662 141.914681 
z
" style="fill:#fc03ff;opacity:0.8;stroke:#000000;stroke-linejoin:miter;"/>
   </g>
   <g id="patch_36">
    <path clip-path="url(#pfdfa2d94a2)" d="M 260.744749 147.922623 
L 274.23129 152.422081 
L 268.371299 164.002324 
L 261.415422 165.622331 
L 252.201173 160.830472 
L 251.611976 153.412759 
z
" style="fill:#ff00ff;opacity:0.8;stroke:#000000;stroke-linejoin:miter;"/>
   </g>
   <g id="patch_37">
    <path clip-path="url(#pfdfa2d94a2)" d="M 129.027571 147.043752 
L 132.679845 138.844196 
L 133.140047 137.976053 
L 133.72524 137.155173 
L 144.531347 123.865048 
L 154.051889 144.225947 
L 143.115567 150.877574 
z
" style="fill:#fd02ff;opacity:0.8;stroke:#000000;stroke-linejoin:miter;"/>
   </g>
   <g id="patch_38">
    <path clip-path="url(#pfdfa2d94a2)" d="M 233.230517 124.700993 
L 230.853105 117.232842 
L 241.125636 108.538118 
L 246.223338 108.271669 
L 251.975641 121.829819 
L 245.283511 127.217214 
z
" style="fill:#00ffff;opacity:0.8;stroke:#000000;stroke-linejoin:miter;"/>
   </g>
   <g id="patch_39">
    <path clip-path="url(#pfdfa2d94a2)" d="M 325.787951 116.005256 
L 331.010306 123.771053 
L 331.497275 124.60651 
L 331.860734 125.479528 
L 334.490608 133.264326 
L 317.483308 136.774532 
L 311.477622 132.853004 
L 312.331444 121.533949 
z
" style="fill:#00ffff;opacity:0.8;stroke:#000000;stroke-linejoin:miter;"/>
   </g>
   <g id="patch_40">
    <path clip-path="url(#pfdfa2d94a2)" d="M 200.917862 153.350008 
L 192.888981 161.374772 
L 184.593774 161.306803 
L 178.75518 155.46295 
L 182.037835 146.264182 
L 187.843606 144.146138 
L 199.812212 149.02109 
z
" style="fill:#fe01ff;opacity:0.8;stroke:#000000;stroke-linejoin:miter;"/>
   </g>
   <g id="patch_41">
    <path clip-path="url(#pfdfa2d94a2)" d="M 179.208695 95.453329 
L 190.523911 92.437608 
L 191.445707 92.228475 
L 192.38823 92.086596 
L 193.343464 92.013177 
L 203.843783 91.586844 
L 203.934416 104.881785 
L 196.507985 108.788026 
L 183.075367 104.317105 
z
" style="fill:#00ffff;opacity:0.8;stroke:#000000;stroke-linejoin:miter;"/>
   </g>
   <g id="patch_42">
    <path clip-path="url(#pfdfa2d94a2)" d="M 247.381802 135.836606 
L 245.283511 127.217214 
L 251.975641 121.829819 
L 262.600313 122.71822 
L 268.644159 132.377395 
L 259.169972 138.917224 
z
" style="fill:#00ffff;opacity:0.8;stroke:#000000;stroke-linejoin:miter;"/>
   </g>
   <g id="patch_43">
    <path clip-path="url(#pfdfa2d94a2)" d="M 180.290903 185.601741 
L 190.023383 193.050598 
L 186.11703 200.653902 
L 174.281477 202.595549 
L 167.53943 196.23341 
L 171.946008 187.190421 
z
" style="fill:#00ffff;opacity:0.8;stroke:#000000;stroke-linejoin:miter;"/>
   </g>
   <g id="patch_44">
    <path clip-path="url(#pfdfa2d94a2)" d="M 217.711948 113.985147 
L 216.031213 109.218093 
L 226.759576 99.13431 
L 241.125636 108.538118 
L 230.853105 117.232842 
z
" style="fill:#fd02ff;opacity:0.8;stroke:#000000;stroke-linejoin:miter;"/>
   </g>
   <g id="patch_45">
    <path clip-path="url(#pfdfa2d94a2)" d="M 202.970763 207.341797 
L 211.435211 215.552706 
L 203.779661 224.131431 
L 196.171028 224.177802 
L 188.09706 216.301453 
L 193.789994 208.18981 
z
" style="fill:#fe01ff;opacity:0.8;stroke:#000000;stroke-linejoin:miter;"/>
   </g>
   <g id="patch_46">
    <path clip-path="url(#pfdfa2d94a2)" d="M 171.992942 209.607653 
L 181.161537 216.836942 
L 174.165993 226.124998 
L 163.159924 224.046851 
L 160.528783 213.58713 
z
" style="fill:#00ffff;opacity:0.8;stroke:#000000;stroke-linejoin:miter;"/>
   </g>
   <g id="patch_47">
    <path clip-path="url(#pfdfa2d94a2)" d="M 207.658481 168.905484 
L 199.592463 169.318541 
L 192.888981 161.374772 
L 200.917862 153.350008 
L 213.545138 158.024886 
L 214.175599 160.658965 
z
" style="fill:#00ffff;opacity:0.8;stroke:#000000;stroke-linejoin:miter;"/>
   </g>
   <g id="patch_48">
    <path clip-path="url(#pfdfa2d94a2)" d="M 340.33101 171.262453 
L 338.973115 183.656223 
L 315.997975 181.029589 
L 308.732971 169.809041 
L 309.76048 167.654537 
L 320.788868 163.139225 
z
" style="fill:#00ffff;opacity:0.8;stroke:#000000;stroke-linejoin:miter;"/>
   </g>
   <g id="patch_49">
    <path clip-path="url(#pfdfa2d94a2)" d="M 150.579158 188.19209 
L 155.68138 197.376831 
L 152.131695 201.290744 
L 139.6929 201.196438 
L 132.383051 188.022101 
z
" style="fill:#ff00ff;opacity:0.8;stroke:#000000;stroke-linejoin:miter;"/>
   </g>
   <g id="patch_50">
    <path clip-path="url(#pfdfa2d94a2)" d="M 266.086761 180.650484 
L 262.801495 187.927483 
L 249.503303 190.055405 
L 244.546657 177.668677 
L 258.590096 174.833321 
z
" style="fill:#00ffff;opacity:0.8;stroke:#000000;stroke-linejoin:miter;"/>
   </g>
   <g id="patch_51">
    <path clip-path="url(#pfdfa2d94a2)" d="M 152.473246 114.097532 
L 162.467427 101.805971 
L 163.046779 101.16413 
L 163.702613 100.568947 
L 164.428816 100.025968 
L 165.21862 99.540253 
L 166.064663 99.11633 
L 166.959061 98.75815 
L 167.893479 98.46905 
L 179.208695 95.453329 
L 183.075367 104.317105 
L 175.28995 114.626024 
z
" style="fill:#fe01ff;opacity:0.8;stroke:#000000;stroke-linejoin:miter;"/>
   </g>
   <g id="patch_52">
    <path clip-path="url(#pfdfa2d94a2)" d="M 201.619166 183.626818 
L 197.238964 191.53712 
L 190.023383 193.050598 
L 180.290903 185.601741 
L 184.959596 177.483381 
L 194.651287 176.595977 
z
" style="fill:#fe01ff;opacity:0.8;stroke:#000000;stroke-linejoin:miter;"/>
   </g>
   <g id="patch_53">
    <path clip-path="url(#pfdfa2d94a2)" d="M 256.740391 220.113981 
L 262.64867 219.190941 
L 274.934439 227.799196 
L 274.660908 231.857475 
L 262.074828 237.46581 
L 251.76834 231.062887 
z
" style="fill:#00ffff;opacity:0.8;stroke:#000000;stroke-linejoin:miter;"/>
   </g>
   <g id="patch_54">
    <path clip-path="url(#pfdfa2d94a2)" d="M 280.143471 193.920642 
L 269.917746 195.041761 
L 262.801495 187.927483 
L 266.086761 180.650484 
L 275.044614 178.806065 
L 284.161604 185.559935 
z
" style="fill:#fe01ff;opacity:0.8;stroke:#000000;stroke-linejoin:miter;"/>
   </g>
   <g id="patch_55">
    <path clip-path="url(#pfdfa2d94a2)" d="M 228.498159 185.801481 
L 234.080749 194.393797 
L 220.642984 200.201871 
L 213.727399 197.430663 
L 216.587025 187.273892 
z
" style="fill:#00ffff;opacity:0.8;stroke:#000000;stroke-linejoin:miter;"/>
   </g>
   <g id="patch_56">
    <path clip-path="url(#pfdfa2d94a2)" d="M 238.689547 204.38489 
L 249.616207 206.339595 
L 249.689258 215.802299 
L 238.242499 218.369274 
L 231.997803 209.700063 
z
" style="fill:#00ffff;opacity:0.8;stroke:#000000;stroke-linejoin:miter;"/>
   </g>
   <g id="patch_57">
    <path clip-path="url(#pfdfa2d94a2)" d="M 120.92723 185.624759 
L 122.147637 172.634007 
L 122.215539 172.128231 
L 123.553949 164.472619 
L 142.46236 166.492259 
L 144.136262 172.837527 
L 128.557625 186.062712 
z
" style="fill:#00ffff;opacity:0.8;stroke:#000000;stroke-linejoin:miter;"/>
   </g>
   <g id="patch_58">
    <path clip-path="url(#pfdfa2d94a2)" d="M 231.560193 179.936631 
L 224.280125 173.614732 
L 226.572445 166.367331 
L 233.498554 163.237284 
L 241.739742 166.260788 
L 243.890535 177.365235 
z
" style="fill:#fe01ff;opacity:0.8;stroke:#000000;stroke-linejoin:miter;"/>
   </g>
   <g id="patch_59">
    <path clip-path="url(#pfdfa2d94a2)" d="M 260.744749 147.922623 
L 259.169972 138.917224 
L 268.644159 132.377395 
L 274.197819 133.068298 
L 281.84241 143.196675 
L 275.851074 151.973095 
L 274.23129 152.422081 
z
" style="fill:#00ffff;opacity:0.8;stroke:#000000;stroke-linejoin:miter;"/>
   </g>
   <g id="patch_60">
    <path clip-path="url(#pfdfa2d94a2)" d="M 275.851074 151.973095 
L 281.84241 143.196675 
L 294.556662 141.914681 
L 301.787348 150.787484 
L 299.149222 155.995708 
L 289.252008 158.996822 
z
" style="fill:#fe01ff;opacity:0.8;stroke:#000000;stroke-linejoin:miter;"/>
   </g>
   <g id="patch_61">
    <path clip-path="url(#pfdfa2d94a2)" d="M 171.946008 187.190421 
L 167.53943 196.23341 
L 155.68138 197.376831 
L 150.579158 188.19209 
L 156.850366 179.405767 
L 160.959744 178.680348 
z
" style="fill:#00ffff;opacity:0.8;stroke:#000000;stroke-linejoin:miter;"/>
   </g>
   <g id="patch_62">
    <path clip-path="url(#pfdfa2d94a2)" d="M 302.235942 212.253063 
L 293.151387 202.308949 
L 305.033349 192.62176 
L 317.802933 200.148763 
L 313.597247 211.710578 
z
" style="fill:#fd02ff;opacity:0.8;stroke:#000000;stroke-linejoin:miter;"/>
   </g>
   <g id="patch_63">
    <path clip-path="url(#pfdfa2d94a2)" d="M 252.29145 254.809763 
L 236.980133 258.227159 
L 235.849748 258.427013 
L 234.697945 258.527413 
L 233.539003 258.527116 
L 215.594422 257.740504 
L 228.599417 241.791637 
L 238.324208 241.278925 
z
" style="fill:#00ffff;opacity:0.8;stroke:#000000;stroke-linejoin:miter;"/>
   </g>
   <g id="patch_64">
    <path clip-path="url(#pfdfa2d94a2)" d="M 268.644159 132.377395 
L 262.600313 122.71822 
L 270.405452 114.066969 
L 278.766355 114.551249 
L 286.977958 124.521659 
L 274.197819 133.068298 
z
" style="fill:#00ffff;opacity:0.8;stroke:#000000;stroke-linejoin:miter;"/>
   </g>
   <g id="patch_65">
    <path clip-path="url(#pfdfa2d94a2)" d="M 208.023109 198.788148 
L 213.727399 197.430663 
L 220.642984 200.201871 
L 223.919465 209.155432 
L 216.847156 215.301709 
L 211.435211 215.552706 
L 202.970763 207.341797 
z
" style="fill:#ff00ff;opacity:0.8;stroke:#000000;stroke-linejoin:miter;"/>
   </g>
   <g id="patch_66">
    <path clip-path="url(#pfdfa2d94a2)" d="M 280.143471 193.920642 
L 284.161604 185.559935 
L 293.349093 183.373171 
L 304.721323 190.159625 
L 305.033349 192.62176 
L 293.151387 202.308949 
L 288.390566 202.106181 
z
" style="fill:#fe01ff;opacity:0.8;stroke:#000000;stroke-linejoin:miter;"/>
   </g>
   <g id="patch_67">
    <path clip-path="url(#pfdfa2d94a2)" d="M 239.379481 141.430707 
L 247.381802 135.836606 
L 259.169972 138.917224 
L 260.744749 147.922623 
L 251.611976 153.412759 
L 240.896179 149.462631 
z
" style="fill:#fe01ff;opacity:0.8;stroke:#000000;stroke-linejoin:miter;"/>
   </g>
   <g id="patch_68">
    <path clip-path="url(#pfdfa2d94a2)" d="M 301.787348 150.787484 
L 316.210694 148.153284 
L 321.826514 151.993861 
L 320.788868 163.139225 
L 309.76048 167.654537 
L 299.149222 155.995708 
z
" style="fill:#00ffff;opacity:0.8;stroke:#000000;stroke-linejoin:miter;"/>
   </g>
   <g id="patch_69">
    <path clip-path="url(#pfdfa2d94a2)" d="M 220.092118 144.858779 
L 221.6536 151.121986 
L 213.545138 158.024886 
L 200.917862 153.350008 
L 199.812212 149.02109 
L 209.151109 141.245641 
z
" style="fill:#fe01ff;opacity:0.8;stroke:#000000;stroke-linejoin:miter;"/>
   </g>
   <g id="patch_70">
    <path clip-path="url(#pfdfa2d94a2)" d="M 303.029183 233.720486 
L 289.209912 242.065307 
L 274.660908 231.857475 
L 274.934439 227.799196 
L 285.345095 220.243016 
L 294.6163 221.232449 
z
" style="fill:#ff00ff;opacity:0.8;stroke:#000000;stroke-linejoin:miter;"/>
   </g>
   <g id="patch_71">
    <path clip-path="url(#pfdfa2d94a2)" d="M 259.956606 253.098945 
L 252.29145 254.809763 
L 238.324208 241.278925 
L 244.187953 232.453555 
L 251.76834 231.062887 
L 262.074828 237.46581 
z
" style="fill:#00ffff;opacity:0.8;stroke:#000000;stroke-linejoin:miter;"/>
   </g>
   <g id="patch_72">
    <path clip-path="url(#pfdfa2d94a2)" d="M 338.973115 183.656223 
L 337.753576 194.787186 
L 317.802933 200.148763 
L 305.033349 192.62176 
L 304.721323 190.159625 
L 315.997975 181.029589 
z
" style="fill:#00ffff;opacity:0.8;stroke:#000000;stroke-linejoin:miter;"/>
   </g>
   <g id="patch_73">
    <path clip-path="url(#pfdfa2d94a2)" d="M 180.290903 185.601741 
L 171.946008 187.190421 
L 160.959744 178.680348 
L 166.805291 170.850576 
L 178.434923 170.509469 
L 184.959596 177.483381 
z
" style="fill:#00ffff;opacity:0.8;stroke:#000000;stroke-linejoin:miter;"/>
   </g>
   <g id="patch_74">
    <path clip-path="url(#pfdfa2d94a2)" d="M 269.673559 209.888544 
L 264.284848 203.32664 
L 269.917746 195.041761 
L 280.143471 193.920642 
L 288.390566 202.106181 
L 279.135745 210.445139 
z
" style="fill:#00ffff;opacity:0.8;stroke:#000000;stroke-linejoin:miter;"/>
   </g>
   <g id="patch_75">
    <path clip-path="url(#pfdfa2d94a2)" d="M 298.362101 100.745828 
L 314.148221 104.187791 
L 315.15323 104.450698 
L 316.118832 104.792114 
L 317.035018 105.208502 
L 317.892292 105.695543 
L 318.681768 106.248192 
L 319.395263 106.860719 
L 320.025383 107.526776 
L 320.565596 108.239459 
L 325.787951 116.005256 
L 312.331444 121.533949 
L 301.963585 117.494297 
z
" style="fill:#fe01ff;opacity:0.8;stroke:#000000;stroke-linejoin:miter;"/>
   </g>
   <g id="patch_76">
    <path clip-path="url(#pfdfa2d94a2)" d="M 270.572642 94.686689 
L 293.631392 99.714357 
L 278.766355 114.551249 
L 270.405452 114.066969 
L 264.670172 107.299185 
z
" style="fill:#00ffff;opacity:0.8;stroke:#000000;stroke-linejoin:miter;"/>
   </g>
   <g id="patch_77">
    <path clip-path="url(#pfdfa2d94a2)" d="M 298.323234 135.313699 
L 289.246255 124.808782 
L 301.963585 117.494297 
L 312.331444 121.533949 
L 311.477622 132.853004 
z
" style="fill:#fd02ff;opacity:0.8;stroke:#000000;stroke-linejoin:miter;"/>
   </g>
   <g id="patch_78">
    <path clip-path="url(#pfdfa2d94a2)" d="M 228.786498 138.602184 
L 226.120252 130.548885 
L 233.230517 124.700993 
L 245.283511 127.217214 
L 247.381802 135.836606 
L 239.379481 141.430707 
z
" style="fill:#00ffff;opacity:0.8;stroke:#000000;stroke-linejoin:miter;"/>
   </g>
   <g id="patch_79">
    <path clip-path="url(#pfdfa2d94a2)" d="M 264.284848 203.32664 
L 254.311097 202.959518 
L 248.986011 190.779009 
L 249.503303 190.055405 
L 262.801495 187.927483 
L 269.917746 195.041761 
z
" style="fill:#fe01ff;opacity:0.8;stroke:#000000;stroke-linejoin:miter;"/>
   </g>
   <g id="patch_80">
    <path clip-path="url(#pfdfa2d94a2)" d="M 199.592463 169.318541 
L 194.651287 176.595977 
L 184.959596 177.483381 
L 178.434923 170.509469 
L 184.593774 161.306803 
L 192.888981 161.374772 
z
" style="fill:#fe01ff;opacity:0.8;stroke:#000000;stroke-linejoin:miter;"/>
   </g>
   <g id="patch_81">
    <path clip-path="url(#pfdfa2d94a2)" d="M 203.779661 224.131431 
L 211.17296 233.168274 
L 204.440477 241.040346 
L 193.728973 240.49139 
L 188.576255 232.525086 
L 196.171028 224.177802 
z
" style="fill:#fe01ff;opacity:0.8;stroke:#000000;stroke-linejoin:miter;"/>
   </g>
   <g id="patch_82">
    <path clip-path="url(#pfdfa2d94a2)" d="M 178.75518 155.46295 
L 165.231189 156.733269 
L 160.257984 145.55627 
L 170.019285 140.666296 
L 182.037835 146.264182 
z
" style="fill:#00ffff;opacity:0.8;stroke:#000000;stroke-linejoin:miter;"/>
   </g>
   <g id="patch_83">
    <path clip-path="url(#pfdfa2d94a2)" d="M 212.018616 120.786889 
L 199.182191 121.136121 
L 195.967018 118.588599 
L 196.507985 108.788026 
L 203.934416 104.881785 
L 216.031213 109.218093 
L 217.711948 113.985147 
z
" style="fill:#fe01ff;opacity:0.8;stroke:#000000;stroke-linejoin:miter;"/>
   </g>
   <g id="patch_84">
    <path clip-path="url(#pfdfa2d94a2)" d="M 258.590096 174.833321 
L 244.546657 177.668677 
L 243.890535 177.365235 
L 241.739742 166.260788 
L 252.201173 160.830472 
L 261.415422 165.622331 
z
" style="fill:#00ffff;opacity:0.8;stroke:#000000;stroke-linejoin:miter;"/>
   </g>
   <g id="patch_85">
    <path clip-path="url(#pfdfa2d94a2)" d="M 334.490608 133.264326 
L 337.120481 141.049123 
L 337.227455 141.396511 
L 339.347923 149.01397 
L 321.826514 151.993861 
L 316.210694 148.153284 
L 317.483308 136.774532 
z
" style="fill:#fe01ff;opacity:0.8;stroke:#000000;stroke-linejoin:miter;"/>
   </g>
   <g id="patch_86">
    <path clip-path="url(#pfdfa2d94a2)" d="M 146.796269 121.079485 
L 152.473246 114.097532 
L 175.28995 114.626024 
L 181.305165 120.80121 
L 179.101879 128.646353 
L 170.797135 131.950724 
z
" style="fill:#00ffff;opacity:0.8;stroke:#000000;stroke-linejoin:miter;"/>
   </g>
   <g id="patch_87">
    <path clip-path="url(#pfdfa2d94a2)" d="M 256.740391 220.113981 
L 251.76834 231.062887 
L 244.187953 232.453555 
L 234.424192 223.999714 
L 238.242499 218.369274 
L 249.689258 215.802299 
z
" style="fill:#fe01ff;opacity:0.8;stroke:#000000;stroke-linejoin:miter;"/>
   </g>
   <g id="patch_88">
    <path clip-path="url(#pfdfa2d94a2)" d="M 210.963535 182.514461 
L 216.587025 187.273892 
L 213.727399 197.430663 
L 208.023109 198.788148 
L 197.238964 191.53712 
L 201.619166 183.626818 
z
" style="fill:#fe01ff;opacity:0.8;stroke:#000000;stroke-linejoin:miter;"/>
   </g>
   <g id="patch_89">
    <path clip-path="url(#pfdfa2d94a2)" d="M 186.11703 200.653902 
L 193.789994 208.18981 
L 188.09706 216.301453 
L 181.161537 216.836942 
L 171.992942 209.607653 
L 174.281477 202.595549 
z
" style="fill:#ff00ff;opacity:0.8;stroke:#000000;stroke-linejoin:miter;"/>
   </g>
   <g id="patch_90">
    <path clip-path="url(#pfdfa2d94a2)" d="M 203.843783 91.586844 
L 225.806141 90.695132 
L 226.759576 99.13431 
L 216.031213 109.218093 
L 203.934416 104.881785 
z
" style="fill:#00ffff;opacity:0.8;stroke:#000000;stroke-linejoin:miter;"/>
   </g>
   <g id="patch_91">
    <path clip-path="url(#pfdfa2d94a2)" d="M 210.963535 182.514461 
L 201.619166 183.626818 
L 194.651287 176.595977 
L 199.592463 169.318541 
L 207.658481 168.905484 
L 214.376805 175.318964 
z
" style="fill:#00ffff;opacity:0.8;stroke:#000000;stroke-linejoin:miter;"/>
   </g>
   <g id="patch_92">
    <path clip-path="url(#pfdfa2d94a2)" d="M 197.294671 131.923955 
L 190.132133 134.547257 
L 179.101879 128.646353 
L 181.305165 120.80121 
L 195.967018 118.588599 
L 199.182191 121.136121 
z
" style="fill:#00ffff;opacity:0.8;stroke:#000000;stroke-linejoin:miter;"/>
   </g>
   <g id="patch_93">
    <path clip-path="url(#pfdfa2d94a2)" d="M 165.231189 156.733269 
L 161.29893 161.51687 
L 147.050628 161.747193 
L 143.115567 150.877574 
L 154.051889 144.225947 
L 160.257984 145.55627 
z
" style="fill:#fe01ff;opacity:0.8;stroke:#000000;stroke-linejoin:miter;"/>
   </g>
   <g id="patch_94">
    <path clip-path="url(#pfdfa2d94a2)" d="M 225.806141 90.695132 
L 239.066846 90.156723 
L 240.08736 90.154441 
L 241.103255 90.230274 
L 250.194968 91.262539 
L 247.155475 107.618104 
L 246.223338 108.271669 
L 241.125636 108.538118 
L 226.759576 99.13431 
z
" style="fill:#fe01ff;opacity:0.8;stroke:#000000;stroke-linejoin:miter;"/>
   </g>
   <g id="patch_95">
    <path clip-path="url(#pfdfa2d94a2)" d="M 183.444321 250.932695 
L 168.747649 243.136396 
L 177.611395 231.37954 
L 188.576255 232.525086 
L 193.728973 240.49139 
z
" style="fill:#00ffff;opacity:0.8;stroke:#000000;stroke-linejoin:miter;"/>
   </g>
   <g id="patch_96">
    <path clip-path="url(#pfdfa2d94a2)" d="M 269.673559 209.888544 
L 279.135745 210.445139 
L 285.345095 220.243016 
L 274.934439 227.799196 
L 262.64867 219.190941 
z
" style="fill:#00ffff;opacity:0.8;stroke:#000000;stroke-linejoin:miter;"/>
   </g>
   <g id="patch_97">
    <path clip-path="url(#pfdfa2d94a2)" d="M 274.23129 152.422081 
L 275.851074 151.973095 
L 289.252008 158.996822 
L 286.559348 168.310165 
L 278.292965 170.504215 
L 268.371299 164.002324 
z
" style="fill:#00ffff;opacity:0.8;stroke:#000000;stroke-linejoin:miter;"/>
   </g>
   <g id="patch_98">
    <path clip-path="url(#pfdfa2d94a2)" d="M 250.194968 91.262539 
L 259.286681 92.294803 
L 260.587304 92.509513 
L 270.572642 94.686689 
L 264.670172 107.299185 
L 247.155475 107.618104 
z
" style="fill:#fb04ff;opacity:0.8;stroke:#000000;stroke-linejoin:miter;"/>
   </g>
   <g id="patch_99">
    <path clip-path="url(#pfdfa2d94a2)" d="M 266.086761 180.650484 
L 258.590096 174.833321 
L 261.415422 165.622331 
L 268.371299 164.002324 
L 278.292965 170.504215 
L 275.044614 178.806065 
z
" style="fill:#00ffff;opacity:0.8;stroke:#000000;stroke-linejoin:miter;"/>
   </g>
   <g id="patch_100">
    <path clip-path="url(#pfdfa2d94a2)" d="M 137.998919 219.162384 
L 129.402378 211.195685 
L 139.6929 201.196438 
L 152.131695 201.290744 
L 155.187535 211.608115 
z
" style="fill:#12edff;opacity:0.8;stroke:#000000;stroke-linejoin:miter;"/>
   </g>
   <g id="patch_101">
    <path clip-path="url(#pfdfa2d94a2)" d="M 195.967018 118.588599 
L 181.305165 120.80121 
L 175.28995 114.626024 
L 183.075367 104.317105 
L 196.507985 108.788026 
z
" style="fill:#fe01ff;opacity:0.8;stroke:#000000;stroke-linejoin:miter;"/>
   </g>
   <g id="patch_102">
    <path clip-path="url(#pfdfa2d94a2)" d="M 220.092118 144.858779 
L 209.151109 141.245641 
L 207.763678 136.259974 
L 216.451017 128.841157 
L 226.120252 130.548885 
L 228.786498 138.602184 
z
" style="fill:#00ffff;opacity:0.8;stroke:#000000;stroke-linejoin:miter;"/>
   </g>
   <g id="patch_103">
    <path clip-path="url(#pfdfa2d94a2)" d="M 196.171028 224.177802 
L 188.576255 232.525086 
L 177.611395 231.37954 
L 174.165993 226.124998 
L 181.161537 216.836942 
L 188.09706 216.301453 
z
" style="fill:#00ffff;opacity:0.8;stroke:#000000;stroke-linejoin:miter;"/>
   </g>
   <g id="patch_104">
    <path clip-path="url(#pfdfa2d94a2)" d="M 150.579158 188.19209 
L 132.383051 188.022101 
L 128.557625 186.062712 
L 144.136262 172.837527 
L 156.850366 179.405767 
z
" style="fill:#00ffff;opacity:0.8;stroke:#000000;stroke-linejoin:miter;"/>
   </g>
   <g id="patch_105">
    <path clip-path="url(#pfdfa2d94a2)" d="M 234.941131 194.667933 
L 248.986011 190.779009 
L 254.311097 202.959518 
L 249.616207 206.339595 
L 238.689547 204.38489 
z
" style="fill:#00ffff;opacity:0.8;stroke:#000000;stroke-linejoin:miter;"/>
   </g>
   <g id="patch_106">
    <path clip-path="url(#pfdfa2d94a2)" d="M 210.963535 182.514461 
L 214.376805 175.318964 
L 224.280125 173.614732 
L 231.560193 179.936631 
L 228.498159 185.801481 
L 216.587025 187.273892 
z
" style="fill:#00ffff;opacity:0.8;stroke:#000000;stroke-linejoin:miter;"/>
   </g>
   <g id="patch_107">
    <path clip-path="url(#pfdfa2d94a2)" d="M 216.847156 215.301709 
L 223.919465 209.155432 
L 231.997803 209.700063 
L 238.242499 218.369274 
L 234.424192 223.999714 
L 226.804 225.117682 
z
" style="fill:#00ffff;opacity:0.8;stroke:#000000;stroke-linejoin:miter;"/>
   </g>
   <g id="patch_108">
    <path clip-path="url(#pfdfa2d94a2)" d="M 221.6536 151.121986 
L 232.66967 154.527545 
L 233.498554 163.237284 
L 226.572445 166.367331 
L 214.175599 160.658965 
L 213.545138 158.024886 
z
" style="fill:#fc03ff;opacity:0.8;stroke:#000000;stroke-linejoin:miter;"/>
   </g>
   <g id="patch_109">
    <path clip-path="url(#pfdfa2d94a2)" d="M 129.402378 211.195685 
L 122.131304 204.45734 
L 121.520217 203.832009 
L 120.989266 203.163464 
L 120.543417 202.457958 
L 120.186839 201.722088 
L 119.922869 200.962736 
L 119.753973 200.187006 
L 119.681733 199.40215 
L 119.706824 198.615511 
L 120.92723 185.624759 
L 128.557625 186.062712 
L 132.383051 188.022101 
L 139.6929 201.196438 
z
" style="fill:#fe01ff;opacity:0.8;stroke:#000000;stroke-linejoin:miter;"/>
   </g>
  </g>
 </g>
 <defs>
  <clipPath id="pfdfa2d94a2">
   <rect height="265.0032" width="357.12" x="57.6" y="41.2992"/>
  </clipPath>
 </defs>
</svg>
