<?xml version="1.0" encoding="utf-8" standalone="no"?>
<!DOCTYPE svg PUBLIC "-//W3C//DTD SVG 1.1//EN"
  "http://www.w3.org/Graphics/SVG/1.1/DTD/svg11.dtd">
<!-- Created with matplotlib (https://matplotlib.org/) -->
<svg height="344.16pt" version="1.1" viewBox="0 0 460.8 344.16" width="460.8pt" xmlns="http://www.w3.org/2000/svg" xmlns:xlink="http://www.w3.org/1999/xlink">
 <defs>
  <style type="text/css">
*{stroke-linecap:butt;stroke-linejoin:round;}
  </style>
 </defs>
 <g id="figure_1">
  <g id="patch_1">
   <path d="M 0 344.16 
L 460.8 344.16 
L 460.8 0 
L 0 0 
z
" style="fill:#ffffff;"/>
  </g>
  <g id="axes_1">
   <g id="PathCollection_1">
    <defs>
     <path d="M 0 1.085931 
C 0.287992 1.085931 0.564228 0.97151 0.767869 0.767869 
C 0.97151 0.564228 1.085931 0.287992 1.085931 0 
C 1.085931 -0.287992 0.97151 -0.564228 0.767869 -0.767869 
C 0.564228 -0.97151 0.287992 -1.085931 0 -1.085931 
C -0.287992 -1.085931 -0.564228 -0.97151 -0.767869 -0.767869 
C -0.97151 -0.564228 -1.085931 -0.287992 -1.085931 0 
C -1.085931 0.287992 -0.97151 0.564228 -0.767869 0.767869 
C -0.564228 0.97151 -0.287992 1.085931 0 1.085931 
z
" id="meaa888a9e1" style="stroke:#000000;"/>
    </defs>
    <g clip-path="url(#p2d1a9dda08)">
     <use style="stroke:#000000;" x="245.692164" xlink:href="#meaa888a9e1" y="204.602626"/>
     <use style="stroke:#000000;" x="174.66077" xlink:href="#meaa888a9e1" y="193.460046"/>
     <use style="stroke:#000000;" x="267.443264" xlink:href="#meaa888a9e1" y="223.787588"/>
     <use style="stroke:#000000;" x="292.424552" xlink:href="#meaa888a9e1" y="106.341914"/>
     <use style="stroke:#000000;" x="181.209341" xlink:href="#meaa888a9e1" y="141.318874"/>
     <use style="stroke:#000000;" x="238.152306" xlink:href="#meaa888a9e1" y="130.110895"/>
     <use style="stroke:#000000;" x="367.698158" xlink:href="#meaa888a9e1" y="163.908983"/>
     <use style="stroke:#000000;" x="238.245265" xlink:href="#meaa888a9e1" y="261.073046"/>
     <use style="stroke:#000000;" x="118.175694" xlink:href="#meaa888a9e1" y="192.649291"/>
     <use style="stroke:#000000;" x="270.002348" xlink:href="#meaa888a9e1" y="128.828891"/>
     <use style="stroke:#000000;" x="306.283086" xlink:href="#meaa888a9e1" y="176.582188"/>
     <use style="stroke:#000000;" x="218.776281" xlink:href="#meaa888a9e1" y="263.055528"/>
     <use style="stroke:#000000;" x="176.781619" xlink:href="#meaa888a9e1" y="79.545556"/>
     <use style="stroke:#000000;" x="313.157748" xlink:href="#meaa888a9e1" y="219.835117"/>
     <use style="stroke:#000000;" x="251.320323" xlink:href="#meaa888a9e1" y="103.29231"/>
     <use style="stroke:#000000;" x="225.457797" xlink:href="#meaa888a9e1" y="250.667302"/>
     <use style="stroke:#000000;" x="123.529864" xlink:href="#meaa888a9e1" y="163.754265"/>
     <use style="stroke:#000000;" x="282.220978" xlink:href="#meaa888a9e1" y="164.662254"/>
     <use style="stroke:#000000;" x="341.948359" xlink:href="#meaa888a9e1" y="239.924325"/>
     <use style="stroke:#000000;" x="209.365226" xlink:href="#meaa888a9e1" y="158.141338"/>
     <use style="stroke:#000000;" x="194.277558" xlink:href="#meaa888a9e1" y="192.047963"/>
     <use style="stroke:#000000;" x="187.658577" xlink:href="#meaa888a9e1" y="202.641564"/>
     <use style="stroke:#000000;" x="136.961644" xlink:href="#meaa888a9e1" y="236.355729"/>
     <use style="stroke:#000000;" x="257.694717" xlink:href="#meaa888a9e1" y="74.795086"/>
     <use style="stroke:#000000;" x="313.214129" xlink:href="#meaa888a9e1" y="113.528811"/>
     <use style="stroke:#000000;" x="364.482518" xlink:href="#meaa888a9e1" y="214.162156"/>
     <use style="stroke:#000000;" x="165.471563" xlink:href="#meaa888a9e1" y="136.979969"/>
     <use style="stroke:#000000;" x="333.033889" xlink:href="#meaa888a9e1" y="214.284151"/>
     <use style="stroke:#000000;" x="289.009554" xlink:href="#meaa888a9e1" y="93.87169"/>
     <use style="stroke:#000000;" x="321.541842" xlink:href="#meaa888a9e1" y="101.927482"/>
     <use style="stroke:#000000;" x="298.077576" xlink:href="#meaa888a9e1" y="254.993518"/>
     <use style="stroke:#000000;" x="98.901986" xlink:href="#meaa888a9e1" y="189.270716"/>
     <use style="stroke:#000000;" x="183.125261" xlink:href="#meaa888a9e1" y="96.01769"/>
     <use style="stroke:#000000;" x="298.022172" xlink:href="#meaa888a9e1" y="212.097509"/>
     <use style="stroke:#000000;" x="168.536682" xlink:href="#meaa888a9e1" y="122.029996"/>
     <use style="stroke:#000000;" x="193.307934" xlink:href="#meaa888a9e1" y="151.822505"/>
     <use style="stroke:#000000;" x="183.367442" xlink:href="#meaa888a9e1" y="228.431874"/>
     <use style="stroke:#000000;" x="258.258048" xlink:href="#meaa888a9e1" y="244.354022"/>
     <use style="stroke:#000000;" x="153.964761" xlink:href="#meaa888a9e1" y="215.048161"/>
     <use style="stroke:#000000;" x="267.768593" xlink:href="#meaa888a9e1" y="158.898316"/>
     <use style="stroke:#000000;" x="122.653295" xlink:href="#meaa888a9e1" y="209.857742"/>
     <use style="stroke:#000000;" x="212.071311" xlink:href="#meaa888a9e1" y="199.673765"/>
     <use style="stroke:#000000;" x="152.289003" xlink:href="#meaa888a9e1" y="246.216796"/>
     <use style="stroke:#000000;" x="253.264943" xlink:href="#meaa888a9e1" y="151.787885"/>
     <use style="stroke:#000000;" x="238.465304" xlink:href="#meaa888a9e1" y="169.479331"/>
     <use style="stroke:#000000;" x="343.269735" xlink:href="#meaa888a9e1" y="128.231523"/>
     <use style="stroke:#000000;" x="200.988376" xlink:href="#meaa888a9e1" y="116.067633"/>
     <use style="stroke:#000000;" x="327.135848" xlink:href="#meaa888a9e1" y="149.941604"/>
     <use style="stroke:#000000;" x="373.53264" xlink:href="#meaa888a9e1" y="201.349502"/>
     <use style="stroke:#000000;" x="257.996735" xlink:href="#meaa888a9e1" y="195.808613"/>
     <use style="stroke:#000000;" x="143.118223" xlink:href="#meaa888a9e1" y="113.357135"/>
     <use style="stroke:#000000;" x="336.626657" xlink:href="#meaa888a9e1" y="100.65823"/>
     <use style="stroke:#000000;" x="207.483267" xlink:href="#meaa888a9e1" y="128.451639"/>
     <use style="stroke:#000000;" x="139.955937" xlink:href="#meaa888a9e1" y="146.088377"/>
     <use style="stroke:#000000;" x="284.084426" xlink:href="#meaa888a9e1" y="151.503988"/>
     <use style="stroke:#000000;" x="283.14067" xlink:href="#meaa888a9e1" y="267.101662"/>
     <use style="stroke:#000000;" x="141.74955" xlink:href="#meaa888a9e1" y="207.031933"/>
     <use style="stroke:#000000;" x="331.26553" xlink:href="#meaa888a9e1" y="194.594721"/>
     <use style="stroke:#000000;" x="306.91313" xlink:href="#meaa888a9e1" y="129.543604"/>
     <use style="stroke:#000000;" x="141.815262" xlink:href="#meaa888a9e1" y="172.945075"/>
     <use style="stroke:#000000;" x="348.759512" xlink:href="#meaa888a9e1" y="186.883779"/>
     <use style="stroke:#000000;" x="136.047814" xlink:href="#meaa888a9e1" y="220.984338"/>
     <use style="stroke:#000000;" x="260.464037" xlink:href="#meaa888a9e1" y="270.814839"/>
     <use style="stroke:#000000;" x="199.514892" xlink:href="#meaa888a9e1" y="225.355169"/>
     <use style="stroke:#000000;" x="210.452086" xlink:href="#meaa888a9e1" y="185.595014"/>
     <use style="stroke:#000000;" x="317.300854" xlink:href="#meaa888a9e1" y="245.860897"/>
     <use style="stroke:#000000;" x="207.7359" xlink:href="#meaa888a9e1" y="252.043305"/>
     <use style="stroke:#000000;" x="177.842144" xlink:href="#meaa888a9e1" y="166.608275"/>
     <use style="stroke:#000000;" x="224.786157" xlink:href="#meaa888a9e1" y="227.909101"/>
     <use style="stroke:#000000;" x="171.280144" xlink:href="#meaa888a9e1" y="256.46345"/>
     <use style="stroke:#000000;" x="258.668428" xlink:href="#meaa888a9e1" y="182.846694"/>
     <use style="stroke:#000000;" x="288.727613" xlink:href="#meaa888a9e1" y="226.030134"/>
     <use style="stroke:#000000;" x="272.963847" xlink:href="#meaa888a9e1" y="199.987456"/>
     <use style="stroke:#000000;" x="249.844546" xlink:href="#meaa888a9e1" y="219.21043"/>
     <use style="stroke:#000000;" x="200.716749" xlink:href="#meaa888a9e1" y="102.012151"/>
     <use style="stroke:#000000;" x="206.692079" xlink:href="#meaa888a9e1" y="275.143415"/>
     <use style="stroke:#000000;" x="132.926043" xlink:href="#meaa888a9e1" y="133.077486"/>
     <use style="stroke:#000000;" x="107.993228" xlink:href="#meaa888a9e1" y="175.615466"/>
     <use style="stroke:#000000;" x="303.285335" xlink:href="#meaa888a9e1" y="199.725956"/>
     <use style="stroke:#000000;" x="363.19707" xlink:href="#meaa888a9e1" y="130.85522"/>
     <use style="stroke:#000000;" x="240.377297" xlink:href="#meaa888a9e1" y="91.416836"/>
     <use style="stroke:#000000;" x="277.572391" xlink:href="#meaa888a9e1" y="71.835943"/>
     <use style="stroke:#000000;" x="152.333005" xlink:href="#meaa888a9e1" y="262.435189"/>
     <use style="stroke:#000000;" x="238.633716" xlink:href="#meaa888a9e1" y="144.203385"/>
     <use style="stroke:#000000;" x="214.333567" xlink:href="#meaa888a9e1" y="75.586351"/>
     <use style="stroke:#000000;" x="253.13334" xlink:href="#meaa888a9e1" y="124.032457"/>
     <use style="stroke:#000000;" x="217.333227" xlink:href="#meaa888a9e1" y="110.840278"/>
     <use style="stroke:#000000;" x="193.482456" xlink:href="#meaa888a9e1" y="178.271033"/>
     <use style="stroke:#000000;" x="146.079961" xlink:href="#meaa888a9e1" y="97.985321"/>
     <use style="stroke:#000000;" x="344.552414" xlink:href="#meaa888a9e1" y="143.678818"/>
     <use style="stroke:#000000;" x="224.726357" xlink:href="#meaa888a9e1" y="88.272122"/>
     <use style="stroke:#000000;" x="347.662886" xlink:href="#meaa888a9e1" y="170.180839"/>
     <use style="stroke:#000000;" x="225.779544" xlink:href="#meaa888a9e1" y="177.478401"/>
     <use style="stroke:#000000;" x="373.609678" xlink:href="#meaa888a9e1" y="184.323245"/>
     <use style="stroke:#000000;" x="324.556947" xlink:href="#meaa888a9e1" y="124.876242"/>
     <use style="stroke:#000000;" x="209.511348" xlink:href="#meaa888a9e1" y="145.605277"/>
     <use style="stroke:#000000;" x="296.516551" xlink:href="#meaa888a9e1" y="118.049161"/>
     <use style="stroke:#000000;" x="293.139589" xlink:href="#meaa888a9e1" y="80.190673"/>
     <use style="stroke:#000000;" x="297.295311" xlink:href="#meaa888a9e1" y="187.758751"/>
     <use style="stroke:#000000;" x="282.380386" xlink:href="#meaa888a9e1" y="185.042763"/>
     <use style="stroke:#000000;" x="194.949688" xlink:href="#meaa888a9e1" y="84.222782"/>
     <use style="stroke:#000000;" x="299.646065" xlink:href="#meaa888a9e1" y="149.742876"/>
     <use style="stroke:#000000;" x="222.704725" xlink:href="#meaa888a9e1" y="137.13851"/>
     <use style="stroke:#000000;" x="236.034963" xlink:href="#meaa888a9e1" y="213.318578"/>
     <use style="stroke:#000000;" x="156.596672" xlink:href="#meaa888a9e1" y="199.037352"/>
     <use style="stroke:#000000;" x="237.224275" xlink:href="#meaa888a9e1" y="224.95375"/>
     <use style="stroke:#000000;" x="335.243672" xlink:href="#meaa888a9e1" y="113.504655"/>
     <use style="stroke:#000000;" x="122.449633" xlink:href="#meaa888a9e1" y="147.403798"/>
     <use style="stroke:#000000;" x="168.567662" xlink:href="#meaa888a9e1" y="211.437629"/>
     <use style="stroke:#000000;" x="313.528522" xlink:href="#meaa888a9e1" y="191.918139"/>
     <use style="stroke:#000000;" x="279.064135" xlink:href="#meaa888a9e1" y="114.790933"/>
     <use style="stroke:#000000;" x="140.671821" xlink:href="#meaa888a9e1" y="188.303107"/>
     <use style="stroke:#000000;" x="295.721877" xlink:href="#meaa888a9e1" y="139.030848"/>
     <use style="stroke:#000000;" x="186.389915" xlink:href="#meaa888a9e1" y="126.935915"/>
     <use style="stroke:#000000;" x="254.853372" xlink:href="#meaa888a9e1" y="168.258603"/>
     <use style="stroke:#000000;" x="348.46026" xlink:href="#meaa888a9e1" y="203.721789"/>
     <use style="stroke:#000000;" x="169.516767" xlink:href="#meaa888a9e1" y="223.887697"/>
     <use style="stroke:#000000;" x="299.391379" xlink:href="#meaa888a9e1" y="163.332858"/>
     <use style="stroke:#000000;" x="315.445668" xlink:href="#meaa888a9e1" y="263.540145"/>
     <use style="stroke:#000000;" x="183.371398" xlink:href="#meaa888a9e1" y="111.444814"/>
     <use style="stroke:#000000;" x="156.181644" xlink:href="#meaa888a9e1" y="147.862232"/>
     <use style="stroke:#000000;" x="188.03658" xlink:href="#meaa888a9e1" y="248.046252"/>
     <use style="stroke:#000000;" x="159.703368" xlink:href="#meaa888a9e1" y="168.473857"/>
     <use style="stroke:#000000;" x="290.31144" xlink:href="#meaa888a9e1" y="241.658794"/>
     <use style="stroke:#000000;" x="223.863578" xlink:href="#meaa888a9e1" y="207.882387"/>
     <use style="stroke:#000000;" x="143.886158" xlink:href="#meaa888a9e1" y="158.095475"/>
     <use style="stroke:#000000;" x="306.262927" xlink:href="#meaa888a9e1" y="233.404037"/>
     <use style="stroke:#000000;" x="210.732264" xlink:href="#meaa888a9e1" y="214.960049"/>
     <use style="stroke:#000000;" x="231.32236" xlink:href="#meaa888a9e1" y="275.684559"/>
     <use style="stroke:#000000;" x="333.501685" xlink:href="#meaa888a9e1" y="178.371377"/>
     <use style="stroke:#000000;" x="209.82715" xlink:href="#meaa888a9e1" y="172.025524"/>
     <use style="stroke:#000000;" x="261.827767" xlink:href="#meaa888a9e1" y="210.109242"/>
     <use style="stroke:#000000;" x="152.783567" xlink:href="#meaa888a9e1" y="230.66759"/>
     <use style="stroke:#000000;" x="272.722601" xlink:href="#meaa888a9e1" y="236.836316"/>
     <use style="stroke:#000000;" x="280.167794" xlink:href="#meaa888a9e1" y="212.901368"/>
     <use style="stroke:#000000;" x="158.548562" xlink:href="#meaa888a9e1" y="183.20655"/>
     <use style="stroke:#000000;" x="170.936917" xlink:href="#meaa888a9e1" y="239.473283"/>
     <use style="stroke:#000000;" x="347.965268" xlink:href="#meaa888a9e1" y="224.288962"/>
     <use style="stroke:#000000;" x="334.627825" xlink:href="#meaa888a9e1" y="254.968334"/>
     <use style="stroke:#000000;" x="318.140035" xlink:href="#meaa888a9e1" y="205.51675"/>
     <use style="stroke:#000000;" x="227.36622" xlink:href="#meaa888a9e1" y="190.23097"/>
     <use style="stroke:#000000;" x="253.699991" xlink:href="#meaa888a9e1" y="137.347603"/>
     <use style="stroke:#000000;" x="365.815635" xlink:href="#meaa888a9e1" y="147.104453"/>
     <use style="stroke:#000000;" x="268.730634" xlink:href="#meaa888a9e1" y="144.102538"/>
     <use style="stroke:#000000;" x="274.736794" xlink:href="#meaa888a9e1" y="252.634256"/>
     <use style="stroke:#000000;" x="355.697937" xlink:href="#meaa888a9e1" y="114.036775"/>
     <use style="stroke:#000000;" x="239.514969" xlink:href="#meaa888a9e1" y="115.462358"/>
     <use style="stroke:#000000;" x="186.029834" xlink:href="#meaa888a9e1" y="215.794348"/>
     <use style="stroke:#000000;" x="113.694312" xlink:href="#meaa888a9e1" y="221.432051"/>
     <use style="stroke:#000000;" x="163.885764" xlink:href="#meaa888a9e1" y="107.663524"/>
     <use style="stroke:#000000;" x="326.778231" xlink:href="#meaa888a9e1" y="230.273072"/>
     <use style="stroke:#000000;" x="193.107949" xlink:href="#meaa888a9e1" y="262.782871"/>
     <use style="stroke:#000000;" x="122.957311" xlink:href="#meaa888a9e1" y="119.521992"/>
     <use style="stroke:#000000;" x="237.260831" xlink:href="#meaa888a9e1" y="77.28238"/>
     <use style="stroke:#000000;" x="271.312602" xlink:href="#meaa888a9e1" y="100.581235"/>
     <use style="stroke:#000000;" x="150.963193" xlink:href="#meaa888a9e1" y="126.699609"/>
     <use style="stroke:#000000;" x="176.34483" xlink:href="#meaa888a9e1" y="180.168405"/>
     <use style="stroke:#000000;" x="319.930438" xlink:href="#meaa888a9e1" y="168.311309"/>
     <use style="stroke:#000000;" x="224.217207" xlink:href="#meaa888a9e1" y="164.249672"/>
     <use style="stroke:#000000;" x="164.278041" xlink:href="#meaa888a9e1" y="92.520844"/>
     <use style="stroke:#000000;" x="134.311702" xlink:href="#meaa888a9e1" y="253.49141"/>
     <use style="stroke:#000000;" x="325.984881" xlink:href="#meaa888a9e1" y="137.423916"/>
     <use style="stroke:#000000;" x="194.677975" xlink:href="#meaa888a9e1" y="164.798146"/>
     <use style="stroke:#000000;" x="289.39288" xlink:href="#meaa888a9e1" y="175.543572"/>
     <use style="stroke:#000000;" x="204.253741" xlink:href="#meaa888a9e1" y="239.301307"/>
     <use style="stroke:#000000;" x="334.666508" xlink:href="#meaa888a9e1" y="161.142177"/>
     <use style="stroke:#000000;" x="251.169664" xlink:href="#meaa888a9e1" y="232.592801"/>
     <use style="stroke:#000000;" x="175.99347" xlink:href="#meaa888a9e1" y="153.232116"/>
     <use style="stroke:#000000;" x="240.969276" xlink:href="#meaa888a9e1" y="246.593813"/>
     <use style="stroke:#000000;" x="223.718004" xlink:href="#meaa888a9e1" y="122.418692"/>
     <use style="stroke:#000000;" x="196.654858" xlink:href="#meaa888a9e1" y="138.591691"/>
     <use style="stroke:#000000;" x="232.34199" xlink:href="#meaa888a9e1" y="103.243961"/>
     <use style="stroke:#000000;" x="224.799079" xlink:href="#meaa888a9e1" y="151.309548"/>
     <use style="stroke:#000000;" x="271.791418" xlink:href="#meaa888a9e1" y="174.410303"/>
     <use style="stroke:#000000;" x="104.196924" xlink:href="#meaa888a9e1" y="204.847402"/>
     <use style="stroke:#000000;" x="261.874445" xlink:href="#meaa888a9e1" y="113.926121"/>
     <use style="stroke:#000000;" x="313.514723" xlink:href="#meaa888a9e1" y="155.971033"/>
     <use style="stroke:#000000;" x="257.523995" xlink:href="#meaa888a9e1" y="89.460075"/>
     <use style="stroke:#000000;" x="125.471444" xlink:href="#meaa888a9e1" y="179.183955"/>
     <use style="stroke:#000000;" x="242.077668" xlink:href="#meaa888a9e1" y="180.648233"/>
     <use style="stroke:#000000;" x="255.637678" xlink:href="#meaa888a9e1" y="257.054511"/>
     <use style="stroke:#000000;" x="287.637136" xlink:href="#meaa888a9e1" y="128.285996"/>
     <use style="stroke:#000000;" x="351.687428" xlink:href="#meaa888a9e1" y="157.114189"/>
     <use style="stroke:#000000;" x="308.948763" xlink:href="#meaa888a9e1" y="87.965791"/>
     <use style="stroke:#000000;" x="239.263372" xlink:href="#meaa888a9e1" y="157.7472"/>
     <use style="stroke:#000000;" x="274.147143" xlink:href="#meaa888a9e1" y="85.571595"/>
     <use style="stroke:#000000;" x="288.278277" xlink:href="#meaa888a9e1" y="198.531668"/>
     <use style="stroke:#000000;" x="243.721571" xlink:href="#meaa888a9e1" y="192.076303"/>
     <use style="stroke:#000000;" x="311.107818" xlink:href="#meaa888a9e1" y="142.699239"/>
     <use style="stroke:#000000;" x="305.881745" xlink:href="#meaa888a9e1" y="100.403489"/>
     <use style="stroke:#000000;" x="121.887368" xlink:href="#meaa888a9e1" y="242.182033"/>
     <use style="stroke:#000000;" x="208.374768" xlink:href="#meaa888a9e1" y="89.726155"/>
     <use style="stroke:#000000;" x="361.318585" xlink:href="#meaa888a9e1" y="176.660968"/>
     <use style="stroke:#000000;" x="234.482152" xlink:href="#meaa888a9e1" y="235.682845"/>
     <use style="stroke:#000000;" x="221.138987" xlink:href="#meaa888a9e1" y="240.174629"/>
     <use style="stroke:#000000;" x="319.149072" xlink:href="#meaa888a9e1" y="182.874415"/>
     <use style="stroke:#000000;" x="326.828072" xlink:href="#meaa888a9e1" y="90.470917"/>
     <use style="stroke:#000000;" x="217.842142" xlink:href="#meaa888a9e1" y="98.599761"/>
     <use style="stroke:#000000;" x="132.926672" xlink:href="#meaa888a9e1" y="199.268974"/>
     <use style="stroke:#000000;" x="350.530161" xlink:href="#meaa888a9e1" y="96.617828"/>
     <use style="stroke:#000000;" x="225.116661" xlink:href="#meaa888a9e1" y="218.30579"/>
     <use style="stroke:#000000;" x="149.097763" xlink:href="#meaa888a9e1" y="138.791299"/>
     <use style="stroke:#000000;" x="162.083857" xlink:href="#meaa888a9e1" y="156.47172"/>
     <use style="stroke:#000000;" x="282.547574" xlink:href="#meaa888a9e1" y="138.912025"/>
     <use style="stroke:#000000;" x="362.42527" xlink:href="#meaa888a9e1" y="193.883628"/>
     <use style="stroke:#000000;" x="213.608143" xlink:href="#meaa888a9e1" y="230.30784"/>
     <use style="stroke:#000000;" x="231.446088" xlink:href="#meaa888a9e1" y="200.910431"/>
     <use style="stroke:#000000;" x="123.413684" xlink:href="#meaa888a9e1" y="229.637675"/>
     <use style="stroke:#000000;" x="198.915702" xlink:href="#meaa888a9e1" y="207.425056"/>
     <use style="stroke:#000000;" x="189.757716" xlink:href="#meaa888a9e1" y="235.98666"/>
     <use style="stroke:#000000;" x="271.826956" xlink:href="#meaa888a9e1" y="188.733858"/>
     <use style="stroke:#000000;" x="175.794482" xlink:href="#meaa888a9e1" y="205.048459"/>
    </g>
   </g>
   <g id="patch_2">
    <path clip-path="url(#p2d1a9dda08)" d="M 236.936268 206.426121 
L 240.357242 198.738016 
L 249.064631 197.940168 
L 255.976446 203.573047 
L 251.450908 211.296822 
L 245.906162 212.214844 
z
" style="fill:#ff00ff;opacity:0.8;stroke:#000000;stroke-linejoin:miter;"/>
   </g>
   <g id="patch_3">
    <path clip-path="url(#p2d1a9dda08)" d="M 184.757182 195.084495 
L 180.032174 198.98048 
L 167.45666 199.697058 
L 163.122353 191.520502 
L 168.804477 186.31991 
L 183.810856 187.427334 
z
" style="fill:#00ffff;opacity:0.8;stroke:#000000;stroke-linejoin:miter;"/>
   </g>
   <g id="patch_4">
    <path clip-path="url(#p2d1a9dda08)" d="M 260.20258 218.008413 
L 269.904358 215.688536 
L 278.673397 221.658553 
L 277.420856 228.58276 
L 262.85891 232.014304 
L 256.841108 225.536308 
z
" style="fill:#00ffff;opacity:0.8;stroke:#000000;stroke-linejoin:miter;"/>
   </g>
   <g id="patch_5">
    <path clip-path="url(#p2d1a9dda08)" d="M 280.711637 105.931161 
L 282.852533 101.361235 
L 296.036024 99.258397 
L 303.392977 108.968866 
L 302.440944 110.572907 
L 288.772606 113.355537 
z
" style="fill:#00ffff;opacity:0.8;stroke:#000000;stroke-linejoin:miter;"/>
   </g>
   <g id="patch_6">
    <path clip-path="url(#p2d1a9dda08)" d="M 190.315778 144.51967 
L 184.113085 148.681024 
L 170.474939 145.203172 
L 176.44768 132.585016 
L 187.393988 134.881462 
z
" style="fill:#ff00ff;opacity:0.8;stroke:#000000;stroke-linejoin:miter;"/>
   </g>
   <g id="patch_7">
    <path clip-path="url(#p2d1a9dda08)" d="M 248.252582 130.818034 
L 243.264279 137.060217 
L 233.267246 137.259127 
L 227.560656 129.952984 
L 234.340247 122.543167 
L 242.807804 123.001954 
z
" style="fill:#ff00ff;opacity:0.8;stroke:#000000;stroke-linejoin:miter;"/>
   </g>
   <g id="patch_8">
    <path clip-path="url(#p2d1a9dda08)" d="M 378.056433 154.769436 
L 381.46886 172.292014 
L 375.089042 173.368065 
L 358.477412 168.527622 
L 356.51395 164.874362 
L 363.168902 155.740831 
z
" style="fill:#00ffff;opacity:0.8;stroke:#000000;stroke-linejoin:miter;"/>
   </g>
   <g id="patch_9">
    <path clip-path="url(#p2d1a9dda08)" d="M 245.10566 254.43593 
L 249.56166 265.668944 
L 245.330785 271.289385 
L 229.352688 266.880009 
L 227.919866 258.684321 
L 235.348989 253.366817 
z
" style="fill:#00ffff;opacity:0.8;stroke:#000000;stroke-linejoin:miter;"/>
   </g>
   <g id="patch_10">
    <path clip-path="url(#p2d1a9dda08)" d="M 121.611811 201.07206 
L 115.952597 201.929727 
L 107.029827 195.973996 
L 110.302132 185.101121 
L 114.551347 183.621643 
L 128.62312 188.062436 
L 129.529654 190.795457 
z
" style="fill:#ff00ff;opacity:0.8;stroke:#000000;stroke-linejoin:miter;"/>
   </g>
   <g id="patch_11">
    <path clip-path="url(#p2d1a9dda08)" d="M 263.685234 122.093259 
L 269.973742 120.095615 
L 278.542781 123.317433 
L 278.996326 131.898359 
L 272.484987 136.616949 
L 264.67724 136.238305 
L 259.562932 130.537681 
z
" style="fill:#ff00ff;opacity:0.8;stroke:#000000;stroke-linejoin:miter;"/>
   </g>
   <g id="patch_12">
    <path clip-path="url(#p2d1a9dda08)" d="M 298.338667 171.320429 
L 308.67609 168.188556 
L 316.274123 175.490809 
L 308.622823 184.603211 
L 307.589924 184.887442 
L 297.409737 180.119196 
z
" style="fill:#ff00ff;opacity:0.8;stroke:#000000;stroke-linejoin:miter;"/>
   </g>
   <g id="patch_13">
    <path clip-path="url(#p2d1a9dda08)" d="M 205.962371 261.808509 
L 217.121656 255.292159 
L 227.919866 258.684321 
L 229.352688 266.880009 
L 219.105471 272.809301 
L 205.901956 265.121252 
z
" style="fill:#00ffff;opacity:0.8;stroke:#000000;stroke-linejoin:miter;"/>
   </g>
   <g id="patch_14">
    <path clip-path="url(#p2d1a9dda08)" d="M 159.742867 79.978739 
L 170.540758 73.493403 
L 171.413905 73.023879 
L 172.347188 72.627419 
L 173.33015 72.308463 
L 174.351779 72.070586 
L 175.40063 71.916452 
L 190.998233 70.271954 
L 183.622784 86.958554 
L 175.446201 88.79264 
z
" style="fill:#00ffff;opacity:0.8;stroke:#000000;stroke-linejoin:miter;"/>
   </g>
   <g id="patch_15">
    <path clip-path="url(#p2d1a9dda08)" d="M 325.069811 221.17651 
L 315.610646 228.365847 
L 301.488451 224.186207 
L 300.456245 221.815332 
L 309.560913 211.442069 
L 321.569219 213.875819 
z
" style="fill:#ff00ff;opacity:0.8;stroke:#000000;stroke-linejoin:miter;"/>
   </g>
   <g id="patch_16">
    <path clip-path="url(#p2d1a9dda08)" d="M 250.399552 112.192093 
L 241.813342 107.340915 
L 241.847629 99.502075 
L 249.881628 95.190091 
L 260.384467 97.933699 
L 262.125863 105.413282 
z
" style="fill:#00ffff;opacity:0.8;stroke:#000000;stroke-linejoin:miter;"/>
   </g>
   <g id="patch_17">
    <path clip-path="url(#p2d1a9dda08)" d="M 230.940384 243.58889 
L 235.348989 253.366817 
L 227.919866 258.684321 
L 217.121656 255.292159 
L 216.037803 247.161605 
z
" style="fill:#00ffff;opacity:0.8;stroke:#000000;stroke-linejoin:miter;"/>
   </g>
   <g id="patch_18">
    <path clip-path="url(#p2d1a9dda08)" d="M 99.500492 157.278746 
L 99.778653 156.472215 
L 131.009306 155.270431 
L 135.62099 164.933024 
L 130.350611 171.040354 
L 118.661181 171.897097 
z
" style="fill:#00ffff;opacity:0.8;stroke:#000000;stroke-linejoin:miter;"/>
   </g>
   <g id="patch_19">
    <path clip-path="url(#p2d1a9dda08)" d="M 291.335619 167.98048 
L 280.923705 171.977555 
L 271.87396 166.338016 
L 277.827143 157.64384 
L 290.096119 158.655852 
z
" style="fill:#ff00ff;opacity:0.8;stroke:#000000;stroke-linejoin:miter;"/>
   </g>
   <g id="patch_20">
    <path clip-path="url(#p2d1a9dda08)" d="M 360.382233 235.564137 
L 349.387407 250.592153 
L 330.607496 245.269457 
L 328.588057 240.386004 
L 339.072186 230.787648 
z
" style="fill:#00ffff;opacity:0.8;stroke:#000000;stroke-linejoin:miter;"/>
   </g>
   <g id="patch_21">
    <path clip-path="url(#p2d1a9dda08)" d="M 204.904362 165.174349 
L 199.308696 157.983416 
L 203.464239 151.832749 
L 214.942994 151.91068 
L 219.29958 157.643194 
L 214.107599 164.996009 
z
" style="fill:#00ffff;opacity:0.8;stroke:#000000;stroke-linejoin:miter;"/>
   </g>
   <g id="patch_22">
    <path clip-path="url(#p2d1a9dda08)" d="M 205.252263 193.036954 
L 200.87591 198.984714 
L 197.233018 199.624707 
L 184.757182 195.084495 
L 183.810856 187.427334 
L 186.092452 185.421274 
L 199.72198 184.963122 
z
" style="fill:#ff00ff;opacity:0.8;stroke:#000000;stroke-linejoin:miter;"/>
   </g>
   <g id="patch_23">
    <path clip-path="url(#p2d1a9dda08)" d="M 197.233018 199.624707 
L 190.064741 209.450241 
L 183.514316 208.977783 
L 180.032174 198.98048 
L 184.757182 195.084495 
z
" style="fill:#00ffff;opacity:0.8;stroke:#000000;stroke-linejoin:miter;"/>
   </g>
   <g id="patch_24">
    <path clip-path="url(#p2d1a9dda08)" d="M 147.86247 238.355608 
L 140.157804 245.330801 
L 133.020511 244.687924 
L 127.419788 236.247846 
L 133.791201 228.763994 
L 141.771606 228.487659 
z
" style="fill:#00ffff;opacity:0.8;stroke:#000000;stroke-linejoin:miter;"/>
   </g>
   <g id="patch_25">
    <path clip-path="url(#p2d1a9dda08)" d="M 245.384023 66.020111 
L 265.464556 64.829225 
L 268.746671 77.670626 
L 263.68813 82.168798 
L 248.737686 82.067425 
z
" style="fill:#00ffff;opacity:0.8;stroke:#000000;stroke-linejoin:miter;"/>
   </g>
   <g id="patch_26">
    <path clip-path="url(#p2d1a9dda08)" d="M 307.235358 120.888068 
L 302.440944 110.572907 
L 303.392977 108.968866 
L 312.926272 105.866899 
L 324.223391 110.59019 
L 324.233743 116.088729 
L 313.517697 122.327757 
z
" style="fill:#ff00ff;opacity:0.8;stroke:#000000;stroke-linejoin:miter;"/>
   </g>
   <g id="patch_27">
    <path clip-path="url(#p2d1a9dda08)" d="M 377.890466 211.410333 
L 373.365405 217.816659 
L 373.293426 217.916778 
L 365.729264 228.255674 
L 350.766656 214.041175 
L 361.33144 204.597792 
z
" style="fill:#00ffff;opacity:0.8;stroke:#000000;stroke-linejoin:miter;"/>
   </g>
   <g id="patch_28">
    <path clip-path="url(#p2d1a9dda08)" d="M 168.169916 146.072368 
L 157.866537 140.949286 
L 156.4174 133.319362 
L 161.812076 128.884964 
L 174.662512 130.419524 
L 176.44768 132.585016 
L 170.474939 145.203172 
z
" style="fill:#ff00ff;opacity:0.8;stroke:#000000;stroke-linejoin:miter;"/>
   </g>
   <g id="patch_29">
    <path clip-path="url(#p2d1a9dda08)" d="M 346.601056 213.982783 
L 335.57211 223.569811 
L 325.069811 221.17651 
L 321.569219 213.875819 
L 331.047938 204.497071 
L 335.195169 204.280124 
z
" style="fill:#ff00ff;opacity:0.8;stroke:#000000;stroke-linejoin:miter;"/>
   </g>
   <g id="patch_30">
    <path clip-path="url(#p2d1a9dda08)" d="M 282.852533 101.361235 
L 277.824445 93.63679 
L 285.155836 85.990487 
L 297.584276 88.175787 
L 300.106125 93.134854 
L 296.036024 99.258397 
z
" style="fill:#00ffff;opacity:0.8;stroke:#000000;stroke-linejoin:miter;"/>
   </g>
   <g id="patch_31">
    <path clip-path="url(#p2d1a9dda08)" d="M 312.926272 105.866899 
L 314.703273 95.231394 
L 316.693447 94.185846 
L 328.516589 97.363331 
L 329.865491 106.700851 
L 324.223391 110.59019 
z
" style="fill:#00ffff;opacity:0.8;stroke:#000000;stroke-linejoin:miter;"/>
   </g>
   <g id="patch_32">
    <path clip-path="url(#p2d1a9dda08)" d="M 286.931999 250.789736 
L 303.422269 245.195926 
L 310.902027 254.36612 
L 299.723958 267.596829 
L 285.756885 257.561134 
z
" style="fill:#00ffff;opacity:0.8;stroke:#000000;stroke-linejoin:miter;"/>
   </g>
   <g id="patch_33">
    <path clip-path="url(#p2d1a9dda08)" d="M 91.781458 198.993032 
L 89.133989 191.204689 
L 88.926362 190.433732 
L 88.822922 189.650629 
L 88.824748 188.863558 
L 88.931823 188.080739 
L 89.143027 187.310349 
L 92.311062 178.12459 
L 110.302132 185.101121 
L 107.029827 195.973996 
z
" style="fill:#00ffff;opacity:0.8;stroke:#000000;stroke-linejoin:miter;"/>
   </g>
   <g id="patch_34">
    <path clip-path="url(#p2d1a9dda08)" d="M 183.622784 86.958554 
L 195.065531 93.640067 
L 189.194069 103.675999 
L 175.544754 103.802841 
L 171.809649 100.208784 
L 175.446201 88.79264 
z
" style="fill:#00ffff;opacity:0.8;stroke:#000000;stroke-linejoin:miter;"/>
   </g>
   <g id="patch_35">
    <path clip-path="url(#p2d1a9dda08)" d="M 309.560913 211.442069 
L 300.456245 221.815332 
L 289.48559 217.552605 
L 288.684029 207.183043 
L 295.04493 204.521929 
L 307.392834 207.581601 
z
" style="fill:#00ffff;opacity:0.8;stroke:#000000;stroke-linejoin:miter;"/>
   </g>
   <g id="patch_36">
    <path clip-path="url(#p2d1a9dda08)" d="M 172.244255 113.709177 
L 179.681901 119.780389 
L 174.662512 130.419524 
L 161.812076 128.884964 
L 156.321618 116.850002 
L 156.412805 116.694341 
z
" style="fill:#00ffff;opacity:0.8;stroke:#000000;stroke-linejoin:miter;"/>
   </g>
   <g id="patch_37">
    <path clip-path="url(#p2d1a9dda08)" d="M 199.308696 157.983416 
L 185.531758 158.830675 
L 184.113085 148.681024 
L 190.315778 144.51967 
L 199.542162 145.879078 
L 203.464239 151.832749 
z
" style="fill:#ff00ff;opacity:0.8;stroke:#000000;stroke-linejoin:miter;"/>
   </g>
   <g id="patch_38">
    <path clip-path="url(#p2d1a9dda08)" d="M 179.671263 235.604413 
L 173.428096 231.510591 
L 179.107941 221.427094 
L 190.093916 222.775148 
L 192.261615 229.401522 
z
" style="fill:#ff00ff;opacity:0.8;stroke:#000000;stroke-linejoin:miter;"/>
   </g>
   <g id="patch_39">
    <path clip-path="url(#p2d1a9dda08)" d="M 263.872822 251.536448 
L 250.607553 249.942342 
L 248.538724 240.641116 
L 261.478186 236.098876 
L 269.467098 245.05183 
z
" style="fill:#ff00ff;opacity:0.8;stroke:#000000;stroke-linejoin:miter;"/>
   </g>
   <g id="patch_40">
    <path clip-path="url(#p2d1a9dda08)" d="M 163.251529 217.91978 
L 158.224206 223.071505 
L 147.616088 222.60425 
L 143.325745 215.061873 
L 152.645229 206.790421 
L 158.776355 207.377447 
z
" style="fill:#d32cff;opacity:0.8;stroke:#000000;stroke-linejoin:miter;"/>
   </g>
   <g id="patch_41">
    <path clip-path="url(#p2d1a9dda08)" d="M 277.827143 157.64384 
L 271.87396 166.338016 
L 265.872686 167.244513 
L 256.702444 159.874767 
L 263.89013 151.335326 
L 273.192668 151.687629 
z
" style="fill:#ff00ff;opacity:0.8;stroke:#000000;stroke-linejoin:miter;"/>
   </g>
   <g id="patch_42">
    <path clip-path="url(#p2d1a9dda08)" d="M 121.611811 201.07206 
L 131.789505 206.823495 
L 133.274742 212.669515 
L 124.782209 218.62423 
L 111.055886 212.435853 
L 115.952597 201.929727 
z
" style="fill:#00ffff;opacity:0.8;stroke:#000000;stroke-linejoin:miter;"/>
   </g>
   <g id="patch_43">
    <path clip-path="url(#p2d1a9dda08)" d="M 216.863975 192.2591 
L 222.097893 197.196885 
L 221.72085 200.637485 
L 213.603819 207.429258 
L 209.190536 207.204086 
L 200.87591 198.984714 
L 205.252263 193.036954 
z
" style="fill:#ff00ff;opacity:0.8;stroke:#000000;stroke-linejoin:miter;"/>
   </g>
   <g id="patch_44">
    <path clip-path="url(#p2d1a9dda08)" d="M 158.953195 238.56107 
L 164.83965 248.042128 
L 159.028467 254.315377 
L 146.413658 254.335312 
L 140.157804 245.330801 
L 147.86247 238.355608 
z
" style="fill:#00ffff;opacity:0.8;stroke:#000000;stroke-linejoin:miter;"/>
   </g>
   <g id="patch_45">
    <path clip-path="url(#p2d1a9dda08)" d="M 256.702444 159.874767 
L 250.260605 160.236613 
L 243.404846 150.854623 
L 249.069059 144.490299 
L 258.186665 144.650292 
L 263.89013 151.335326 
z
" style="fill:#ff00ff;opacity:0.8;stroke:#000000;stroke-linejoin:miter;"/>
   </g>
   <g id="patch_46">
    <path clip-path="url(#p2d1a9dda08)" d="M 233.523436 163.401655 
L 246.023469 163.896915 
L 247.282671 173.742999 
L 234.927995 176.070401 
L 228.994077 170.589178 
z
" style="fill:#00ffff;opacity:0.8;stroke:#000000;stroke-linejoin:miter;"/>
   </g>
   <g id="patch_47">
    <path clip-path="url(#p2d1a9dda08)" d="M 345.238613 118.969238 
L 354.550266 123.717846 
L 351.871037 135.570193 
L 337.754751 136.252917 
L 332.648976 130.661037 
L 335.274546 122.132155 
z
" style="fill:#00ffff;opacity:0.8;stroke:#000000;stroke-linejoin:miter;"/>
   </g>
   <g id="patch_48">
    <path clip-path="url(#p2d1a9dda08)" d="M 194.271326 109.113971 
L 206.700946 108.974062 
L 212.346846 119.256385 
L 212.051424 119.872197 
L 197.34741 124.363844 
L 189.99309 118.610138 
z
" style="fill:#ff00ff;opacity:0.8;stroke:#000000;stroke-linejoin:miter;"/>
   </g>
   <g id="patch_49">
    <path clip-path="url(#p2d1a9dda08)" d="M 317.18222 148.820616 
L 320.934347 143.98406 
L 333.678003 143.301577 
L 339.222895 152.283038 
L 324.265239 158.140579 
z
" style="fill:#00ffff;opacity:0.8;stroke:#000000;stroke-linejoin:miter;"/>
   </g>
   <g id="patch_50">
    <path clip-path="url(#p2d1a9dda08)" d="M 383.662449 192.862968 
L 383.62393 201.376097 
L 383.571905 202.13098 
L 383.423162 202.878335 
L 383.179135 203.610962 
L 382.842174 204.321801 
L 382.415527 205.004006 
L 377.890466 211.410333 
L 361.33144 204.597792 
L 361.157585 203.527568 
L 373.495585 192.836174 
z
" style="fill:#00ffff;opacity:0.8;stroke:#000000;stroke-linejoin:miter;"/>
   </g>
   <g id="patch_51">
    <path clip-path="url(#p2d1a9dda08)" d="M 267.024463 194.676693 
L 263.308329 202.429023 
L 255.976446 203.573047 
L 249.064631 197.940168 
L 253.002891 189.166788 
L 262.435372 189.451487 
z
" style="fill:#ff00ff;opacity:0.8;stroke:#000000;stroke-linejoin:miter;"/>
   </g>
   <g id="patch_52">
    <path clip-path="url(#p2d1a9dda08)" d="M 126.529718 104.043124 
L 126.912697 103.686415 
L 151.593709 106.456182 
L 156.412805 116.694341 
L 156.321618 116.850002 
L 137.866097 123.170338 
L 136.328356 122.707431 
z
" style="fill:#00ffff;opacity:0.8;stroke:#000000;stroke-linejoin:miter;"/>
   </g>
   <g id="patch_53">
    <path clip-path="url(#p2d1a9dda08)" d="M 345.742114 107.696376 
L 329.865491 106.700851 
L 328.516589 97.363331 
L 339.79105 91.047093 
L 347.407859 106.313325 
z
" style="fill:#00ffff;opacity:0.8;stroke:#000000;stroke-linejoin:miter;"/>
   </g>
   <g id="patch_54">
    <path clip-path="url(#p2d1a9dda08)" d="M 207.785852 137.077451 
L 196.634612 130.141491 
L 197.34741 124.363844 
L 212.051424 119.872197 
L 218.244727 129.579466 
L 211.123204 136.84763 
z
" style="fill:#ff00ff;opacity:0.8;stroke:#000000;stroke-linejoin:miter;"/>
   </g>
   <g id="patch_55">
    <path clip-path="url(#p2d1a9dda08)" d="M 147.300936 151.066248 
L 132.133166 153.95799 
L 130.519112 141.446563 
L 139.354936 138.665904 
L 148.390859 145.259397 
z
" style="fill:#00ffff;opacity:0.8;stroke:#000000;stroke-linejoin:miter;"/>
   </g>
   <g id="patch_56">
    <path clip-path="url(#p2d1a9dda08)" d="M 290.096119 158.655852 
L 277.827143 157.64384 
L 273.192668 151.687629 
L 278.257874 145.56758 
L 289.044457 144.800781 
L 290.933348 145.827255 
L 293.000596 156.466718 
z
" style="fill:#ff00ff;opacity:0.8;stroke:#000000;stroke-linejoin:miter;"/>
   </g>
   <g id="patch_57">
    <path clip-path="url(#p2d1a9dda08)" d="M 300.838851 273.486987 
L 274.158355 277.338702 
L 270.088589 262.862279 
L 285.756885 257.561134 
L 299.723958 267.596829 
z
" style="fill:#00ffff;opacity:0.8;stroke:#000000;stroke-linejoin:miter;"/>
   </g>
   <g id="patch_58">
    <path clip-path="url(#p2d1a9dda08)" d="M 143.325745 215.061873 
L 133.274742 212.669515 
L 131.789505 206.823495 
L 144.746437 198.246323 
L 152.645229 206.790421 
z
" style="fill:#00ffff;opacity:0.8;stroke:#000000;stroke-linejoin:miter;"/>
   </g>
   <g id="patch_59">
    <path clip-path="url(#p2d1a9dda08)" d="M 329.350865 186.239573 
L 337.076715 186.859823 
L 343.42542 195.249117 
L 335.195169 204.280124 
L 331.047938 204.497071 
L 321.259809 197.645802 
L 323.265667 189.903699 
z
" style="fill:#ff00ff;opacity:0.8;stroke:#000000;stroke-linejoin:miter;"/>
   </g>
   <g id="patch_60">
    <path clip-path="url(#p2d1a9dda08)" d="M 305.056013 136.855824 
L 297.005224 131.324412 
L 297.605998 125.960999 
L 307.235358 120.888068 
L 313.517697 122.327757 
L 317.750927 131.648528 
L 315.422617 134.930591 
z
" style="fill:#ff00ff;opacity:0.8;stroke:#000000;stroke-linejoin:miter;"/>
   </g>
   <g id="patch_61">
    <path clip-path="url(#p2d1a9dda08)" d="M 148.737615 165.998453 
L 152.83794 175.553126 
L 147.225809 180.883511 
L 136.496707 180.418246 
L 130.350611 171.040354 
L 135.62099 164.933024 
z
" style="fill:#ff00ff;opacity:0.8;stroke:#000000;stroke-linejoin:miter;"/>
   </g>
   <g id="patch_62">
    <path clip-path="url(#p2d1a9dda08)" d="M 344.933209 178.657662 
L 350.394366 178.448824 
L 360.026727 185.341358 
L 351.242492 195.330036 
L 343.42542 195.249117 
L 337.076715 186.859823 
z
" style="fill:#ff00ff;opacity:0.8;stroke:#000000;stroke-linejoin:miter;"/>
   </g>
   <g id="patch_63">
    <path clip-path="url(#p2d1a9dda08)" d="M 143.325745 215.061873 
L 147.616088 222.60425 
L 141.771606 228.487659 
L 133.791201 228.763994 
L 124.870006 221.177455 
L 124.782209 218.62423 
L 133.274742 212.669515 
z
" style="fill:#00ffff;opacity:0.8;stroke:#000000;stroke-linejoin:miter;"/>
   </g>
   <g id="patch_64">
    <path clip-path="url(#p2d1a9dda08)" d="M 274.158355 277.338702 
L 248.143808 281.094277 
L 245.330785 271.289385 
L 249.56166 265.668944 
L 267.992279 261.903729 
L 270.088589 262.862279 
z
" style="fill:#00ffff;opacity:0.8;stroke:#000000;stroke-linejoin:miter;"/>
   </g>
   <g id="patch_65">
    <path clip-path="url(#p2d1a9dda08)" d="M 197.833425 216.41701 
L 199.131945 216.391735 
L 209.523159 222.922843 
L 204.114754 231.886802 
L 198.857406 232.927308 
L 192.261615 229.401522 
L 190.093916 222.775148 
z
" style="fill:#ff00ff;opacity:0.8;stroke:#000000;stroke-linejoin:miter;"/>
   </g>
   <g id="patch_66">
    <path clip-path="url(#p2d1a9dda08)" d="M 215.506137 178.666315 
L 220.615747 184.28639 
L 216.863975 192.2591 
L 205.252263 193.036954 
L 199.72198 184.963122 
L 204.162412 178.970605 
z
" style="fill:#ff00ff;opacity:0.8;stroke:#000000;stroke-linejoin:miter;"/>
   </g>
   <g id="patch_67">
    <path clip-path="url(#p2d1a9dda08)" d="M 328.588057 240.386004 
L 330.607496 245.269457 
L 321.797423 255.032045 
L 310.902027 254.36612 
L 303.422269 245.195926 
L 303.809576 243.747017 
L 317.755015 236.549709 
z
" style="fill:#00ffff;opacity:0.8;stroke:#000000;stroke-linejoin:miter;"/>
   </g>
   <g id="patch_68">
    <path clip-path="url(#p2d1a9dda08)" d="M 212.257926 244.675387 
L 216.037803 247.161605 
L 217.121656 255.292159 
L 205.962371 261.808509 
L 196.424235 254.241587 
L 199.022845 246.782058 
z
" style="fill:#fa05ff;opacity:0.8;stroke:#000000;stroke-linejoin:miter;"/>
   </g>
   <g id="patch_69">
    <path clip-path="url(#p2d1a9dda08)" d="M 187.271535 171.18269 
L 183.888265 173.825342 
L 169.72156 172.914219 
L 168.023226 163.296419 
L 171.247822 160.376621 
L 185.071395 159.263844 
z
" style="fill:#ff00ff;opacity:0.8;stroke:#000000;stroke-linejoin:miter;"/>
   </g>
   <g id="patch_70">
    <path clip-path="url(#p2d1a9dda08)" d="M 232.379902 229.801255 
L 225.853472 234.542547 
L 220.88202 233.681529 
L 216.926906 222.946591 
L 229.687967 223.202392 
z
" style="fill:#ff00ff;opacity:0.8;stroke:#000000;stroke-linejoin:miter;"/>
   </g>
   <g id="patch_71">
    <path clip-path="url(#p2d1a9dda08)" d="M 174.246189 275.612918 
L 170.018254 274.624498 
L 159.028467 254.315377 
L 164.83965 248.042128 
L 175.91279 247.911838 
L 183.590355 256.814022 
z
" style="fill:#00ffff;opacity:0.8;stroke:#000000;stroke-linejoin:miter;"/>
   </g>
   <g id="patch_72">
    <path clip-path="url(#p2d1a9dda08)" d="M 268.484161 181.576885 
L 262.435372 189.451487 
L 253.002891 189.166788 
L 249.447972 185.81362 
L 251.603689 176.338203 
L 261.104706 174.890993 
z
" style="fill:#ff00ff;opacity:0.8;stroke:#000000;stroke-linejoin:miter;"/>
   </g>
   <g id="patch_73">
    <path clip-path="url(#p2d1a9dda08)" d="M 300.456245 221.815332 
L 301.488451 224.186207 
L 294.737766 233.536451 
L 283.904412 234.175903 
L 277.420856 228.58276 
L 278.673397 221.658553 
L 289.48559 217.552605 
z
" style="fill:#00ffff;opacity:0.8;stroke:#000000;stroke-linejoin:miter;"/>
   </g>
   <g id="patch_74">
    <path clip-path="url(#p2d1a9dda08)" d="M 279.750889 193.927847 
L 281.530413 204.831334 
L 271.926612 207.951767 
L 263.308329 202.429023 
L 267.024463 194.676693 
z
" style="fill:#ff00ff;opacity:0.8;stroke:#000000;stroke-linejoin:miter;"/>
   </g>
   <g id="patch_75">
    <path clip-path="url(#p2d1a9dda08)" d="M 245.906162 212.214844 
L 251.450908 211.296822 
L 260.20258 218.008413 
L 256.841108 225.536308 
L 246.690703 226.121723 
L 241.02806 218.874297 
z
" style="fill:#ff00ff;opacity:0.8;stroke:#000000;stroke-linejoin:miter;"/>
   </g>
   <g id="patch_76">
    <path clip-path="url(#p2d1a9dda08)" d="M 195.065531 93.640067 
L 197.262964 93.225143 
L 208.217645 97.202227 
L 210.732729 104.554019 
L 206.700946 108.974062 
L 194.271326 109.113971 
L 189.194069 103.675999 
z
" style="fill:#00ffff;opacity:0.8;stroke:#000000;stroke-linejoin:miter;"/>
   </g>
   <g id="patch_77">
    <path clip-path="url(#p2d1a9dda08)" d="M 218.716829 283.112358 
L 206.401688 282.841786 
L 205.501354 282.791174 
L 204.61055 282.679356 
L 203.736404 282.507228 
L 185.427725 278.22697 
L 205.901956 265.121252 
L 219.105471 272.809301 
z
" style="fill:#00ffff;opacity:0.8;stroke:#000000;stroke-linejoin:miter;"/>
   </g>
   <g id="patch_78">
    <path clip-path="url(#p2d1a9dda08)" d="M 139.354936 138.665904 
L 130.519112 141.446563 
L 111.495915 133.344034 
L 136.328356 122.707431 
L 137.866097 123.170338 
L 143.312534 132.141801 
z
" style="fill:#00ffff;opacity:0.8;stroke:#000000;stroke-linejoin:miter;"/>
   </g>
   <g id="patch_79">
    <path clip-path="url(#p2d1a9dda08)" d="M 92.311062 178.12459 
L 99.500492 157.278746 
L 118.661181 171.897097 
L 114.551347 183.621643 
L 110.302132 185.101121 
z
" style="fill:#00ffff;opacity:0.8;stroke:#000000;stroke-linejoin:miter;"/>
   </g>
   <g id="patch_80">
    <path clip-path="url(#p2d1a9dda08)" d="M 304.195365 192.603886 
L 312.943366 199.288454 
L 307.392834 207.581601 
L 295.04493 204.521929 
L 296.361264 194.887823 
z
" style="fill:#00ffff;opacity:0.8;stroke:#000000;stroke-linejoin:miter;"/>
   </g>
   <g id="patch_81">
    <path clip-path="url(#p2d1a9dda08)" d="M 369.596618 119.810198 
L 372.908709 128.76245 
L 373.178776 129.723005 
L 374.793455 138.014269 
L 356.756323 139.707269 
L 351.871037 135.570193 
L 354.550266 123.717846 
z
" style="fill:#00ffff;opacity:0.8;stroke:#000000;stroke-linejoin:miter;"/>
   </g>
   <g id="patch_82">
    <path clip-path="url(#p2d1a9dda08)" d="M 230.736959 95.105419 
L 234.244743 84.937055 
L 247.538275 83.229862 
L 249.881628 95.190091 
L 241.847629 99.502075 
z
" style="fill:#00ffff;opacity:0.8;stroke:#000000;stroke-linejoin:miter;"/>
   </g>
   <g id="patch_83">
    <path clip-path="url(#p2d1a9dda08)" d="M 265.464556 64.829225 
L 276.79057 64.157531 
L 277.791442 64.136197 
L 278.790157 64.190664 
L 279.776884 64.320396 
L 280.741909 64.524115 
L 281.675731 64.799816 
L 292.348134 68.424958 
L 282.048637 79.602672 
L 268.746671 77.670626 
z
" style="fill:#00ffff;opacity:0.8;stroke:#000000;stroke-linejoin:miter;"/>
   </g>
   <g id="patch_84">
    <path clip-path="url(#p2d1a9dda08)" d="M 170.018254 274.624498 
L 149.37733 269.799002 
L 148.49304 269.55738 
L 147.642015 269.254059 
L 146.831628 268.891665 
L 137.820976 264.419776 
L 146.413658 254.335312 
L 159.028467 254.315377 
z
" style="fill:#00ffff;opacity:0.8;stroke:#000000;stroke-linejoin:miter;"/>
   </g>
   <g id="patch_85">
    <path clip-path="url(#p2d1a9dda08)" d="M 243.404846 150.854623 
L 234.657478 151.091487 
L 228.259067 143.836047 
L 233.267246 137.259127 
L 243.264279 137.060217 
L 249.069059 144.490299 
z
" style="fill:#00ffff;opacity:0.8;stroke:#000000;stroke-linejoin:miter;"/>
   </g>
   <g id="patch_86">
    <path clip-path="url(#p2d1a9dda08)" d="M 196.804826 69.659749 
L 212.952579 67.957247 
L 213.551746 67.907938 
L 226.981253 67.111495 
L 225.458617 79.100253 
L 215.7468 83.734453 
L 205.681406 81.263837 
z
" style="fill:#00ffff;opacity:0.8;stroke:#000000;stroke-linejoin:miter;"/>
   </g>
   <g id="patch_87">
    <path clip-path="url(#p2d1a9dda08)" d="M 263.685234 122.093259 
L 259.562932 130.537681 
L 248.252582 130.818034 
L 242.807804 123.001954 
L 250.80191 115.603036 
z
" style="fill:#ff00ff;opacity:0.8;stroke:#000000;stroke-linejoin:miter;"/>
   </g>
   <g id="patch_88">
    <path clip-path="url(#p2d1a9dda08)" d="M 228.926339 111.74744 
L 228.043631 114.214809 
L 212.346846 119.256385 
L 206.700946 108.974062 
L 210.732729 104.554019 
L 222.932264 104.849444 
z
" style="fill:#ff00ff;opacity:0.8;stroke:#000000;stroke-linejoin:miter;"/>
   </g>
   <g id="patch_89">
    <path clip-path="url(#p2d1a9dda08)" d="M 204.162412 178.970605 
L 199.72198 184.963122 
L 186.092452 185.421274 
L 183.888265 173.825342 
L 187.271535 171.18269 
L 199.466708 171.812984 
z
" style="fill:#ff00ff;opacity:0.8;stroke:#000000;stroke-linejoin:miter;"/>
   </g>
   <g id="patch_90">
    <path clip-path="url(#p2d1a9dda08)" d="M 126.912697 103.686415 
L 138.274295 93.104106 
L 139.014925 92.486123 
L 139.8391 91.933168 
L 150.245273 85.683102 
L 157.623523 99.994736 
L 151.593709 106.456182 
z
" style="fill:#00ffff;opacity:0.8;stroke:#000000;stroke-linejoin:miter;"/>
   </g>
   <g id="patch_91">
    <path clip-path="url(#p2d1a9dda08)" d="M 354.331086 148.475283 
L 340.577223 152.72959 
L 339.222895 152.283038 
L 333.678003 143.301577 
L 337.754751 136.252917 
L 351.871037 135.570193 
L 356.756323 139.707269 
z
" style="fill:#ff00ff;opacity:0.8;stroke:#000000;stroke-linejoin:miter;"/>
   </g>
   <g id="patch_92">
    <path clip-path="url(#p2d1a9dda08)" d="M 227.814418 95.971284 
L 216.972346 91.761841 
L 215.7468 83.734453 
L 225.458617 79.100253 
L 234.244743 84.937055 
L 230.736959 95.105419 
z
" style="fill:#ff00ff;opacity:0.8;stroke:#000000;stroke-linejoin:miter;"/>
   </g>
   <g id="patch_93">
    <path clip-path="url(#p2d1a9dda08)" d="M 336.17636 169.839166 
L 344.646651 162.745423 
L 356.51395 164.874362 
L 358.477412 168.527622 
L 350.394366 178.448824 
L 344.933209 178.657662 
z
" style="fill:#00ffff;opacity:0.8;stroke:#000000;stroke-linejoin:miter;"/>
   </g>
   <g id="patch_94">
    <path clip-path="url(#p2d1a9dda08)" d="M 215.506137 178.666315 
L 219.878355 171.216235 
L 228.994077 170.589178 
L 234.927995 176.070401 
L 232.471419 183.427227 
L 220.615747 184.28639 
z
" style="fill:#00ffff;opacity:0.8;stroke:#000000;stroke-linejoin:miter;"/>
   </g>
   <g id="patch_95">
    <path clip-path="url(#p2d1a9dda08)" d="M 381.46886 172.292014 
L 383.591384 183.191029 
L 383.674849 183.768855 
L 383.700968 184.349839 
L 383.662449 192.862968 
L 373.495585 192.836174 
L 362.36772 185.253742 
L 375.089042 173.368065 
z
" style="fill:#00ffff;opacity:0.8;stroke:#000000;stroke-linejoin:miter;"/>
   </g>
   <g id="patch_96">
    <path clip-path="url(#p2d1a9dda08)" d="M 335.274546 122.132155 
L 332.648976 130.661037 
L 317.750927 131.648528 
L 313.517697 122.327757 
L 324.233743 116.088729 
z
" style="fill:#ff00ff;opacity:0.8;stroke:#000000;stroke-linejoin:miter;"/>
   </g>
   <g id="patch_97">
    <path clip-path="url(#p2d1a9dda08)" d="M 203.464239 151.832749 
L 199.542162 145.879078 
L 207.785852 137.077451 
L 211.123204 136.84763 
L 219.640464 144.577946 
L 214.942994 151.91068 
z
" style="fill:#ff00ff;opacity:0.8;stroke:#000000;stroke-linejoin:miter;"/>
   </g>
   <g id="patch_98">
    <path clip-path="url(#p2d1a9dda08)" d="M 286.526387 120.363395 
L 288.772606 113.355537 
L 302.440944 110.572907 
L 307.235358 120.888068 
L 297.605998 125.960999 
z
" style="fill:#00ffff;opacity:0.8;stroke:#000000;stroke-linejoin:miter;"/>
   </g>
   <g id="patch_99">
    <path clip-path="url(#p2d1a9dda08)" d="M 292.348134 68.424958 
L 309.377297 74.209328 
L 297.584276 88.175787 
L 285.155836 85.990487 
L 282.048637 79.602672 
z
" style="fill:#00ffff;opacity:0.8;stroke:#000000;stroke-linejoin:miter;"/>
   </g>
   <g id="patch_100">
    <path clip-path="url(#p2d1a9dda08)" d="M 291.05285 182.51452 
L 297.409737 180.119196 
L 307.589924 184.887442 
L 304.195365 192.603886 
L 296.361264 194.887823 
L 288.398156 191.005676 
z
" style="fill:#ff00ff;opacity:0.8;stroke:#000000;stroke-linejoin:miter;"/>
   </g>
   <g id="patch_101">
    <path clip-path="url(#p2d1a9dda08)" d="M 291.05285 182.51452 
L 288.398156 191.005676 
L 280.746264 192.954388 
L 273.909529 181.569045 
L 280.271379 177.878739 
z
" style="fill:#ff00ff;opacity:0.8;stroke:#000000;stroke-linejoin:miter;"/>
   </g>
   <g id="patch_102">
    <path clip-path="url(#p2d1a9dda08)" d="M 190.998233 70.271954 
L 196.804826 69.659749 
L 205.681406 81.263837 
L 197.262964 93.225143 
L 195.065531 93.640067 
L 183.622784 86.958554 
z
" style="fill:#00ffff;opacity:0.8;stroke:#000000;stroke-linejoin:miter;"/>
   </g>
   <g id="patch_103">
    <path clip-path="url(#p2d1a9dda08)" d="M 293.000596 156.466718 
L 290.933348 145.827255 
L 302.383687 143.384075 
L 309.028425 149.681904 
L 303.707084 156.583585 
z
" style="fill:#ff00ff;opacity:0.8;stroke:#000000;stroke-linejoin:miter;"/>
   </g>
   <g id="patch_104">
    <path clip-path="url(#p2d1a9dda08)" d="M 211.123204 136.84763 
L 218.244727 129.579466 
L 227.560656 129.952984 
L 233.267246 137.259127 
L 228.259067 143.836047 
L 219.640464 144.577946 
z
" style="fill:#ff00ff;opacity:0.8;stroke:#000000;stroke-linejoin:miter;"/>
   </g>
   <g id="patch_105">
    <path clip-path="url(#p2d1a9dda08)" d="M 232.401169 207.40301 
L 236.936268 206.426121 
L 245.906162 212.214844 
L 241.02806 218.874297 
L 233.336343 219.332234 
L 228.238372 212.831632 
z
" style="fill:#ff00ff;opacity:0.8;stroke:#000000;stroke-linejoin:miter;"/>
   </g>
   <g id="patch_106">
    <path clip-path="url(#p2d1a9dda08)" d="M 158.776355 207.377447 
L 152.645229 206.790421 
L 144.746437 198.246323 
L 144.726289 197.047087 
L 152.042881 190.724837 
L 163.122353 191.520502 
L 167.45666 199.697058 
L 165.299658 203.709482 
z
" style="fill:#00ffff;opacity:0.8;stroke:#000000;stroke-linejoin:miter;"/>
   </g>
   <g id="patch_107">
    <path clip-path="url(#p2d1a9dda08)" d="M 233.336343 219.332234 
L 241.02806 218.874297 
L 246.690703 226.121723 
L 241.897673 231.218086 
L 232.379902 229.801255 
L 229.687967 223.202392 
z
" style="fill:#00ffff;opacity:0.8;stroke:#000000;stroke-linejoin:miter;"/>
   </g>
   <g id="patch_108">
    <path clip-path="url(#p2d1a9dda08)" d="M 345.238613 118.969238 
L 335.274546 122.132155 
L 324.233743 116.088729 
L 324.223391 110.59019 
L 329.865491 106.700851 
L 345.742114 107.696376 
z
" style="fill:#00ffff;opacity:0.8;stroke:#000000;stroke-linejoin:miter;"/>
   </g>
   <g id="patch_109">
    <path clip-path="url(#p2d1a9dda08)" d="M 99.778653 156.472215 
L 107.768859 133.304507 
L 111.495915 133.344034 
L 130.519112 141.446563 
L 132.133166 153.95799 
L 131.009306 155.270431 
z
" style="fill:#00ffff;opacity:0.8;stroke:#000000;stroke-linejoin:miter;"/>
   </g>
   <g id="patch_110">
    <path clip-path="url(#p2d1a9dda08)" d="M 177.967353 212.055117 
L 175.691814 217.367408 
L 163.251529 217.91978 
L 158.776355 207.377447 
L 165.299658 203.709482 
z
" style="fill:#ff00ff;opacity:0.8;stroke:#000000;stroke-linejoin:miter;"/>
   </g>
   <g id="patch_111">
    <path clip-path="url(#p2d1a9dda08)" d="M 307.589924 184.887442 
L 308.622823 184.603211 
L 323.265667 189.903699 
L 321.259809 197.645802 
L 312.943366 199.288454 
L 304.195365 192.603886 
z
" style="fill:#ff00ff;opacity:0.8;stroke:#000000;stroke-linejoin:miter;"/>
   </g>
   <g id="patch_112">
    <path clip-path="url(#p2d1a9dda08)" d="M 280.711637 105.931161 
L 288.772606 113.355537 
L 286.526387 120.363395 
L 278.542781 123.317433 
L 269.973742 120.095615 
L 270.928727 109.039511 
z
" style="fill:#00ffff;opacity:0.8;stroke:#000000;stroke-linejoin:miter;"/>
   </g>
   <g id="patch_113">
    <path clip-path="url(#p2d1a9dda08)" d="M 144.726289 197.047087 
L 129.529654 190.795457 
L 128.62312 188.062436 
L 136.496707 180.418246 
L 147.225809 180.883511 
L 152.042881 190.724837 
z
" style="fill:#ff00ff;opacity:0.8;stroke:#000000;stroke-linejoin:miter;"/>
   </g>
   <g id="patch_114">
    <path clip-path="url(#p2d1a9dda08)" d="M 290.933348 145.827255 
L 289.044457 144.800781 
L 289.200172 134.744997 
L 297.005224 131.324412 
L 305.056013 136.855824 
L 302.383687 143.384075 
z
" style="fill:#ff00ff;opacity:0.8;stroke:#000000;stroke-linejoin:miter;"/>
   </g>
   <g id="patch_115">
    <path clip-path="url(#p2d1a9dda08)" d="M 189.99309 118.610138 
L 197.34741 124.363844 
L 196.634612 130.141491 
L 187.393988 134.881462 
L 176.44768 132.585016 
L 174.662512 130.419524 
L 179.681901 119.780389 
z
" style="fill:#ff00ff;opacity:0.8;stroke:#000000;stroke-linejoin:miter;"/>
   </g>
   <g id="patch_116">
    <path clip-path="url(#p2d1a9dda08)" d="M 265.872686 167.244513 
L 261.104706 174.890993 
L 251.603689 176.338203 
L 247.282671 173.742999 
L 246.023469 163.896915 
L 250.260605 160.236613 
L 256.702444 159.874767 
z
" style="fill:#ff00ff;opacity:0.8;stroke:#000000;stroke-linejoin:miter;"/>
   </g>
   <g id="patch_117">
    <path clip-path="url(#p2d1a9dda08)" d="M 346.601056 213.982783 
L 335.195169 204.280124 
L 343.42542 195.249117 
L 351.242492 195.330036 
L 361.157585 203.527568 
L 361.33144 204.597792 
L 350.766656 214.041175 
z
" style="fill:#ff00ff;opacity:0.8;stroke:#000000;stroke-linejoin:miter;"/>
   </g>
   <g id="patch_118">
    <path clip-path="url(#p2d1a9dda08)" d="M 175.691814 217.367408 
L 179.107941 221.427094 
L 173.428096 231.510591 
L 164.427088 231.988298 
L 158.224206 223.071505 
L 163.251529 217.91978 
z
" style="fill:#ff00ff;opacity:0.8;stroke:#000000;stroke-linejoin:miter;"/>
   </g>
   <g id="patch_119">
    <path clip-path="url(#p2d1a9dda08)" d="M 291.335619 167.98048 
L 290.096119 158.655852 
L 293.000596 156.466718 
L 303.707084 156.583585 
L 310.395396 164.057146 
L 308.67609 168.188556 
L 298.338667 171.320429 
z
" style="fill:#ff00ff;opacity:0.8;stroke:#000000;stroke-linejoin:miter;"/>
   </g>
   <g id="patch_120">
    <path clip-path="url(#p2d1a9dda08)" d="M 330.135721 265.900336 
L 320.544642 270.186241 
L 319.51861 270.586552 
L 318.43947 270.894981 
L 317.321292 271.107509 
L 300.838851 273.486987 
L 299.723958 267.596829 
L 310.902027 254.36612 
L 321.797423 255.032045 
z
" style="fill:#00ffff;opacity:0.8;stroke:#000000;stroke-linejoin:miter;"/>
   </g>
   <g id="patch_121">
    <path clip-path="url(#p2d1a9dda08)" d="M 175.544754 103.802841 
L 189.194069 103.675999 
L 194.271326 109.113971 
L 189.99309 118.610138 
L 179.681901 119.780389 
L 172.244255 113.709177 
z
" style="fill:#00ffff;opacity:0.8;stroke:#000000;stroke-linejoin:miter;"/>
   </g>
   <g id="patch_122">
    <path clip-path="url(#p2d1a9dda08)" d="M 166.748979 149.125835 
L 152.600732 154.775194 
L 147.300936 151.066248 
L 148.390859 145.259397 
L 157.866537 140.949286 
L 168.169916 146.072368 
z
" style="fill:#00ffff;opacity:0.8;stroke:#000000;stroke-linejoin:miter;"/>
   </g>
   <g id="patch_123">
    <path clip-path="url(#p2d1a9dda08)" d="M 181.515507 241.402843 
L 195.087173 242.531013 
L 199.022845 246.782058 
L 196.424235 254.241587 
L 183.590355 256.814022 
L 175.91279 247.911838 
z
" style="fill:#00ffff;opacity:0.8;stroke:#000000;stroke-linejoin:miter;"/>
   </g>
   <g id="patch_124">
    <path clip-path="url(#p2d1a9dda08)" d="M 153.651804 161.636197 
L 168.023226 163.296419 
L 169.72156 172.914219 
L 165.82245 176.14593 
L 152.83794 175.553126 
L 148.737615 165.998453 
z
" style="fill:#ff00ff;opacity:0.8;stroke:#000000;stroke-linejoin:miter;"/>
   </g>
   <g id="patch_125">
    <path clip-path="url(#p2d1a9dda08)" d="M 279.122276 244.334829 
L 283.904412 234.175903 
L 294.737766 233.536451 
L 303.809576 243.747017 
L 303.422269 245.195926 
L 286.931999 250.789736 
z
" style="fill:#00ffff;opacity:0.8;stroke:#000000;stroke-linejoin:miter;"/>
   </g>
   <g id="patch_126">
    <path clip-path="url(#p2d1a9dda08)" d="M 232.401169 207.40301 
L 228.238372 212.831632 
L 219.189437 213.465249 
L 213.603819 207.429258 
L 221.72085 200.637485 
z
" style="fill:#ff00ff;opacity:0.8;stroke:#000000;stroke-linejoin:miter;"/>
   </g>
   <g id="patch_127">
    <path clip-path="url(#p2d1a9dda08)" d="M 152.600732 154.775194 
L 153.651804 161.636197 
L 148.737615 165.998453 
L 135.62099 164.933024 
L 131.009306 155.270431 
L 132.133166 153.95799 
L 147.300936 151.066248 
z
" style="fill:#ff00ff;opacity:0.8;stroke:#000000;stroke-linejoin:miter;"/>
   </g>
   <g id="patch_128">
    <path clip-path="url(#p2d1a9dda08)" d="M 301.488451 224.186207 
L 315.610646 228.365847 
L 317.755015 236.549709 
L 303.809576 243.747017 
L 294.737766 233.536451 
z
" style="fill:#00ffff;opacity:0.8;stroke:#000000;stroke-linejoin:miter;"/>
   </g>
   <g id="patch_129">
    <path clip-path="url(#p2d1a9dda08)" d="M 199.131945 216.391735 
L 209.190536 207.204086 
L 213.603819 207.429258 
L 219.189437 213.465249 
L 215.681035 222.250773 
L 209.523159 222.922843 
z
" style="fill:#ff00ff;opacity:0.8;stroke:#000000;stroke-linejoin:miter;"/>
   </g>
   <g id="patch_130">
    <path clip-path="url(#p2d1a9dda08)" d="M 248.143808 281.094277 
L 233.197985 283.251923 
L 232.11961 283.362047 
L 231.031969 283.38293 
L 218.716829 283.112358 
L 219.105471 272.809301 
L 229.352688 266.880009 
L 245.330785 271.289385 
z
" style="fill:#00ffff;opacity:0.8;stroke:#000000;stroke-linejoin:miter;"/>
   </g>
   <g id="patch_131">
    <path clip-path="url(#p2d1a9dda08)" d="M 323.685685 175.722425 
L 331.412012 169.651556 
L 336.17636 169.839166 
L 344.933209 178.657662 
L 337.076715 186.859823 
L 329.350865 186.239573 
z
" style="fill:#ff00ff;opacity:0.8;stroke:#000000;stroke-linejoin:miter;"/>
   </g>
   <g id="patch_132">
    <path clip-path="url(#p2d1a9dda08)" d="M 215.506137 178.666315 
L 204.162412 178.970605 
L 199.466708 171.812984 
L 204.904362 165.174349 
L 214.107599 164.996009 
L 219.878355 171.216235 
z
" style="fill:#ff00ff;opacity:0.8;stroke:#000000;stroke-linejoin:miter;"/>
   </g>
   <g id="patch_133">
    <path clip-path="url(#p2d1a9dda08)" d="M 255.976446 203.573047 
L 263.308329 202.429023 
L 271.926612 207.951767 
L 269.904358 215.688536 
L 260.20258 218.008413 
L 251.450908 211.296822 
z
" style="fill:#ff00ff;opacity:0.8;stroke:#000000;stroke-linejoin:miter;"/>
   </g>
   <g id="patch_134">
    <path clip-path="url(#p2d1a9dda08)" d="M 158.953195 238.56107 
L 147.86247 238.355608 
L 141.771606 228.487659 
L 147.616088 222.60425 
L 158.224206 223.071505 
L 164.427088 231.988298 
z
" style="fill:#00ffff;opacity:0.8;stroke:#000000;stroke-linejoin:miter;"/>
   </g>
   <g id="patch_135">
    <path clip-path="url(#p2d1a9dda08)" d="M 269.467098 245.05183 
L 261.478186 236.098876 
L 262.85891 232.014304 
L 277.420856 228.58276 
L 283.904412 234.175903 
L 279.122276 244.334829 
z
" style="fill:#00ffff;opacity:0.8;stroke:#000000;stroke-linejoin:miter;"/>
   </g>
   <g id="patch_136">
    <path clip-path="url(#p2d1a9dda08)" d="M 271.926612 207.951767 
L 281.530413 204.831334 
L 288.684029 207.183043 
L 289.48559 217.552605 
L 278.673397 221.658553 
L 269.904358 215.688536 
z
" style="fill:#00ffff;opacity:0.8;stroke:#000000;stroke-linejoin:miter;"/>
   </g>
   <g id="patch_137">
    <path clip-path="url(#p2d1a9dda08)" d="M 163.122353 191.520502 
L 152.042881 190.724837 
L 147.225809 180.883511 
L 152.83794 175.553126 
L 165.82245 176.14593 
L 168.804477 186.31991 
z
" style="fill:#00ffff;opacity:0.8;stroke:#000000;stroke-linejoin:miter;"/>
   </g>
   <g id="patch_138">
    <path clip-path="url(#p2d1a9dda08)" d="M 179.671263 235.604413 
L 181.515507 241.402843 
L 175.91279 247.911838 
L 164.83965 248.042128 
L 158.953195 238.56107 
L 164.427088 231.988298 
L 173.428096 231.510591 
z
" style="fill:#00ffff;opacity:0.8;stroke:#000000;stroke-linejoin:miter;"/>
   </g>
   <g id="patch_139">
    <path clip-path="url(#p2d1a9dda08)" d="M 365.729264 228.255674 
L 360.382233 235.564137 
L 339.072186 230.787648 
L 335.57211 223.569811 
L 346.601056 213.982783 
L 350.766656 214.041175 
z
" style="fill:#00ffff;opacity:0.8;stroke:#000000;stroke-linejoin:miter;"/>
   </g>
   <g id="patch_140">
    <path clip-path="url(#p2d1a9dda08)" d="M 349.387407 250.592153 
L 343.438733 258.722957 
L 342.866617 259.415653 
L 342.201372 260.058078 
L 341.450517 260.642969 
L 340.62254 261.163716 
L 339.726799 261.614431 
L 330.135721 265.900336 
L 321.797423 255.032045 
L 330.607496 245.269457 
z
" style="fill:#00ffff;opacity:0.8;stroke:#000000;stroke-linejoin:miter;"/>
   </g>
   <g id="patch_141">
    <path clip-path="url(#p2d1a9dda08)" d="M 321.569219 213.875819 
L 309.560913 211.442069 
L 307.392834 207.581601 
L 312.943366 199.288454 
L 321.259809 197.645802 
L 331.047938 204.497071 
z
" style="fill:#ff00ff;opacity:0.8;stroke:#000000;stroke-linejoin:miter;"/>
   </g>
   <g id="patch_142">
    <path clip-path="url(#p2d1a9dda08)" d="M 220.615747 184.28639 
L 232.471419 183.427227 
L 236.365999 186.909682 
L 234.92619 194.342419 
L 222.097893 197.196885 
L 216.863975 192.2591 
z
" style="fill:#ff00ff;opacity:0.8;stroke:#000000;stroke-linejoin:miter;"/>
   </g>
   <g id="patch_143">
    <path clip-path="url(#p2d1a9dda08)" d="M 259.562932 130.537681 
L 264.67724 136.238305 
L 258.186665 144.650292 
L 249.069059 144.490299 
L 243.264279 137.060217 
L 248.252582 130.818034 
z
" style="fill:#ff00ff;opacity:0.8;stroke:#000000;stroke-linejoin:miter;"/>
   </g>
   <g id="patch_144">
    <path clip-path="url(#p2d1a9dda08)" d="M 374.793455 138.014269 
L 378.056433 154.769436 
L 363.168902 155.740831 
L 354.331086 148.475283 
L 356.756323 139.707269 
z
" style="fill:#00ffff;opacity:0.8;stroke:#000000;stroke-linejoin:miter;"/>
   </g>
   <g id="patch_145">
    <path clip-path="url(#p2d1a9dda08)" d="M 273.192668 151.687629 
L 263.89013 151.335326 
L 258.186665 144.650292 
L 264.67724 136.238305 
L 272.484987 136.616949 
L 278.257874 145.56758 
z
" style="fill:#ff00ff;opacity:0.8;stroke:#000000;stroke-linejoin:miter;"/>
   </g>
   <g id="patch_146">
    <path clip-path="url(#p2d1a9dda08)" d="M 263.872822 251.536448 
L 269.467098 245.05183 
L 279.122276 244.334829 
L 286.931999 250.789736 
L 285.756885 257.561134 
L 270.088589 262.862279 
L 267.992279 261.903729 
z
" style="fill:#00ffff;opacity:0.8;stroke:#000000;stroke-linejoin:miter;"/>
   </g>
   <g id="patch_147">
    <path clip-path="url(#p2d1a9dda08)" d="M 363.569887 103.520545 
L 369.596618 119.810198 
L 354.550266 123.717846 
L 345.238613 118.969238 
L 345.742114 107.696376 
L 347.407859 106.313325 
z
" style="fill:#00ffff;opacity:0.8;stroke:#000000;stroke-linejoin:miter;"/>
   </g>
   <g id="patch_148">
    <path clip-path="url(#p2d1a9dda08)" d="M 250.80191 115.603036 
L 242.807804 123.001954 
L 234.340247 122.543167 
L 228.043631 114.214809 
L 228.926339 111.74744 
L 241.813342 107.340915 
L 250.399552 112.192093 
z
" style="fill:#ff00ff;opacity:0.8;stroke:#000000;stroke-linejoin:miter;"/>
   </g>
   <g id="patch_149">
    <path clip-path="url(#p2d1a9dda08)" d="M 197.833425 216.41701 
L 190.093916 222.775148 
L 179.107941 221.427094 
L 175.691814 217.367408 
L 177.967353 212.055117 
L 183.514316 208.977783 
L 190.064741 209.450241 
z
" style="fill:#ff00ff;opacity:0.8;stroke:#000000;stroke-linejoin:miter;"/>
   </g>
   <g id="patch_150">
    <path clip-path="url(#p2d1a9dda08)" d="M 107.034237 233.482335 
L 98.971563 216.466541 
L 111.055886 212.435853 
L 124.782209 218.62423 
L 124.870006 221.177455 
z
" style="fill:#00ffff;opacity:0.8;stroke:#000000;stroke-linejoin:miter;"/>
   </g>
   <g id="patch_151">
    <path clip-path="url(#p2d1a9dda08)" d="M 175.544754 103.802841 
L 172.244255 113.709177 
L 156.412805 116.694341 
L 151.593709 106.456182 
L 157.623523 99.994736 
L 171.809649 100.208784 
z
" style="fill:#00ffff;opacity:0.8;stroke:#000000;stroke-linejoin:miter;"/>
   </g>
   <g id="patch_152">
    <path clip-path="url(#p2d1a9dda08)" d="M 339.072186 230.787648 
L 328.588057 240.386004 
L 317.755015 236.549709 
L 315.610646 228.365847 
L 325.069811 221.17651 
L 335.57211 223.569811 
z
" style="fill:#00ffff;opacity:0.8;stroke:#000000;stroke-linejoin:miter;"/>
   </g>
   <g id="patch_153">
    <path clip-path="url(#p2d1a9dda08)" d="M 185.427725 278.22697 
L 174.246189 275.612918 
L 183.590355 256.814022 
L 196.424235 254.241587 
L 205.962371 261.808509 
L 205.901956 265.121252 
z
" style="fill:#00ffff;opacity:0.8;stroke:#000000;stroke-linejoin:miter;"/>
   </g>
   <g id="patch_154">
    <path clip-path="url(#p2d1a9dda08)" d="M 107.768859 133.304507 
L 113.198352 117.561625 
L 113.529455 116.775495 
L 113.968938 116.020938 
L 114.511748 115.306628 
L 115.151646 114.640777 
L 126.529718 104.043124 
L 136.328356 122.707431 
L 111.495915 133.344034 
z
" style="fill:#00ffff;opacity:0.8;stroke:#000000;stroke-linejoin:miter;"/>
   </g>
   <g id="patch_155">
    <path clip-path="url(#p2d1a9dda08)" d="M 226.981253 67.111495 
L 245.384023 66.020111 
L 248.737686 82.067425 
L 247.538275 83.229862 
L 234.244743 84.937055 
L 225.458617 79.100253 
z
" style="fill:#00ffff;opacity:0.8;stroke:#000000;stroke-linejoin:miter;"/>
   </g>
   <g id="patch_156">
    <path clip-path="url(#p2d1a9dda08)" d="M 280.711637 105.931161 
L 270.928727 109.039511 
L 262.125863 105.413282 
L 260.384467 97.933699 
L 267.853348 92.540023 
L 277.824445 93.63679 
L 282.852533 101.361235 
z
" style="fill:#00ffff;opacity:0.8;stroke:#000000;stroke-linejoin:miter;"/>
   </g>
   <g id="patch_157">
    <path clip-path="url(#p2d1a9dda08)" d="M 137.866097 123.170338 
L 156.321618 116.850002 
L 161.812076 128.884964 
L 156.4174 133.319362 
L 143.312534 132.141801 
z
" style="fill:#00ffff;opacity:0.8;stroke:#000000;stroke-linejoin:miter;"/>
   </g>
   <g id="patch_158">
    <path clip-path="url(#p2d1a9dda08)" d="M 183.888265 173.825342 
L 186.092452 185.421274 
L 183.810856 187.427334 
L 168.804477 186.31991 
L 165.82245 176.14593 
L 169.72156 172.914219 
z
" style="fill:#ff00ff;opacity:0.8;stroke:#000000;stroke-linejoin:miter;"/>
   </g>
   <g id="patch_159">
    <path clip-path="url(#p2d1a9dda08)" d="M 308.67609 168.188556 
L 310.395396 164.057146 
L 323.439818 160.107082 
L 331.412012 169.651556 
L 323.685685 175.722425 
L 316.274123 175.490809 
z
" style="fill:#ff00ff;opacity:0.8;stroke:#000000;stroke-linejoin:miter;"/>
   </g>
   <g id="patch_160">
    <path clip-path="url(#p2d1a9dda08)" d="M 219.878355 171.216235 
L 214.107599 164.996009 
L 219.29958 157.643194 
L 229.447973 157.908988 
L 233.523436 163.401655 
L 228.994077 170.589178 
z
" style="fill:#00ffff;opacity:0.8;stroke:#000000;stroke-linejoin:miter;"/>
   </g>
   <g id="patch_161">
    <path clip-path="url(#p2d1a9dda08)" d="M 150.245273 85.683102 
L 159.742867 79.978739 
L 175.446201 88.79264 
L 171.809649 100.208784 
L 157.623523 99.994736 
z
" style="fill:#00ffff;opacity:0.8;stroke:#000000;stroke-linejoin:miter;"/>
   </g>
   <g id="patch_162">
    <path clip-path="url(#p2d1a9dda08)" d="M 137.820976 264.419776 
L 128.810325 259.947886 
L 128.002453 259.502122 
L 127.256154 258.997698 
L 126.578709 258.439539 
L 120.366542 252.78485 
L 133.020511 244.687924 
L 140.157804 245.330801 
L 146.413658 254.335312 
z
" style="fill:#00ffff;opacity:0.8;stroke:#000000;stroke-linejoin:miter;"/>
   </g>
   <g id="patch_163">
    <path clip-path="url(#p2d1a9dda08)" d="M 320.934347 143.98406 
L 315.422617 134.930591 
L 317.750927 131.648528 
L 332.648976 130.661037 
L 337.754751 136.252917 
L 333.678003 143.301577 
z
" style="fill:#ff00ff;opacity:0.8;stroke:#000000;stroke-linejoin:miter;"/>
   </g>
   <g id="patch_164">
    <path clip-path="url(#p2d1a9dda08)" d="M 199.466708 171.812984 
L 187.271535 171.18269 
L 185.071395 159.263844 
L 185.531758 158.830675 
L 199.308696 157.983416 
L 204.904362 165.174349 
z
" style="fill:#ff00ff;opacity:0.8;stroke:#000000;stroke-linejoin:miter;"/>
   </g>
   <g id="patch_165">
    <path clip-path="url(#p2d1a9dda08)" d="M 291.335619 167.98048 
L 298.338667 171.320429 
L 297.409737 180.119196 
L 291.05285 182.51452 
L 280.271379 177.878739 
L 280.923705 171.977555 
z
" style="fill:#ff00ff;opacity:0.8;stroke:#000000;stroke-linejoin:miter;"/>
   </g>
   <g id="patch_166">
    <path clip-path="url(#p2d1a9dda08)" d="M 195.087173 242.531013 
L 198.857406 232.927308 
L 204.114754 231.886802 
L 212.919854 237.22116 
L 212.257926 244.675387 
L 199.022845 246.782058 
z
" style="fill:#00ffff;opacity:0.8;stroke:#000000;stroke-linejoin:miter;"/>
   </g>
   <g id="patch_167">
    <path clip-path="url(#p2d1a9dda08)" d="M 323.439818 160.107082 
L 324.265239 158.140579 
L 339.222895 152.283038 
L 340.577223 152.72959 
L 344.646651 162.745423 
L 336.17636 169.839166 
L 331.412012 169.651556 
z
" style="fill:#00ffff;opacity:0.8;stroke:#000000;stroke-linejoin:miter;"/>
   </g>
   <g id="patch_168">
    <path clip-path="url(#p2d1a9dda08)" d="M 261.478186 236.098876 
L 248.538724 240.641116 
L 244.324955 238.853036 
L 241.897673 231.218086 
L 246.690703 226.121723 
L 256.841108 225.536308 
L 262.85891 232.014304 
z
" style="fill:#ff00ff;opacity:0.8;stroke:#000000;stroke-linejoin:miter;"/>
   </g>
   <g id="patch_169">
    <path clip-path="url(#p2d1a9dda08)" d="M 184.113085 148.681024 
L 185.531758 158.830675 
L 185.071395 159.263844 
L 171.247822 160.376621 
L 166.748979 149.125835 
L 168.169916 146.072368 
L 170.474939 145.203172 
z
" style="fill:#ff00ff;opacity:0.8;stroke:#000000;stroke-linejoin:miter;"/>
   </g>
   <g id="patch_170">
    <path clip-path="url(#p2d1a9dda08)" d="M 250.607553 249.942342 
L 245.10566 254.43593 
L 235.348989 253.366817 
L 230.940384 243.58889 
L 231.009774 243.464034 
L 244.324955 238.853036 
L 248.538724 240.641116 
z
" style="fill:#00ffff;opacity:0.8;stroke:#000000;stroke-linejoin:miter;"/>
   </g>
   <g id="patch_171">
    <path clip-path="url(#p2d1a9dda08)" d="M 228.043631 114.214809 
L 234.340247 122.543167 
L 227.560656 129.952984 
L 218.244727 129.579466 
L 212.051424 119.872197 
L 212.346846 119.256385 
z
" style="fill:#ff00ff;opacity:0.8;stroke:#000000;stroke-linejoin:miter;"/>
   </g>
   <g id="patch_172">
    <path clip-path="url(#p2d1a9dda08)" d="M 199.542162 145.879078 
L 190.315778 144.51967 
L 187.393988 134.881462 
L 196.634612 130.141491 
L 207.785852 137.077451 
z
" style="fill:#ff00ff;opacity:0.8;stroke:#000000;stroke-linejoin:miter;"/>
   </g>
   <g id="patch_173">
    <path clip-path="url(#p2d1a9dda08)" d="M 228.926339 111.74744 
L 222.932264 104.849444 
L 227.814418 95.971284 
L 230.736959 95.105419 
L 241.847629 99.502075 
L 241.813342 107.340915 
z
" style="fill:#ff00ff;opacity:0.8;stroke:#000000;stroke-linejoin:miter;"/>
   </g>
   <g id="patch_174">
    <path clip-path="url(#p2d1a9dda08)" d="M 219.29958 157.643194 
L 214.942994 151.91068 
L 219.640464 144.577946 
L 228.259067 143.836047 
L 234.657478 151.091487 
L 229.447973 157.908988 
z
" style="fill:#34cbff;opacity:0.8;stroke:#000000;stroke-linejoin:miter;"/>
   </g>
   <g id="patch_175">
    <path clip-path="url(#p2d1a9dda08)" d="M 280.923705 171.977555 
L 280.271379 177.878739 
L 273.909529 181.569045 
L 268.484161 181.576885 
L 261.104706 174.890993 
L 265.872686 167.244513 
L 271.87396 166.338016 
z
" style="fill:#ff00ff;opacity:0.8;stroke:#000000;stroke-linejoin:miter;"/>
   </g>
   <g id="patch_176">
    <path clip-path="url(#p2d1a9dda08)" d="M 98.971563 216.466541 
L 94.707019 207.466475 
L 94.428927 206.781374 
L 91.781458 198.993032 
L 107.029827 195.973996 
L 115.952597 201.929727 
L 111.055886 212.435853 
z
" style="fill:#00ffff;opacity:0.8;stroke:#000000;stroke-linejoin:miter;"/>
   </g>
   <g id="patch_177">
    <path clip-path="url(#p2d1a9dda08)" d="M 263.685234 122.093259 
L 250.80191 115.603036 
L 250.399552 112.192093 
L 262.125863 105.413282 
L 270.928727 109.039511 
L 269.973742 120.095615 
z
" style="fill:#ff00ff;opacity:0.8;stroke:#000000;stroke-linejoin:miter;"/>
   </g>
   <g id="patch_178">
    <path clip-path="url(#p2d1a9dda08)" d="M 310.395396 164.057146 
L 303.707084 156.583585 
L 309.028425 149.681904 
L 317.18222 148.820616 
L 324.265239 158.140579 
L 323.439818 160.107082 
z
" style="fill:#00ffff;opacity:0.8;stroke:#000000;stroke-linejoin:miter;"/>
   </g>
   <g id="patch_179">
    <path clip-path="url(#p2d1a9dda08)" d="M 260.384467 97.933699 
L 249.881628 95.190091 
L 247.538275 83.229862 
L 248.737686 82.067425 
L 263.68813 82.168798 
L 267.853348 92.540023 
z
" style="fill:#00ffff;opacity:0.8;stroke:#000000;stroke-linejoin:miter;"/>
   </g>
   <g id="patch_180">
    <path clip-path="url(#p2d1a9dda08)" d="M 136.496707 180.418246 
L 128.62312 188.062436 
L 114.551347 183.621643 
L 118.661181 171.897097 
L 130.350611 171.040354 
z
" style="fill:#00ffff;opacity:0.8;stroke:#000000;stroke-linejoin:miter;"/>
   </g>
   <g id="patch_181">
    <path clip-path="url(#p2d1a9dda08)" d="M 236.365999 186.909682 
L 232.471419 183.427227 
L 234.927995 176.070401 
L 247.282671 173.742999 
L 251.603689 176.338203 
L 249.447972 185.81362 
z
" style="fill:#00ffff;opacity:0.8;stroke:#000000;stroke-linejoin:miter;"/>
   </g>
   <g id="patch_182">
    <path clip-path="url(#p2d1a9dda08)" d="M 263.872822 251.536448 
L 267.992279 261.903729 
L 249.56166 265.668944 
L 245.10566 254.43593 
L 250.607553 249.942342 
z
" style="fill:#ff00ff;opacity:0.8;stroke:#000000;stroke-linejoin:miter;"/>
   </g>
   <g id="patch_183">
    <path clip-path="url(#p2d1a9dda08)" d="M 289.200172 134.744997 
L 278.996326 131.898359 
L 278.542781 123.317433 
L 286.526387 120.363395 
L 297.605998 125.960999 
L 297.005224 131.324412 
z
" style="fill:#00ffff;opacity:0.8;stroke:#000000;stroke-linejoin:miter;"/>
   </g>
   <g id="patch_184">
    <path clip-path="url(#p2d1a9dda08)" d="M 354.331086 148.475283 
L 363.168902 155.740831 
L 356.51395 164.874362 
L 344.646651 162.745423 
L 340.577223 152.72959 
z
" style="fill:#00ffff;opacity:0.8;stroke:#000000;stroke-linejoin:miter;"/>
   </g>
   <g id="patch_185">
    <path clip-path="url(#p2d1a9dda08)" d="M 309.377297 74.209328 
L 320.583301 78.015721 
L 316.693447 94.185846 
L 314.703273 95.231394 
L 300.106125 93.134854 
L 297.584276 88.175787 
z
" style="fill:#00ffff;opacity:0.8;stroke:#000000;stroke-linejoin:miter;"/>
   </g>
   <g id="patch_186">
    <path clip-path="url(#p2d1a9dda08)" d="M 250.260605 160.236613 
L 246.023469 163.896915 
L 233.523436 163.401655 
L 229.447973 157.908988 
L 234.657478 151.091487 
L 243.404846 150.854623 
z
" style="fill:#00ffff;opacity:0.8;stroke:#000000;stroke-linejoin:miter;"/>
   </g>
   <g id="patch_187">
    <path clip-path="url(#p2d1a9dda08)" d="M 277.824445 93.63679 
L 267.853348 92.540023 
L 263.68813 82.168798 
L 268.746671 77.670626 
L 282.048637 79.602672 
L 285.155836 85.990487 
z
" style="fill:#00ffff;opacity:0.8;stroke:#000000;stroke-linejoin:miter;"/>
   </g>
   <g id="patch_188">
    <path clip-path="url(#p2d1a9dda08)" d="M 288.398156 191.005676 
L 296.361264 194.887823 
L 295.04493 204.521929 
L 288.684029 207.183043 
L 281.530413 204.831334 
L 279.750889 193.927847 
L 280.746264 192.954388 
z
" style="fill:#00ffff;opacity:0.8;stroke:#000000;stroke-linejoin:miter;"/>
   </g>
   <g id="patch_189">
    <path clip-path="url(#p2d1a9dda08)" d="M 236.365999 186.909682 
L 249.447972 185.81362 
L 253.002891 189.166788 
L 249.064631 197.940168 
L 240.357242 198.738016 
L 234.92619 194.342419 
z
" style="fill:#ff00ff;opacity:0.8;stroke:#000000;stroke-linejoin:miter;"/>
   </g>
   <g id="patch_190">
    <path clip-path="url(#p2d1a9dda08)" d="M 302.383687 143.384075 
L 305.056013 136.855824 
L 315.422617 134.930591 
L 320.934347 143.98406 
L 317.18222 148.820616 
L 309.028425 149.681904 
z
" style="fill:#ff00ff;opacity:0.8;stroke:#000000;stroke-linejoin:miter;"/>
   </g>
   <g id="patch_191">
    <path clip-path="url(#p2d1a9dda08)" d="M 312.926272 105.866899 
L 303.392977 108.968866 
L 296.036024 99.258397 
L 300.106125 93.134854 
L 314.703273 95.231394 
z
" style="fill:#00ffff;opacity:0.8;stroke:#000000;stroke-linejoin:miter;"/>
   </g>
   <g id="patch_192">
    <path clip-path="url(#p2d1a9dda08)" d="M 120.366542 252.78485 
L 114.154375 247.130162 
L 113.616299 246.594319 
L 113.141777 246.024572 
L 112.734455 245.425299 
L 112.397463 244.801106 
L 107.681829 234.84904 
L 127.419788 236.247846 
L 133.020511 244.687924 
z
" style="fill:#00ffff;opacity:0.8;stroke:#000000;stroke-linejoin:miter;"/>
   </g>
   <g id="patch_193">
    <path clip-path="url(#p2d1a9dda08)" d="M 197.262964 93.225143 
L 205.681406 81.263837 
L 215.7468 83.734453 
L 216.972346 91.761841 
L 208.217645 97.202227 
z
" style="fill:#00ffff;opacity:0.8;stroke:#000000;stroke-linejoin:miter;"/>
   </g>
   <g id="patch_194">
    <path clip-path="url(#p2d1a9dda08)" d="M 350.394366 178.448824 
L 358.477412 168.527622 
L 375.089042 173.368065 
L 362.36772 185.253742 
L 360.026727 185.341358 
z
" style="fill:#00ffff;opacity:0.8;stroke:#000000;stroke-linejoin:miter;"/>
   </g>
   <g id="patch_195">
    <path clip-path="url(#p2d1a9dda08)" d="M 244.324955 238.853036 
L 231.009774 243.464034 
L 225.853472 234.542547 
L 232.379902 229.801255 
L 241.897673 231.218086 
z
" style="fill:#00ffff;opacity:0.8;stroke:#000000;stroke-linejoin:miter;"/>
   </g>
   <g id="patch_196">
    <path clip-path="url(#p2d1a9dda08)" d="M 231.009774 243.464034 
L 230.940384 243.58889 
L 216.037803 247.161605 
L 212.257926 244.675387 
L 212.919854 237.22116 
L 220.88202 233.681529 
L 225.853472 234.542547 
z
" style="fill:#00ffff;opacity:0.8;stroke:#000000;stroke-linejoin:miter;"/>
   </g>
   <g id="patch_197">
    <path clip-path="url(#p2d1a9dda08)" d="M 323.685685 175.722425 
L 329.350865 186.239573 
L 323.265667 189.903699 
L 308.622823 184.603211 
L 316.274123 175.490809 
z
" style="fill:#ff00ff;opacity:0.8;stroke:#000000;stroke-linejoin:miter;"/>
   </g>
   <g id="patch_198">
    <path clip-path="url(#p2d1a9dda08)" d="M 320.583301 78.015721 
L 342.307711 85.394946 
L 339.79105 91.047093 
L 328.516589 97.363331 
L 316.693447 94.185846 
z
" style="fill:#00ffff;opacity:0.8;stroke:#000000;stroke-linejoin:miter;"/>
   </g>
   <g id="patch_199">
    <path clip-path="url(#p2d1a9dda08)" d="M 222.932264 104.849444 
L 210.732729 104.554019 
L 208.217645 97.202227 
L 216.972346 91.761841 
L 227.814418 95.971284 
z
" style="fill:#ff00ff;opacity:0.8;stroke:#000000;stroke-linejoin:miter;"/>
   </g>
   <g id="patch_200">
    <path clip-path="url(#p2d1a9dda08)" d="M 144.746437 198.246323 
L 131.789505 206.823495 
L 121.611811 201.07206 
L 129.529654 190.795457 
L 144.726289 197.047087 
z
" style="fill:#00ffff;opacity:0.8;stroke:#000000;stroke-linejoin:miter;"/>
   </g>
   <g id="patch_201">
    <path clip-path="url(#p2d1a9dda08)" d="M 360.2418 94.525059 
L 363.569887 103.520545 
L 347.407859 106.313325 
L 339.79105 91.047093 
L 342.307711 85.394946 
L 354.633501 89.581701 
L 355.510852 89.919692 
L 356.340963 90.321214 
L 357.11596 90.782456 
L 357.828492 91.299046 
L 358.471802 91.866083 
L 359.039788 92.478188 
L 359.527062 93.129557 
L 359.929004 93.814011 
z
" style="fill:#00ffff;opacity:0.8;stroke:#000000;stroke-linejoin:miter;"/>
   </g>
   <g id="patch_202">
    <path clip-path="url(#p2d1a9dda08)" d="M 228.238372 212.831632 
L 233.336343 219.332234 
L 229.687967 223.202392 
L 216.926906 222.946591 
L 215.681035 222.250773 
L 219.189437 213.465249 
z
" style="fill:#ff00ff;opacity:0.8;stroke:#000000;stroke-linejoin:miter;"/>
   </g>
   <g id="patch_203">
    <path clip-path="url(#p2d1a9dda08)" d="M 157.866537 140.949286 
L 148.390859 145.259397 
L 139.354936 138.665904 
L 143.312534 132.141801 
L 156.4174 133.319362 
z
" style="fill:#00ffff;opacity:0.8;stroke:#000000;stroke-linejoin:miter;"/>
   </g>
   <g id="patch_204">
    <path clip-path="url(#p2d1a9dda08)" d="M 166.748979 149.125835 
L 171.247822 160.376621 
L 168.023226 163.296419 
L 153.651804 161.636197 
L 152.600732 154.775194 
z
" style="fill:#00ffff;opacity:0.8;stroke:#000000;stroke-linejoin:miter;"/>
   </g>
   <g id="patch_205">
    <path clip-path="url(#p2d1a9dda08)" d="M 278.257874 145.56758 
L 272.484987 136.616949 
L 278.996326 131.898359 
L 289.200172 134.744997 
L 289.044457 144.800781 
z
" style="fill:#ff00ff;opacity:0.8;stroke:#000000;stroke-linejoin:miter;"/>
   </g>
   <g id="patch_206">
    <path clip-path="url(#p2d1a9dda08)" d="M 360.026727 185.341358 
L 362.36772 185.253742 
L 373.495585 192.836174 
L 361.157585 203.527568 
L 351.242492 195.330036 
z
" style="fill:#00ffff;opacity:0.8;stroke:#000000;stroke-linejoin:miter;"/>
   </g>
   <g id="patch_207">
    <path clip-path="url(#p2d1a9dda08)" d="M 212.919854 237.22116 
L 204.114754 231.886802 
L 209.523159 222.922843 
L 215.681035 222.250773 
L 216.926906 222.946591 
L 220.88202 233.681529 
z
" style="fill:#ff00ff;opacity:0.8;stroke:#000000;stroke-linejoin:miter;"/>
   </g>
   <g id="patch_208">
    <path clip-path="url(#p2d1a9dda08)" d="M 232.401169 207.40301 
L 221.72085 200.637485 
L 222.097893 197.196885 
L 234.92619 194.342419 
L 240.357242 198.738016 
L 236.936268 206.426121 
z
" style="fill:#ff00ff;opacity:0.8;stroke:#000000;stroke-linejoin:miter;"/>
   </g>
   <g id="patch_209">
    <path clip-path="url(#p2d1a9dda08)" d="M 107.681829 234.84904 
L 107.034237 233.482335 
L 124.870006 221.177455 
L 133.791201 228.763994 
L 127.419788 236.247846 
z
" style="fill:#00ffff;opacity:0.8;stroke:#000000;stroke-linejoin:miter;"/>
   </g>
   <g id="patch_210">
    <path clip-path="url(#p2d1a9dda08)" d="M 197.833425 216.41701 
L 190.064741 209.450241 
L 197.233018 199.624707 
L 200.87591 198.984714 
L 209.190536 207.204086 
L 199.131945 216.391735 
z
" style="fill:#00ffff;opacity:0.8;stroke:#000000;stroke-linejoin:miter;"/>
   </g>
   <g id="patch_211">
    <path clip-path="url(#p2d1a9dda08)" d="M 179.671263 235.604413 
L 192.261615 229.401522 
L 198.857406 232.927308 
L 195.087173 242.531013 
L 181.515507 241.402843 
z
" style="fill:#ff00ff;opacity:0.8;stroke:#000000;stroke-linejoin:miter;"/>
   </g>
   <g id="patch_212">
    <path clip-path="url(#p2d1a9dda08)" d="M 273.909529 181.569045 
L 280.746264 192.954388 
L 279.750889 193.927847 
L 267.024463 194.676693 
L 262.435372 189.451487 
L 268.484161 181.576885 
z
" style="fill:#ff00ff;opacity:0.8;stroke:#000000;stroke-linejoin:miter;"/>
   </g>
   <g id="patch_213">
    <path clip-path="url(#p2d1a9dda08)" d="M 177.967353 212.055117 
L 165.299658 203.709482 
L 167.45666 199.697058 
L 180.032174 198.98048 
L 183.514316 208.977783 
z
" style="fill:#ff00ff;opacity:0.8;stroke:#000000;stroke-linejoin:miter;"/>
   </g>
  </g>
 </g>
 <defs>
  <clipPath id="p2d1a9dda08">
   <rect height="265.0032" width="357.12" x="57.6" y="41.2992"/>
  </clipPath>
 </defs>
</svg>
