<?xml version="1.0" encoding="utf-8" standalone="no"?>
<!DOCTYPE svg PUBLIC "-//W3C//DTD SVG 1.1//EN"
  "http://www.w3.org/Graphics/SVG/1.1/DTD/svg11.dtd">
<!-- Created with matplotlib (https://matplotlib.org/) -->
<svg height="344.16pt" version="1.1" viewBox="0 0 460.8 344.16" width="460.8pt" xmlns="http://www.w3.org/2000/svg" xmlns:xlink="http://www.w3.org/1999/xlink">
 <defs>
  <style type="text/css">
*{stroke-linecap:butt;stroke-linejoin:round;}
  </style>
 </defs>
 <g id="figure_1">
  <g id="patch_1">
   <path d="M 0 344.16 
L 460.8 344.16 
L 460.8 0 
L 0 0 
z
" style="fill:#ffffff;"/>
  </g>
  <g id="axes_1">
   <g id="PathCollection_1">
    <defs>
     <path d="M 0 1.159347 
C 0.307462 1.159347 0.602373 1.037191 0.819782 0.819782 
C 1.037191 0.602373 1.159347 0.307462 1.159347 0 
C 1.159347 -0.307462 1.037191 -0.602373 0.819782 -0.819782 
C 0.602373 -1.037191 0.307462 -1.159347 0 -1.159347 
C -0.307462 -1.159347 -0.602373 -1.037191 -0.819782 -0.819782 
C -1.037191 -0.602373 -1.159347 -0.307462 -1.159347 0 
C -1.159347 0.307462 -1.037191 0.602373 -0.819782 0.819782 
C -0.602373 1.037191 -0.307462 1.159347 0 1.159347 
z
" id="m9467a8a4fc" style="stroke:#000000;"/>
    </defs>
    <g clip-path="url(#p935ce598e1)">
     <use style="stroke:#000000;" x="269.506603" xlink:href="#m9467a8a4fc" y="123.721962"/>
     <use style="stroke:#000000;" x="279.902956" xlink:href="#m9467a8a4fc" y="256.56055"/>
     <use style="stroke:#000000;" x="115.641899" xlink:href="#m9467a8a4fc" y="231.974917"/>
     <use style="stroke:#000000;" x="160.054847" xlink:href="#m9467a8a4fc" y="159.279962"/>
     <use style="stroke:#000000;" x="325.755088" xlink:href="#m9467a8a4fc" y="166.263958"/>
     <use style="stroke:#000000;" x="336.844107" xlink:href="#m9467a8a4fc" y="140.099085"/>
     <use style="stroke:#000000;" x="117.56165" xlink:href="#m9467a8a4fc" y="170.99279"/>
     <use style="stroke:#000000;" x="229.495861" xlink:href="#m9467a8a4fc" y="61.97128"/>
     <use style="stroke:#000000;" x="218.560576" xlink:href="#m9467a8a4fc" y="243.27083"/>
     <use style="stroke:#000000;" x="263.440626" xlink:href="#m9467a8a4fc" y="135.130417"/>
     <use style="stroke:#000000;" x="200.254967" xlink:href="#m9467a8a4fc" y="165.249981"/>
     <use style="stroke:#000000;" x="339.222725" xlink:href="#m9467a8a4fc" y="106.995044"/>
     <use style="stroke:#000000;" x="351.808561" xlink:href="#m9467a8a4fc" y="221.510743"/>
     <use style="stroke:#000000;" x="268.519228" xlink:href="#m9467a8a4fc" y="200.350166"/>
     <use style="stroke:#000000;" x="184.494989" xlink:href="#m9467a8a4fc" y="117.586363"/>
     <use style="stroke:#000000;" x="179.014874" xlink:href="#m9467a8a4fc" y="192.954451"/>
     <use style="stroke:#000000;" x="229.649251" xlink:href="#m9467a8a4fc" y="213.35266"/>
     <use style="stroke:#000000;" x="283.129135" xlink:href="#m9467a8a4fc" y="211.840617"/>
     <use style="stroke:#000000;" x="212.371674" xlink:href="#m9467a8a4fc" y="138.601992"/>
     <use style="stroke:#000000;" x="180.432008" xlink:href="#m9467a8a4fc" y="69.859722"/>
     <use style="stroke:#000000;" x="154.83885" xlink:href="#m9467a8a4fc" y="270.302295"/>
     <use style="stroke:#000000;" x="90.187776" xlink:href="#m9467a8a4fc" y="184.843477"/>
     <use style="stroke:#000000;" x="283.542314" xlink:href="#m9467a8a4fc" y="153.382645"/>
     <use style="stroke:#000000;" x="308.195528" xlink:href="#m9467a8a4fc" y="100.739413"/>
     <use style="stroke:#000000;" x="143.3186" xlink:href="#m9467a8a4fc" y="114.305447"/>
     <use style="stroke:#000000;" x="387.022394" xlink:href="#m9467a8a4fc" y="170.411628"/>
     <use style="stroke:#000000;" x="146.266662" xlink:href="#m9467a8a4fc" y="198.455476"/>
     <use style="stroke:#000000;" x="292.859372" xlink:href="#m9467a8a4fc" y="227.923443"/>
     <use style="stroke:#000000;" x="310.812868" xlink:href="#m9467a8a4fc" y="181.851516"/>
     <use style="stroke:#000000;" x="216.608611" xlink:href="#m9467a8a4fc" y="225.853403"/>
     <use style="stroke:#000000;" x="166.787956" xlink:href="#m9467a8a4fc" y="206.161324"/>
     <use style="stroke:#000000;" x="179.615007" xlink:href="#m9467a8a4fc" y="219.842043"/>
     <use style="stroke:#000000;" x="253.552586" xlink:href="#m9467a8a4fc" y="106.482396"/>
     <use style="stroke:#000000;" x="128.672228" xlink:href="#m9467a8a4fc" y="100.838886"/>
     <use style="stroke:#000000;" x="161.545182" xlink:href="#m9467a8a4fc" y="142.623197"/>
     <use style="stroke:#000000;" x="334.294695" xlink:href="#m9467a8a4fc" y="234.143726"/>
     <use style="stroke:#000000;" x="239.023857" xlink:href="#m9467a8a4fc" y="269.228163"/>
     <use style="stroke:#000000;" x="214.047986" xlink:href="#m9467a8a4fc" y="154.936904"/>
     <use style="stroke:#000000;" x="98.167899" xlink:href="#m9467a8a4fc" y="120.899102"/>
     <use style="stroke:#000000;" x="244.301259" xlink:href="#m9467a8a4fc" y="240.240496"/>
     <use style="stroke:#000000;" x="240.252524" xlink:href="#m9467a8a4fc" y="253.168537"/>
     <use style="stroke:#000000;" x="245.658359" xlink:href="#m9467a8a4fc" y="167.601554"/>
     <use style="stroke:#000000;" x="274.149933" xlink:href="#m9467a8a4fc" y="110.72259"/>
     <use style="stroke:#000000;" x="205.872173" xlink:href="#m9467a8a4fc" y="66.792028"/>
     <use style="stroke:#000000;" x="133.160301" xlink:href="#m9467a8a4fc" y="168.094506"/>
     <use style="stroke:#000000;" x="264.470083" xlink:href="#m9467a8a4fc" y="161.052352"/>
     <use style="stroke:#000000;" x="325.695005" xlink:href="#m9467a8a4fc" y="191.525507"/>
     <use style="stroke:#000000;" x="312.187971" xlink:href="#m9467a8a4fc" y="121.307226"/>
     <use style="stroke:#000000;" x="362.974268" xlink:href="#m9467a8a4fc" y="203.907253"/>
     <use style="stroke:#000000;" x="283.360672" xlink:href="#m9467a8a4fc" y="87.670565"/>
     <use style="stroke:#000000;" x="186.029662" xlink:href="#m9467a8a4fc" y="178.45849"/>
     <use style="stroke:#000000;" x="331.381802" xlink:href="#m9467a8a4fc" y="221.718397"/>
     <use style="stroke:#000000;" x="347.421398" xlink:href="#m9467a8a4fc" y="186.493847"/>
     <use style="stroke:#000000;" x="235.253545" xlink:href="#m9467a8a4fc" y="156.542709"/>
     <use style="stroke:#000000;" x="177.113724" xlink:href="#m9467a8a4fc" y="130.960988"/>
     <use style="stroke:#000000;" x="142.62583" xlink:href="#m9467a8a4fc" y="83.996661"/>
     <use style="stroke:#000000;" x="321.928958" xlink:href="#m9467a8a4fc" y="249.807016"/>
     <use style="stroke:#000000;" x="282.897314" xlink:href="#m9467a8a4fc" y="243.586852"/>
     <use style="stroke:#000000;" x="127.789549" xlink:href="#m9467a8a4fc" y="148.22139"/>
     <use style="stroke:#000000;" x="275.057362" xlink:href="#m9467a8a4fc" y="186.274987"/>
     <use style="stroke:#000000;" x="196.611432" xlink:href="#m9467a8a4fc" y="231.397582"/>
     <use style="stroke:#000000;" x="287.421125" xlink:href="#m9467a8a4fc" y="71.633843"/>
     <use style="stroke:#000000;" x="213.579376" xlink:href="#m9467a8a4fc" y="275.726665"/>
     <use style="stroke:#000000;" x="131.463372" xlink:href="#m9467a8a4fc" y="247.842619"/>
     <use style="stroke:#000000;" x="197.265795" xlink:href="#m9467a8a4fc" y="245.516554"/>
     <use style="stroke:#000000;" x="128.608538" xlink:href="#m9467a8a4fc" y="216.148854"/>
     <use style="stroke:#000000;" x="156.707878" xlink:href="#m9467a8a4fc" y="246.676858"/>
     <use style="stroke:#000000;" x="223.53428" xlink:href="#m9467a8a4fc" y="89.451205"/>
     <use style="stroke:#000000;" x="246.352496" xlink:href="#m9467a8a4fc" y="222.395306"/>
     <use style="stroke:#000000;" x="134.573661" xlink:href="#m9467a8a4fc" y="133.142178"/>
     <use style="stroke:#000000;" x="221.179768" xlink:href="#m9467a8a4fc" y="259.810283"/>
     <use style="stroke:#000000;" x="273.885932" xlink:href="#m9467a8a4fc" y="225.343607"/>
     <use style="stroke:#000000;" x="282.264335" xlink:href="#m9467a8a4fc" y="273.416614"/>
     <use style="stroke:#000000;" x="194.255702" xlink:href="#m9467a8a4fc" y="138.829774"/>
     <use style="stroke:#000000;" x="248.698563" xlink:href="#m9467a8a4fc" y="91.556879"/>
     <use style="stroke:#000000;" x="166.811131" xlink:href="#m9467a8a4fc" y="173.744828"/>
     <use style="stroke:#000000;" x="96.375216" xlink:href="#m9467a8a4fc" y="169.182937"/>
     <use style="stroke:#000000;" x="174.218924" xlink:href="#m9467a8a4fc" y="86.379326"/>
     <use style="stroke:#000000;" x="223.221726" xlink:href="#m9467a8a4fc" y="169.368932"/>
     <use style="stroke:#000000;" x="379.205983" xlink:href="#m9467a8a4fc" y="133.880281"/>
     <use style="stroke:#000000;" x="222.149372" xlink:href="#m9467a8a4fc" y="126.701167"/>
     <use style="stroke:#000000;" x="125.855663" xlink:href="#m9467a8a4fc" y="200.719968"/>
     <use style="stroke:#000000;" x="320.454572" xlink:href="#m9467a8a4fc" y="153.18368"/>
     <use style="stroke:#000000;" x="305.739135" xlink:href="#m9467a8a4fc" y="167.198227"/>
     <use style="stroke:#000000;" x="110.650722" xlink:href="#m9467a8a4fc" y="155.947968"/>
     <use style="stroke:#000000;" x="258.426338" xlink:href="#m9467a8a4fc" y="233.12779"/>
     <use style="stroke:#000000;" x="298.558207" xlink:href="#m9467a8a4fc" y="134.44885"/>
     <use style="stroke:#000000;" x="354.925806" xlink:href="#m9467a8a4fc" y="157.421247"/>
     <use style="stroke:#000000;" x="207.002504" xlink:href="#m9467a8a4fc" y="94.773605"/>
     <use style="stroke:#000000;" x="232.278702" xlink:href="#m9467a8a4fc" y="195.787778"/>
     <use style="stroke:#000000;" x="303.498836" xlink:href="#m9467a8a4fc" y="85.958465"/>
     <use style="stroke:#000000;" x="306.649527" xlink:href="#m9467a8a4fc" y="194.454155"/>
     <use style="stroke:#000000;" x="200.29718" xlink:href="#m9467a8a4fc" y="191.285196"/>
     <use style="stroke:#000000;" x="268.238444" xlink:href="#m9467a8a4fc" y="147.441189"/>
     <use style="stroke:#000000;" x="233.39051" xlink:href="#m9467a8a4fc" y="137.446477"/>
     <use style="stroke:#000000;" x="277.084762" xlink:href="#m9467a8a4fc" y="173.07603"/>
     <use style="stroke:#000000;" x="325.912348" xlink:href="#m9467a8a4fc" y="90.894325"/>
     <use style="stroke:#000000;" x="368.148766" xlink:href="#m9467a8a4fc" y="122.16397"/>
     <use style="stroke:#000000;" x="105.802857" xlink:href="#m9467a8a4fc" y="214.766586"/>
     <use style="stroke:#000000;" x="374.999814" xlink:href="#m9467a8a4fc" y="153.286932"/>
     <use style="stroke:#000000;" x="210.744732" xlink:href="#m9467a8a4fc" y="106.827108"/>
     <use style="stroke:#000000;" x="363.033473" xlink:href="#m9467a8a4fc" y="172.031507"/>
     <use style="stroke:#000000;" x="339.875999" xlink:href="#m9467a8a4fc" y="203.656638"/>
     <use style="stroke:#000000;" x="200.821486" xlink:href="#m9467a8a4fc" y="215.965728"/>
     <use style="stroke:#000000;" x="295.33983" xlink:href="#m9467a8a4fc" y="116.482428"/>
     <use style="stroke:#000000;" x="165.982237" xlink:href="#m9467a8a4fc" y="114.622802"/>
     <use style="stroke:#000000;" x="155.636326" xlink:href="#m9467a8a4fc" y="98.692039"/>
     <use style="stroke:#000000;" x="313.075019" xlink:href="#m9467a8a4fc" y="231.882513"/>
     <use style="stroke:#000000;" x="213.179519" xlink:href="#m9467a8a4fc" y="203.478047"/>
     <use style="stroke:#000000;" x="233.592247" xlink:href="#m9467a8a4fc" y="103.136709"/>
     <use style="stroke:#000000;" x="357.556292" xlink:href="#m9467a8a4fc" y="140.10951"/>
     <use style="stroke:#000000;" x="373.369128" xlink:href="#m9467a8a4fc" y="187.964195"/>
     <use style="stroke:#000000;" x="110.754949" xlink:href="#m9467a8a4fc" y="136.864051"/>
     <use style="stroke:#000000;" x="249.893259" xlink:href="#m9467a8a4fc" y="146.600689"/>
     <use style="stroke:#000000;" x="303.656654" xlink:href="#m9467a8a4fc" y="212.578257"/>
     <use style="stroke:#000000;" x="154.702088" xlink:href="#m9467a8a4fc" y="128.643512"/>
     <use style="stroke:#000000;" x="139.538898" xlink:href="#m9467a8a4fc" y="230.853712"/>
     <use style="stroke:#000000;" x="132.80641" xlink:href="#m9467a8a4fc" y="184.611632"/>
     <use style="stroke:#000000;" x="264.66348" xlink:href="#m9467a8a4fc" y="79.564867"/>
     <use style="stroke:#000000;" x="160.43658" xlink:href="#m9467a8a4fc" y="226.716863"/>
     <use style="stroke:#000000;" x="180.908387" xlink:href="#m9467a8a4fc" y="162.930916"/>
     <use style="stroke:#000000;" x="185.958728" xlink:href="#m9467a8a4fc" y="272.626448"/>
     <use style="stroke:#000000;" x="259.173072" xlink:href="#m9467a8a4fc" y="279.475234"/>
     <use style="stroke:#000000;" x="160.951172" xlink:href="#m9467a8a4fc" y="187.856429"/>
     <use style="stroke:#000000;" x="121.621419" xlink:href="#m9467a8a4fc" y="119.265704"/>
     <use style="stroke:#000000;" x="239.337623" xlink:href="#m9467a8a4fc" y="77.422072"/>
     <use style="stroke:#000000;" x="252.779455" xlink:href="#m9467a8a4fc" y="190.196705"/>
     <use style="stroke:#000000;" x="299.741192" xlink:href="#m9467a8a4fc" y="245.445478"/>
     <use style="stroke:#000000;" x="248.147184" xlink:href="#m9467a8a4fc" y="205.610775"/>
     <use style="stroke:#000000;" x="177.029604" xlink:href="#m9467a8a4fc" y="237.229482"/>
     <use style="stroke:#000000;" x="343.005544" xlink:href="#m9467a8a4fc" y="124.302693"/>
     <use style="stroke:#000000;" x="348.879228" xlink:href="#m9467a8a4fc" y="246.458896"/>
     <use style="stroke:#000000;" x="235.393017" xlink:href="#m9467a8a4fc" y="285.633802"/>
     <use style="stroke:#000000;" x="317.396215" xlink:href="#m9467a8a4fc" y="138.658935"/>
     <use style="stroke:#000000;" x="289.29572" xlink:href="#m9467a8a4fc" y="197.14765"/>
     <use style="stroke:#000000;" x="200.318094" xlink:href="#m9467a8a4fc" y="260.065749"/>
     <use style="stroke:#000000;" x="259.681431" xlink:href="#m9467a8a4fc" y="176.550006"/>
     <use style="stroke:#000000;" x="197.441107" xlink:href="#m9467a8a4fc" y="82.066568"/>
     <use style="stroke:#000000;" x="259.581536" xlink:href="#m9467a8a4fc" y="262.592469"/>
     <use style="stroke:#000000;" x="302.387856" xlink:href="#m9467a8a4fc" y="262.358467"/>
     <use style="stroke:#000000;" x="219.646924" xlink:href="#m9467a8a4fc" y="184.438689"/>
     <use style="stroke:#000000;" x="105.932235" xlink:href="#m9467a8a4fc" y="198.007277"/>
     <use style="stroke:#000000;" x="85.300494" xlink:href="#m9467a8a4fc" y="202.387206"/>
     <use style="stroke:#000000;" x="177.840268" xlink:href="#m9467a8a4fc" y="101.865701"/>
     <use style="stroke:#000000;" x="262.822424" xlink:href="#m9467a8a4fc" y="214.62919"/>
     <use style="stroke:#000000;" x="253.858496" xlink:href="#m9467a8a4fc" y="64.722451"/>
     <use style="stroke:#000000;" x="290.456332" xlink:href="#m9467a8a4fc" y="101.034266"/>
     <use style="stroke:#000000;" x="301.415988" xlink:href="#m9467a8a4fc" y="150.771164"/>
     <use style="stroke:#000000;" x="245.45136" xlink:href="#m9467a8a4fc" y="130.684808"/>
     <use style="stroke:#000000;" x="177.590417" xlink:href="#m9467a8a4fc" y="148.205481"/>
     <use style="stroke:#000000;" x="188.425799" xlink:href="#m9467a8a4fc" y="204.862393"/>
     <use style="stroke:#000000;" x="268.089958" xlink:href="#m9467a8a4fc" y="96.248384"/>
     <use style="stroke:#000000;" x="89.342309" xlink:href="#m9467a8a4fc" y="150.465657"/>
     <use style="stroke:#000000;" x="111.723262" xlink:href="#m9467a8a4fc" y="184.151602"/>
     <use style="stroke:#000000;" x="195.167276" xlink:href="#m9467a8a4fc" y="152.207896"/>
     <use style="stroke:#000000;" x="201.909166" xlink:href="#m9467a8a4fc" y="125.389116"/>
     <use style="stroke:#000000;" x="148.370158" xlink:href="#m9467a8a4fc" y="213.963585"/>
     <use style="stroke:#000000;" x="236.304246" xlink:href="#m9467a8a4fc" y="117.726354"/>
     <use style="stroke:#000000;" x="238.101669" xlink:href="#m9467a8a4fc" y="179.869909"/>
     <use style="stroke:#000000;" x="148.323981" xlink:href="#m9467a8a4fc" y="174.848715"/>
     <use style="stroke:#000000;" x="261.350208" xlink:href="#m9467a8a4fc" y="247.593047"/>
     <use style="stroke:#000000;" x="145.453774" xlink:href="#m9467a8a4fc" y="147.379363"/>
     <use style="stroke:#000000;" x="254.733512" xlink:href="#m9467a8a4fc" y="119.466739"/>
     <use style="stroke:#000000;" x="180.914873" xlink:href="#m9467a8a4fc" y="252.358287"/>
     <use style="stroke:#000000;" x="342.887497" xlink:href="#m9467a8a4fc" y="169.539474"/>
     <use style="stroke:#000000;" x="319.121126" xlink:href="#m9467a8a4fc" y="203.872391"/>
     <use style="stroke:#000000;" x="292.836144" xlink:href="#m9467a8a4fc" y="180.810851"/>
     <use style="stroke:#000000;" x="205.842867" xlink:href="#m9467a8a4fc" y="176.446617"/>
     <use style="stroke:#000000;" x="328.287189" xlink:href="#m9467a8a4fc" y="178.89424"/>
     <use style="stroke:#000000;" x="233.008767" xlink:href="#m9467a8a4fc" y="231.734127"/>
     <use style="stroke:#000000;" x="338.753347" xlink:href="#m9467a8a4fc" y="154.646218"/>
     <use style="stroke:#000000;" x="197.905532" xlink:href="#m9467a8a4fc" y="112.679314"/>
     <use style="stroke:#000000;" x="282.570814" xlink:href="#m9467a8a4fc" y="127.89209"/>
     <use style="stroke:#000000;" x="168.968696" xlink:href="#m9467a8a4fc" y="261.97708"/>
     <use style="stroke:#000000;" x="280.834566" xlink:href="#m9467a8a4fc" y="140.156622"/>
     <use style="stroke:#000000;" x="319.029249" xlink:href="#m9467a8a4fc" y="110.044637"/>
     <use style="stroke:#000000;" x="194.692676" xlink:href="#m9467a8a4fc" y="101.14084"/>
     <use style="stroke:#000000;" x="287.465983" xlink:href="#m9467a8a4fc" y="165.543224"/>
     <use style="stroke:#000000;" x="218.627054" xlink:href="#m9467a8a4fc" y="75.653627"/>
     <use style="stroke:#000000;" x="325.139918" xlink:href="#m9467a8a4fc" y="126.480789"/>
     <use style="stroke:#000000;" x="226.194396" xlink:href="#m9467a8a4fc" y="145.37128"/>
     <use style="stroke:#000000;" x="141.744273" xlink:href="#m9467a8a4fc" y="159.7253"/>
     <use style="stroke:#000000;" x="273.283555" xlink:href="#m9467a8a4fc" y="237.54393"/>
     <use style="stroke:#000000;" x="357.935017" xlink:href="#m9467a8a4fc" y="114.058109"/>
     <use style="stroke:#000000;" x="220.021178" xlink:href="#m9467a8a4fc" y="114.265473"/>
     <use style="stroke:#000000;" x="321.002168" xlink:href="#m9467a8a4fc" y="214.455007"/>
    </g>
   </g>
   <g id="patch_2">
    <path clip-path="url(#p935ce598e1)" d="M 272.903917 131.359143 
L 259.23798 127.251152 
L 265.045442 115.852549 
L 279.95874 118.864148 
z
" style="fill:#00ffff;opacity:0.8;stroke:#000000;stroke-linejoin:miter;"/>
   </g>
   <g id="patch_3">
    <path clip-path="url(#p935ce598e1)" d="M 273.248536 249.01005 
L 290.015133 251.197818 
L 293.36973 254.582729 
L 288.906144 264.369039 
L 272.923091 265.634899 
L 267.639206 255.570959 
z
" style="fill:#00ffff;opacity:0.8;stroke:#000000;stroke-linejoin:miter;"/>
   </g>
   <g id="patch_4">
    <path clip-path="url(#p935ce598e1)" d="M 114.275033 245.138565 
L 96.753919 227.88597 
L 116.559635 221.483894 
L 127.174313 226.400638 
L 128.083397 237.354772 
z
" style="fill:#00ffff;opacity:0.8;stroke:#000000;stroke-linejoin:miter;"/>
   </g>
   <g id="patch_5">
    <path clip-path="url(#p935ce598e1)" d="M 150.695436 154.757774 
L 156.496567 150.733896 
L 165.998424 151.214533 
L 171.906721 156.503551 
L 169.285816 164.966873 
L 156.926841 168.230436 
L 151.169524 165.777916 
z
" style="fill:#00ffff;opacity:0.8;stroke:#000000;stroke-linejoin:miter;"/>
   </g>
   <g id="patch_6">
    <path clip-path="url(#p935ce598e1)" d="M 328.97279 158.379493 
L 336.031574 162.844372 
L 332.967422 171.905146 
L 317.538703 173.653841 
L 316.261521 172.961681 
L 315.315902 161.508231 
z
" style="fill:#00ffff;opacity:0.8;stroke:#000000;stroke-linejoin:miter;"/>
   </g>
   <g id="patch_7">
    <path clip-path="url(#p935ce598e1)" d="M 326.37945 145.033971 
L 327.708777 134.885216 
L 335.32223 131.185943 
L 347.205806 133.806463 
L 347.194349 146.675504 
L 330.451801 147.917788 
z
" style="fill:#00ffff;opacity:0.8;stroke:#000000;stroke-linejoin:miter;"/>
   </g>
   <g id="patch_8">
    <path clip-path="url(#p935ce598e1)" d="M 106.159075 175.444246 
L 107.717656 165.129456 
L 122.636883 161.25499 
L 127.577391 176.287587 
L 122.452042 179.531132 
z
" style="fill:#00ffff;opacity:0.8;stroke:#000000;stroke-linejoin:miter;"/>
   </g>
   <g id="patch_9">
    <path clip-path="url(#p935ce598e1)" d="M 214.498674 55.556837 
L 227.095678 53.531502 
L 228.113486 53.403526 
L 229.142468 53.3448 
L 230.174306 53.355797 
L 231.20066 53.43643 
L 243.381978 54.812016 
L 240.873255 67.371604 
L 229.762461 71.372741 
L 218.358938 66.251485 
z
" style="fill:#ff00ff;opacity:0.8;stroke:#000000;stroke-linejoin:miter;"/>
   </g>
   <g id="patch_10">
    <path clip-path="url(#p935ce598e1)" d="M 232.085708 244.900139 
L 227.260312 250.878927 
L 210.585044 252.371842 
L 209.248289 251.550973 
L 206.757788 238.199787 
L 209.764338 235.057595 
L 221.29934 234.326756 
L 231.368511 241.455971 
z
" style="fill:#fe01ff;opacity:0.8;stroke:#000000;stroke-linejoin:miter;"/>
   </g>
   <g id="patch_11">
    <path clip-path="url(#p935ce598e1)" d="M 272.903917 131.359143 
L 274.290645 133.431137 
L 270.838954 140.184278 
L 259.41593 142.701119 
L 252.255118 137.919669 
L 256.549185 128.096147 
L 259.23798 127.251152 
z
" style="fill:#ff00ff;opacity:0.8;stroke:#000000;stroke-linejoin:miter;"/>
   </g>
   <g id="patch_12">
    <path clip-path="url(#p935ce598e1)" d="M 195.150349 173.076865 
L 189.416528 169.585719 
L 191.424497 160.115399 
L 203.622604 157.425212 
L 212.697254 164.286682 
L 211.359575 168.503462 
z
" style="fill:#00ffff;opacity:0.8;stroke:#000000;stroke-linejoin:miter;"/>
   </g>
   <g id="patch_13">
    <path clip-path="url(#p935ce598e1)" d="M 345.343227 92.973703 
L 355.427757 100.268406 
L 345.522658 115.104132 
L 332.209002 116.749226 
L 331.215867 116.34344 
L 327.234085 101.437382 
z
" style="fill:#fe01ff;opacity:0.8;stroke:#000000;stroke-linejoin:miter;"/>
   </g>
   <g id="patch_14">
    <path clip-path="url(#p935ce598e1)" d="M 374.921749 218.99528 
L 366.853723 235.080765 
L 350.96012 234.025725 
L 341.687671 226.758197 
L 341.462549 214.238543 
L 351.295759 210.523129 
z
" style="fill:#fe01ff;opacity:0.8;stroke:#000000;stroke-linejoin:miter;"/>
   </g>
   <g id="patch_15">
    <path clip-path="url(#p935ce598e1)" d="M 277.860008 194.907087 
L 280.076983 203.038348 
L 271.922793 208.899829 
L 259.786609 206.162475 
L 256.481394 198.92621 
L 264.939115 191.513894 
z
" style="fill:#00ffff;opacity:0.8;stroke:#000000;stroke-linejoin:miter;"/>
   </g>
   <g id="patch_16">
    <path clip-path="url(#p935ce598e1)" d="M 194.364257 120.021367 
L 188.973888 126.822633 
L 173.565052 122.014956 
L 176.745048 110.784435 
L 186.789704 108.380569 
L 186.841822 108.39884 
z
" style="fill:#fe01ff;opacity:0.8;stroke:#000000;stroke-linejoin:miter;"/>
   </g>
   <g id="patch_17">
    <path clip-path="url(#p935ce598e1)" d="M 173.553638 183.252836 
L 189.012609 187.482096 
L 190.196415 196.014919 
L 177.214363 201.815282 
L 166.96513 196.45084 
z
" style="fill:#00ffff;opacity:0.8;stroke:#000000;stroke-linejoin:miter;"/>
   </g>
   <g id="patch_18">
    <path clip-path="url(#p935ce598e1)" d="M 228.593789 222.826015 
L 215.286454 214.97781 
L 215.177232 214.296595 
L 225.942877 204.145272 
L 235.549539 204.958306 
L 242.010902 213.686347 
L 233.771139 222.291056 
z
" style="fill:#00ffff;opacity:0.8;stroke:#000000;stroke-linejoin:miter;"/>
   </g>
   <g id="patch_19">
    <path clip-path="url(#p935ce598e1)" d="M 293.769319 206.287193 
L 293.014355 218.164953 
L 284.727725 220.999314 
L 273.838109 216.785054 
L 271.922793 208.899829 
L 280.076983 203.038348 
z
" style="fill:#ff00ff;opacity:0.8;stroke:#000000;stroke-linejoin:miter;"/>
   </g>
   <g id="patch_20">
    <path clip-path="url(#p935ce598e1)" d="M 206.243574 147.173609 
L 203.457494 145.181918 
L 203.203423 133.758016 
L 211.57459 130.010525 
L 222.59981 135.131622 
L 222.864368 137.852246 
L 215.242157 146.651539 
z
" style="fill:#00ffff;opacity:0.8;stroke:#000000;stroke-linejoin:miter;"/>
   </g>
   <g id="patch_21">
    <path clip-path="url(#p935ce598e1)" d="M 156.417682 69.200503 
L 175.320771 62.132033 
L 176.196974 61.838068 
L 177.102768 61.60015 
L 178.031824 61.419944 
L 191.226617 59.298497 
L 193.940316 72.021384 
L 184.313119 79.605306 
L 159.860692 74.405996 
z
" style="fill:#00ffff;opacity:0.8;stroke:#000000;stroke-linejoin:miter;"/>
   </g>
   <g id="patch_22">
    <path clip-path="url(#p935ce598e1)" d="M 145.799318 275.621163 
L 134.111579 264.391325 
L 144.96341 258.006099 
L 153.840922 258.403148 
L 170.067403 273.972927 
L 169.019684 281.904042 
L 152.022191 278.668986 
L 150.988851 278.432909 
L 149.989594 278.124854 
L 149.033266 277.747548 
L 148.128333 277.304332 
L 147.282806 276.79913 
L 146.50417 276.236413 
z
" style="fill:#ff00ff;opacity:0.8;stroke:#000000;stroke-linejoin:miter;"/>
   </g>
   <g id="patch_23">
    <path clip-path="url(#p935ce598e1)" d="M 74.645874 191.552455 
L 76.076831 173.17024 
L 100.623399 178.653151 
L 101.227497 189.283581 
L 93.484302 194.519378 
z
" style="fill:#00ffff;opacity:0.8;stroke:#000000;stroke-linejoin:miter;"/>
   </g>
   <g id="patch_24">
    <path clip-path="url(#p935ce598e1)" d="M 293.988034 157.915369 
L 276.74051 161.06153 
L 272.587007 155.222328 
L 278.063743 147.247039 
L 290.848505 145.767291 
z
" style="fill:#fe01ff;opacity:0.8;stroke:#000000;stroke-linejoin:miter;"/>
   </g>
   <g id="patch_25">
    <path clip-path="url(#p935ce598e1)" d="M 305.855147 110.497949 
L 299.522549 107.57443 
L 299.139737 94.553872 
L 313.310368 92.008243 
L 321.416504 100.255248 
z
" style="fill:#00ffff;opacity:0.8;stroke:#000000;stroke-linejoin:miter;"/>
   </g>
   <g id="patch_26">
    <path clip-path="url(#p935ce598e1)" d="M 154.538238 118.993285 
L 142.134584 124.560663 
L 134.839847 122.646067 
L 130.188241 111.142875 
L 142.675268 103.464866 
L 154.789031 108.86778 
z
" style="fill:#00ffff;opacity:0.8;stroke:#000000;stroke-linejoin:miter;"/>
   </g>
   <g id="patch_27">
    <path clip-path="url(#p935ce598e1)" d="M 395.579167 156.067084 
L 398.355076 169.040776 
L 398.483134 169.933028 
L 398.487273 170.830455 
L 398.367448 171.723353 
L 398.124956 172.602068 
L 397.762417 173.457099 
L 392.232965 184.481348 
L 375.745707 177.230972 
L 374.229969 164.540774 
z
" style="fill:#00ffff;opacity:0.8;stroke:#000000;stroke-linejoin:miter;"/>
   </g>
   <g id="patch_28">
    <path clip-path="url(#p935ce598e1)" d="M 159.52734 197.791647 
L 154.291325 205.674827 
L 137.508261 206.961802 
L 134.972886 194.042117 
L 146.588576 187.657164 
z
" style="fill:#ff00ff;opacity:0.8;stroke:#000000;stroke-linejoin:miter;"/>
   </g>
   <g id="patch_29">
    <path clip-path="url(#p935ce598e1)" d="M 284.706589 234.614692 
L 282.158192 231.683083 
L 284.727725 220.999314 
L 293.014355 218.164953 
L 305.335505 223.066236 
L 300.977811 235.645853 
L 292.69144 237.485775 
z
" style="fill:#00ffff;opacity:0.8;stroke:#000000;stroke-linejoin:miter;"/>
   </g>
   <g id="patch_30">
    <path clip-path="url(#p935ce598e1)" d="M 301.268708 186.7591 
L 302.403741 175.674385 
L 316.261521 172.961681 
L 317.538703 173.653841 
L 320.782337 184.489529 
L 315.184452 189.358081 
z
" style="fill:#00ffff;opacity:0.8;stroke:#000000;stroke-linejoin:miter;"/>
   </g>
   <g id="patch_31">
    <path clip-path="url(#p935ce598e1)" d="M 209.764338 235.057595 
L 204.633072 224.59421 
L 215.286454 214.97781 
L 228.593789 222.826015 
L 221.29934 234.326756 
z
" style="fill:#00ffff;opacity:0.8;stroke:#000000;stroke-linejoin:miter;"/>
   </g>
   <g id="patch_32">
    <path clip-path="url(#p935ce598e1)" d="M 166.96513 196.45084 
L 177.214363 201.815282 
L 178.12505 210.391842 
L 165.947197 216.84697 
L 162.168167 216.186831 
L 154.291325 205.674827 
L 159.52734 197.791647 
z
" style="fill:#00ffff;opacity:0.8;stroke:#000000;stroke-linejoin:miter;"/>
   </g>
   <g id="patch_33">
    <path clip-path="url(#p935ce598e1)" d="M 165.947197 216.84697 
L 178.12505 210.391842 
L 188.953668 213.992671 
L 191.738339 222.605377 
L 184.029567 229.015537 
L 173.079154 228.095004 
z
" style="fill:#00ffff;opacity:0.8;stroke:#000000;stroke-linejoin:miter;"/>
   </g>
   <g id="patch_34">
    <path clip-path="url(#p935ce598e1)" d="M 246.391397 113.373145 
L 242.129334 109.676871 
L 244.95253 100.154617 
L 256.638214 98.00608 
L 265.204695 104.885608 
L 262.414109 112.549283 
z
" style="fill:#ff00ff;opacity:0.8;stroke:#000000;stroke-linejoin:miter;"/>
   </g>
   <g id="patch_35">
    <path clip-path="url(#p935ce598e1)" d="M 104.255665 102.990449 
L 123.722792 86.831701 
L 141.505826 95.16101 
L 142.675268 103.464866 
L 130.188241 111.142875 
L 108.207668 106.387948 
z
" style="fill:#ff00ff;opacity:0.8;stroke:#000000;stroke-linejoin:miter;"/>
   </g>
   <g id="patch_36">
    <path clip-path="url(#p935ce598e1)" d="M 156.496567 150.733896 
L 149.805321 137.935361 
L 165.199529 133.675174 
L 173.115452 139.649444 
L 165.998424 151.214533 
z
" style="fill:#ff00ff;opacity:0.8;stroke:#000000;stroke-linejoin:miter;"/>
   </g>
   <g id="patch_37">
    <path clip-path="url(#p935ce598e1)" d="M 341.687671 226.758197 
L 350.96012 234.025725 
L 334.696836 244.914439 
L 322.470187 239.457355 
L 324.432789 229.045085 
z
" style="fill:#fe01ff;opacity:0.8;stroke:#000000;stroke-linejoin:miter;"/>
   </g>
   <g id="patch_38">
    <path clip-path="url(#p935ce598e1)" d="M 233.451849 260.930773 
L 246.789002 261.507643 
L 252.171693 270.935293 
L 245.405853 278.456651 
L 228.020053 276.281323 
L 225.118105 269.857609 
z
" style="fill:#00ffff;opacity:0.8;stroke:#000000;stroke-linejoin:miter;"/>
   </g>
   <g id="patch_39">
    <path clip-path="url(#p935ce598e1)" d="M 212.697254 164.286682 
L 203.622604 157.425212 
L 206.243574 147.173609 
L 215.242157 146.651539 
L 224.935973 153.61052 
L 224.052542 160.205994 
z
" style="fill:#fe01ff;opacity:0.8;stroke:#000000;stroke-linejoin:miter;"/>
   </g>
   <g id="patch_40">
    <path clip-path="url(#p935ce598e1)" d="M 82.555322 133.792349 
L 86.968117 119.009072 
L 87.28611 118.152839 
L 87.719557 117.325744 
L 88.263861 116.536563 
L 88.913247 115.793667 
L 89.660824 115.10494 
L 104.255665 102.990449 
L 108.207668 106.387948 
L 110.639387 126.127868 
L 90.453704 135.125248 
z
" style="fill:#ff00ff;opacity:0.8;stroke:#000000;stroke-linejoin:miter;"/>
   </g>
   <g id="patch_41">
    <path clip-path="url(#p935ce598e1)" d="M 232.085708 244.900139 
L 231.368511 241.455971 
L 244.912469 231.290971 
L 246.661369 231.404623 
L 255.123231 240.90494 
L 249.697013 248.01827 
z
" style="fill:#00ffff;opacity:0.8;stroke:#000000;stroke-linejoin:miter;"/>
   </g>
   <g id="patch_42">
    <path clip-path="url(#p935ce598e1)" d="M 232.085708 244.900139 
L 249.697013 248.01827 
L 252.763954 254.579321 
L 246.789002 261.507643 
L 233.451849 260.930773 
L 227.260312 250.878927 
z
" style="fill:#fe01ff;opacity:0.8;stroke:#000000;stroke-linejoin:miter;"/>
   </g>
   <g id="patch_43">
    <path clip-path="url(#p935ce598e1)" d="M 249.44395 157.291297 
L 250.828852 157.449182 
L 257.306417 167.968032 
L 248.280529 175.964558 
L 234.829525 171.280566 
L 234.023231 165.49378 
z
" style="fill:#00ffff;opacity:0.8;stroke:#000000;stroke-linejoin:miter;"/>
   </g>
   <g id="patch_44">
    <path clip-path="url(#p935ce598e1)" d="M 279.95874 118.864148 
L 265.045442 115.852549 
L 262.414109 112.549283 
L 265.204695 104.885608 
L 278.061572 101.842427 
L 286.526457 109.897076 
L 282.562158 118.142276 
z
" style="fill:#00ffff;opacity:0.8;stroke:#000000;stroke-linejoin:miter;"/>
   </g>
   <g id="patch_45">
    <path clip-path="url(#p935ce598e1)" d="M 191.226617 59.298497 
L 214.498674 55.556837 
L 218.358938 66.251485 
L 206.465155 75.929817 
L 193.940316 72.021384 
z
" style="fill:#ff00ff;opacity:0.8;stroke:#000000;stroke-linejoin:miter;"/>
   </g>
   <g id="patch_46">
    <path clip-path="url(#p935ce598e1)" d="M 143.799874 167.59059 
L 136.859205 176.400017 
L 127.577391 176.287587 
L 122.636883 161.25499 
L 124.759462 159.031194 
L 128.146246 158.513739 
z
" style="fill:#fe01ff;opacity:0.8;stroke:#000000;stroke-linejoin:miter;"/>
   </g>
   <g id="patch_47">
    <path clip-path="url(#p935ce598e1)" d="M 276.74051 161.06153 
L 275.669282 164.162648 
L 266.535486 169.580241 
L 257.306417 167.968032 
L 250.828852 157.449182 
L 258.578896 153.02976 
L 272.587007 155.222328 
z
" style="fill:#ff00ff;opacity:0.8;stroke:#000000;stroke-linejoin:miter;"/>
   </g>
   <g id="patch_48">
    <path clip-path="url(#p935ce598e1)" d="M 335.401348 186.185636 
L 338.520827 193.80072 
L 329.425874 199.811378 
L 317.011266 196.07446 
L 315.184452 189.358081 
L 320.782337 184.489529 
z
" style="fill:#00ffff;opacity:0.8;stroke:#000000;stroke-linejoin:miter;"/>
   </g>
   <g id="patch_49">
    <path clip-path="url(#p935ce598e1)" d="M 310.271479 130.750199 
L 300.624066 125.093458 
L 306.907886 112.688 
L 322.740033 118.124946 
L 314.303128 130.066055 
z
" style="fill:#fe01ff;opacity:0.8;stroke:#000000;stroke-linejoin:miter;"/>
   </g>
   <g id="patch_50">
    <path clip-path="url(#p935ce598e1)" d="M 383.629831 201.633695 
L 374.921749 218.99528 
L 351.295759 210.523129 
L 351.554518 197.040219 
L 359.830742 192.861192 
z
" style="fill:#00ffff;opacity:0.8;stroke:#000000;stroke-linejoin:miter;"/>
   </g>
   <g id="patch_51">
    <path clip-path="url(#p935ce598e1)" d="M 271.14805 87.352618 
L 277.87765 78.576722 
L 292.505836 80.670669 
L 294.232687 92.153839 
L 280.125831 96.388439 
z
" style="fill:#00ffff;opacity:0.8;stroke:#000000;stroke-linejoin:miter;"/>
   </g>
   <g id="patch_52">
    <path clip-path="url(#p935ce598e1)" d="M 195.150349 173.076865 
L 196.8522 182.552142 
L 189.012609 187.482096 
L 173.553638 183.252836 
L 173.411206 183.037958 
L 178.352192 171.648799 
L 189.416528 169.585719 
z
" style="fill:#00ffff;opacity:0.8;stroke:#000000;stroke-linejoin:miter;"/>
   </g>
   <g id="patch_53">
    <path clip-path="url(#p935ce598e1)" d="M 333.55685 212.13661 
L 341.462549 214.238543 
L 341.687671 226.758197 
L 324.432789 229.045085 
L 319.210293 223.727227 
z
" style="fill:#00ffff;opacity:0.8;stroke:#000000;stroke-linejoin:miter;"/>
   </g>
   <g id="patch_54">
    <path clip-path="url(#p935ce598e1)" d="M 335.401348 186.185636 
L 340.663279 178.695654 
L 351.591222 177.043522 
L 360.849818 182.693977 
L 359.830742 192.861192 
L 351.554518 197.040219 
L 338.520827 193.80072 
z
" style="fill:#00ffff;opacity:0.8;stroke:#000000;stroke-linejoin:miter;"/>
   </g>
   <g id="patch_55">
    <path clip-path="url(#p935ce598e1)" d="M 224.935973 153.61052 
L 237.889109 147.672115 
L 249.44395 157.291297 
L 234.023231 165.49378 
L 224.052542 160.205994 
z
" style="fill:#00ffff;opacity:0.8;stroke:#000000;stroke-linejoin:miter;"/>
   </g>
   <g id="patch_56">
    <path clip-path="url(#p935ce598e1)" d="M 181.936572 139.511588 
L 173.115452 139.649444 
L 165.199529 133.675174 
L 166.859848 124.597677 
L 173.565052 122.014956 
L 188.973888 126.822633 
L 190.047095 129.522674 
z
" style="fill:#00ffff;opacity:0.8;stroke:#000000;stroke-linejoin:miter;"/>
   </g>
   <g id="patch_57">
    <path clip-path="url(#p935ce598e1)" d="M 123.722792 86.831701 
L 134.118756 78.2025 
L 134.873822 77.631686 
L 135.696343 77.116257 
L 136.57916 76.660698 
L 137.514593 76.268973 
L 156.417682 69.200503 
L 159.860692 74.405996 
L 158.207133 86.801521 
L 141.505826 95.16101 
z
" style="fill:#00ffff;opacity:0.8;stroke:#000000;stroke-linejoin:miter;"/>
   </g>
   <g id="patch_58">
    <path clip-path="url(#p935ce598e1)" d="M 338.1446 260.604186 
L 323.862049 266.38405 
L 308.893818 253.209318 
L 312.729633 242.177483 
L 322.470187 239.457355 
L 334.696836 244.914439 
z
" style="fill:#00ffff;opacity:0.8;stroke:#000000;stroke-linejoin:miter;"/>
   </g>
   <g id="patch_59">
    <path clip-path="url(#p935ce598e1)" d="M 272.210557 245.853869 
L 284.706589 234.614692 
L 292.69144 237.485775 
L 290.015133 251.197818 
L 273.248536 249.01005 
z
" style="fill:#ff00ff;opacity:0.8;stroke:#000000;stroke-linejoin:miter;"/>
   </g>
   <g id="patch_60">
    <path clip-path="url(#p935ce598e1)" d="M 137.01231 152.43347 
L 128.146246 158.513739 
L 124.759462 159.031194 
L 114.701667 146.418357 
L 123.708486 138.781002 
L 136.127513 141.939772 
z
" style="fill:#00ffff;opacity:0.8;stroke:#000000;stroke-linejoin:miter;"/>
   </g>
   <g id="patch_61">
    <path clip-path="url(#p935ce598e1)" d="M 263.007742 185.311199 
L 269.911091 179.140582 
L 282.130363 180.201694 
L 286.604983 188.432698 
L 277.860008 194.907087 
L 264.939115 191.513894 
z
" style="fill:#ff00ff;opacity:0.8;stroke:#000000;stroke-linejoin:miter;"/>
   </g>
   <g id="patch_62">
    <path clip-path="url(#p935ce598e1)" d="M 209.764338 235.057595 
L 206.757788 238.199787 
L 189.111346 238.662157 
L 184.029567 229.015537 
L 191.738339 222.605377 
L 204.633072 224.59421 
z
" style="fill:#00ffff;opacity:0.8;stroke:#000000;stroke-linejoin:miter;"/>
   </g>
   <g id="patch_63">
    <path clip-path="url(#p935ce598e1)" d="M 273.671797 59.854113 
L 290.453111 63.309809 
L 291.614069 63.599698 
L 292.727404 63.980839 
L 293.78047 64.448903 
L 307.361085 71.244458 
L 292.505836 80.670669 
L 277.87765 78.576722 
L 270.947279 67.334021 
z
" style="fill:#fe01ff;opacity:0.8;stroke:#000000;stroke-linejoin:miter;"/>
   </g>
   <g id="patch_64">
    <path clip-path="url(#p935ce598e1)" d="M 216.277453 290.898397 
L 197.171108 287.261974 
L 200.392834 271.034669 
L 210.880539 266.013961 
L 225.118105 269.857609 
L 228.020053 276.281323 
z
" style="fill:#ff00ff;opacity:0.8;stroke:#000000;stroke-linejoin:miter;"/>
   </g>
   <g id="patch_65">
    <path clip-path="url(#p935ce598e1)" d="M 134.111579 264.391325 
L 122.42384 253.161487 
L 122.340543 253.080468 
L 114.275033 245.138565 
L 128.083397 237.354772 
L 143.617553 241.529317 
L 144.96341 258.006099 
z
" style="fill:#00ffff;opacity:0.8;stroke:#000000;stroke-linejoin:miter;"/>
   </g>
   <g id="patch_66">
    <path clip-path="url(#p935ce598e1)" d="M 206.757788 238.199787 
L 209.248289 251.550973 
L 192.495332 253.537963 
L 185.339378 243.869448 
L 189.111346 238.662157 
z
" style="fill:#00ffff;opacity:0.8;stroke:#000000;stroke-linejoin:miter;"/>
   </g>
   <g id="patch_67">
    <path clip-path="url(#p935ce598e1)" d="M 137.001379 207.44897 
L 139.680345 221.145195 
L 127.174313 226.400638 
L 116.559635 221.483894 
L 117.85728 209.380063 
z
" style="fill:#ff00ff;opacity:0.8;stroke:#000000;stroke-linejoin:miter;"/>
   </g>
   <g id="patch_68">
    <path clip-path="url(#p935ce598e1)" d="M 152.534715 236.059226 
L 162.924404 237.156503 
L 170.246453 246.06077 
L 167.735912 252.108142 
L 153.840922 258.403148 
L 144.96341 258.006099 
L 143.617553 241.529317 
z
" style="fill:#00ffff;opacity:0.8;stroke:#000000;stroke-linejoin:miter;"/>
   </g>
   <g id="patch_69">
    <path clip-path="url(#p935ce598e1)" d="M 219.185233 98.990435 
L 211.031555 84.672456 
L 211.086914 84.56187 
L 228.292947 81.102235 
L 236.595294 87.268635 
L 235.69824 93.329411 
L 220.628254 99.590912 
z
" style="fill:#ff00ff;opacity:0.8;stroke:#000000;stroke-linejoin:miter;"/>
   </g>
   <g id="patch_70">
    <path clip-path="url(#p935ce598e1)" d="M 246.661369 231.404623 
L 244.912469 231.290971 
L 233.771139 222.291056 
L 242.010902 213.686347 
L 251.016428 214.230731 
L 258.866197 223.642275 
z
" style="fill:#00ffff;opacity:0.8;stroke:#000000;stroke-linejoin:miter;"/>
   </g>
   <g id="patch_71">
    <path clip-path="url(#p935ce598e1)" d="M 136.127513 141.939772 
L 123.708486 138.781002 
L 121.233414 129.826098 
L 134.839847 122.646067 
L 142.134584 124.560663 
L 147.126439 137.187779 
z
" style="fill:#ff00ff;opacity:0.8;stroke:#000000;stroke-linejoin:miter;"/>
   </g>
   <g id="patch_72">
    <path clip-path="url(#p935ce598e1)" d="M 227.260312 250.878927 
L 233.451849 260.930773 
L 225.118105 269.857609 
L 210.880539 266.013961 
L 210.585044 252.371842 
z
" style="fill:#00ffff;opacity:0.8;stroke:#000000;stroke-linejoin:miter;"/>
   </g>
   <g id="patch_73">
    <path clip-path="url(#p935ce598e1)" d="M 282.158192 231.683083 
L 267.983463 231.287418 
L 261.488191 223.994545 
L 273.838109 216.785054 
L 284.727725 220.999314 
z
" style="fill:#fe01ff;opacity:0.8;stroke:#000000;stroke-linejoin:miter;"/>
   </g>
   <g id="patch_74">
    <path clip-path="url(#p935ce598e1)" d="M 300.179956 275.96772 
L 287.704291 281.016373 
L 286.889636 281.315476 
L 286.046127 281.565305 
L 274.500496 284.594615 
L 268.263379 271.155397 
L 272.923091 265.634899 
L 288.906144 264.369039 
z
" style="fill:#00ffff;opacity:0.8;stroke:#000000;stroke-linejoin:miter;"/>
   </g>
   <g id="patch_75">
    <path clip-path="url(#p935ce598e1)" d="M 188.165438 145.771004 
L 181.936572 139.511588 
L 190.047095 129.522674 
L 203.203423 133.758016 
L 203.457494 145.181918 
z
" style="fill:#ff00ff;opacity:0.8;stroke:#000000;stroke-linejoin:miter;"/>
   </g>
   <g id="patch_76">
    <path clip-path="url(#p935ce598e1)" d="M 251.523768 81.679286 
L 260.677 88.568431 
L 256.638214 98.00608 
L 244.95253 100.154617 
L 235.69824 93.329411 
L 236.595294 87.268635 
z
" style="fill:#00ffff;opacity:0.8;stroke:#000000;stroke-linejoin:miter;"/>
   </g>
   <g id="patch_77">
    <path clip-path="url(#p935ce598e1)" d="M 169.285816 164.966873 
L 178.352192 171.648799 
L 173.411206 183.037958 
L 158.111418 179.446093 
L 156.926841 168.230436 
z
" style="fill:#fe01ff;opacity:0.8;stroke:#000000;stroke-linejoin:miter;"/>
   </g>
   <g id="patch_78">
    <path clip-path="url(#p935ce598e1)" d="M 76.076831 173.17024 
L 76.851034 163.22476 
L 97.426552 158.853978 
L 107.717656 165.129456 
L 106.159075 175.444246 
L 100.623399 178.653151 
z
" style="fill:#fe01ff;opacity:0.8;stroke:#000000;stroke-linejoin:miter;"/>
   </g>
   <g id="patch_79">
    <path clip-path="url(#p935ce598e1)" d="M 185.60859 92.856157 
L 168.027294 95.18043 
L 158.207133 86.801521 
L 159.860692 74.405996 
L 184.313119 79.605306 
L 188.03979 90.949803 
z
" style="fill:#ff00ff;opacity:0.8;stroke:#000000;stroke-linejoin:miter;"/>
   </g>
   <g id="patch_80">
    <path clip-path="url(#p935ce598e1)" d="M 212.697254 164.286682 
L 224.052542 160.205994 
L 234.023231 165.49378 
L 234.829525 171.280566 
L 226.89584 177.636256 
L 216.980645 176.306526 
L 211.359575 168.503462 
z
" style="fill:#fe01ff;opacity:0.8;stroke:#000000;stroke-linejoin:miter;"/>
   </g>
   <g id="patch_81">
    <path clip-path="url(#p935ce598e1)" d="M 383.038439 123.027575 
L 388.567048 128.885731 
L 389.134986 129.549943 
L 389.619807 130.250404 
L 390.017453 130.981251 
L 390.324597 131.736367 
L 390.538665 132.509429 
L 393.333679 145.572409 
L 371.377338 142.882037 
L 365.920781 132.160618 
z
" style="fill:#ff00ff;opacity:0.8;stroke:#000000;stroke-linejoin:miter;"/>
   </g>
   <g id="patch_82">
    <path clip-path="url(#p935ce598e1)" d="M 226.679126 119.942107 
L 234.372267 126.801733 
L 233.868778 128.466753 
L 222.59981 135.131622 
L 211.57459 130.010525 
L 212.572561 121.306937 
z
" style="fill:#fe01ff;opacity:0.8;stroke:#000000;stroke-linejoin:miter;"/>
   </g>
   <g id="patch_83">
    <path clip-path="url(#p935ce598e1)" d="M 137.508261 206.961802 
L 137.001379 207.44897 
L 117.85728 209.380063 
L 114.193737 206.42327 
L 117.401186 193.105251 
L 122.013997 190.880824 
L 134.972886 194.042117 
z
" style="fill:#00ffff;opacity:0.8;stroke:#000000;stroke-linejoin:miter;"/>
   </g>
   <g id="patch_84">
    <path clip-path="url(#p935ce598e1)" d="M 312.110874 146.732513 
L 326.37945 145.033971 
L 330.451801 147.917788 
L 328.97279 158.379493 
L 315.315902 161.508231 
L 309.564319 158.093962 
z
" style="fill:#00ffff;opacity:0.8;stroke:#000000;stroke-linejoin:miter;"/>
   </g>
   <g id="patch_85">
    <path clip-path="url(#p935ce598e1)" d="M 297.644399 159.867455 
L 309.564319 158.093962 
L 315.315902 161.508231 
L 316.261521 172.961681 
L 302.403741 175.674385 
L 295.688578 172.075886 
z
" style="fill:#ff00ff;opacity:0.8;stroke:#000000;stroke-linejoin:miter;"/>
   </g>
   <g id="patch_86">
    <path clip-path="url(#p935ce598e1)" d="M 114.701667 146.418357 
L 124.759462 159.031194 
L 122.636883 161.25499 
L 107.717656 165.129456 
L 97.426552 158.853978 
L 103.102167 146.382541 
z
" style="fill:#fe01ff;opacity:0.8;stroke:#000000;stroke-linejoin:miter;"/>
   </g>
   <g id="patch_87">
    <path clip-path="url(#p935ce598e1)" d="M 246.661369 231.404623 
L 258.866197 223.642275 
L 261.488191 223.994545 
L 267.983463 231.287418 
L 263.425761 239.956175 
L 255.123231 240.90494 
z
" style="fill:#ff00ff;opacity:0.8;stroke:#000000;stroke-linejoin:miter;"/>
   </g>
   <g id="patch_88">
    <path clip-path="url(#p935ce598e1)" d="M 310.271479 130.750199 
L 305.811046 142.033531 
L 293.107503 143.290974 
L 288.121541 134.538085 
L 294.524873 125.711138 
L 300.624066 125.093458 
z
" style="fill:#00ffff;opacity:0.8;stroke:#000000;stroke-linejoin:miter;"/>
   </g>
   <g id="patch_89">
    <path clip-path="url(#p935ce598e1)" d="M 349.228444 148.16297 
L 362.766794 149.325964 
L 367.413217 162.080523 
L 353.940305 166.307361 
L 345.209627 161.404037 
z
" style="fill:#00ffff;opacity:0.8;stroke:#000000;stroke-linejoin:miter;"/>
   </g>
   <g id="patch_90">
    <path clip-path="url(#p935ce598e1)" d="M 204.199448 101.620779 
L 194.951504 91.512843 
L 211.031555 84.672456 
L 219.185233 98.990435 
z
" style="fill:#00ffff;opacity:0.8;stroke:#000000;stroke-linejoin:miter;"/>
   </g>
   <g id="patch_91">
    <path clip-path="url(#p935ce598e1)" d="M 230.977688 186.957649 
L 240.575521 188.942595 
L 244.401575 196.873851 
L 235.549539 204.958306 
L 225.942877 204.145272 
L 219.047989 194.464351 
z
" style="fill:#fe01ff;opacity:0.8;stroke:#000000;stroke-linejoin:miter;"/>
   </g>
   <g id="patch_92">
    <path clip-path="url(#p935ce598e1)" d="M 307.361085 71.244458 
L 319.108647 77.122778 
L 313.310368 92.008243 
L 299.139737 94.553872 
L 294.232687 92.153839 
L 292.505836 80.670669 
z
" style="fill:#fe01ff;opacity:0.8;stroke:#000000;stroke-linejoin:miter;"/>
   </g>
   <g id="patch_93">
    <path clip-path="url(#p935ce598e1)" d="M 296.275024 189.617465 
L 301.268708 186.7591 
L 315.184452 189.358081 
L 317.011266 196.07446 
L 306.858184 203.675389 
L 299.95762 203.031172 
z
" style="fill:#ff00ff;opacity:0.8;stroke:#000000;stroke-linejoin:miter;"/>
   </g>
   <g id="patch_94">
    <path clip-path="url(#p935ce598e1)" d="M 189.012609 187.482096 
L 196.8522 182.552142 
L 208.141769 184.937516 
L 213.428873 193.385251 
L 200.499747 201.108052 
L 190.196415 196.014919 
z
" style="fill:#fe01ff;opacity:0.8;stroke:#000000;stroke-linejoin:miter;"/>
   </g>
   <g id="patch_95">
    <path clip-path="url(#p935ce598e1)" d="M 272.587007 155.222328 
L 258.578896 153.02976 
L 259.41593 142.701119 
L 270.838954 140.184278 
L 278.063743 147.247039 
z
" style="fill:#00ffff;opacity:0.8;stroke:#000000;stroke-linejoin:miter;"/>
   </g>
   <g id="patch_96">
    <path clip-path="url(#p935ce598e1)" d="M 238.073723 145.660188 
L 222.864368 137.852246 
L 222.59981 135.131622 
L 233.868778 128.466753 
L 244.462116 139.149256 
z
" style="fill:#fe01ff;opacity:0.8;stroke:#000000;stroke-linejoin:miter;"/>
   </g>
   <g id="patch_97">
    <path clip-path="url(#p935ce598e1)" d="M 275.669282 164.162648 
L 287.831232 173.638342 
L 282.130363 180.201694 
L 269.911091 179.140582 
L 266.535486 169.580241 
z
" style="fill:#fe01ff;opacity:0.8;stroke:#000000;stroke-linejoin:miter;"/>
   </g>
   <g id="patch_98">
    <path clip-path="url(#p935ce598e1)" d="M 319.108647 77.122778 
L 332.271692 83.709386 
L 333.099714 84.165145 
L 333.870291 84.674688 
L 345.343227 92.973703 
L 327.234085 101.437382 
L 321.416504 100.255248 
L 313.310368 92.008243 
z
" style="fill:#00ffff;opacity:0.8;stroke:#000000;stroke-linejoin:miter;"/>
   </g>
   <g id="patch_99">
    <path clip-path="url(#p935ce598e1)" d="M 371.374439 112.175229 
L 376.481313 116.228159 
L 377.50983 117.169419 
L 383.038439 123.027575 
L 365.920781 132.160618 
L 356.444559 128.998396 
L 355.603697 123.409744 
z
" style="fill:#00ffff;opacity:0.8;stroke:#000000;stroke-linejoin:miter;"/>
   </g>
   <g id="patch_100">
    <path clip-path="url(#p935ce598e1)" d="M 96.753919 227.88597 
L 86.116294 217.41137 
L 97.927608 206.352279 
L 114.193737 206.42327 
L 117.85728 209.380063 
L 116.559635 221.483894 
z
" style="fill:#00ffff;opacity:0.8;stroke:#000000;stroke-linejoin:miter;"/>
   </g>
   <g id="patch_101">
    <path clip-path="url(#p935ce598e1)" d="M 393.333679 145.572409 
L 395.579167 156.067084 
L 374.229969 164.540774 
L 367.413217 162.080523 
L 362.766794 149.325964 
L 371.377338 142.882037 
z
" style="fill:#00ffff;opacity:0.8;stroke:#000000;stroke-linejoin:miter;"/>
   </g>
   <g id="patch_102">
    <path clip-path="url(#p935ce598e1)" d="M 208.740432 115.229606 
L 201.387115 106.109124 
L 204.199448 101.620779 
L 219.185233 98.990435 
L 220.628254 99.590912 
L 222.354032 105.631328 
z
" style="fill:#00ffff;opacity:0.8;stroke:#000000;stroke-linejoin:miter;"/>
   </g>
   <g id="patch_103">
    <path clip-path="url(#p935ce598e1)" d="M 351.591222 177.043522 
L 353.940305 166.307361 
L 367.413217 162.080523 
L 374.229969 164.540774 
L 375.745707 177.230972 
L 360.849818 182.693977 
z
" style="fill:#ff00ff;opacity:0.8;stroke:#000000;stroke-linejoin:miter;"/>
   </g>
   <g id="patch_104">
    <path clip-path="url(#p935ce598e1)" d="M 329.580252 208.207177 
L 329.425874 199.811378 
L 338.520827 193.80072 
L 351.554518 197.040219 
L 351.295759 210.523129 
L 341.462549 214.238543 
L 333.55685 212.13661 
z
" style="fill:#ff00ff;opacity:0.8;stroke:#000000;stroke-linejoin:miter;"/>
   </g>
   <g id="patch_105">
    <path clip-path="url(#p935ce598e1)" d="M 215.286454 214.97781 
L 204.633072 224.59421 
L 191.738339 222.605377 
L 188.953668 213.992671 
L 201.020899 206.376425 
L 215.177232 214.296595 
z
" style="fill:#ff00ff;opacity:0.8;stroke:#000000;stroke-linejoin:miter;"/>
   </g>
   <g id="patch_106">
    <path clip-path="url(#p935ce598e1)" d="M 306.907886 112.688 
L 300.624066 125.093458 
L 294.524873 125.711138 
L 282.562158 118.142276 
L 286.526457 109.897076 
L 299.522549 107.57443 
L 305.855147 110.497949 
z
" style="fill:#00ffff;opacity:0.8;stroke:#000000;stroke-linejoin:miter;"/>
   </g>
   <g id="patch_107">
    <path clip-path="url(#p935ce598e1)" d="M 173.565052 122.014956 
L 166.859848 124.597677 
L 154.538238 118.993285 
L 154.789031 108.86778 
L 165.567324 104.910486 
L 176.745048 110.784435 
z
" style="fill:#ff00ff;opacity:0.8;stroke:#000000;stroke-linejoin:miter;"/>
   </g>
   <g id="patch_108">
    <path clip-path="url(#p935ce598e1)" d="M 165.567324 104.910486 
L 154.789031 108.86778 
L 142.675268 103.464866 
L 141.505826 95.16101 
L 158.207133 86.801521 
L 168.027294 95.18043 
z
" style="fill:#00ffff;opacity:0.8;stroke:#000000;stroke-linejoin:miter;"/>
   </g>
   <g id="patch_109">
    <path clip-path="url(#p935ce598e1)" d="M 310.789701 221.561815 
L 319.210293 223.727227 
L 324.432789 229.045085 
L 322.470187 239.457355 
L 312.729633 242.177483 
L 300.977811 235.645853 
L 305.335505 223.066236 
z
" style="fill:#ff00ff;opacity:0.8;stroke:#000000;stroke-linejoin:miter;"/>
   </g>
   <g id="patch_110">
    <path clip-path="url(#p935ce598e1)" d="M 200.499747 201.108052 
L 213.428873 193.385251 
L 219.047989 194.464351 
L 225.942877 204.145272 
L 215.177232 214.296595 
L 201.020899 206.376425 
z
" style="fill:#00ffff;opacity:0.8;stroke:#000000;stroke-linejoin:miter;"/>
   </g>
   <g id="patch_111">
    <path clip-path="url(#p935ce598e1)" d="M 222.354032 105.631328 
L 220.628254 99.590912 
L 235.69824 93.329411 
L 244.95253 100.154617 
L 242.129334 109.676871 
L 230.061595 110.945069 
z
" style="fill:#00ffff;opacity:0.8;stroke:#000000;stroke-linejoin:miter;"/>
   </g>
   <g id="patch_112">
    <path clip-path="url(#p935ce598e1)" d="M 356.444559 128.998396 
L 365.920781 132.160618 
L 371.377338 142.882037 
L 362.766794 149.325964 
L 349.228444 148.16297 
L 347.194349 146.675504 
L 347.205806 133.806463 
z
" style="fill:#ff00ff;opacity:0.8;stroke:#000000;stroke-linejoin:miter;"/>
   </g>
   <g id="patch_113">
    <path clip-path="url(#p935ce598e1)" d="M 392.232965 184.481348 
L 383.629831 201.633695 
L 359.830742 192.861192 
L 360.849818 182.693977 
L 375.745707 177.230972 
z
" style="fill:#ff00ff;opacity:0.8;stroke:#000000;stroke-linejoin:miter;"/>
   </g>
   <g id="patch_114">
    <path clip-path="url(#p935ce598e1)" d="M 123.708486 138.781002 
L 114.701667 146.418357 
L 103.102167 146.382541 
L 90.453704 135.125248 
L 110.639387 126.127868 
L 121.233414 129.826098 
z
" style="fill:#00ffff;opacity:0.8;stroke:#000000;stroke-linejoin:miter;"/>
   </g>
   <g id="patch_115">
    <path clip-path="url(#p935ce598e1)" d="M 237.889109 147.672115 
L 238.073723 145.660188 
L 244.462116 139.149256 
L 252.255118 137.919669 
L 259.41593 142.701119 
L 258.578896 153.02976 
L 250.828852 157.449182 
L 249.44395 157.291297 
z
" style="fill:#00ffff;opacity:0.8;stroke:#000000;stroke-linejoin:miter;"/>
   </g>
   <g id="patch_116">
    <path clip-path="url(#p935ce598e1)" d="M 313.027201 209.870589 
L 310.789701 221.561815 
L 305.335505 223.066236 
L 293.014355 218.164953 
L 293.769319 206.287193 
L 299.95762 203.031172 
L 306.858184 203.675389 
z
" style="fill:#00ffff;opacity:0.8;stroke:#000000;stroke-linejoin:miter;"/>
   </g>
   <g id="patch_117">
    <path clip-path="url(#p935ce598e1)" d="M 166.859848 124.597677 
L 165.199529 133.675174 
L 149.805321 137.935361 
L 147.126439 137.187779 
L 142.134584 124.560663 
L 154.538238 118.993285 
z
" style="fill:#00ffff;opacity:0.8;stroke:#000000;stroke-linejoin:miter;"/>
   </g>
   <g id="patch_118">
    <path clip-path="url(#p935ce598e1)" d="M 152.534715 236.059226 
L 143.617553 241.529317 
L 128.083397 237.354772 
L 127.174313 226.400638 
L 139.680345 221.145195 
L 148.193732 223.661761 
z
" style="fill:#fe01ff;opacity:0.8;stroke:#000000;stroke-linejoin:miter;"/>
   </g>
   <g id="patch_119">
    <path clip-path="url(#p935ce598e1)" d="M 146.588576 187.657164 
L 134.972886 194.042117 
L 122.013997 190.880824 
L 122.452042 179.531132 
L 127.577391 176.287587 
L 136.859205 176.400017 
L 147.02193 185.532115 
z
" style="fill:#00ffff;opacity:0.8;stroke:#000000;stroke-linejoin:miter;"/>
   </g>
   <g id="patch_120">
    <path clip-path="url(#p935ce598e1)" d="M 251.523768 81.679286 
L 252.536677 74.911133 
L 270.947279 67.334021 
L 277.87765 78.576722 
L 271.14805 87.352618 
L 260.677 88.568431 
z
" style="fill:#ff00ff;opacity:0.8;stroke:#000000;stroke-linejoin:miter;"/>
   </g>
   <g id="patch_121">
    <path clip-path="url(#p935ce598e1)" d="M 152.534715 236.059226 
L 148.193732 223.661761 
L 162.168167 216.186831 
L 165.947197 216.84697 
L 173.079154 228.095004 
L 162.924404 237.156503 
z
" style="fill:#fe01ff;opacity:0.8;stroke:#000000;stroke-linejoin:miter;"/>
   </g>
   <g id="patch_122">
    <path clip-path="url(#p935ce598e1)" d="M 189.416528 169.585719 
L 178.352192 171.648799 
L 169.285816 164.966873 
L 171.906721 156.503551 
L 184.488143 154.900859 
L 191.424497 160.115399 
z
" style="fill:#ff00ff;opacity:0.8;stroke:#000000;stroke-linejoin:miter;"/>
   </g>
   <g id="patch_123">
    <path clip-path="url(#p935ce598e1)" d="M 197.171108 287.261974 
L 169.019684 281.904042 
L 170.067403 273.972927 
L 182.677434 262.599203 
L 186.507301 262.060378 
L 200.392834 271.034669 
z
" style="fill:#00ffff;opacity:0.8;stroke:#000000;stroke-linejoin:miter;"/>
   </g>
   <g id="patch_124">
    <path clip-path="url(#p935ce598e1)" d="M 274.500496 284.594615 
L 262.954864 287.623925 
L 262.911127 287.635327 
L 251.0211 290.714611 
L 245.405853 278.456651 
L 252.171693 270.935293 
L 268.263379 271.155397 
z
" style="fill:#ff00ff;opacity:0.8;stroke:#000000;stroke-linejoin:miter;"/>
   </g>
   <g id="patch_125">
    <path clip-path="url(#p935ce598e1)" d="M 173.553638 183.252836 
L 166.96513 196.45084 
L 159.52734 197.791647 
L 146.588576 187.657164 
L 147.02193 185.532115 
L 158.111418 179.446093 
L 173.411206 183.037958 
z
" style="fill:#ff00ff;opacity:0.8;stroke:#000000;stroke-linejoin:miter;"/>
   </g>
   <g id="patch_126">
    <path clip-path="url(#p935ce598e1)" d="M 121.233414 129.826098 
L 110.639387 126.127868 
L 108.207668 106.387948 
L 130.188241 111.142875 
L 134.839847 122.646067 
z
" style="fill:#00ffff;opacity:0.8;stroke:#000000;stroke-linejoin:miter;"/>
   </g>
   <g id="patch_127">
    <path clip-path="url(#p935ce598e1)" d="M 229.762461 71.372741 
L 240.873255 67.371604 
L 252.536677 74.911133 
L 251.523768 81.679286 
L 236.595294 87.268635 
L 228.292947 81.102235 
z
" style="fill:#00ffff;opacity:0.8;stroke:#000000;stroke-linejoin:miter;"/>
   </g>
   <g id="patch_128">
    <path clip-path="url(#p935ce598e1)" d="M 249.795967 181.533536 
L 263.007742 185.311199 
L 264.939115 191.513894 
L 256.481394 198.92621 
L 244.401575 196.873851 
L 240.575521 188.942595 
z
" style="fill:#00ffff;opacity:0.8;stroke:#000000;stroke-linejoin:miter;"/>
   </g>
   <g id="patch_129">
    <path clip-path="url(#p935ce598e1)" d="M 292.69144 237.485775 
L 300.977811 235.645853 
L 312.729633 242.177483 
L 308.893818 253.209318 
L 293.36973 254.582729 
L 290.015133 251.197818 
z
" style="fill:#00ffff;opacity:0.8;stroke:#000000;stroke-linejoin:miter;"/>
   </g>
   <g id="patch_130">
    <path clip-path="url(#p935ce598e1)" d="M 256.481394 198.92621 
L 259.786609 206.162475 
L 251.016428 214.230731 
L 242.010902 213.686347 
L 235.549539 204.958306 
L 244.401575 196.873851 
z
" style="fill:#ff00ff;opacity:0.8;stroke:#000000;stroke-linejoin:miter;"/>
   </g>
   <g id="patch_131">
    <path clip-path="url(#p935ce598e1)" d="M 162.924404 237.156503 
L 173.079154 228.095004 
L 184.029567 229.015537 
L 189.111346 238.662157 
L 185.339378 243.869448 
L 170.246453 246.06077 
z
" style="fill:#ff00ff;opacity:0.8;stroke:#000000;stroke-linejoin:miter;"/>
   </g>
   <g id="patch_132">
    <path clip-path="url(#p935ce598e1)" d="M 332.209002 116.749226 
L 345.522658 115.104132 
L 355.603697 123.409744 
L 356.444559 128.998396 
L 347.205806 133.806463 
L 335.32223 131.185943 
z
" style="fill:#00ffff;opacity:0.8;stroke:#000000;stroke-linejoin:miter;"/>
   </g>
   <g id="patch_133">
    <path clip-path="url(#p935ce598e1)" d="M 366.853723 235.080765 
L 359.619251 249.504368 
L 359.149241 250.313461 
L 358.571753 251.082215 
L 357.89283 251.802585 
L 357.119578 252.467032 
L 356.260088 253.068603 
L 355.323356 253.601001 
L 354.319184 254.058655 
L 338.1446 260.604186 
L 334.696836 244.914439 
L 350.96012 234.025725 
z
" style="fill:#00ffff;opacity:0.8;stroke:#000000;stroke-linejoin:miter;"/>
   </g>
   <g id="patch_134">
    <path clip-path="url(#p935ce598e1)" d="M 251.0211 290.714611 
L 239.131072 293.793894 
L 238.066851 294.026946 
L 236.977696 294.181729 
L 235.873763 294.2568 
L 234.765347 294.25146 
L 233.662785 294.165758 
L 232.576357 294.000493 
L 216.277453 290.898397 
L 228.020053 276.281323 
L 245.405853 278.456651 
z
" style="fill:#00ffff;opacity:0.8;stroke:#000000;stroke-linejoin:miter;"/>
   </g>
   <g id="patch_135">
    <path clip-path="url(#p935ce598e1)" d="M 310.271479 130.750199 
L 314.303128 130.066055 
L 327.708777 134.885216 
L 326.37945 145.033971 
L 312.110874 146.732513 
L 305.811046 142.033531 
z
" style="fill:#fe01ff;opacity:0.8;stroke:#000000;stroke-linejoin:miter;"/>
   </g>
   <g id="patch_136">
    <path clip-path="url(#p935ce598e1)" d="M 296.275024 189.617465 
L 299.95762 203.031172 
L 293.769319 206.287193 
L 280.076983 203.038348 
L 277.860008 194.907087 
L 286.604983 188.432698 
z
" style="fill:#00ffff;opacity:0.8;stroke:#000000;stroke-linejoin:miter;"/>
   </g>
   <g id="patch_137">
    <path clip-path="url(#p935ce598e1)" d="M 210.585044 252.371842 
L 210.880539 266.013961 
L 200.392834 271.034669 
L 186.507301 262.060378 
L 192.495332 253.537963 
L 209.248289 251.550973 
z
" style="fill:#fe01ff;opacity:0.8;stroke:#000000;stroke-linejoin:miter;"/>
   </g>
   <g id="patch_138">
    <path clip-path="url(#p935ce598e1)" d="M 248.280529 175.964558 
L 257.306417 167.968032 
L 266.535486 169.580241 
L 269.911091 179.140582 
L 263.007742 185.311199 
L 249.795967 181.533536 
z
" style="fill:#00ffff;opacity:0.8;stroke:#000000;stroke-linejoin:miter;"/>
   </g>
   <g id="patch_139">
    <path clip-path="url(#p935ce598e1)" d="M 194.951504 91.512843 
L 188.03979 90.949803 
L 184.313119 79.605306 
L 193.940316 72.021384 
L 206.465155 75.929817 
L 211.086914 84.56187 
L 211.031555 84.672456 
z
" style="fill:#00ffff;opacity:0.8;stroke:#000000;stroke-linejoin:miter;"/>
   </g>
   <g id="patch_140">
    <path clip-path="url(#p935ce598e1)" d="M 246.789002 261.507643 
L 252.763954 254.579321 
L 267.639206 255.570959 
L 272.923091 265.634899 
L 268.263379 271.155397 
L 252.171693 270.935293 
z
" style="fill:#fe01ff;opacity:0.8;stroke:#000000;stroke-linejoin:miter;"/>
   </g>
   <g id="patch_141">
    <path clip-path="url(#p935ce598e1)" d="M 323.862049 266.38405 
L 300.179956 275.96772 
L 288.906144 264.369039 
L 293.36973 254.582729 
L 308.893818 253.209318 
z
" style="fill:#ff00ff;opacity:0.8;stroke:#000000;stroke-linejoin:miter;"/>
   </g>
   <g id="patch_142">
    <path clip-path="url(#p935ce598e1)" d="M 208.141769 184.937516 
L 216.980645 176.306526 
L 226.89584 177.636256 
L 230.977688 186.957649 
L 219.047989 194.464351 
L 213.428873 193.385251 
z
" style="fill:#00ffff;opacity:0.8;stroke:#000000;stroke-linejoin:miter;"/>
   </g>
   <g id="patch_143">
    <path clip-path="url(#p935ce598e1)" d="M 117.401186 193.105251 
L 114.193737 206.42327 
L 97.927608 206.352279 
L 93.484302 194.519378 
L 101.227497 189.283581 
z
" style="fill:#fe01ff;opacity:0.8;stroke:#000000;stroke-linejoin:miter;"/>
   </g>
   <g id="patch_144">
    <path clip-path="url(#p935ce598e1)" d="M 86.116294 217.41137 
L 76.177665 207.625055 
L 75.518667 206.902943 
L 74.960389 206.134334 
L 74.50858 205.327142 
L 74.167891 204.489678 
L 73.941831 203.630566 
L 73.832727 202.758651 
L 73.841703 201.882912 
L 74.645874 191.552455 
L 93.484302 194.519378 
L 97.927608 206.352279 
z
" style="fill:#ff00ff;opacity:0.8;stroke:#000000;stroke-linejoin:miter;"/>
   </g>
   <g id="patch_145">
    <path clip-path="url(#p935ce598e1)" d="M 176.745048 110.784435 
L 165.567324 104.910486 
L 168.027294 95.18043 
L 185.60859 92.856157 
L 186.789704 108.380569 
z
" style="fill:#00ffff;opacity:0.8;stroke:#000000;stroke-linejoin:miter;"/>
   </g>
   <g id="patch_146">
    <path clip-path="url(#p935ce598e1)" d="M 261.488191 223.994545 
L 258.866197 223.642275 
L 251.016428 214.230731 
L 259.786609 206.162475 
L 271.922793 208.899829 
L 273.838109 216.785054 
z
" style="fill:#00ffff;opacity:0.8;stroke:#000000;stroke-linejoin:miter;"/>
   </g>
   <g id="patch_147">
    <path clip-path="url(#p935ce598e1)" d="M 243.381978 54.812016 
L 255.563295 56.187602 
L 256.890482 56.398417 
L 273.671797 59.854113 
L 270.947279 67.334021 
L 252.536677 74.911133 
L 240.873255 67.371604 
z
" style="fill:#00ffff;opacity:0.8;stroke:#000000;stroke-linejoin:miter;"/>
   </g>
   <g id="patch_148">
    <path clip-path="url(#p935ce598e1)" d="M 286.526457 109.897076 
L 278.061572 101.842427 
L 280.125831 96.388439 
L 294.232687 92.153839 
L 299.139737 94.553872 
L 299.522549 107.57443 
z
" style="fill:#ff00ff;opacity:0.8;stroke:#000000;stroke-linejoin:miter;"/>
   </g>
   <g id="patch_149">
    <path clip-path="url(#p935ce598e1)" d="M 293.988034 157.915369 
L 290.848505 145.767291 
L 293.107503 143.290974 
L 305.811046 142.033531 
L 312.110874 146.732513 
L 309.564319 158.093962 
L 297.644399 159.867455 
z
" style="fill:#fe01ff;opacity:0.8;stroke:#000000;stroke-linejoin:miter;"/>
   </g>
   <g id="patch_150">
    <path clip-path="url(#p935ce598e1)" d="M 234.372267 126.801733 
L 244.8465 122.621801 
L 256.549185 128.096147 
L 252.255118 137.919669 
L 244.462116 139.149256 
L 233.868778 128.466753 
z
" style="fill:#00ffff;opacity:0.8;stroke:#000000;stroke-linejoin:miter;"/>
   </g>
   <g id="patch_151">
    <path clip-path="url(#p935ce598e1)" d="M 184.488143 154.900859 
L 171.906721 156.503551 
L 165.998424 151.214533 
L 173.115452 139.649444 
L 181.936572 139.511588 
L 188.165438 145.771004 
z
" style="fill:#00ffff;opacity:0.8;stroke:#000000;stroke-linejoin:miter;"/>
   </g>
   <g id="patch_152">
    <path clip-path="url(#p935ce598e1)" d="M 177.214363 201.815282 
L 190.196415 196.014919 
L 200.499747 201.108052 
L 201.020899 206.376425 
L 188.953668 213.992671 
L 178.12505 210.391842 
z
" style="fill:#fe01ff;opacity:0.8;stroke:#000000;stroke-linejoin:miter;"/>
   </g>
   <g id="patch_153">
    <path clip-path="url(#p935ce598e1)" d="M 256.638214 98.00608 
L 260.677 88.568431 
L 271.14805 87.352618 
L 280.125831 96.388439 
L 278.061572 101.842427 
L 265.204695 104.885608 
z
" style="fill:#00ffff;opacity:0.8;stroke:#000000;stroke-linejoin:miter;"/>
   </g>
   <g id="patch_154">
    <path clip-path="url(#p935ce598e1)" d="M 76.851034 163.22476 
L 77.883518 149.961363 
L 77.975609 149.264541 
L 78.142527 148.575626 
L 82.555322 133.792349 
L 90.453704 135.125248 
L 103.102167 146.382541 
L 97.426552 158.853978 
z
" style="fill:#00ffff;opacity:0.8;stroke:#000000;stroke-linejoin:miter;"/>
   </g>
   <g id="patch_155">
    <path clip-path="url(#p935ce598e1)" d="M 117.401186 193.105251 
L 101.227497 189.283581 
L 100.623399 178.653151 
L 106.159075 175.444246 
L 122.452042 179.531132 
L 122.013997 190.880824 
z
" style="fill:#fe01ff;opacity:0.8;stroke:#000000;stroke-linejoin:miter;"/>
   </g>
   <g id="patch_156">
    <path clip-path="url(#p935ce598e1)" d="M 191.424497 160.115399 
L 184.488143 154.900859 
L 188.165438 145.771004 
L 203.457494 145.181918 
L 206.243574 147.173609 
L 203.622604 157.425212 
z
" style="fill:#00ffff;opacity:0.8;stroke:#000000;stroke-linejoin:miter;"/>
   </g>
   <g id="patch_157">
    <path clip-path="url(#p935ce598e1)" d="M 208.450789 117.512741 
L 212.572561 121.306937 
L 211.57459 130.010525 
L 203.203423 133.758016 
L 190.047095 129.522674 
L 188.973888 126.822633 
L 194.364257 120.021367 
z
" style="fill:#00ffff;opacity:0.8;stroke:#000000;stroke-linejoin:miter;"/>
   </g>
   <g id="patch_158">
    <path clip-path="url(#p935ce598e1)" d="M 154.291325 205.674827 
L 162.168167 216.186831 
L 148.193732 223.661761 
L 139.680345 221.145195 
L 137.001379 207.44897 
L 137.508261 206.961802 
z
" style="fill:#00ffff;opacity:0.8;stroke:#000000;stroke-linejoin:miter;"/>
   </g>
   <g id="patch_159">
    <path clip-path="url(#p935ce598e1)" d="M 230.061595 110.945069 
L 242.129334 109.676871 
L 246.391397 113.373145 
L 244.8465 122.621801 
L 234.372267 126.801733 
L 226.679126 119.942107 
z
" style="fill:#00ffff;opacity:0.8;stroke:#000000;stroke-linejoin:miter;"/>
   </g>
   <g id="patch_160">
    <path clip-path="url(#p935ce598e1)" d="M 234.829525 171.280566 
L 248.280529 175.964558 
L 249.795967 181.533536 
L 240.575521 188.942595 
L 230.977688 186.957649 
L 226.89584 177.636256 
z
" style="fill:#fe01ff;opacity:0.8;stroke:#000000;stroke-linejoin:miter;"/>
   </g>
   <g id="patch_161">
    <path clip-path="url(#p935ce598e1)" d="M 151.169524 165.777916 
L 156.926841 168.230436 
L 158.111418 179.446093 
L 147.02193 185.532115 
L 136.859205 176.400017 
L 143.799874 167.59059 
z
" style="fill:#00ffff;opacity:0.8;stroke:#000000;stroke-linejoin:miter;"/>
   </g>
   <g id="patch_162">
    <path clip-path="url(#p935ce598e1)" d="M 249.697013 248.01827 
L 255.123231 240.90494 
L 263.425761 239.956175 
L 272.210557 245.853869 
L 273.248536 249.01005 
L 267.639206 255.570959 
L 252.763954 254.579321 
z
" style="fill:#00ffff;opacity:0.8;stroke:#000000;stroke-linejoin:miter;"/>
   </g>
   <g id="patch_163">
    <path clip-path="url(#p935ce598e1)" d="M 150.695436 154.757774 
L 137.01231 152.43347 
L 136.127513 141.939772 
L 147.126439 137.187779 
L 149.805321 137.935361 
L 156.496567 150.733896 
z
" style="fill:#00ffff;opacity:0.8;stroke:#000000;stroke-linejoin:miter;"/>
   </g>
   <g id="patch_164">
    <path clip-path="url(#p935ce598e1)" d="M 244.8465 122.621801 
L 246.391397 113.373145 
L 262.414109 112.549283 
L 265.045442 115.852549 
L 259.23798 127.251152 
L 256.549185 128.096147 
z
" style="fill:#fe01ff;opacity:0.8;stroke:#000000;stroke-linejoin:miter;"/>
   </g>
   <g id="patch_165">
    <path clip-path="url(#p935ce598e1)" d="M 167.735912 252.108142 
L 170.246453 246.06077 
L 185.339378 243.869448 
L 192.495332 253.537963 
L 186.507301 262.060378 
L 182.677434 262.599203 
z
" style="fill:#00ffff;opacity:0.8;stroke:#000000;stroke-linejoin:miter;"/>
   </g>
   <g id="patch_166">
    <path clip-path="url(#p935ce598e1)" d="M 340.663279 178.695654 
L 332.967422 171.905146 
L 336.031574 162.844372 
L 345.209627 161.404037 
L 353.940305 166.307361 
L 351.591222 177.043522 
z
" style="fill:#00ffff;opacity:0.8;stroke:#000000;stroke-linejoin:miter;"/>
   </g>
   <g id="patch_167">
    <path clip-path="url(#p935ce598e1)" d="M 329.580252 208.207177 
L 313.027201 209.870589 
L 306.858184 203.675389 
L 317.011266 196.07446 
L 329.425874 199.811378 
z
" style="fill:#00ffff;opacity:0.8;stroke:#000000;stroke-linejoin:miter;"/>
   </g>
   <g id="patch_168">
    <path clip-path="url(#p935ce598e1)" d="M 295.688578 172.075886 
L 302.403741 175.674385 
L 301.268708 186.7591 
L 296.275024 189.617465 
L 286.604983 188.432698 
L 282.130363 180.201694 
L 287.831232 173.638342 
z
" style="fill:#00ffff;opacity:0.8;stroke:#000000;stroke-linejoin:miter;"/>
   </g>
   <g id="patch_169">
    <path clip-path="url(#p935ce598e1)" d="M 195.150349 173.076865 
L 211.359575 168.503462 
L 216.980645 176.306526 
L 208.141769 184.937516 
L 196.8522 182.552142 
z
" style="fill:#fe01ff;opacity:0.8;stroke:#000000;stroke-linejoin:miter;"/>
   </g>
   <g id="patch_170">
    <path clip-path="url(#p935ce598e1)" d="M 335.401348 186.185636 
L 320.782337 184.489529 
L 317.538703 173.653841 
L 332.967422 171.905146 
L 340.663279 178.695654 
z
" style="fill:#ff00ff;opacity:0.8;stroke:#000000;stroke-linejoin:miter;"/>
   </g>
   <g id="patch_171">
    <path clip-path="url(#p935ce598e1)" d="M 231.368511 241.455971 
L 221.29934 234.326756 
L 228.593789 222.826015 
L 233.771139 222.291056 
L 244.912469 231.290971 
z
" style="fill:#ff00ff;opacity:0.8;stroke:#000000;stroke-linejoin:miter;"/>
   </g>
   <g id="patch_172">
    <path clip-path="url(#p935ce598e1)" d="M 330.451801 147.917788 
L 347.194349 146.675504 
L 349.228444 148.16297 
L 345.209627 161.404037 
L 336.031574 162.844372 
L 328.97279 158.379493 
z
" style="fill:#ff00ff;opacity:0.8;stroke:#000000;stroke-linejoin:miter;"/>
   </g>
   <g id="patch_173">
    <path clip-path="url(#p935ce598e1)" d="M 208.740432 115.229606 
L 208.450789 117.512741 
L 194.364257 120.021367 
L 186.841822 108.39884 
L 201.387115 106.109124 
z
" style="fill:#00ffff;opacity:0.8;stroke:#000000;stroke-linejoin:miter;"/>
   </g>
   <g id="patch_174">
    <path clip-path="url(#p935ce598e1)" d="M 272.903917 131.359143 
L 279.95874 118.864148 
L 282.562158 118.142276 
L 294.524873 125.711138 
L 288.121541 134.538085 
L 274.290645 133.431137 
z
" style="fill:#ff00ff;opacity:0.8;stroke:#000000;stroke-linejoin:miter;"/>
   </g>
   <g id="patch_175">
    <path clip-path="url(#p935ce598e1)" d="M 167.735912 252.108142 
L 182.677434 262.599203 
L 170.067403 273.972927 
L 153.840922 258.403148 
z
" style="fill:#ff00ff;opacity:0.8;stroke:#000000;stroke-linejoin:miter;"/>
   </g>
   <g id="patch_176">
    <path clip-path="url(#p935ce598e1)" d="M 293.107503 143.290974 
L 290.848505 145.767291 
L 278.063743 147.247039 
L 270.838954 140.184278 
L 274.290645 133.431137 
L 288.121541 134.538085 
z
" style="fill:#00ffff;opacity:0.8;stroke:#000000;stroke-linejoin:miter;"/>
   </g>
   <g id="patch_177">
    <path clip-path="url(#p935ce598e1)" d="M 306.907886 112.688 
L 305.855147 110.497949 
L 321.416504 100.255248 
L 327.234085 101.437382 
L 331.215867 116.34344 
L 322.740033 118.124946 
z
" style="fill:#fe01ff;opacity:0.8;stroke:#000000;stroke-linejoin:miter;"/>
   </g>
   <g id="patch_178">
    <path clip-path="url(#p935ce598e1)" d="M 201.387115 106.109124 
L 186.841822 108.39884 
L 186.789704 108.380569 
L 185.60859 92.856157 
L 188.03979 90.949803 
L 194.951504 91.512843 
L 204.199448 101.620779 
z
" style="fill:#ff00ff;opacity:0.8;stroke:#000000;stroke-linejoin:miter;"/>
   </g>
   <g id="patch_179">
    <path clip-path="url(#p935ce598e1)" d="M 293.988034 157.915369 
L 297.644399 159.867455 
L 295.688578 172.075886 
L 287.831232 173.638342 
L 275.669282 164.162648 
L 276.74051 161.06153 
z
" style="fill:#00ffff;opacity:0.8;stroke:#000000;stroke-linejoin:miter;"/>
   </g>
   <g id="patch_180">
    <path clip-path="url(#p935ce598e1)" d="M 229.762461 71.372741 
L 228.292947 81.102235 
L 211.086914 84.56187 
L 206.465155 75.929817 
L 218.358938 66.251485 
z
" style="fill:#00ffff;opacity:0.8;stroke:#000000;stroke-linejoin:miter;"/>
   </g>
   <g id="patch_181">
    <path clip-path="url(#p935ce598e1)" d="M 314.303128 130.066055 
L 322.740033 118.124946 
L 331.215867 116.34344 
L 332.209002 116.749226 
L 335.32223 131.185943 
L 327.708777 134.885216 
z
" style="fill:#00ffff;opacity:0.8;stroke:#000000;stroke-linejoin:miter;"/>
   </g>
   <g id="patch_182">
    <path clip-path="url(#p935ce598e1)" d="M 224.935973 153.61052 
L 215.242157 146.651539 
L 222.864368 137.852246 
L 238.073723 145.660188 
L 237.889109 147.672115 
z
" style="fill:#fe01ff;opacity:0.8;stroke:#000000;stroke-linejoin:miter;"/>
   </g>
   <g id="patch_183">
    <path clip-path="url(#p935ce598e1)" d="M 150.695436 154.757774 
L 151.169524 165.777916 
L 143.799874 167.59059 
L 128.146246 158.513739 
L 137.01231 152.43347 
z
" style="fill:#ff00ff;opacity:0.8;stroke:#000000;stroke-linejoin:miter;"/>
   </g>
   <g id="patch_184">
    <path clip-path="url(#p935ce598e1)" d="M 272.210557 245.853869 
L 263.425761 239.956175 
L 267.983463 231.287418 
L 282.158192 231.683083 
L 284.706589 234.614692 
z
" style="fill:#00ffff;opacity:0.8;stroke:#000000;stroke-linejoin:miter;"/>
   </g>
   <g id="patch_185">
    <path clip-path="url(#p935ce598e1)" d="M 355.427757 100.268406 
L 365.89296 107.838472 
L 366.267565 108.122298 
L 371.374439 112.175229 
L 355.603697 123.409744 
L 345.522658 115.104132 
z
" style="fill:#ff00ff;opacity:0.8;stroke:#000000;stroke-linejoin:miter;"/>
   </g>
   <g id="patch_186">
    <path clip-path="url(#p935ce598e1)" d="M 208.740432 115.229606 
L 222.354032 105.631328 
L 230.061595 110.945069 
L 226.679126 119.942107 
L 212.572561 121.306937 
L 208.450789 117.512741 
z
" style="fill:#ff00ff;opacity:0.8;stroke:#000000;stroke-linejoin:miter;"/>
   </g>
   <g id="patch_187">
    <path clip-path="url(#p935ce598e1)" d="M 329.580252 208.207177 
L 333.55685 212.13661 
L 319.210293 223.727227 
L 310.789701 221.561815 
L 313.027201 209.870589 
z
" style="fill:#fe01ff;opacity:0.8;stroke:#000000;stroke-linejoin:miter;"/>
   </g>
  </g>
 </g>
 <defs>
  <clipPath id="p935ce598e1">
   <rect height="265.0032" width="357.12" x="57.6" y="41.2992"/>
  </clipPath>
 </defs>
</svg>
